<?xml version="1.0" encoding="UTF-8"?>
<svg class="textBox" preserveAspectRatio="xMinYMin meet" viewBox="0 0 332 167" version="1.1" xmlns="http://www.w3.org/2000/svg" xmlns:xlink="http://www.w3.org/1999/xlink">
    <!-- Generator: Sketch 53.2 (72643) - https://sketchapp.com -->
    <title>Group 5</title>
    <desc>Created with Sketch.</desc>
    <g id="Page-1" stroke="none" stroke-width="1" fill="none" fill-rule="evenodd">
        <g id="Enable-Notifications-Copy-4" transform="translate(-15.000000, -334.000000)">
            <g id="Group-5" transform="translate(15.000000, 334.000000)">
                <g id="Group-3" fill-rule="nonzero">
                    <path d="M9.254,67.876 C9.254,69.5093415 8.86200392,70.7599957 8.078,71.628 C7.25666256,72.5426712 6.03867474,73 4.424,73 L1.274,73 L1.274,62.836 L4.424,62.836 C7.6440161,62.836 9.254,64.5159832 9.254,67.876 Z M7.798,67.876 C7.798,66.671994 7.55066914,65.7433366 7.056,65.09 C6.50533058,64.3806631 5.65133912,64.026 4.494,64.026 L2.674,64.026 L2.674,71.796 L4.48,71.796 C5.63733912,71.796 6.4959972,71.427337 7.056,70.69 C7.55066914,70.0366634 7.798,69.0986728 7.798,67.876 Z M17.808,69.192 C17.808,70.396006 17.5326694,71.3573297 16.982,72.076 C16.3846637,72.8506705 15.5306722,73.238 14.42,73.238 C13.2999944,73.238 12.4506696,72.8506705 11.872,72.076 C11.3213306,71.3573297 11.046,70.396006 11.046,69.192 C11.046,67.9786606 11.3213306,67.0126703 11.872,66.294 C12.4600029,65.5099961 13.3093278,65.118 14.42,65.118 C15.5213388,65.118 16.3753303,65.5099961 16.982,66.294 C17.5326694,67.0126703 17.808,67.9786606 17.808,69.192 Z M16.464,69.192 C16.464,67.8293265 16.0906704,66.914669 15.344,66.448 C15.0826654,66.2893325 14.7746684,66.21 14.42,66.21 C13.4213283,66.21 12.786668,66.8213272 12.516,68.044 C12.4319996,68.4080018 12.39,68.7906647 12.39,69.192 C12.39,70.5453401 12.7633296,71.4506644 13.51,71.908 C13.7620013,72.0666675 14.0653316,72.146 14.42,72.146 C15.4373384,72.146 16.081332,71.5393394 16.352,70.326 C16.426667,69.9713316 16.464,69.5933353 16.464,69.192 Z M25.9,73 L24.584,73 L24.584,67.82 C24.584,66.7559947 24.1080048,66.224 23.156,66.224 C22.2693289,66.224 21.690668,66.7653279 21.42,67.848 C21.3359996,68.1560015 21.294,68.4733317 21.294,68.8 L21.294,73 L19.978,73 L19.978,65.356 L21.266,65.356 L21.294,66.364 C21.8446694,65.5333292 22.6053285,65.118 23.576,65.118 C24.313337,65.118 24.884998,65.3349978 25.291,65.769 C25.697002,66.2030022 25.9,66.7793297 25.9,67.498 L25.9,73 Z M30.044,64.432 C30.044,64.8893356 29.9880006,65.2673318 29.876,65.566 C29.7639994,65.8646682 29.5633348,66.1819983 29.274,66.518 C29.0873324,66.7233344 28.9100008,66.9006659 28.742,67.05 L28.196,66.476 C28.8026697,65.8973304 29.106,65.3466693 29.106,64.824 L29.106,64.698 L28.462,64.698 L28.462,62.836 L30.044,62.836 L30.044,64.432 Z M35.77,72.972 C35.5646656,73.0746672 35.1166701,73.126 34.426,73.126 C33.2313274,73.126 32.634,72.5473391 32.634,71.39 L32.634,66.42 L31.444,66.42 L31.444,65.356 L32.634,65.356 L32.634,63.452 L33.95,63.452 L33.95,65.356 L35.7,65.356 L35.7,66.42 L33.95,66.42 L33.95,71.124 C33.95,71.4413349 34.0129994,71.6699993 34.139,71.81 C34.2650006,71.9500007 34.4819985,72.02 34.79,72.02 C35.2286689,72.02 35.5226659,71.982667 35.672,71.908 L35.77,72.972 Z M51.058,73 L49.742,73 L49.742,67.82 C49.742,67.2319971 49.6113346,66.802668 49.35,66.532 C49.1353323,66.3266656 48.8413352,66.224 48.468,66.224 C47.9546641,66.224 47.5440015,66.4899973 47.236,67.022 C46.9559986,67.5073358 46.816,68.0999965 46.816,68.8 L46.816,73 L45.5,73 L45.5,67.82 C45.5,67.2133303 45.3693346,66.7840013 45.108,66.532 C44.8933323,66.3266656 44.6040018,66.224 44.24,66.224 C43.4466627,66.224 42.9286679,66.7653279 42.686,67.848 C42.611333,68.1560015 42.574,68.4733317 42.574,68.8 L42.574,73 L41.258,73 L41.258,65.356 L42.546,65.356 L42.56,66.308 C43.0453358,65.5146627 43.7453288,65.118 44.66,65.118 C45.6586717,65.118 46.3119985,65.5519957 46.62,66.42 C47.0773356,65.5519957 47.8239948,65.118 48.86,65.118 C49.5600035,65.118 50.1013314,65.3326645 50.484,65.762 C50.8666686,66.1913355 51.058,66.7513299 51.058,67.442 L51.058,73 Z M54.922,64.278 L53.606,64.278 L53.606,62.836 L54.922,62.836 L54.922,64.278 Z M54.922,73 L53.606,73 L53.606,65.356 L54.922,65.356 L54.922,73 Z M62.636,70.872 C62.636,71.6840041 62.3420029,72.2953313 61.754,72.706 C61.2406641,73.0606684 60.5686708,73.238 59.738,73.238 C58.8513289,73.238 58.1326694,73.0466686 57.582,72.664 C57.1619979,72.3746652 56.8680008,72.0013356 56.7,71.544 L57.806,70.998 C58.1606684,71.7913373 58.804662,72.188 59.738,72.188 C60.8113387,72.188 61.348,71.7820041 61.348,70.97 C61.348,70.6153316 61.212668,70.340001 60.942,70.144 C60.7646658,70.0039993 60.4660021,69.8780006 60.046,69.766 L58.94,69.458 C57.5773265,69.0753314 56.896,68.3660052 56.896,67.33 C56.896,66.5833296 57.1853304,66.014002 57.764,65.622 C58.2680025,65.2859983 58.9073295,65.118 59.682,65.118 C60.4100036,65.118 61.0306641,65.2579986 61.544,65.538 C61.9080018,65.734001 62.2159987,66.0093316 62.468,66.364 L61.516,67.106 C61.2919989,66.7233314 60.9373358,66.4433342 60.452,66.266 C60.2279989,66.191333 59.9620015,66.154 59.654,66.154 C58.6366616,66.154 58.128,66.5319962 58.128,67.288 C58.128,67.8013359 58.557329,68.1746655 59.416,68.408 L60.508,68.702 C61.1800034,68.8793342 61.6793317,69.1126652 62.006,69.402 C62.4260021,69.7660018 62.636,70.2559969 62.636,70.872 Z M69.748,70.872 C69.748,71.6840041 69.4540029,72.2953313 68.866,72.706 C68.3526641,73.0606684 67.6806708,73.238 66.85,73.238 C65.9633289,73.238 65.2446694,73.0466686 64.694,72.664 C64.2739979,72.3746652 63.9800008,72.0013356 63.812,71.544 L64.918,70.998 C65.2726684,71.7913373 65.916662,72.188 66.85,72.188 C67.9233387,72.188 68.46,71.7820041 68.46,70.97 C68.46,70.6153316 68.324668,70.340001 68.054,70.144 C67.8766658,70.0039993 67.5780021,69.8780006 67.158,69.766 L66.052,69.458 C64.6893265,69.0753314 64.008,68.3660052 64.008,67.33 C64.008,66.5833296 64.2973304,66.014002 64.876,65.622 C65.3800025,65.2859983 66.0193295,65.118 66.794,65.118 C67.5220036,65.118 68.1426641,65.2579986 68.656,65.538 C69.0200018,65.734001 69.3279987,66.0093316 69.58,66.364 L68.628,67.106 C68.4039989,66.7233314 68.0493358,66.4433342 67.564,66.266 C67.3399989,66.191333 67.0740015,66.154 66.766,66.154 C65.7486616,66.154 65.24,66.5319962 65.24,67.288 C65.24,67.8013359 65.669329,68.1746655 66.528,68.408 L67.62,68.702 C68.2920034,68.8793342 68.7913317,69.1126652 69.118,69.402 C69.5380021,69.7660018 69.748,70.2559969 69.748,70.872 Z M76.902,64.278 L75.586,64.278 L75.586,62.836 L76.902,62.836 L76.902,64.278 Z M76.902,73 L75.586,73 L75.586,65.356 L76.902,65.356 L76.902,73 Z M89.25,73 L87.934,73 L87.934,67.82 C87.934,67.2319971 87.8033346,66.802668 87.542,66.532 C87.3273323,66.3266656 87.0333352,66.224 86.66,66.224 C86.1466641,66.224 85.7360015,66.4899973 85.428,67.022 C85.1479986,67.5073358 85.008,68.0999965 85.008,68.8 L85.008,73 L83.692,73 L83.692,67.82 C83.692,67.2133303 83.5613346,66.7840013 83.3,66.532 C83.0853323,66.3266656 82.7960018,66.224 82.432,66.224 C81.6386627,66.224 81.1206679,66.7653279 80.878,67.848 C80.803333,68.1560015 80.766,68.4733317 80.766,68.8 L80.766,73 L79.45,73 L79.45,65.356 L80.738,65.356 L80.752,66.308 C81.2373358,65.5146627 81.9373288,65.118 82.852,65.118 C83.8506717,65.118 84.5039985,65.5519957 84.812,66.42 C85.2693356,65.5519957 86.0159948,65.118 87.052,65.118 C87.7520035,65.118 88.2933314,65.3326645 88.676,65.762 C89.0586686,66.1913355 89.25,66.7513299 89.25,67.442 L89.25,73 Z M98.238,69.052 C98.238,70.2373393 98.004669,71.198663 97.538,71.936 C96.9779972,72.8040043 96.1893384,73.238 95.172,73.238 C94.1453282,73.238 93.4593351,72.8553372 93.114,72.09 L93.114,75.576 L91.798,75.576 L91.798,65.356 L93.058,65.356 L93.086,66.392 C93.5806691,65.5426624 94.331995,65.118 95.34,65.118 C96.0306701,65.118 96.6186642,65.3466644 97.104,65.804 C97.5426689,66.2053353 97.8553324,66.7559965 98.042,67.456 C98.1726673,67.9413358 98.238,68.4733304 98.238,69.052 Z M96.866,69.178 C96.866,68.2913289 96.7213348,67.5866693 96.432,67.064 C96.1053317,66.4946638 95.6340031,66.21 95.018,66.21 C94.0566619,66.21 93.4453346,66.8446603 93.184,68.114 C93.109333,68.4780018 93.072,68.8466648 93.072,69.22 C93.072,70.5080064 93.4219965,71.3993309 94.122,71.894 C94.3553345,72.0620008 94.6353317,72.146 94.962,72.146 C95.6526701,72.146 96.1613317,71.8006701 96.488,71.11 C96.7400013,70.5873307 96.866,69.9433372 96.866,69.178 Z M106.792,69.192 C106.792,70.396006 106.516669,71.3573297 105.966,72.076 C105.368664,72.8506705 104.514672,73.238 103.404,73.238 C102.283994,73.238 101.43467,72.8506705 100.856,72.076 C100.305331,71.3573297 100.03,70.396006 100.03,69.192 C100.03,67.9786606 100.305331,67.0126703 100.856,66.294 C101.444003,65.5099961 102.293328,65.118 103.404,65.118 C104.505339,65.118 105.35933,65.5099961 105.966,66.294 C106.516669,67.0126703 106.792,67.9786606 106.792,69.192 Z M105.448,69.192 C105.448,67.8293265 105.07467,66.914669 104.328,66.448 C104.066665,66.2893325 103.758668,66.21 103.404,66.21 C102.405328,66.21 101.770668,66.8213272 101.5,68.044 C101.416,68.4080018 101.374,68.7906647 101.374,69.192 C101.374,70.5453401 101.74733,71.4506644 102.494,71.908 C102.746001,72.0666675 103.049332,72.146 103.404,72.146 C104.421338,72.146 105.065332,71.5393394 105.336,70.326 C105.410667,69.9713316 105.448,69.5933353 105.448,69.192 Z M112.994,65.356 L112.882,66.49 C112.629999,66.4339997 112.382668,66.406 112.14,66.406 C111.281329,66.406 110.712001,66.835329 110.432,67.694 C110.329333,67.9926682 110.278,68.3519979 110.278,68.772 L110.278,73 L108.962,73 L108.962,65.356 L110.236,65.356 L110.264,66.406 C110.702669,65.6499962 111.351329,65.272 112.21,65.272 C112.480668,65.272 112.741999,65.2999997 112.994,65.356 Z M117.768,72.972 C117.562666,73.0746672 117.11467,73.126 116.424,73.126 C115.229327,73.126 114.632,72.5473391 114.632,71.39 L114.632,66.42 L113.442,66.42 L113.442,65.356 L114.632,65.356 L114.632,63.452 L115.948,63.452 L115.948,65.356 L117.698,65.356 L117.698,66.42 L115.948,66.42 L115.948,71.124 C115.948,71.4413349 116.010999,71.6699993 116.137,71.81 C116.263001,71.9500007 116.479998,72.02 116.788,72.02 C117.226669,72.02 117.520666,71.982667 117.67,71.908 L117.768,72.972 Z M124.852,73 L123.592,73 C123.517333,72.7853323 123.466,72.5146683 123.438,72.188 C122.849997,72.8880035 122.094005,73.238 121.17,73.238 C120.432663,73.238 119.849335,73.0140022 119.42,72.566 C119.027998,72.1553313 118.832,71.6373365 118.832,71.012 C118.832,69.537326 119.685991,68.6833345 121.394,68.45 L123.326,68.184 L123.326,67.372 C123.326,66.5039957 122.836005,66.07 121.856,66.07 C121.398664,66.07 121.034668,66.1866655 120.764,66.42 C120.539999,66.616001 120.362667,66.8726651 120.232,67.19 L119.084,66.742 C119.233334,66.2939978 119.527331,65.9206682 119.966,65.622 C120.470003,65.2859983 121.099996,65.118 121.856,65.118 C123.694676,65.118 124.614,65.8739924 124.614,67.386 L124.614,71.684 C124.614,72.1693358 124.693333,72.607998 124.852,73 Z M123.326,70.466 L123.326,69.136 L121.604,69.374 C120.642662,69.5046673 120.162,70.0319954 120.162,70.956 C120.162,71.3573353 120.273999,71.6723322 120.498,71.901 C120.722001,72.1296678 121.034665,72.244 121.436,72.244 C121.958669,72.244 122.404331,72.0760017 122.773,71.74 C123.141669,71.4039983 123.326,70.9793359 123.326,70.466 Z M133.084,73 L131.768,73 L131.768,67.82 C131.768,66.7559947 131.292005,66.224 130.34,66.224 C129.453329,66.224 128.874668,66.7653279 128.604,67.848 C128.52,68.1560015 128.478,68.4733317 128.478,68.8 L128.478,73 L127.162,73 L127.162,65.356 L128.45,65.356 L128.478,66.364 C129.028669,65.5333292 129.789328,65.118 130.76,65.118 C131.497337,65.118 132.068998,65.3349978 132.475,65.769 C132.881002,66.2030022 133.084,66.7793297 133.084,67.498 L133.084,73 Z M139.062,72.972 C138.856666,73.0746672 138.40867,73.126 137.718,73.126 C136.523327,73.126 135.926,72.5473391 135.926,71.39 L135.926,66.42 L134.736,66.42 L134.736,65.356 L135.926,65.356 L135.926,63.452 L137.242,63.452 L137.242,65.356 L138.992,65.356 L138.992,66.42 L137.242,66.42 L137.242,71.124 C137.242,71.4413349 137.304999,71.6699993 137.431,71.81 C137.557001,71.9500007 137.773998,72.02 138.082,72.02 C138.520669,72.02 138.814666,71.982667 138.964,71.908 L139.062,72.972 Z M150.458,73 L149.184,73 L149.142,71.992 C148.609997,72.8226708 147.872671,73.238 146.93,73.238 C146.173996,73.238 145.588335,73.0233355 145.173,72.594 C144.757665,72.1646645 144.55,71.581337 144.55,70.844 L144.55,65.356 L145.866,65.356 L145.866,70.606 C145.866,71.6233384 146.337329,72.132 147.28,72.132 C148.157338,72.132 148.740665,71.5906721 149.03,70.508 C149.104667,70.2093318 149.142,69.8966683 149.142,69.57 L149.142,65.356 L150.458,65.356 L150.458,73 Z M159.446,69.052 C159.446,70.2373393 159.212669,71.198663 158.746,71.936 C158.185997,72.8040043 157.397338,73.238 156.38,73.238 C155.353328,73.238 154.667335,72.8553372 154.322,72.09 L154.322,75.576 L153.006,75.576 L153.006,65.356 L154.266,65.356 L154.294,66.392 C154.788669,65.5426624 155.539995,65.118 156.548,65.118 C157.23867,65.118 157.826664,65.3466644 158.312,65.804 C158.750669,66.2053353 159.063332,66.7559965 159.25,67.456 C159.380667,67.9413358 159.446,68.4733304 159.446,69.052 Z M158.074,69.178 C158.074,68.2913289 157.929335,67.5866693 157.64,67.064 C157.313332,66.4946638 156.842003,66.21 156.226,66.21 C155.264662,66.21 154.653335,66.8446603 154.392,68.114 C154.317333,68.4780018 154.28,68.8466648 154.28,69.22 C154.28,70.5080064 154.629997,71.3993309 155.33,71.894 C155.563335,72.0620008 155.843332,72.146 156.17,72.146 C156.86067,72.146 157.369332,71.8006701 157.696,71.11 C157.948001,70.5873307 158.074,69.9433372 158.074,69.178 Z M167.678,73 L166.432,73 L166.404,71.964 C165.909331,72.8133376 165.153338,73.238 164.136,73.238 C163.44533,73.238 162.857336,73.0093356 162.372,72.552 C161.933331,72.1506647 161.620668,71.6000035 161.434,70.9 C161.303333,70.4146642 161.238,69.8826696 161.238,69.304 C161.238,68.1186607 161.475998,67.1526704 161.952,66.406 C162.502669,65.547329 163.286662,65.118 164.304,65.118 C165.321338,65.118 166.007332,65.4819964 166.362,66.21 L166.362,62.836 L167.678,62.836 L167.678,73 Z M166.404,69.136 C166.404,67.8479936 166.05867,66.9566691 165.368,66.462 C165.125332,66.2939992 164.840668,66.21 164.514,66.21 C163.82333,66.21 163.314668,66.5553299 162.988,67.246 C162.735999,67.7686693 162.61,68.4126628 162.61,69.178 C162.61,70.0646711 162.754665,70.7646641 163.044,71.278 C163.370668,71.8566696 163.841997,72.146 164.458,72.146 C165.419338,72.146 166.030665,71.5066731 166.292,70.228 C166.366667,69.8733316 166.404,69.5093352 166.404,69.136 Z M175.714,73 L174.454,73 C174.379333,72.7853323 174.328,72.5146683 174.3,72.188 C173.711997,72.8880035 172.956005,73.238 172.032,73.238 C171.294663,73.238 170.711335,73.0140022 170.282,72.566 C169.889998,72.1553313 169.694,71.6373365 169.694,71.012 C169.694,69.537326 170.547991,68.6833345 172.256,68.45 L174.188,68.184 L174.188,67.372 C174.188,66.5039957 173.698005,66.07 172.718,66.07 C172.260664,66.07 171.896668,66.1866655 171.626,66.42 C171.401999,66.616001 171.224667,66.8726651 171.094,67.19 L169.946,66.742 C170.095334,66.2939978 170.389331,65.9206682 170.828,65.622 C171.332003,65.2859983 171.961996,65.118 172.718,65.118 C174.556676,65.118 175.476,65.8739924 175.476,67.386 L175.476,71.684 C175.476,72.1693358 175.555333,72.607998 175.714,73 Z M174.188,70.466 L174.188,69.136 L172.466,69.374 C171.504662,69.5046673 171.024,70.0319954 171.024,70.956 C171.024,71.3573353 171.135999,71.6723322 171.36,71.901 C171.584001,72.1296678 171.896665,72.244 172.298,72.244 C172.820669,72.244 173.266331,72.0760017 173.635,71.74 C174.003669,71.4039983 174.188,70.9793359 174.188,70.466 Z M181.454,72.972 C181.248666,73.0746672 180.80067,73.126 180.11,73.126 C178.915327,73.126 178.318,72.5473391 178.318,71.39 L178.318,66.42 L177.128,66.42 L177.128,65.356 L178.318,65.356 L178.318,63.452 L179.634,63.452 L179.634,65.356 L181.384,65.356 L181.384,66.42 L179.634,66.42 L179.634,71.124 C179.634,71.4413349 179.696999,71.6699993 179.823,71.81 C179.949001,71.9500007 180.165998,72.02 180.474,72.02 C180.912669,72.02 181.206666,71.982667 181.356,71.908 L181.454,72.972 Z M189.084,69.528 L184.016,69.528 C184.053334,70.7226726 184.407997,71.5253313 185.08,71.936 C185.322668,72.0946675 185.621332,72.174 185.976,72.174 C186.834671,72.174 187.413332,71.8100036 187.712,71.082 L188.846,71.642 C188.295331,72.7060053 187.324674,73.238 185.934,73.238 C184.869995,73.238 184.04867,72.8460039 183.47,72.062 C182.937997,71.3433297 182.672,70.3866726 182.672,69.192 C182.672,68.0346609 182.942664,67.0826704 183.484,66.336 C184.072003,65.5239959 184.893328,65.118 185.948,65.118 C186.974672,65.118 187.763331,65.4773297 188.314,66.196 C188.827336,66.8773367 189.084,67.7639945 189.084,68.856 L189.084,69.528 Z M187.74,68.548 C187.665333,67.4653279 187.348003,66.7326686 186.788,66.35 C186.563999,66.2006659 186.284002,66.126 185.948,66.126 C185.098662,66.126 184.520002,66.6439948 184.212,67.68 C184.128,67.9693348 184.072,68.2586652 184.044,68.548 L187.74,68.548 Z M196.364,70.872 C196.364,71.6840041 196.070003,72.2953313 195.482,72.706 C194.968664,73.0606684 194.296671,73.238 193.466,73.238 C192.579329,73.238 191.860669,73.0466686 191.31,72.664 C190.889998,72.3746652 190.596001,72.0013356 190.428,71.544 L191.534,70.998 C191.888668,71.7913373 192.532662,72.188 193.466,72.188 C194.539339,72.188 195.076,71.7820041 195.076,70.97 C195.076,70.6153316 194.940668,70.340001 194.67,70.144 C194.492666,70.0039993 194.194002,69.8780006 193.774,69.766 L192.668,69.458 C191.305327,69.0753314 190.624,68.3660052 190.624,67.33 C190.624,66.5833296 190.91333,66.014002 191.492,65.622 C191.996003,65.2859983 192.635329,65.118 193.41,65.118 C194.138004,65.118 194.758664,65.2579986 195.272,65.538 C195.636002,65.734001 195.943999,66.0093316 196.196,66.364 L195.244,67.106 C195.019999,66.7233314 194.665336,66.4433342 194.18,66.266 C193.955999,66.191333 193.690002,66.154 193.382,66.154 C192.364662,66.154 191.856,66.5319962 191.856,67.288 C191.856,67.8013359 192.285329,68.1746655 193.144,68.408 L194.236,68.702 C194.908003,68.8793342 195.407332,69.1126652 195.734,69.402 C196.154002,69.7660018 196.364,70.2559969 196.364,70.872 Z M208.586,69.192 C208.586,70.396006 208.310669,71.3573297 207.76,72.076 C207.162664,72.8506705 206.308672,73.238 205.198,73.238 C204.077994,73.238 203.22867,72.8506705 202.65,72.076 C202.099331,71.3573297 201.824,70.396006 201.824,69.192 C201.824,67.9786606 202.099331,67.0126703 202.65,66.294 C203.238003,65.5099961 204.087328,65.118 205.198,65.118 C206.299339,65.118 207.15333,65.5099961 207.76,66.294 C208.310669,67.0126703 208.586,67.9786606 208.586,69.192 Z M207.242,69.192 C207.242,67.8293265 206.86867,66.914669 206.122,66.448 C205.860665,66.2893325 205.552668,66.21 205.198,66.21 C204.199328,66.21 203.564668,66.8213272 203.294,68.044 C203.21,68.4080018 203.168,68.7906647 203.168,69.192 C203.168,70.5453401 203.54133,71.4506644 204.288,71.908 C204.540001,72.0666675 204.843332,72.146 205.198,72.146 C206.215338,72.146 206.859332,71.5393394 207.13,70.326 C207.204667,69.9713316 207.242,69.5933353 207.242,69.192 Z M216.678,73 L215.362,73 L215.362,67.82 C215.362,66.7559947 214.886005,66.224 213.934,66.224 C213.047329,66.224 212.468668,66.7653279 212.198,67.848 C212.114,68.1560015 212.072,68.4733317 212.072,68.8 L212.072,73 L210.756,73 L210.756,65.356 L212.044,65.356 L212.072,66.364 C212.622669,65.5333292 213.383328,65.118 214.354,65.118 C215.091337,65.118 215.662998,65.3349978 216.069,65.769 C216.475002,66.2030022 216.678,66.7793297 216.678,67.498 L216.678,73 Z M220.682,67.218 L219.1,67.218 L219.1,65.356 L220.682,65.356 L220.682,67.218 Z M220.682,73 L219.1,73 L219.1,71.138 L220.682,71.138 L220.682,73 Z" id="Don’tmissimportantupdateson:" fill="#A0A0A0"></path>
                    <path d="M14.76,0.576 L8.64,11.184 L8.64,18 L6.24,18 L6.24,11.184 L0.12,0.576 L2.736,0.576 L7.536,8.952 L12.264,0.576 L14.76,0.576 Z M28.008,11.472 C28.008,13.5360103 27.5360047,15.1839938 26.592,16.416 C25.5679949,17.7440066 24.1040095,18.408 22.2,18.408 C20.2799904,18.408 18.824005,17.7440066 17.832,16.416 C16.8879953,15.1839938 16.416,13.5360103 16.416,11.472 C16.416,9.3919896 16.8879953,7.73600616 17.832,6.504 C18.840005,5.15999328 20.2959905,4.488 22.2,4.488 C24.0880094,4.488 25.5519948,5.15999328 26.592,6.504 C27.5360047,7.73600616 28.008,9.3919896 28.008,11.472 Z M25.704,11.472 C25.704,9.13598832 25.0640064,7.568004 23.784,6.768 C23.3359978,6.49599864 22.808003,6.36 22.2,6.36 C20.4879914,6.36 19.4000023,7.40798952 18.936,9.504 C18.7919993,10.1280031 18.72,10.7839966 18.72,11.472 C18.72,13.7920116 19.3599936,15.3439961 20.64,16.128 C21.0720022,16.4000014 21.591997,16.536 22.2,16.536 C23.9440087,16.536 25.0479977,15.4960104 25.512,13.416 C25.6400006,12.807997 25.704,12.1600034 25.704,11.472 Z M41.856,18 L39.672,18 L39.6,16.272 C38.6879954,17.6960071 37.4240081,18.408 35.808,18.408 C34.5119935,18.408 33.5080036,18.0400037 32.796,17.304 C32.0839964,16.5679963 31.728,15.5680063 31.728,14.304 L31.728,4.896 L33.984,4.896 L33.984,13.896 C33.984,15.6400087 34.7919919,16.512 36.408,16.512 C37.9120075,16.512 38.9119975,15.5840093 39.408,13.728 C39.5360006,13.2159974 39.6,12.6800028 39.6,12.12 L39.6,4.896 L41.856,4.896 L41.856,18 Z M53.136,4.896 L52.944,6.84 C52.5119978,6.74399952 52.0880021,6.696 51.672,6.696 C50.1999926,6.696 49.2240024,7.43199264 48.744,8.904 C48.5679991,9.41600256 48.48,10.0319964 48.48,10.752 L48.48,18 L46.224,18 L46.224,4.896 L48.408,4.896 L48.456,6.696 C49.2080038,5.39999352 50.3199926,4.752 51.792,4.752 C52.2560023,4.752 52.7039978,4.79999952 53.136,4.896 Z M71.856,15.768 C70.9599955,17.5280088 69.3520116,18.408 67.032,18.408 C65.2079909,18.408 63.8080049,17.7200069 62.832,16.344 C61.9199954,15.0959938 61.464,13.47201 61.464,11.472 C61.464,9.43998984 61.9279954,7.79200632 62.856,6.528 C63.864005,5.1679932 65.2799909,4.488 67.104,4.488 C69.3760114,4.488 70.9519956,5.34399144 71.832,7.056 L69.984,8.184 C69.6639984,7.52799672 69.2880022,7.0600014 68.856,6.78 C68.4239978,6.4999986 67.8480036,6.36 67.128,6.36 C65.4799918,6.36 64.4320022,7.39198968 63.984,9.456 C63.8399993,10.0800031 63.768,10.7519964 63.768,11.472 C63.768,13.7600114 64.367994,15.303996 65.568,16.104 C66.0000022,16.3920014 66.519997,16.536 67.128,16.536 C68.2800058,16.536 69.1119974,16.136004 69.624,15.336 C69.7520006,15.127999 69.8639995,14.920001 69.96,14.712 L71.856,15.768 Z M84.408,18 L82.248,18 C82.1199994,17.6319982 82.0320002,17.1680028 81.984,16.608 C80.975995,17.808006 79.6800079,18.408 78.096,18.408 C76.8319937,18.408 75.8320037,18.0240038 75.096,17.256 C74.4239966,16.5519965 74.088,15.6640054 74.088,14.592 C74.088,12.0639874 75.5519854,10.600002 78.48,10.2 L81.792,9.744 L81.792,8.352 C81.792,6.86399256 80.9520084,6.12 79.272,6.12 C78.4879961,6.12 77.8640023,6.319998 77.4,6.72 C77.0159981,7.05600168 76.7120011,7.49599728 76.488,8.04 L74.52,7.272 C74.7760013,6.50399616 75.2799962,5.86400256 76.032,5.352 C76.8960043,4.77599712 77.9759935,4.488 79.272,4.488 C82.4240158,4.488 84,5.78398704 84,8.376 L84,15.744 C84,16.5760042 84.1359986,17.3279966 84.408,18 Z M81.792,13.656 L81.792,11.376 L78.84,11.784 C77.1919918,12.0080011 76.368,12.9119921 76.368,14.496 C76.368,15.1840034 76.5599981,15.723998 76.944,16.116 C77.3280019,16.508002 77.8639966,16.704 78.552,16.704 C79.4480045,16.704 80.2119968,16.4160029 80.844,15.84 C81.4760032,15.2639971 81.792,14.5360044 81.792,13.656 Z M95.28,4.896 L95.088,6.84 C94.6559978,6.74399952 94.2320021,6.696 93.816,6.696 C92.3439926,6.696 91.3680024,7.43199264 90.888,8.904 C90.7119991,9.41600256 90.624,10.0319964 90.624,10.752 L90.624,18 L88.368,18 L88.368,4.896 L90.552,4.896 L90.6,6.696 C91.3520038,5.39999352 92.4639926,4.752 93.936,4.752 C94.4000023,4.752 94.8479978,4.79999952 95.28,4.896 Z M106.512,3.048 L104.256,3.048 L104.256,0.576 L106.512,0.576 L106.512,3.048 Z M106.512,18 L104.256,18 L104.256,4.896 L106.512,4.896 L106.512,18 Z M119.736,14.352 C119.736,15.744007 119.232005,16.7919965 118.224,17.496 C117.343996,18.104003 116.192007,18.408 114.768,18.408 C113.247992,18.408 112.016005,18.0800033 111.072,17.424 C110.351996,16.9279975 109.848001,16.2880039 109.56,15.504 L111.456,14.568 C112.064003,15.9280068 113.167992,16.608 114.768,16.608 C116.608009,16.608 117.528,15.912007 117.528,14.52 C117.528,13.911997 117.296002,13.4400017 116.832,13.104 C116.527998,12.8639988 116.016004,12.648001 115.296,12.456 L113.4,11.928 C111.063988,11.2719967 109.896,10.0560089 109.896,8.28 C109.896,6.9999936 110.391995,6.02400336 111.384,5.352 C112.248004,4.77599712 113.343993,4.488 114.672,4.488 C115.920006,4.488 116.983996,4.7279976 117.864,5.208 C118.488003,5.54400168 119.015998,6.01599696 119.448,6.624 L117.816,7.896 C117.431998,7.23999672 116.824004,6.76000152 115.992,6.456 C115.607998,6.32799936 115.152003,6.264 114.624,6.264 C112.879991,6.264 112.008,6.91199352 112.008,8.208 C112.008,9.0880044 112.743993,9.727998 114.216,10.128 L116.088,10.632 C117.240006,10.9360015 118.095997,11.3359975 118.656,11.832 C119.376004,12.4560031 119.736,13.2959947 119.736,14.352 Z M139.488,15.768 C138.591996,17.5280088 136.984012,18.408 134.664,18.408 C132.839991,18.408 131.440005,17.7200069 130.464,16.344 C129.551995,15.0959938 129.096,13.47201 129.096,11.472 C129.096,9.43998984 129.559995,7.79200632 130.488,6.528 C131.496005,5.1679932 132.911991,4.488 134.736,4.488 C137.008011,4.488 138.583996,5.34399144 139.464,7.056 L137.616,8.184 C137.295998,7.52799672 136.920002,7.0600014 136.488,6.78 C136.055998,6.4999986 135.480004,6.36 134.76,6.36 C133.111992,6.36 132.064002,7.39198968 131.616,9.456 C131.471999,10.0800031 131.4,10.7519964 131.4,11.472 C131.4,13.7600114 131.999994,15.303996 133.2,16.104 C133.632002,16.3920014 134.151997,16.536 134.76,16.536 C135.912006,16.536 136.743997,16.136004 137.256,15.336 C137.384001,15.127999 137.496,14.920001 137.592,14.712 L139.488,15.768 Z M152.04,18 L149.88,18 C149.751999,17.6319982 149.664,17.1680028 149.616,16.608 C148.607995,17.808006 147.312008,18.408 145.728,18.408 C144.463994,18.408 143.464004,18.0240038 142.728,17.256 C142.055997,16.5519965 141.72,15.6640054 141.72,14.592 C141.72,12.0639874 143.183985,10.600002 146.112,10.2 L149.424,9.744 L149.424,8.352 C149.424,6.86399256 148.584008,6.12 146.904,6.12 C146.119996,6.12 145.496002,6.319998 145.032,6.72 C144.647998,7.05600168 144.344001,7.49599728 144.12,8.04 L142.152,7.272 C142.408001,6.50399616 142.911996,5.86400256 143.664,5.352 C144.528004,4.77599712 145.607994,4.488 146.904,4.488 C150.056016,4.488 151.632,5.78398704 151.632,8.376 L151.632,15.744 C151.632,16.5760042 151.767999,17.3279966 152.04,18 Z M149.424,13.656 L149.424,11.376 L146.472,11.784 C144.823992,12.0080011 144,12.9119921 144,14.496 C144,15.1840034 144.191998,15.723998 144.576,16.116 C144.960002,16.508002 145.495997,16.704 146.184,16.704 C147.080004,16.704 147.843997,16.4160029 148.476,15.84 C149.108003,15.2639971 149.424,14.5360044 149.424,13.656 Z M158.256,18 L156,18 L156,0.576 L158.256,0.576 L158.256,18 Z M164.88,18 L162.624,18 L162.624,0.576 L164.88,0.576 L164.88,18 Z M171.504,3.048 L169.248,3.048 L169.248,0.576 L171.504,0.576 L171.504,3.048 Z M171.504,18 L169.248,18 L169.248,4.896 L171.504,4.896 L171.504,18 Z M186.024,18 L183.768,18 L183.768,9.12 C183.768,7.29599088 182.952008,6.384 181.32,6.384 C179.799992,6.384 178.808002,7.31199072 178.344,9.168 C178.199999,9.69600264 178.128,10.2399972 178.128,10.8 L178.128,18 L175.872,18 L175.872,4.896 L178.08,4.896 L178.128,6.624 C179.072005,5.19999288 180.375992,4.488 182.04,4.488 C183.304006,4.488 184.283997,4.85999628 184.98,5.604 C185.676003,6.34800372 186.024,7.33599384 186.024,8.568 L186.024,18 Z M200.784,17.208 C200.784,19.000009 200.248005,20.3439955 199.176,21.24 C198.215995,22.0240039 196.896008,22.416 195.216,22.416 C193.839993,22.416 192.648005,22.2080021 191.64,21.792 C191.047997,21.5519988 190.632001,21.3120012 190.392,21.072 L191.544,19.512 C191.736001,19.6400006 192.071998,19.8319987 192.552,20.088 C193.320004,20.3920015 194.191995,20.544 195.168,20.544 C196.400006,20.544 197.287997,20.2240032 197.832,19.584 C198.296002,19.0399973 198.528,18.2080056 198.528,17.088 L198.528,14.976 C197.743996,16.4320073 196.472009,17.16 194.712,17.16 C192.999991,17.16 191.712004,16.5280063 190.848,15.264 C190.111996,14.1759946 189.744,12.728009 189.744,10.92 C189.744,8.96799024 190.151996,7.44000552 190.968,6.336 C191.864004,5.10399384 193.207991,4.488 195,4.488 C195.736004,4.488 196.415997,4.63999848 197.04,4.944 C197.744004,5.28000168 198.247998,5.75199696 198.552,6.36 L198.6,4.896 L200.784,4.896 L200.784,17.208 Z M198.6,10.632 C198.6,8.63199 198.008006,7.3120032 196.824,6.672 C196.407998,6.46399896 195.920003,6.36 195.36,6.36 C193.183989,6.36 192.096,7.86398496 192.096,10.872 C192.096,12.264007 192.343998,13.3279963 192.84,14.064 C193.384003,14.8800041 194.191995,15.288 195.264,15.288 C196.928008,15.288 197.975998,14.3360095 198.408,12.432 C198.536001,11.8719972 198.6,11.2720032 198.6,10.632 Z" id="Yourcariscalling" fill="#FFFFFF"></path>
                    <polygon id="Hi---Lite-Bar" fill="#404648" points="0 39 0 35 78 35 75.1111111 39"></polygon>
                    <path d="M31.61,95.836 L28.04,102.024 L28.04,106 L26.64,106 L26.64,102.024 L23.07,95.836 L24.596,95.836 L27.396,100.722 L30.154,95.836 L31.61,95.836 Z M39.338,102.192 C39.338,103.396006 39.0626694,104.35733 38.512,105.076 C37.9146637,105.850671 37.0606722,106.238 35.95,106.238 C34.8299944,106.238 33.9806696,105.850671 33.402,105.076 C32.8513306,104.35733 32.576,103.396006 32.576,102.192 C32.576,100.978661 32.8513306,100.01267 33.402,99.294 C33.9900029,98.5099961 34.8393278,98.118 35.95,98.118 C37.0513388,98.118 37.9053303,98.5099961 38.512,99.294 C39.0626694,100.01267 39.338,100.978661 39.338,102.192 Z M37.994,102.192 C37.994,100.829327 37.6206704,99.914669 36.874,99.448 C36.6126654,99.2893325 36.3046684,99.21 35.95,99.21 C34.9513283,99.21 34.316668,99.8213272 34.046,101.044 C33.9619996,101.408002 33.92,101.790665 33.92,102.192 C33.92,103.54534 34.2933296,104.450664 35.04,104.908 C35.2920013,105.066667 35.5953316,105.146 35.95,105.146 C36.9673384,105.146 37.611332,104.539339 37.882,103.326 C37.956667,102.971332 37.994,102.593335 37.994,102.192 Z M47.416,106 L46.142,106 L46.1,104.992 C45.5679973,105.822671 44.8306714,106.238 43.888,106.238 C43.1319962,106.238 42.5463354,106.023335 42.131,105.594 C41.7156646,105.164665 41.508,104.581337 41.508,103.844 L41.508,98.356 L42.824,98.356 L42.824,103.606 C42.824,104.623338 43.2953286,105.132 44.238,105.132 C45.1153377,105.132 45.6986652,104.590672 45.988,103.508 C46.062667,103.209332 46.1,102.896668 46.1,102.57 L46.1,98.356 L47.416,98.356 L47.416,106 Z M53.996,98.356 L53.884,99.49 C53.6319987,99.4339997 53.3846679,99.406 53.142,99.406 C52.283329,99.406 51.7140014,99.835329 51.434,100.694 C51.3313328,100.992668 51.28,101.351998 51.28,101.772 L51.28,106 L49.964,106 L49.964,98.356 L51.238,98.356 L51.266,99.406 C51.7046689,98.6499962 52.353329,98.272 53.212,98.272 C53.482668,98.272 53.7439987,98.2999997 53.996,98.356 Z M64.65,98.356 L62.2,106 L60.562,106 L58.126,98.356 L59.512,98.356 L61.416,104.74 L63.32,98.356 L64.65,98.356 Z M72.126,102.528 L67.058,102.528 C67.0953335,103.722673 67.4499966,104.525331 68.122,104.936 C68.3646679,105.094667 68.6633316,105.174 69.018,105.174 C69.876671,105.174 70.4553318,104.810004 70.754,104.082 L71.888,104.642 C71.3373306,105.706005 70.3666736,106.238 68.976,106.238 C67.9119947,106.238 67.0906696,105.846004 66.512,105.062 C65.9799973,104.34333 65.714,103.386673 65.714,102.192 C65.714,101.034661 65.984664,100.08267 66.526,99.336 C67.1140029,98.5239959 67.9353281,98.118 68.99,98.118 C70.0166718,98.118 70.8053306,98.4773297 71.356,99.196 C71.8693359,99.8773367 72.126,100.763995 72.126,101.856 L72.126,102.528 Z M70.782,101.548 C70.707333,100.465328 70.3900028,99.7326686 69.83,99.35 C69.6059989,99.2006659 69.3260017,99.126 68.99,99.126 C68.1406624,99.126 67.5620015,99.6439948 67.254,100.68 C67.1699996,100.969335 67.1140001,101.258665 67.086,101.548 L70.782,101.548 Z M80.148,106 L78.832,106 L78.832,100.82 C78.832,99.7559947 78.3560048,99.224 77.404,99.224 C76.5079955,99.224 75.9293346,99.7653279 75.668,100.848 C75.593333,101.156002 75.556,101.473332 75.556,101.8 L75.556,106 L74.24,106 L74.24,95.836 L75.556,95.836 L75.556,99.266 C76.097336,98.5006628 76.8533285,98.118 77.824,98.118 C78.561337,98.118 79.132998,98.3349978 79.539,98.769 C79.945002,99.2030022 80.148,99.7793297 80.148,100.498 L80.148,106 Z M84.012,97.278 L82.696,97.278 L82.696,95.836 L84.012,95.836 L84.012,97.278 Z M84.012,106 L82.696,106 L82.696,98.356 L84.012,98.356 L84.012,106 Z M92.244,104.698 C91.7213307,105.724672 90.7833401,106.238 89.43,106.238 C88.3659947,106.238 87.5493362,105.836671 86.98,105.034 C86.4479973,104.305996 86.182,103.358673 86.182,102.192 C86.182,101.006661 86.452664,100.045337 86.994,99.308 C87.5820029,98.5146627 88.4079947,98.118 89.472,98.118 C90.79734,98.118 91.7166641,98.6173283 92.23,99.616 L91.152,100.274 C90.9653324,99.8913314 90.7460013,99.6183342 90.494,99.455 C90.2419987,99.2916659 89.9060021,99.21 89.486,99.21 C88.5246619,99.21 87.9133346,99.811994 87.652,101.016 C87.5679996,101.380002 87.526,101.771998 87.526,102.192 C87.526,103.526673 87.8759965,104.427331 88.576,104.894 C88.8280013,105.062001 89.1313316,105.146 89.486,105.146 C90.1580034,105.146 90.6433318,104.912669 90.942,104.446 C91.016667,104.324666 91.0819997,104.203334 91.138,104.082 L92.244,104.698 Z M95.394,106 L94.078,106 L94.078,95.836 L95.394,95.836 L95.394,106 Z M103.976,102.528 L98.908,102.528 C98.9453335,103.722673 99.2999966,104.525331 99.972,104.936 C100.214668,105.094667 100.513332,105.174 100.868,105.174 C101.726671,105.174 102.305332,104.810004 102.604,104.082 L103.738,104.642 C103.187331,105.706005 102.216674,106.238 100.826,106.238 C99.7619947,106.238 98.9406696,105.846004 98.362,105.062 C97.8299973,104.34333 97.564,103.386673 97.564,102.192 C97.564,101.034661 97.834664,100.08267 98.376,99.336 C98.9640029,98.5239959 99.7853281,98.118 100.84,98.118 C101.866672,98.118 102.655331,98.4773297 103.206,99.196 C103.719336,99.8773367 103.976,100.763995 103.976,101.856 L103.976,102.528 Z M102.632,101.548 C102.557333,100.465328 102.240003,99.7326686 101.68,99.35 C101.455999,99.2006659 101.176002,99.126 100.84,99.126 C99.9906624,99.126 99.4120015,99.6439948 99.104,100.68 C99.0199996,100.969335 98.9640001,101.258665 98.936,101.548 L102.632,101.548 Z M107.686,97.432 C107.686,97.8893356 107.630001,98.2673318 107.518,98.566 C107.405999,98.8646682 107.205335,99.1819983 106.916,99.518 C106.729332,99.7233344 106.552001,99.9006659 106.384,100.05 L105.838,99.476 C106.44467,98.8973304 106.748,98.3466693 106.748,97.824 L106.748,97.698 L106.104,97.698 L106.104,95.836 L107.686,95.836 L107.686,97.432 Z M115.148,103.872 C115.148,104.684004 114.854003,105.295331 114.266,105.706 C113.752664,106.060668 113.080671,106.238 112.25,106.238 C111.363329,106.238 110.644669,106.046669 110.094,105.664 C109.673998,105.374665 109.380001,105.001336 109.212,104.544 L110.318,103.998 C110.672668,104.791337 111.316662,105.188 112.25,105.188 C113.323339,105.188 113.86,104.782004 113.86,103.97 C113.86,103.615332 113.724668,103.340001 113.454,103.144 C113.276666,103.003999 112.978002,102.878001 112.558,102.766 L111.452,102.458 C110.089327,102.075331 109.408,101.366005 109.408,100.33 C109.408,99.5833296 109.69733,99.014002 110.276,98.622 C110.780003,98.2859983 111.419329,98.118 112.194,98.118 C112.922004,98.118 113.542664,98.2579986 114.056,98.538 C114.420002,98.734001 114.727999,99.0093316 114.98,99.364 L114.028,100.106 C113.803999,99.7233314 113.449336,99.4433342 112.964,99.266 C112.739999,99.191333 112.474002,99.154 112.166,99.154 C111.148662,99.154 110.64,99.5319962 110.64,100.288 C110.64,100.801336 111.069329,101.174666 111.928,101.408 L113.02,101.702 C113.692003,101.879334 114.191332,102.112665 114.518,102.402 C114.938002,102.766002 115.148,103.255997 115.148,103.872 Z M126.152,103.872 C126.152,104.684004 125.858003,105.295331 125.27,105.706 C124.756664,106.060668 124.084671,106.238 123.254,106.238 C122.367329,106.238 121.648669,106.046669 121.098,105.664 C120.677998,105.374665 120.384001,105.001336 120.216,104.544 L121.322,103.998 C121.676668,104.791337 122.320662,105.188 123.254,105.188 C124.327339,105.188 124.864,104.782004 124.864,103.97 C124.864,103.615332 124.728668,103.340001 124.458,103.144 C124.280666,103.003999 123.982002,102.878001 123.562,102.766 L122.456,102.458 C121.093327,102.075331 120.412,101.366005 120.412,100.33 C120.412,99.5833296 120.70133,99.014002 121.28,98.622 C121.784003,98.2859983 122.423329,98.118 123.198,98.118 C123.926004,98.118 124.546664,98.2579986 125.06,98.538 C125.424002,98.734001 125.731999,99.0093316 125.984,99.364 L125.032,100.106 C124.807999,99.7233314 124.453336,99.4433342 123.968,99.266 C123.743999,99.191333 123.478002,99.154 123.17,99.154 C122.152662,99.154 121.644,99.5319962 121.644,100.288 C121.644,100.801336 122.073329,101.174666 122.932,101.408 L124.024,101.702 C124.696003,101.879334 125.195332,102.112665 125.522,102.402 C125.942002,102.766002 126.152,103.255997 126.152,103.872 Z M131.528,105.972 C131.322666,106.074667 130.87467,106.126 130.184,106.126 C128.989327,106.126 128.392,105.547339 128.392,104.39 L128.392,99.42 L127.202,99.42 L127.202,98.356 L128.392,98.356 L128.392,96.452 L129.708,96.452 L129.708,98.356 L131.458,98.356 L131.458,99.42 L129.708,99.42 L129.708,104.124 C129.708,104.441335 129.770999,104.669999 129.897,104.81 C130.023001,104.950001 130.239998,105.02 130.548,105.02 C130.986669,105.02 131.280666,104.982667 131.43,104.908 L131.528,105.972 Z M138.612,106 L137.352,106 C137.277333,105.785332 137.226,105.514668 137.198,105.188 C136.609997,105.888004 135.854005,106.238 134.93,106.238 C134.192663,106.238 133.609335,106.014002 133.18,105.566 C132.787998,105.155331 132.592,104.637336 132.592,104.012 C132.592,102.537326 133.445991,101.683335 135.154,101.45 L137.086,101.184 L137.086,100.372 C137.086,99.5039957 136.596005,99.07 135.616,99.07 C135.158664,99.07 134.794668,99.1866655 134.524,99.42 C134.299999,99.616001 134.122667,99.8726651 133.992,100.19 L132.844,99.742 C132.993334,99.2939978 133.287331,98.9206682 133.726,98.622 C134.230003,98.2859983 134.859996,98.118 135.616,98.118 C137.454676,98.118 138.374,98.8739924 138.374,100.386 L138.374,104.684 C138.374,105.169336 138.453333,105.607998 138.612,106 Z M137.086,103.466 L137.086,102.136 L135.364,102.374 C134.402662,102.504667 133.922,103.031995 133.922,103.956 C133.922,104.357335 134.033999,104.672332 134.258,104.901 C134.482001,105.129668 134.794665,105.244 135.196,105.244 C135.718669,105.244 136.164331,105.076002 136.533,104.74 C136.901669,104.403998 137.086,103.979336 137.086,103.466 Z M144.352,105.972 C144.146666,106.074667 143.69867,106.126 143.008,106.126 C141.813327,106.126 141.216,105.547339 141.216,104.39 L141.216,99.42 L140.026,99.42 L140.026,98.356 L141.216,98.356 L141.216,96.452 L142.532,96.452 L142.532,98.356 L144.282,98.356 L144.282,99.42 L142.532,99.42 L142.532,104.124 C142.532,104.441335 142.594999,104.669999 142.721,104.81 C142.847001,104.950001 143.063998,105.02 143.372,105.02 C143.810669,105.02 144.104666,104.982667 144.254,104.908 L144.352,105.972 Z M151.856,106 L150.582,106 L150.54,104.992 C150.007997,105.822671 149.270671,106.238 148.328,106.238 C147.571996,106.238 146.986335,106.023335 146.571,105.594 C146.155665,105.164665 145.948,104.581337 145.948,103.844 L145.948,98.356 L147.264,98.356 L147.264,103.606 C147.264,104.623338 147.735329,105.132 148.678,105.132 C149.555338,105.132 150.138665,104.590672 150.428,103.508 C150.502667,103.209332 150.54,102.896668 150.54,102.57 L150.54,98.356 L151.856,98.356 L151.856,106 Z M159.57,103.872 C159.57,104.684004 159.276003,105.295331 158.688,105.706 C158.174664,106.060668 157.502671,106.238 156.672,106.238 C155.785329,106.238 155.066669,106.046669 154.516,105.664 C154.095998,105.374665 153.802001,105.001336 153.634,104.544 L154.74,103.998 C155.094668,104.791337 155.738662,105.188 156.672,105.188 C157.745339,105.188 158.282,104.782004 158.282,103.97 C158.282,103.615332 158.146668,103.340001 157.876,103.144 C157.698666,103.003999 157.400002,102.878001 156.98,102.766 L155.874,102.458 C154.511327,102.075331 153.83,101.366005 153.83,100.33 C153.83,99.5833296 154.11933,99.014002 154.698,98.622 C155.202003,98.2859983 155.841329,98.118 156.616,98.118 C157.344004,98.118 157.964664,98.2579986 158.478,98.538 C158.842002,98.734001 159.149999,99.0093316 159.402,99.364 L158.45,100.106 C158.225999,99.7233314 157.871336,99.4433342 157.386,99.266 C157.161999,99.191333 156.896002,99.154 156.588,99.154 C155.570662,99.154 155.062,99.5319962 155.062,100.288 C155.062,100.801336 155.491329,101.174666 156.35,101.408 L157.442,101.702 C158.114003,101.879334 158.613332,102.112665 158.94,102.402 C159.360002,102.766002 159.57,103.255997 159.57,103.872 Z M170.896,106 L169.636,106 C169.561333,105.785332 169.51,105.514668 169.482,105.188 C168.893997,105.888004 168.138005,106.238 167.214,106.238 C166.476663,106.238 165.893335,106.014002 165.464,105.566 C165.071998,105.155331 164.876,104.637336 164.876,104.012 C164.876,102.537326 165.729991,101.683335 167.438,101.45 L169.37,101.184 L169.37,100.372 C169.37,99.5039957 168.880005,99.07 167.9,99.07 C167.442664,99.07 167.078668,99.1866655 166.808,99.42 C166.583999,99.616001 166.406667,99.8726651 166.276,100.19 L165.128,99.742 C165.277334,99.2939978 165.571331,98.9206682 166.01,98.622 C166.514003,98.2859983 167.143996,98.118 167.9,98.118 C169.738676,98.118 170.658,98.8739924 170.658,100.386 L170.658,104.684 C170.658,105.169336 170.737333,105.607998 170.896,106 Z M169.37,103.466 L169.37,102.136 L167.648,102.374 C166.686662,102.504667 166.206,103.031995 166.206,103.956 C166.206,104.357335 166.317999,104.672332 166.542,104.901 C166.766001,105.129668 167.078665,105.244 167.48,105.244 C168.002669,105.244 168.448331,105.076002 168.817,104.74 C169.185669,104.403998 169.37,103.979336 169.37,103.466 Z M179.128,106 L177.812,106 L177.812,100.82 C177.812,99.7559947 177.336005,99.224 176.384,99.224 C175.497329,99.224 174.918668,99.7653279 174.648,100.848 C174.564,101.156002 174.522,101.473332 174.522,101.8 L174.522,106 L173.206,106 L173.206,98.356 L174.494,98.356 L174.522,99.364 C175.072669,98.5333292 175.833328,98.118 176.804,98.118 C177.541337,98.118 178.112998,98.3349978 178.519,98.769 C178.925002,99.2030022 179.128,99.7793297 179.128,100.498 L179.128,106 Z M187.738,106 L186.492,106 L186.464,104.964 C185.969331,105.813338 185.213338,106.238 184.196,106.238 C183.50533,106.238 182.917336,106.009336 182.432,105.552 C181.993331,105.150665 181.680668,104.600004 181.494,103.9 C181.363333,103.414664 181.298,102.88267 181.298,102.304 C181.298,101.118661 181.535998,100.15267 182.012,99.406 C182.562669,98.547329 183.346662,98.118 184.364,98.118 C185.381338,98.118 186.067332,98.4819964 186.422,99.21 L186.422,95.836 L187.738,95.836 L187.738,106 Z M186.464,102.136 C186.464,100.847994 186.11867,99.9566691 185.428,99.462 C185.185332,99.2939992 184.900668,99.21 184.574,99.21 C183.88333,99.21 183.374668,99.5553299 183.048,100.246 C182.795999,100.768669 182.67,101.412663 182.67,102.178 C182.67,103.064671 182.814665,103.764664 183.104,104.278 C183.430668,104.85667 183.901997,105.146 184.518,105.146 C185.479338,105.146 186.090665,104.506673 186.352,103.228 C186.426667,102.873332 186.464,102.509335 186.464,102.136 Z M199.344,103.872 C199.344,104.684004 199.050003,105.295331 198.462,105.706 C197.948664,106.060668 197.276671,106.238 196.446,106.238 C195.559329,106.238 194.840669,106.046669 194.29,105.664 C193.869998,105.374665 193.576001,105.001336 193.408,104.544 L194.514,103.998 C194.868668,104.791337 195.512662,105.188 196.446,105.188 C197.519339,105.188 198.056,104.782004 198.056,103.97 C198.056,103.615332 197.920668,103.340001 197.65,103.144 C197.472666,103.003999 197.174002,102.878001 196.754,102.766 L195.648,102.458 C194.285327,102.075331 193.604,101.366005 193.604,100.33 C193.604,99.5833296 193.89333,99.014002 194.472,98.622 C194.976003,98.2859983 195.615329,98.118 196.39,98.118 C197.118004,98.118 197.738664,98.2579986 198.252,98.538 C198.616002,98.734001 198.923999,99.0093316 199.176,99.364 L198.224,100.106 C197.999999,99.7233314 197.645336,99.4433342 197.16,99.266 C196.935999,99.191333 196.670002,99.154 196.362,99.154 C195.344662,99.154 194.836,99.5319962 194.836,100.288 C194.836,100.801336 195.265329,101.174666 196.124,101.408 L197.216,101.702 C197.888003,101.879334 198.387332,102.112665 198.714,102.402 C199.134002,102.766002 199.344,103.255997 199.344,103.872 Z M207.324,102.528 L202.256,102.528 C202.293334,103.722673 202.647997,104.525331 203.32,104.936 C203.562668,105.094667 203.861332,105.174 204.216,105.174 C205.074671,105.174 205.653332,104.810004 205.952,104.082 L207.086,104.642 C206.535331,105.706005 205.564674,106.238 204.174,106.238 C203.109995,106.238 202.28867,105.846004 201.71,105.062 C201.177997,104.34333 200.912,103.386673 200.912,102.192 C200.912,101.034661 201.182664,100.08267 201.724,99.336 C202.312003,98.5239959 203.133328,98.118 204.188,98.118 C205.214672,98.118 206.003331,98.4773297 206.554,99.196 C207.067336,99.8773367 207.324,100.763995 207.324,101.856 L207.324,102.528 Z M205.98,101.548 C205.905333,100.465328 205.588003,99.7326686 205.028,99.35 C204.803999,99.2006659 204.524002,99.126 204.188,99.126 C203.338662,99.126 202.760002,99.6439948 202.452,100.68 C202.368,100.969335 202.312,101.258665 202.284,101.548 L205.98,101.548 Z M213.47,98.356 L213.358,99.49 C213.105999,99.4339997 212.858668,99.406 212.616,99.406 C211.757329,99.406 211.188001,99.835329 210.908,100.694 C210.805333,100.992668 210.754,101.351998 210.754,101.772 L210.754,106 L209.438,106 L209.438,98.356 L210.712,98.356 L210.74,99.406 C211.178669,98.6499962 211.827329,98.272 212.686,98.272 C212.956668,98.272 213.217999,98.2999997 213.47,98.356 Z M220.232,98.356 L217.782,106 L216.144,106 L213.708,98.356 L215.094,98.356 L216.998,104.74 L218.902,98.356 L220.232,98.356 Z M222.99,97.278 L221.674,97.278 L221.674,95.836 L222.99,95.836 L222.99,97.278 Z M222.99,106 L221.674,106 L221.674,98.356 L222.99,98.356 L222.99,106 Z M231.222,104.698 C230.699331,105.724672 229.76134,106.238 228.408,106.238 C227.343995,106.238 226.527336,105.836671 225.958,105.034 C225.425997,104.305996 225.16,103.358673 225.16,102.192 C225.16,101.006661 225.430664,100.045337 225.972,99.308 C226.560003,98.5146627 227.385995,98.118 228.45,98.118 C229.77534,98.118 230.694664,98.6173283 231.208,99.616 L230.13,100.274 C229.943332,99.8913314 229.724001,99.6183342 229.472,99.455 C229.219999,99.2916659 228.884002,99.21 228.464,99.21 C227.502662,99.21 226.891335,99.811994 226.63,101.016 C226.546,101.380002 226.504,101.771998 226.504,102.192 C226.504,103.526673 226.853996,104.427331 227.554,104.894 C227.806001,105.062001 228.109332,105.146 228.464,105.146 C229.136003,105.146 229.621332,104.912669 229.92,104.446 C229.994667,104.324666 230.06,104.203334 230.116,104.082 L231.222,104.698 Z M239.09,102.528 L234.022,102.528 C234.059334,103.722673 234.413997,104.525331 235.086,104.936 C235.328668,105.094667 235.627332,105.174 235.982,105.174 C236.840671,105.174 237.419332,104.810004 237.718,104.082 L238.852,104.642 C238.301331,105.706005 237.330674,106.238 235.94,106.238 C234.875995,106.238 234.05467,105.846004 233.476,105.062 C232.943997,104.34333 232.678,103.386673 232.678,102.192 C232.678,101.034661 232.948664,100.08267 233.49,99.336 C234.078003,98.5239959 234.899328,98.118 235.954,98.118 C236.980672,98.118 237.769331,98.4773297 238.32,99.196 C238.833336,99.8773367 239.09,100.763995 239.09,101.856 L239.09,102.528 Z M237.746,101.548 C237.671333,100.465328 237.354003,99.7326686 236.794,99.35 C236.569999,99.2006659 236.290002,99.126 235.954,99.126 C235.104662,99.126 234.526002,99.6439948 234.218,100.68 C234.134,100.969335 234.078,101.258665 234.05,101.548 L237.746,101.548 Z M251.018,106 L249.702,106 L249.702,100.82 C249.702,99.7559947 249.226005,99.224 248.274,99.224 C247.387329,99.224 246.808668,99.7653279 246.538,100.848 C246.454,101.156002 246.412,101.473332 246.412,101.8 L246.412,106 L245.096,106 L245.096,98.356 L246.384,98.356 L246.412,99.364 C246.962669,98.5333292 247.723328,98.118 248.694,98.118 C249.431337,98.118 250.002998,98.3349978 250.409,98.769 C250.815002,99.2030022 251.018,99.7793297 251.018,100.498 L251.018,106 Z M259.6,102.528 L254.532,102.528 C254.569334,103.722673 254.923997,104.525331 255.596,104.936 C255.838668,105.094667 256.137332,105.174 256.492,105.174 C257.350671,105.174 257.929332,104.810004 258.228,104.082 L259.362,104.642 C258.811331,105.706005 257.840674,106.238 256.45,106.238 C255.385995,106.238 254.56467,105.846004 253.986,105.062 C253.453997,104.34333 253.188,103.386673 253.188,102.192 C253.188,101.034661 253.458664,100.08267 254,99.336 C254.588003,98.5239959 255.409328,98.118 256.464,98.118 C257.490672,98.118 258.279331,98.4773297 258.83,99.196 C259.343336,99.8773367 259.6,100.763995 259.6,101.856 L259.6,102.528 Z M258.256,101.548 C258.181333,100.465328 257.864003,99.7326686 257.304,99.35 C257.079999,99.2006659 256.800002,99.126 256.464,99.126 C255.614662,99.126 255.036002,99.6439948 254.728,100.68 C254.644,100.969335 254.588,101.258665 254.56,101.548 L258.256,101.548 Z M267.748,102.528 L262.68,102.528 C262.717334,103.722673 263.071997,104.525331 263.744,104.936 C263.986668,105.094667 264.285332,105.174 264.64,105.174 C265.498671,105.174 266.077332,104.810004 266.376,104.082 L267.51,104.642 C266.959331,105.706005 265.988674,106.238 264.598,106.238 C263.533995,106.238 262.71267,105.846004 262.134,105.062 C261.601997,104.34333 261.336,103.386673 261.336,102.192 C261.336,101.034661 261.606664,100.08267 262.148,99.336 C262.736003,98.5239959 263.557328,98.118 264.612,98.118 C265.638672,98.118 266.427331,98.4773297 266.978,99.196 C267.491336,99.8773367 267.748,100.763995 267.748,101.856 L267.748,102.528 Z M266.404,101.548 C266.329333,100.465328 266.012003,99.7326686 265.452,99.35 C265.227999,99.2006659 264.948002,99.126 264.612,99.126 C263.762662,99.126 263.184002,99.6439948 262.876,100.68 C262.792,100.969335 262.736,101.258665 262.708,101.548 L266.404,101.548 Z M275.924,106 L274.678,106 L274.65,104.964 C274.155331,105.813338 273.399338,106.238 272.382,106.238 C271.69133,106.238 271.103336,106.009336 270.618,105.552 C270.179331,105.150665 269.866668,104.600004 269.68,103.9 C269.549333,103.414664 269.484,102.88267 269.484,102.304 C269.484,101.118661 269.721998,100.15267 270.198,99.406 C270.748669,98.547329 271.532662,98.118 272.55,98.118 C273.567338,98.118 274.253332,98.4819964 274.608,99.21 L274.608,95.836 L275.924,95.836 L275.924,106 Z M274.65,102.136 C274.65,100.847994 274.30467,99.9566691 273.614,99.462 C273.371332,99.2939992 273.086668,99.21 272.76,99.21 C272.06933,99.21 271.560668,99.5553299 271.234,100.246 C270.981999,100.768669 270.856,101.412663 270.856,102.178 C270.856,103.064671 271.000665,103.764664 271.29,104.278 C271.616668,104.85667 272.087997,105.146 272.704,105.146 C273.665338,105.146 274.276665,104.506673 274.538,103.228 C274.612667,102.873332 274.65,102.509335 274.65,102.136 Z M283.638,103.872 C283.638,104.684004 283.344003,105.295331 282.756,105.706 C282.242664,106.060668 281.570671,106.238 280.74,106.238 C279.853329,106.238 279.134669,106.046669 278.584,105.664 C278.163998,105.374665 277.870001,105.001336 277.702,104.544 L278.808,103.998 C279.162668,104.791337 279.806662,105.188 280.74,105.188 C281.813339,105.188 282.35,104.782004 282.35,103.97 C282.35,103.615332 282.214668,103.340001 281.944,103.144 C281.766666,103.003999 281.468002,102.878001 281.048,102.766 L279.942,102.458 C278.579327,102.075331 277.898,101.366005 277.898,100.33 C277.898,99.5833296 278.18733,99.014002 278.766,98.622 C279.270003,98.2859983 279.909329,98.118 280.684,98.118 C281.412004,98.118 282.032664,98.2579986 282.546,98.538 C282.910002,98.734001 283.217999,99.0093316 283.47,99.364 L282.518,100.106 C282.293999,99.7233314 281.939336,99.4433342 281.454,99.266 C281.229999,99.191333 280.964002,99.154 280.656,99.154 C279.638662,99.154 279.13,99.5319962 279.13,100.288 C279.13,100.801336 279.559329,101.174666 280.418,101.408 L281.51,101.702 C282.182003,101.879334 282.681332,102.112665 283.008,102.402 C283.428002,102.766002 283.638,103.255997 283.638,103.872 Z M32.296,126 L30.812,126 L29.916,123.424 L25.464,123.424 L24.554,126 L23.21,126 L26.906,115.836 L28.6,115.836 L32.296,126 Z M29.496,122.22 L27.704,117.082 L25.884,122.22 L29.496,122.22 Z M40.22,122.052 C40.22,123.237339 39.986669,124.198663 39.52,124.936 C38.9599972,125.804004 38.1713384,126.238 37.154,126.238 C36.1273282,126.238 35.4413351,125.855337 35.096,125.09 L35.096,128.576 L33.78,128.576 L33.78,118.356 L35.04,118.356 L35.068,119.392 C35.5626691,118.542662 36.313995,118.118 37.322,118.118 C38.0126701,118.118 38.6006642,118.346664 39.086,118.804 C39.5246689,119.205335 39.8373324,119.755997 40.024,120.456 C40.1546673,120.941336 40.22,121.47333 40.22,122.052 Z M38.848,122.178 C38.848,121.291329 38.7033348,120.586669 38.414,120.064 C38.0873317,119.494664 37.6160031,119.21 37,119.21 C36.0386619,119.21 35.4273346,119.84466 35.166,121.114 C35.091333,121.478002 35.054,121.846665 35.054,122.22 C35.054,123.508006 35.4039965,124.399331 36.104,124.894 C36.3373345,125.062001 36.6173317,125.146 36.944,125.146 C37.6346701,125.146 38.1433317,124.80067 38.47,124.11 C38.7220013,123.587331 38.848,122.943337 38.848,122.178 Z M48.83,122.052 C48.83,123.237339 48.596669,124.198663 48.13,124.936 C47.5699972,125.804004 46.7813384,126.238 45.764,126.238 C44.7373282,126.238 44.0513351,125.855337 43.706,125.09 L43.706,128.576 L42.39,128.576 L42.39,118.356 L43.65,118.356 L43.678,119.392 C44.1726691,118.542662 44.923995,118.118 45.932,118.118 C46.6226701,118.118 47.2106642,118.346664 47.696,118.804 C48.1346689,119.205335 48.4473324,119.755997 48.634,120.456 C48.7646673,120.941336 48.83,121.47333 48.83,122.052 Z M47.458,122.178 C47.458,121.291329 47.3133348,120.586669 47.024,120.064 C46.6973317,119.494664 46.2260031,119.21 45.61,119.21 C44.6486619,119.21 44.0373346,119.84466 43.776,121.114 C43.701333,121.478002 43.664,121.846665 43.664,122.22 C43.664,123.508006 44.0139965,124.399331 44.714,124.894 C44.9473345,125.062001 45.2273317,125.146 45.554,125.146 C46.2446701,125.146 46.7533317,124.80067 47.08,124.11 C47.3320013,123.587331 47.458,122.943337 47.458,122.178 Z M58.378,115.738 L58.308,116.69 C58.111999,116.624666 57.8226686,116.592 57.44,116.592 C56.8239969,116.592 56.516,116.93733 56.516,117.628 L56.516,118.356 L58.308,118.356 L58.308,119.42 L56.516,119.42 L56.516,126 L55.2,126 L55.2,119.42 L53.996,119.42 L53.996,118.356 L55.2,118.356 L55.2,117.6 C55.2,116.955997 55.3703316,116.461335 55.711,116.116 C56.0516684,115.770665 56.5346635,115.598 57.16,115.598 C57.7386696,115.598 58.1446655,115.644666 58.378,115.738 Z M65.756,122.528 L60.688,122.528 C60.7253335,123.722673 61.0799966,124.525331 61.752,124.936 C61.9946679,125.094667 62.2933316,125.174 62.648,125.174 C63.506671,125.174 64.0853318,124.810004 64.384,124.082 L65.518,124.642 C64.9673306,125.706005 63.9966736,126.238 62.606,126.238 C61.5419947,126.238 60.7206696,125.846004 60.142,125.062 C59.6099973,124.34333 59.344,123.386673 59.344,122.192 C59.344,121.034661 59.614664,120.08267 60.156,119.336 C60.7440029,118.523996 61.5653281,118.118 62.62,118.118 C63.6466718,118.118 64.4353306,118.47733 64.986,119.196 C65.4993359,119.877337 65.756,120.763995 65.756,121.856 L65.756,122.528 Z M64.412,121.548 C64.337333,120.465328 64.0200028,119.732669 63.46,119.35 C63.2359989,119.200666 62.9560017,119.126 62.62,119.126 C61.7706624,119.126 61.1920015,119.643995 60.884,120.68 C60.7999996,120.969335 60.7440001,121.258665 60.716,121.548 L64.412,121.548 Z M73.358,126 L72.098,126 C72.023333,125.785332 71.9720001,125.514668 71.944,125.188 C71.3559971,125.888004 70.6000046,126.238 69.676,126.238 C68.938663,126.238 68.3553355,126.014002 67.926,125.566 C67.533998,125.155331 67.338,124.637336 67.338,124.012 C67.338,122.537326 68.1919915,121.683335 69.9,121.45 L71.832,121.184 L71.832,120.372 C71.832,119.503996 71.3420049,119.07 70.362,119.07 C69.9046644,119.07 69.540668,119.186666 69.27,119.42 C69.0459989,119.616001 68.8686673,119.872665 68.738,120.19 L67.59,119.742 C67.7393341,119.293998 68.0333311,118.920668 68.472,118.622 C68.9760025,118.285998 69.6059962,118.118 70.362,118.118 C72.2006759,118.118 73.12,118.873992 73.12,120.386 L73.12,124.684 C73.12,125.169336 73.1993325,125.607998 73.358,126 Z M71.832,123.466 L71.832,122.136 L70.11,122.374 C69.1486619,122.504667 68.668,123.031995 68.668,123.956 C68.668,124.357335 68.7799989,124.672332 69.004,124.901 C69.2280011,125.129668 69.5406647,125.244 69.942,125.244 C70.4646693,125.244 70.9103315,125.076002 71.279,124.74 C71.6476685,124.403998 71.832,123.979336 71.832,123.466 Z M79.098,125.972 C78.8926656,126.074667 78.4446701,126.126 77.754,126.126 C76.5593274,126.126 75.962,125.547339 75.962,124.39 L75.962,119.42 L74.772,119.42 L74.772,118.356 L75.962,118.356 L75.962,116.452 L77.278,116.452 L77.278,118.356 L79.028,118.356 L79.028,119.42 L77.278,119.42 L77.278,124.124 C77.278,124.441335 77.3409994,124.669999 77.467,124.81 C77.5930006,124.950001 77.8099985,125.02 78.118,125.02 C78.5566689,125.02 78.8506659,124.982667 79,124.908 L79.098,125.972 Z M86.602,126 L85.328,126 L85.286,124.992 C84.7539973,125.822671 84.0166714,126.238 83.074,126.238 C82.3179962,126.238 81.7323354,126.023335 81.317,125.594 C80.9016646,125.164665 80.694,124.581337 80.694,123.844 L80.694,118.356 L82.01,118.356 L82.01,123.606 C82.01,124.623338 82.4813286,125.132 83.424,125.132 C84.3013377,125.132 84.8846652,124.590672 85.174,123.508 C85.248667,123.209332 85.286,122.896668 85.286,122.57 L85.286,118.356 L86.602,118.356 L86.602,126 Z M93.182,118.356 L93.07,119.49 C92.8179987,119.434 92.5706679,119.406 92.328,119.406 C91.469329,119.406 90.9000014,119.835329 90.62,120.694 C90.5173328,120.992668 90.466,121.351998 90.466,121.772 L90.466,126 L89.15,126 L89.15,118.356 L90.424,118.356 L90.452,119.406 C90.8906689,118.649996 91.539329,118.272 92.398,118.272 C92.668668,118.272 92.9299987,118.3 93.182,118.356 Z M100.56,122.528 L95.492,122.528 C95.5293335,123.722673 95.8839966,124.525331 96.556,124.936 C96.7986679,125.094667 97.0973316,125.174 97.452,125.174 C98.310671,125.174 98.8893318,124.810004 99.188,124.082 L100.322,124.642 C99.7713306,125.706005 98.8006736,126.238 97.41,126.238 C96.3459947,126.238 95.5246696,125.846004 94.946,125.062 C94.4139973,124.34333 94.148,123.386673 94.148,122.192 C94.148,121.034661 94.418664,120.08267 94.96,119.336 C95.5480029,118.523996 96.3693281,118.118 97.424,118.118 C98.4506718,118.118 99.2393306,118.47733 99.79,119.196 C100.303336,119.877337 100.56,120.763995 100.56,121.856 L100.56,122.528 Z M99.216,121.548 C99.141333,120.465328 98.8240028,119.732669 98.264,119.35 C98.0399989,119.200666 97.7600017,119.126 97.424,119.126 C96.5746624,119.126 95.9960015,119.643995 95.688,120.68 C95.6039996,120.969335 95.5480001,121.258665 95.52,121.548 L99.216,121.548 Z M107.84,123.872 C107.84,124.684004 107.546003,125.295331 106.958,125.706 C106.444664,126.060668 105.772671,126.238 104.942,126.238 C104.055329,126.238 103.336669,126.046669 102.786,125.664 C102.365998,125.374665 102.072001,125.001336 101.904,124.544 L103.01,123.998 C103.364668,124.791337 104.008662,125.188 104.942,125.188 C106.015339,125.188 106.552,124.782004 106.552,123.97 C106.552,123.615332 106.416668,123.340001 106.146,123.144 C105.968666,123.003999 105.670002,122.878001 105.25,122.766 L104.144,122.458 C102.781327,122.075331 102.1,121.366005 102.1,120.33 C102.1,119.58333 102.38933,119.014002 102.968,118.622 C103.472003,118.285998 104.111329,118.118 104.886,118.118 C105.614004,118.118 106.234664,118.257999 106.748,118.538 C107.112002,118.734001 107.419999,119.009332 107.672,119.364 L106.72,120.106 C106.495999,119.723331 106.141336,119.443334 105.656,119.266 C105.431999,119.191333 105.166002,119.154 104.858,119.154 C103.840662,119.154 103.332,119.531996 103.332,120.288 C103.332,120.801336 103.761329,121.174666 104.62,121.408 L105.712,121.702 C106.384003,121.879334 106.883332,122.112665 107.21,122.402 C107.630002,122.766002 107.84,123.255997 107.84,123.872 Z M119.166,126 L117.906,126 C117.831333,125.785332 117.78,125.514668 117.752,125.188 C117.163997,125.888004 116.408005,126.238 115.484,126.238 C114.746663,126.238 114.163335,126.014002 113.734,125.566 C113.341998,125.155331 113.146,124.637336 113.146,124.012 C113.146,122.537326 113.999991,121.683335 115.708,121.45 L117.64,121.184 L117.64,120.372 C117.64,119.503996 117.150005,119.07 116.17,119.07 C115.712664,119.07 115.348668,119.186666 115.078,119.42 C114.853999,119.616001 114.676667,119.872665 114.546,120.19 L113.398,119.742 C113.547334,119.293998 113.841331,118.920668 114.28,118.622 C114.784003,118.285998 115.413996,118.118 116.17,118.118 C118.008676,118.118 118.928,118.873992 118.928,120.386 L118.928,124.684 C118.928,125.169336 119.007333,125.607998 119.166,126 Z M117.64,123.466 L117.64,122.136 L115.918,122.374 C114.956662,122.504667 114.476,123.031995 114.476,123.956 C114.476,124.357335 114.587999,124.672332 114.812,124.901 C115.036001,125.129668 115.348665,125.244 115.75,125.244 C116.272669,125.244 116.718331,125.076002 117.087,124.74 C117.455669,124.403998 117.64,123.979336 117.64,123.466 Z M127.398,126 L126.082,126 L126.082,120.82 C126.082,119.755995 125.606005,119.224 124.654,119.224 C123.767329,119.224 123.188668,119.765328 122.918,120.848 C122.834,121.156002 122.792,121.473332 122.792,121.8 L122.792,126 L121.476,126 L121.476,118.356 L122.764,118.356 L122.792,119.364 C123.342669,118.533329 124.103328,118.118 125.074,118.118 C125.811337,118.118 126.382998,118.334998 126.789,118.769 C127.195002,119.203002 127.398,119.77933 127.398,120.498 L127.398,126 Z M136.008,126 L134.762,126 L134.734,124.964 C134.239331,125.813338 133.483338,126.238 132.466,126.238 C131.77533,126.238 131.187336,126.009336 130.702,125.552 C130.263331,125.150665 129.950668,124.600004 129.764,123.9 C129.633333,123.414664 129.568,122.88267 129.568,122.304 C129.568,121.118661 129.805998,120.15267 130.282,119.406 C130.832669,118.547329 131.616662,118.118 132.634,118.118 C133.651338,118.118 134.337332,118.481996 134.692,119.21 L134.692,115.836 L136.008,115.836 L136.008,126 Z M134.734,122.136 C134.734,120.847994 134.38867,119.956669 133.698,119.462 C133.455332,119.293999 133.170668,119.21 132.844,119.21 C132.15333,119.21 131.644668,119.55533 131.318,120.246 C131.065999,120.768669 130.94,121.412663 130.94,122.178 C130.94,123.064671 131.084665,123.764664 131.374,124.278 C131.700668,124.85667 132.171997,125.146 132.788,125.146 C133.749338,125.146 134.360665,124.506673 134.622,123.228 C134.696667,122.873332 134.734,122.509335 134.734,122.136 Z M150.008,122.99 C150.008,124.100672 149.644004,124.903331 148.916,125.398 C148.318664,125.799335 147.478672,126 146.396,126 L142.448,126 L142.448,115.836 L146.466,115.836 C147.399338,115.836 148.117997,116.013332 148.622,116.368 C149.238003,116.797335 149.546,117.455329 149.546,118.342 C149.546,119.266005 149.140004,119.984664 148.328,120.498 C149.448006,120.890002 150.008,121.72066 150.008,122.99 Z M148.09,118.496 C148.09,117.935997 147.926668,117.539335 147.6,117.306 C147.319999,117.100666 146.886003,116.998 146.298,116.998 L143.792,116.998 L143.792,120.036 L146.2,120.036 C147.068004,120.036 147.641999,119.784003 147.922,119.28 C148.034001,119.083999 148.09,118.822668 148.09,118.496 Z M148.538,123.004 C148.538,122.322663 148.328002,121.832668 147.908,121.534 C147.581332,121.309999 147.08667,121.198 146.424,121.198 L143.792,121.198 L143.792,124.838 L146.284,124.838 C147.786674,124.838 148.538,124.226673 148.538,123.004 Z M162.454,126 L161.138,126 L161.138,117.362 L157.974,126 L156.574,126 L153.536,117.376 L153.536,126 L152.22,126 L152.22,115.836 L154.292,115.836 L157.316,124.432 L160.452,115.836 L162.454,115.836 L162.454,126 Z M176.286,115.836 L173.794,126 L172.142,126 L170.154,117.712 L168.068,126 L166.402,126 L164.078,115.836 L165.562,115.836 L167.396,124.446 L169.412,115.836 L170.938,115.836 L172.884,124.46 L174.83,115.836 L176.286,115.836 Z M188.186,122.192 C188.186,123.396006 187.910669,124.35733 187.36,125.076 C186.762664,125.850671 185.908672,126.238 184.798,126.238 C183.677994,126.238 182.82867,125.850671 182.25,125.076 C181.699331,124.35733 181.424,123.396006 181.424,122.192 C181.424,120.978661 181.699331,120.01267 182.25,119.294 C182.838003,118.509996 183.687328,118.118 184.798,118.118 C185.899339,118.118 186.75333,118.509996 187.36,119.294 C187.910669,120.01267 188.186,120.978661 188.186,122.192 Z M186.842,122.192 C186.842,120.829327 186.46867,119.914669 185.722,119.448 C185.460665,119.289333 185.152668,119.21 184.798,119.21 C183.799328,119.21 183.164668,119.821327 182.894,121.044 C182.81,121.408002 182.768,121.790665 182.768,122.192 C182.768,123.54534 183.14133,124.450664 183.888,124.908 C184.140001,125.066667 184.443332,125.146 184.798,125.146 C185.815338,125.146 186.459332,124.539339 186.73,123.326 C186.804667,122.971332 186.842,122.593335 186.842,122.192 Z M193.842,115.738 L193.772,116.69 C193.575999,116.624666 193.286669,116.592 192.904,116.592 C192.287997,116.592 191.98,116.93733 191.98,117.628 L191.98,118.356 L193.772,118.356 L193.772,119.42 L191.98,119.42 L191.98,126 L190.664,126 L190.664,119.42 L189.46,119.42 L189.46,118.356 L190.664,118.356 L190.664,117.6 C190.664,116.955997 190.834332,116.461335 191.175,116.116 C191.515668,115.770665 191.998664,115.598 192.624,115.598 C193.20267,115.598 193.608665,115.644666 193.842,115.738 Z M198.672,115.738 L198.602,116.69 C198.405999,116.624666 198.116669,116.592 197.734,116.592 C197.117997,116.592 196.81,116.93733 196.81,117.628 L196.81,118.356 L198.602,118.356 L198.602,119.42 L196.81,119.42 L196.81,126 L195.494,126 L195.494,119.42 L194.29,119.42 L194.29,118.356 L195.494,118.356 L195.494,117.6 C195.494,116.955997 195.664332,116.461335 196.005,116.116 C196.345668,115.770665 196.828664,115.598 197.454,115.598 C198.03267,115.598 198.438665,115.644666 198.672,115.738 Z M206.05,122.528 L200.982,122.528 C201.019334,123.722673 201.373997,124.525331 202.046,124.936 C202.288668,125.094667 202.587332,125.174 202.942,125.174 C203.800671,125.174 204.379332,124.810004 204.678,124.082 L205.812,124.642 C205.261331,125.706005 204.290674,126.238 202.9,126.238 C201.835995,126.238 201.01467,125.846004 200.436,125.062 C199.903997,124.34333 199.638,123.386673 199.638,122.192 C199.638,121.034661 199.908664,120.08267 200.45,119.336 C201.038003,118.523996 201.859328,118.118 202.914,118.118 C203.940672,118.118 204.729331,118.47733 205.28,119.196 C205.793336,119.877337 206.05,120.763995 206.05,121.856 L206.05,122.528 Z M204.706,121.548 C204.631333,120.465328 204.314003,119.732669 203.754,119.35 C203.529999,119.200666 203.250002,119.126 202.914,119.126 C202.064662,119.126 201.486002,119.643995 201.178,120.68 C201.094,120.969335 201.038,121.258665 201.01,121.548 L204.706,121.548 Z M212.196,118.356 L212.084,119.49 C211.831999,119.434 211.584668,119.406 211.342,119.406 C210.483329,119.406 209.914001,119.835329 209.634,120.694 C209.531333,120.992668 209.48,121.351998 209.48,121.772 L209.48,126 L208.164,126 L208.164,118.356 L209.438,118.356 L209.466,119.406 C209.904669,118.649996 210.553329,118.272 211.412,118.272 C211.682668,118.272 211.943999,118.3 212.196,118.356 Z M218.706,123.872 C218.706,124.684004 218.412003,125.295331 217.824,125.706 C217.310664,126.060668 216.638671,126.238 215.808,126.238 C214.921329,126.238 214.202669,126.046669 213.652,125.664 C213.231998,125.374665 212.938001,125.001336 212.77,124.544 L213.876,123.998 C214.230668,124.791337 214.874662,125.188 215.808,125.188 C216.881339,125.188 217.418,124.782004 217.418,123.97 C217.418,123.615332 217.282668,123.340001 217.012,123.144 C216.834666,123.003999 216.536002,122.878001 216.116,122.766 L215.01,122.458 C213.647327,122.075331 212.966,121.366005 212.966,120.33 C212.966,119.58333 213.25533,119.014002 213.834,118.622 C214.338003,118.285998 214.977329,118.118 215.752,118.118 C216.480004,118.118 217.100664,118.257999 217.614,118.538 C217.978002,118.734001 218.285999,119.009332 218.538,119.364 L217.586,120.106 C217.361999,119.723331 217.007336,119.443334 216.522,119.266 C216.297999,119.191333 216.032002,119.154 215.724,119.154 C214.706662,119.154 214.198,119.531996 214.198,120.288 C214.198,120.801336 214.627329,121.174666 215.486,121.408 L216.578,121.702 C217.250003,121.879334 217.749332,122.112665 218.076,122.402 C218.496002,122.766002 218.706,123.255997 218.706,123.872 Z M31.82,146 L30.21,146 L28.25,141.828 L25.618,141.828 L25.618,146 L24.274,146 L24.274,135.836 L28.124,135.836 C29.1226717,135.836 29.9066638,136.078664 30.476,136.564 C31.0826697,137.086669 31.386,137.837995 31.386,138.818 C31.386,139.42467 31.2250016,139.975331 30.903,140.47 C30.5809984,140.964669 30.149336,141.328665 29.608,141.562 L31.82,146 Z M29.944,138.804 C29.944,137.599994 29.2673401,136.998 27.914,136.998 L25.618,136.998 L25.618,140.666 L27.914,140.666 C29.2673401,140.666 29.944,140.04534 29.944,138.804 Z M39.66,142.528 L34.592,142.528 C34.6293335,143.722673 34.9839966,144.525331 35.656,144.936 C35.8986679,145.094667 36.1973316,145.174 36.552,145.174 C37.410671,145.174 37.9893318,144.810004 38.288,144.082 L39.422,144.642 C38.8713306,145.706005 37.9006736,146.238 36.51,146.238 C35.4459947,146.238 34.6246696,145.846004 34.046,145.062 C33.5139973,144.34333 33.248,143.386673 33.248,142.192 C33.248,141.034661 33.518664,140.08267 34.06,139.336 C34.6480029,138.523996 35.4693281,138.118 36.524,138.118 C37.5506718,138.118 38.3393306,138.47733 38.89,139.196 C39.4033359,139.877337 39.66,140.763995 39.66,141.856 L39.66,142.528 Z M38.316,141.548 C38.241333,140.465328 37.9240028,139.732669 37.364,139.35 C37.1399989,139.200666 36.8600017,139.126 36.524,139.126 C35.6746624,139.126 35.0960015,139.643995 34.788,140.68 C34.7039996,140.969335 34.6480001,141.258665 34.62,141.548 L38.316,141.548 Z M43.09,146 L41.774,146 L41.774,135.836 L43.09,135.836 L43.09,146 Z M51.672,142.528 L46.604,142.528 C46.6413335,143.722673 46.9959966,144.525331 47.668,144.936 C47.9106679,145.094667 48.2093316,145.174 48.564,145.174 C49.422671,145.174 50.0013318,144.810004 50.3,144.082 L51.434,144.642 C50.8833306,145.706005 49.9126736,146.238 48.522,146.238 C47.4579947,146.238 46.6366696,145.846004 46.058,145.062 C45.5259973,144.34333 45.26,143.386673 45.26,142.192 C45.26,141.034661 45.530664,140.08267 46.072,139.336 C46.6600029,138.523996 47.4813281,138.118 48.536,138.118 C49.5626718,138.118 50.3513306,138.47733 50.902,139.196 C51.4153359,139.877337 51.672,140.763995 51.672,141.856 L51.672,142.528 Z M50.328,141.548 C50.253333,140.465328 49.9360028,139.732669 49.376,139.35 C49.1519989,139.200666 48.8720017,139.126 48.536,139.126 C47.6866624,139.126 47.1080015,139.643995 46.8,140.68 C46.7159996,140.969335 46.6600001,141.258665 46.632,141.548 L50.328,141.548 Z M59.204,138.356 L56.754,146 L55.116,146 L52.68,138.356 L54.066,138.356 L55.97,144.74 L57.874,138.356 L59.204,138.356 Z M66.134,146 L64.874,146 C64.799333,145.785332 64.7480001,145.514668 64.72,145.188 C64.1319971,145.888004 63.3760046,146.238 62.452,146.238 C61.714663,146.238 61.1313355,146.014002 60.702,145.566 C60.309998,145.155331 60.114,144.637336 60.114,144.012 C60.114,142.537326 60.9679915,141.683335 62.676,141.45 L64.608,141.184 L64.608,140.372 C64.608,139.503996 64.1180049,139.07 63.138,139.07 C62.6806644,139.07 62.316668,139.186666 62.046,139.42 C61.8219989,139.616001 61.6446673,139.872665 61.514,140.19 L60.366,139.742 C60.5153341,139.293998 60.8093311,138.920668 61.248,138.622 C61.7520025,138.285998 62.3819962,138.118 63.138,138.118 C64.9766759,138.118 65.896,138.873992 65.896,140.386 L65.896,144.684 C65.896,145.169336 65.9753325,145.607998 66.134,146 Z M64.608,143.466 L64.608,142.136 L62.886,142.374 C61.9246619,142.504667 61.444,143.031995 61.444,143.956 C61.444,144.357335 61.5559989,144.672332 61.78,144.901 C62.0040011,145.129668 62.3166647,145.244 62.718,145.244 C63.2406693,145.244 63.6863315,145.076002 64.055,144.74 C64.4236685,144.403998 64.608,143.979336 64.608,143.466 Z M74.366,146 L73.05,146 L73.05,140.82 C73.05,139.755995 72.5740048,139.224 71.622,139.224 C70.7353289,139.224 70.156668,139.765328 69.886,140.848 C69.8019996,141.156002 69.76,141.473332 69.76,141.8 L69.76,146 L68.444,146 L68.444,138.356 L69.732,138.356 L69.76,139.364 C70.3106694,138.533329 71.0713285,138.118 72.042,138.118 C72.779337,138.118 73.350998,138.334998 73.757,138.769 C74.163002,139.203002 74.366,139.77933 74.366,140.498 L74.366,146 Z M80.344,145.972 C80.1386656,146.074667 79.6906701,146.126 79,146.126 C77.8053274,146.126 77.208,145.547339 77.208,144.39 L77.208,139.42 L76.018,139.42 L76.018,138.356 L77.208,138.356 L77.208,136.452 L78.524,136.452 L78.524,138.356 L80.274,138.356 L80.274,139.42 L78.524,139.42 L78.524,144.124 C78.524,144.441335 78.5869994,144.669999 78.713,144.81 C78.8390006,144.950001 79.0559985,145.02 79.364,145.02 C79.8026689,145.02 80.0966659,144.982667 80.246,144.908 L80.344,145.972 Z M90.998,143.872 C90.998,144.684004 90.7040029,145.295331 90.116,145.706 C89.6026641,146.060668 88.9306708,146.238 88.1,146.238 C87.2133289,146.238 86.4946694,146.046669 85.944,145.664 C85.5239979,145.374665 85.2300008,145.001336 85.062,144.544 L86.168,143.998 C86.5226684,144.791337 87.166662,145.188 88.1,145.188 C89.1733387,145.188 89.71,144.782004 89.71,143.97 C89.71,143.615332 89.574668,143.340001 89.304,143.144 C89.1266658,143.003999 88.8280021,142.878001 88.408,142.766 L87.302,142.458 C85.9393265,142.075331 85.258,141.366005 85.258,140.33 C85.258,139.58333 85.5473304,139.014002 86.126,138.622 C86.6300025,138.285998 87.2693295,138.118 88.044,138.118 C88.7720036,138.118 89.3926641,138.257999 89.906,138.538 C90.2700018,138.734001 90.5779987,139.009332 90.83,139.364 L89.878,140.106 C89.6539989,139.723331 89.2993358,139.443334 88.814,139.266 C88.5899989,139.191333 88.3240015,139.154 88.016,139.154 C86.9986616,139.154 86.49,139.531996 86.49,140.288 C86.49,140.801336 86.919329,141.174666 87.778,141.408 L88.87,141.702 C89.5420034,141.879334 90.0413317,142.112665 90.368,142.402 C90.7880021,142.766002 90.998,143.255997 90.998,143.872 Z M98.432,146 L97.172,146 C97.097333,145.785332 97.0460001,145.514668 97.018,145.188 C96.4299971,145.888004 95.6740046,146.238 94.75,146.238 C94.012663,146.238 93.4293355,146.014002 93,145.566 C92.607998,145.155331 92.412,144.637336 92.412,144.012 C92.412,142.537326 93.2659915,141.683335 94.974,141.45 L96.906,141.184 L96.906,140.372 C96.906,139.503996 96.4160049,139.07 95.436,139.07 C94.9786644,139.07 94.614668,139.186666 94.344,139.42 C94.1199989,139.616001 93.9426673,139.872665 93.812,140.19 L92.664,139.742 C92.8133341,139.293998 93.1073311,138.920668 93.546,138.622 C94.0500025,138.285998 94.6799962,138.118 95.436,138.118 C97.2746759,138.118 98.194,138.873992 98.194,140.386 L98.194,144.684 C98.194,145.169336 98.2733325,145.607998 98.432,146 Z M96.906,143.466 L96.906,142.136 L95.184,142.374 C94.2226619,142.504667 93.742,143.031995 93.742,143.956 C93.742,144.357335 93.8539989,144.672332 94.078,144.901 C94.3020011,145.129668 94.6146647,145.244 95.016,145.244 C95.5386693,145.244 95.9843315,145.076002 96.353,144.74 C96.7216685,144.403998 96.906,143.979336 96.906,143.466 Z M104.228,135.738 L104.158,136.69 C103.961999,136.624666 103.672669,136.592 103.29,136.592 C102.673997,136.592 102.366,136.93733 102.366,137.628 L102.366,138.356 L104.158,138.356 L104.158,139.42 L102.366,139.42 L102.366,146 L101.05,146 L101.05,139.42 L99.846,139.42 L99.846,138.356 L101.05,138.356 L101.05,137.6 C101.05,136.955997 101.220332,136.461335 101.561,136.116 C101.901668,135.770665 102.384664,135.598 103.01,135.598 C103.58867,135.598 103.994665,135.644666 104.228,135.738 Z M111.606,142.528 L106.538,142.528 C106.575334,143.722673 106.929997,144.525331 107.602,144.936 C107.844668,145.094667 108.143332,145.174 108.498,145.174 C109.356671,145.174 109.935332,144.810004 110.234,144.082 L111.368,144.642 C110.817331,145.706005 109.846674,146.238 108.456,146.238 C107.391995,146.238 106.57067,145.846004 105.992,145.062 C105.459997,144.34333 105.194,143.386673 105.194,142.192 C105.194,141.034661 105.464664,140.08267 106.006,139.336 C106.594003,138.523996 107.415328,138.118 108.47,138.118 C109.496672,138.118 110.285331,138.47733 110.836,139.196 C111.349336,139.877337 111.606,140.763995 111.606,141.856 L111.606,142.528 Z M110.262,141.548 C110.187333,140.465328 109.870003,139.732669 109.31,139.35 C109.085999,139.200666 108.806002,139.126 108.47,139.126 C107.620662,139.126 107.042002,139.643995 106.734,140.68 C106.65,140.969335 106.594,141.258665 106.566,141.548 L110.262,141.548 Z M117.15,145.972 C116.944666,146.074667 116.49667,146.126 115.806,146.126 C114.611327,146.126 114.014,145.547339 114.014,144.39 L114.014,139.42 L112.824,139.42 L112.824,138.356 L114.014,138.356 L114.014,136.452 L115.33,136.452 L115.33,138.356 L117.08,138.356 L117.08,139.42 L115.33,139.42 L115.33,144.124 C115.33,144.441335 115.392999,144.669999 115.519,144.81 C115.645001,144.950001 115.861998,145.02 116.17,145.02 C116.608669,145.02 116.902666,144.982667 117.052,144.908 L117.15,145.972 Z M124.36,138.356 L121.392,147.022 C121.037332,148.058005 120.356005,148.576 119.348,148.576 C118.909331,148.576 118.475335,148.510667 118.046,148.38 L118.284,147.288 C118.601335,147.400001 118.881332,147.456 119.124,147.456 C119.646669,147.456 120.001332,147.180669 120.188,146.63 L120.524,145.65 L117.64,138.356 L119.068,138.356 L121.168,143.844 L123.002,138.356 L124.36,138.356 Z M133.726,138.356 L133.614,139.49 C133.361999,139.434 133.114668,139.406 132.872,139.406 C132.013329,139.406 131.444001,139.835329 131.164,140.694 C131.061333,140.992668 131.01,141.351998 131.01,141.772 L131.01,146 L129.694,146 L129.694,138.356 L130.968,138.356 L130.996,139.406 C131.434669,138.649996 132.083329,138.272 132.942,138.272 C133.212668,138.272 133.473999,138.3 133.726,138.356 Z M141.104,142.528 L136.036,142.528 C136.073334,143.722673 136.427997,144.525331 137.1,144.936 C137.342668,145.094667 137.641332,145.174 137.996,145.174 C138.854671,145.174 139.433332,144.810004 139.732,144.082 L140.866,144.642 C140.315331,145.706005 139.344674,146.238 137.954,146.238 C136.889995,146.238 136.06867,145.846004 135.49,145.062 C134.957997,144.34333 134.692,143.386673 134.692,142.192 C134.692,141.034661 134.962664,140.08267 135.504,139.336 C136.092003,138.523996 136.913328,138.118 137.968,138.118 C138.994672,138.118 139.783331,138.47733 140.334,139.196 C140.847336,139.877337 141.104,140.763995 141.104,141.856 L141.104,142.528 Z M139.76,141.548 C139.685333,140.465328 139.368003,139.732669 138.808,139.35 C138.583999,139.200666 138.304002,139.126 137.968,139.126 C137.118662,139.126 136.540002,139.643995 136.232,140.68 C136.148,140.969335 136.092,141.258665 136.064,141.548 L139.76,141.548 Z M148.902,144.698 C148.379331,145.724672 147.44134,146.238 146.088,146.238 C145.023995,146.238 144.207336,145.836671 143.638,145.034 C143.105997,144.305996 142.84,143.358673 142.84,142.192 C142.84,141.006661 143.110664,140.045337 143.652,139.308 C144.240003,138.514663 145.065995,138.118 146.13,138.118 C147.45534,138.118 148.374664,138.617328 148.888,139.616 L147.81,140.274 C147.623332,139.891331 147.404001,139.618334 147.152,139.455 C146.899999,139.291666 146.564002,139.21 146.144,139.21 C145.182662,139.21 144.571335,139.811994 144.31,141.016 C144.226,141.380002 144.184,141.771998 144.184,142.192 C144.184,143.526673 144.533996,144.427331 145.234,144.894 C145.486001,145.062001 145.789332,145.146 146.144,145.146 C146.816003,145.146 147.301332,144.912669 147.6,144.446 C147.674667,144.324666 147.74,144.203334 147.796,144.082 L148.902,144.698 Z M156.224,146 L154.964,146 C154.889333,145.785332 154.838,145.514668 154.81,145.188 C154.221997,145.888004 153.466005,146.238 152.542,146.238 C151.804663,146.238 151.221335,146.014002 150.792,145.566 C150.399998,145.155331 150.204,144.637336 150.204,144.012 C150.204,142.537326 151.057991,141.683335 152.766,141.45 L154.698,141.184 L154.698,140.372 C154.698,139.503996 154.208005,139.07 153.228,139.07 C152.770664,139.07 152.406668,139.186666 152.136,139.42 C151.911999,139.616001 151.734667,139.872665 151.604,140.19 L150.456,139.742 C150.605334,139.293998 150.899331,138.920668 151.338,138.622 C151.842003,138.285998 152.471996,138.118 153.228,138.118 C155.066676,138.118 155.986,138.873992 155.986,140.386 L155.986,144.684 C155.986,145.169336 156.065333,145.607998 156.224,146 Z M154.698,143.466 L154.698,142.136 L152.976,142.374 C152.014662,142.504667 151.534,143.031995 151.534,143.956 C151.534,144.357335 151.645999,144.672332 151.87,144.901 C152.094001,145.129668 152.406665,145.244 152.808,145.244 C153.330669,145.244 153.776331,145.076002 154.145,144.74 C154.513669,144.403998 154.698,143.979336 154.698,143.466 Z M159.85,146 L158.534,146 L158.534,135.836 L159.85,135.836 L159.85,146 Z M163.714,146 L162.398,146 L162.398,135.836 L163.714,135.836 L163.714,146 Z M171.428,143.872 C171.428,144.684004 171.134003,145.295331 170.546,145.706 C170.032664,146.060668 169.360671,146.238 168.53,146.238 C167.643329,146.238 166.924669,146.046669 166.374,145.664 C165.953998,145.374665 165.660001,145.001336 165.492,144.544 L166.598,143.998 C166.952668,144.791337 167.596662,145.188 168.53,145.188 C169.603339,145.188 170.14,144.782004 170.14,143.97 C170.14,143.615332 170.004668,143.340001 169.734,143.144 C169.556666,143.003999 169.258002,142.878001 168.838,142.766 L167.732,142.458 C166.369327,142.075331 165.688,141.366005 165.688,140.33 C165.688,139.58333 165.97733,139.014002 166.556,138.622 C167.060003,138.285998 167.699329,138.118 168.474,138.118 C169.202004,138.118 169.822664,138.257999 170.336,138.538 C170.700002,138.734001 171.007999,139.009332 171.26,139.364 L170.308,140.106 C170.083999,139.723331 169.729336,139.443334 169.244,139.266 C169.019999,139.191333 168.754002,139.154 168.446,139.154 C167.428662,139.154 166.92,139.531996 166.92,140.288 C166.92,140.801336 167.349329,141.174666 168.208,141.408 L169.3,141.702 C169.972003,141.879334 170.471332,142.112665 170.798,142.402 C171.218002,142.766002 171.428,143.255997 171.428,143.872 Z M32.296,166 L30.812,166 L29.916,163.424 L25.464,163.424 L24.554,166 L23.21,166 L26.906,155.836 L28.6,155.836 L32.296,166 Z M29.496,162.22 L27.704,157.082 L25.884,162.22 L29.496,162.22 Z M39.702,166 L38.386,166 L38.386,160.82 C38.386,159.755995 37.9100048,159.224 36.958,159.224 C36.0713289,159.224 35.492668,159.765328 35.222,160.848 C35.1379996,161.156002 35.096,161.473332 35.096,161.8 L35.096,166 L33.78,166 L33.78,158.356 L35.068,158.356 L35.096,159.364 C35.6466694,158.533329 36.4073285,158.118 37.378,158.118 C38.115337,158.118 38.686998,158.334998 39.093,158.769 C39.499002,159.203002 39.702,159.77933 39.702,160.498 L39.702,166 Z M48.312,166 L47.066,166 L47.038,164.964 C46.5433309,165.813338 45.7873384,166.238 44.77,166.238 C44.0793299,166.238 43.4913358,166.009336 43.006,165.552 C42.5673311,165.150665 42.2546676,164.600004 42.068,163.9 C41.9373327,163.414664 41.872,162.88267 41.872,162.304 C41.872,161.118661 42.1099976,160.15267 42.586,159.406 C43.1366694,158.547329 43.9206616,158.118 44.938,158.118 C45.9553384,158.118 46.6413316,158.481996 46.996,159.21 L46.996,155.836 L48.312,155.836 L48.312,166 Z M47.038,162.136 C47.038,160.847994 46.6926701,159.956669 46.002,159.462 C45.7593321,159.293999 45.4746683,159.21 45.148,159.21 C44.4573299,159.21 43.9486683,159.55533 43.622,160.246 C43.3699987,160.768669 43.244,161.412663 43.244,162.178 C43.244,163.064671 43.3886652,163.764664 43.678,164.278 C44.0046683,164.85667 44.4759969,165.146 45.092,165.146 C46.0533381,165.146 46.6646654,164.506673 46.926,163.228 C47.000667,162.873332 47.038,162.509335 47.038,162.136 Z M64.552,166 L63.236,166 L63.236,160.82 C63.236,160.231997 63.1053346,159.802668 62.844,159.532 C62.6293323,159.326666 62.3353352,159.224 61.962,159.224 C61.4486641,159.224 61.0380015,159.489997 60.73,160.022 C60.4499986,160.507336 60.31,161.099997 60.31,161.8 L60.31,166 L58.994,166 L58.994,160.82 C58.994,160.21333 58.8633346,159.784001 58.602,159.532 C58.3873323,159.326666 58.0980018,159.224 57.734,159.224 C56.9406627,159.224 56.4226679,159.765328 56.18,160.848 C56.105333,161.156002 56.068,161.473332 56.068,161.8 L56.068,166 L54.752,166 L54.752,158.356 L56.04,158.356 L56.054,159.308 C56.5393358,158.514663 57.2393288,158.118 58.154,158.118 C59.1526717,158.118 59.8059985,158.551996 60.114,159.42 C60.5713356,158.551996 61.3179948,158.118 62.354,158.118 C63.0540035,158.118 63.5953314,158.332665 63.978,158.762 C64.3606686,159.191335 64.552,159.75133 64.552,160.442 L64.552,166 Z M73.484,162.192 C73.484,163.396006 73.2086694,164.35733 72.658,165.076 C72.0606637,165.850671 71.2066722,166.238 70.096,166.238 C68.9759944,166.238 68.1266696,165.850671 67.548,165.076 C66.9973306,164.35733 66.722,163.396006 66.722,162.192 C66.722,160.978661 66.9973306,160.01267 67.548,159.294 C68.1360029,158.509996 68.9853278,158.118 70.096,158.118 C71.1973388,158.118 72.0513303,158.509996 72.658,159.294 C73.2086694,160.01267 73.484,160.978661 73.484,162.192 Z M72.14,162.192 C72.14,160.829327 71.7666704,159.914669 71.02,159.448 C70.7586654,159.289333 70.4506684,159.21 70.096,159.21 C69.0973283,159.21 68.462668,159.821327 68.192,161.044 C68.1079996,161.408002 68.066,161.790665 68.066,162.192 C68.066,163.54534 68.4393296,164.450664 69.186,164.908 C69.4380013,165.066667 69.7413316,165.146 70.096,165.146 C71.1133384,165.146 71.757332,164.539339 72.028,163.326 C72.102667,162.971332 72.14,162.593335 72.14,162.192 Z M79.686,158.356 L79.574,159.49 C79.3219987,159.434 79.0746679,159.406 78.832,159.406 C77.973329,159.406 77.4040014,159.835329 77.124,160.694 C77.0213328,160.992668 76.97,161.351998 76.97,161.772 L76.97,166 L75.654,166 L75.654,158.356 L76.928,158.356 L76.956,159.406 C77.3946689,158.649996 78.043329,158.272 78.902,158.272 C79.172668,158.272 79.4339987,158.3 79.686,158.356 Z M87.064,162.528 L81.996,162.528 C82.0333335,163.722673 82.3879966,164.525331 83.06,164.936 C83.3026679,165.094667 83.6013316,165.174 83.956,165.174 C84.814671,165.174 85.3933318,164.810004 85.692,164.082 L86.826,164.642 C86.2753306,165.706005 85.3046736,166.238 83.914,166.238 C82.8499947,166.238 82.0286696,165.846004 81.45,165.062 C80.9179973,164.34333 80.652,163.386673 80.652,162.192 C80.652,161.034661 80.922664,160.08267 81.464,159.336 C82.0520029,158.523996 82.8733281,158.118 83.928,158.118 C84.9546718,158.118 85.7433306,158.47733 86.294,159.196 C86.8073359,159.877337 87.064,160.763995 87.064,161.856 L87.064,162.528 Z M85.72,161.548 C85.645333,160.465328 85.3280028,159.732669 84.768,159.35 C84.5439989,159.200666 84.2640017,159.126 83.928,159.126 C83.0786624,159.126 82.5000015,159.643995 82.192,160.68 C82.1079996,160.969335 82.0520001,161.258665 82.024,161.548 L85.72,161.548 Z" id="Yourvehicle’sstatusandserviceneedsAppfeaturesandBMWoffersRelevantsafetyrecallsAndmore" fill="#A0A0A0"></path>
                </g>
                <circle id="Oval" fill="#A0A0A0" cx="3" cy="101" r="3"></circle>
                <circle id="Oval-Copy" fill="#A0A0A0" cx="3" cy="121" r="3"></circle>
                <circle id="Oval-Copy-2" fill="#A0A0A0" cx="3" cy="141" r="3"></circle>
                <circle id="Oval-Copy-3" fill="#A0A0A0" cx="3" cy="161" r="3"></circle>
            </g>
        </g>
    </g>
</svg>
