<?xml version="1.0" encoding="UTF-8"?>
<svg class="textBox" preserveAspectRatio="xMinYMin meet" viewBox="0 0 332 174" version="1.1" xmlns="http://www.w3.org/2000/svg" xmlns:xlink="http://www.w3.org/1999/xlink">
    <!-- Generator: Sketch 53.2 (72643) - https://sketchapp.com -->
    <title>Group 3</title>
    <desc>Created with Sketch.</desc>
    <g id="Page-1" stroke="none" stroke-width="1" fill="none" fill-rule="evenodd">
        <g id="Enable-Notifications-Copy-6" transform="translate(-15.000000, -334.000000)" fill-rule="nonzero">
            <g id="Group-3" transform="translate(15.000000, 330.000000)">
                <path d="M8.834,104.99 C8.834,106.100672 8.47000364,106.903331 7.742,107.398 C7.14466368,107.799335 6.30467208,108 5.222,108 L1.274,108 L1.274,97.836 L5.292,97.836 C6.225338,97.836 6.94399748,98.0133316 7.448,98.368 C8.06400308,98.7973355 8.372,99.4553289 8.372,100.342 C8.372,101.266005 7.96600406,101.984664 7.154,102.498 C8.2740056,102.890002 8.834,103.72066 8.834,104.99 Z M6.916,100.496 C6.916,99.9359972 6.7526683,99.5393345 6.426,99.306 C6.1459986,99.1006656 5.71200294,98.998 5.124,98.998 L2.618,98.998 L2.618,102.036 L5.026,102.036 C5.89400434,102.036 6.4679986,101.784003 6.748,101.28 C6.86000056,101.083999 6.916,100.822668 6.916,100.496 Z M7.364,105.004 C7.364,104.322663 7.1540021,103.832668 6.734,103.534 C6.4073317,103.309999 5.91266998,103.198 5.25,103.198 L2.618,103.198 L2.618,106.838 L5.11,106.838 C6.61267418,106.838 7.364,106.226673 7.364,105.004 Z M12.362,108 L11.046,108 L11.046,97.836 L12.362,97.836 L12.362,108 Z M20.944,104.528 L15.876,104.528 C15.9133335,105.722673 16.2679966,106.525331 16.94,106.936 C17.1826679,107.094667 17.4813316,107.174 17.836,107.174 C18.694671,107.174 19.2733318,106.810004 19.572,106.082 L20.706,106.642 C20.1553306,107.706005 19.1846736,108.238 17.794,108.238 C16.7299947,108.238 15.9086696,107.846004 15.33,107.062 C14.7979973,106.34333 14.532,105.386673 14.532,104.192 C14.532,103.034661 14.802664,102.08267 15.344,101.336 C15.9320029,100.523996 16.7533281,100.118 17.808,100.118 C18.8346718,100.118 19.6233306,100.47733 20.174,101.196 C20.6873359,101.877337 20.944,102.763995 20.944,103.856 L20.944,104.528 Z M19.6,103.548 C19.525333,102.465328 19.2080028,101.732669 18.648,101.35 C18.4239989,101.200666 18.1440017,101.126 17.808,101.126 C16.9586624,101.126 16.3800015,101.643995 16.072,102.68 C15.9879996,102.969335 15.9320001,103.258665 15.904,103.548 L19.6,103.548 Z M24.374,99.278 L23.058,99.278 L23.058,97.836 L24.374,97.836 L24.374,99.278 Z M24.374,108 L23.058,108 L23.058,100.356 L24.374,100.356 L24.374,108 Z M33.362,104.052 C33.362,105.237339 33.128669,106.198663 32.662,106.936 C32.1019972,107.804004 31.3133384,108.238 30.296,108.238 C29.5959965,108.238 29.0266689,108.028002 28.588,107.608 C28.4293325,107.467999 28.3033338,107.295334 28.21,107.09 L28.182,108 L26.922,108 L26.922,97.836 L28.238,97.836 L28.238,101.392 C28.7326691,100.542662 29.4746617,100.118 30.464,100.118 C31.1546701,100.118 31.7426642,100.346664 32.228,100.804 C32.6666689,101.205335 32.9793324,101.755996 33.166,102.456 C33.2966673,102.941336 33.362,103.47333 33.362,104.052 Z M31.99,104.178 C31.99,103.291329 31.8453348,102.586669 31.556,102.064 C31.2293317,101.494664 30.7580031,101.21 30.142,101.21 C29.1806619,101.21 28.5693346,101.84466 28.308,103.114 C28.233333,103.478002 28.196,103.846665 28.196,104.22 C28.196,105.508006 28.5459965,106.399331 29.246,106.894 C29.4793345,107.062001 29.7593317,107.146 30.086,107.146 C30.7766701,107.146 31.2853317,106.80067 31.612,106.11 C31.8640013,105.587331 31.99,104.943337 31.99,104.178 Z M41.566,104.528 L36.498,104.528 C36.5353335,105.722673 36.8899966,106.525331 37.562,106.936 C37.8046679,107.094667 38.1033316,107.174 38.458,107.174 C39.316671,107.174 39.8953318,106.810004 40.194,106.082 L41.328,106.642 C40.7773306,107.706005 39.8066736,108.238 38.416,108.238 C37.3519947,108.238 36.5306696,107.846004 35.952,107.062 C35.4199973,106.34333 35.154,105.386673 35.154,104.192 C35.154,103.034661 35.424664,102.08267 35.966,101.336 C36.5540029,100.523996 37.3753281,100.118 38.43,100.118 C39.4566718,100.118 40.2453306,100.47733 40.796,101.196 C41.3093359,101.877337 41.566,102.763995 41.566,103.856 L41.566,104.528 Z M40.222,103.548 C40.147333,102.465328 39.8300028,101.732669 39.27,101.35 C39.0459989,101.200666 38.7660017,101.126 38.43,101.126 C37.5806624,101.126 37.0020015,101.643995 36.694,102.68 C36.6099996,102.969335 36.5540001,103.258665 36.526,103.548 L40.222,103.548 Z M49.602,108 L48.286,108 L48.286,102.82 C48.286,101.755995 47.8100048,101.224 46.858,101.224 C45.9713289,101.224 45.392668,101.765328 45.122,102.848 C45.0379996,103.156002 44.996,103.473332 44.996,103.8 L44.996,108 L43.68,108 L43.68,100.356 L44.968,100.356 L44.996,101.364 C45.5466694,100.533329 46.3073285,100.118 47.278,100.118 C48.015337,100.118 48.586998,100.334998 48.993,100.769 C49.399002,101.203002 49.602,101.77933 49.602,102.498 L49.602,108 Z M62.748,105.228 C62.748,106.646674 62.0713401,107.575331 60.718,108.014 C60.2326642,108.163334 59.6493367,108.238 58.968,108.238 C57.8759945,108.238 56.9800035,108.009336 56.28,107.552 C55.738664,107.206665 55.3746676,106.754003 55.188,106.194 L56.406,105.536 C56.7700018,106.562672 57.651993,107.076 59.052,107.076 C60.5546742,107.076 61.306,106.488006 61.306,105.312 C61.306,104.789331 61.1193352,104.383335 60.746,104.094 C60.475332,103.879332 60.0460029,103.702001 59.458,103.562 L58.1,103.24 C56.3173244,102.819998 55.426,101.900674 55.426,100.482 C55.426,99.1473267 56.0979933,98.2560022 57.442,97.808 C57.8806689,97.6679993 58.3893304,97.598 58.968,97.598 C59.901338,97.598 60.6899968,97.7613317 61.334,98.088 C61.800669,98.3306679 62.1739986,98.6619979 62.454,99.082 L61.376,99.95 C61.105332,99.483331 60.6433366,99.1333345 59.99,98.9 C59.7006652,98.7973328 59.3460021,98.746 58.926,98.746 C57.4979929,98.746 56.784,99.3013278 56.784,100.412 C56.784,101.224004 57.4046605,101.779332 58.646,102.078 L60.004,102.4 C61.8333425,102.829335 62.748,103.771993 62.748,105.228 Z M65.856,99.278 L64.54,99.278 L64.54,97.836 L65.856,97.836 L65.856,99.278 Z M65.856,108 L64.54,108 L64.54,100.356 L65.856,100.356 L65.856,108 Z M74.438,104.528 L69.37,104.528 C69.4073335,105.722673 69.7619966,106.525331 70.434,106.936 C70.6766679,107.094667 70.9753316,107.174 71.33,107.174 C72.188671,107.174 72.7673318,106.810004 73.066,106.082 L74.2,106.642 C73.6493306,107.706005 72.6786736,108.238 71.288,108.238 C70.2239947,108.238 69.4026696,107.846004 68.824,107.062 C68.2919973,106.34333 68.026,105.386673 68.026,104.192 C68.026,103.034661 68.296664,102.08267 68.838,101.336 C69.4260029,100.523996 70.2473281,100.118 71.302,100.118 C72.3286718,100.118 73.1173306,100.47733 73.668,101.196 C74.1813359,101.877337 74.438,102.763995 74.438,103.856 L74.438,104.528 Z M73.094,103.548 C73.019333,102.465328 72.7020028,101.732669 72.142,101.35 C71.9179989,101.200666 71.6380017,101.126 71.302,101.126 C70.4526624,101.126 69.8740015,101.643995 69.566,102.68 C69.4819996,102.969335 69.4260001,103.258665 69.398,103.548 L73.094,103.548 Z M85.932,108 L84.672,108 C84.597333,107.785332 84.5460001,107.514668 84.518,107.188 C83.9299971,107.888003 83.1740046,108.238 82.25,108.238 C81.512663,108.238 80.9293355,108.014002 80.5,107.566 C80.107998,107.155331 79.912,106.637336 79.912,106.012 C79.912,104.537326 80.7659915,103.683335 82.474,103.45 L84.406,103.184 L84.406,102.372 C84.406,101.503996 83.9160049,101.07 82.936,101.07 C82.4786644,101.07 82.114668,101.186666 81.844,101.42 C81.6199989,101.616001 81.4426673,101.872665 81.312,102.19 L80.164,101.742 C80.3133341,101.293998 80.6073311,100.920668 81.046,100.622 C81.5500025,100.285998 82.1799962,100.118 82.936,100.118 C84.7746759,100.118 85.694,100.873992 85.694,102.386 L85.694,106.684 C85.694,107.169336 85.7733325,107.607998 85.932,108 Z M84.406,105.466 L84.406,104.136 L82.684,104.374 C81.7226619,104.504667 81.242,105.031995 81.242,105.956 C81.242,106.357335 81.3539989,106.672332 81.578,106.901 C81.8020011,107.129668 82.1146647,107.244 82.516,107.244 C83.0386693,107.244 83.4843315,107.076002 83.853,106.74 C84.2216685,106.403998 84.406,105.979336 84.406,105.466 Z M94.682,104.052 C94.682,105.237339 94.448669,106.198663 93.982,106.936 C93.4219972,107.804004 92.6333384,108.238 91.616,108.238 C90.9159965,108.238 90.3466689,108.028002 89.908,107.608 C89.7493325,107.467999 89.6233338,107.295334 89.53,107.09 L89.502,108 L88.242,108 L88.242,97.836 L89.558,97.836 L89.558,101.392 C90.0526691,100.542662 90.7946617,100.118 91.784,100.118 C92.4746701,100.118 93.0626642,100.346664 93.548,100.804 C93.9866689,101.205335 94.2993324,101.755996 94.486,102.456 C94.6166673,102.941336 94.682,103.47333 94.682,104.052 Z M93.31,104.178 C93.31,103.291329 93.1653348,102.586669 92.876,102.064 C92.5493317,101.494664 92.0780031,101.21 91.462,101.21 C90.5006619,101.21 89.8893346,101.84466 89.628,103.114 C89.553333,103.478002 89.516,103.846665 89.516,104.22 C89.516,105.508006 89.8659965,106.399331 90.566,106.894 C90.7993345,107.062001 91.0793317,107.146 91.406,107.146 C92.0966701,107.146 92.6053317,106.80067 92.932,106.11 C93.1840013,105.587331 93.31,104.943337 93.31,104.178 Z M105.91,105.872 C105.91,106.684004 105.616003,107.295331 105.028,107.706 C104.514664,108.060668 103.842671,108.238 103.012,108.238 C102.125329,108.238 101.406669,108.046669 100.856,107.664 C100.435998,107.374665 100.142001,107.001336 99.974,106.544 L101.08,105.998 C101.434668,106.791337 102.078662,107.188 103.012,107.188 C104.085339,107.188 104.622,106.782004 104.622,105.97 C104.622,105.615332 104.486668,105.340001 104.216,105.144 C104.038666,105.003999 103.740002,104.878001 103.32,104.766 L102.214,104.458 C100.851327,104.075331 100.17,103.366005 100.17,102.33 C100.17,101.58333 100.45933,101.014002 101.038,100.622 C101.542003,100.285998 102.181329,100.118 102.956,100.118 C103.684004,100.118 104.304664,100.257999 104.818,100.538 C105.182002,100.734001 105.489999,101.009332 105.742,101.364 L104.79,102.106 C104.565999,101.723331 104.211336,101.443334 103.726,101.266 C103.501999,101.191333 103.236002,101.154 102.928,101.154 C101.910662,101.154 101.402,101.531996 101.402,102.288 C101.402,102.801336 101.831329,103.174666 102.69,103.408 L103.782,103.702 C104.454003,103.879334 104.953332,104.112665 105.28,104.402 C105.700002,104.766002 105.91,105.255997 105.91,105.872 Z M114.24,104.192 C114.24,105.396006 113.964669,106.35733 113.414,107.076 C112.816664,107.850671 111.962672,108.238 110.852,108.238 C109.731994,108.238 108.88267,107.850671 108.304,107.076 C107.753331,106.35733 107.478,105.396006 107.478,104.192 C107.478,102.978661 107.753331,102.01267 108.304,101.294 C108.892003,100.509996 109.741328,100.118 110.852,100.118 C111.953339,100.118 112.80733,100.509996 113.414,101.294 C113.964669,102.01267 114.24,102.978661 114.24,104.192 Z M112.896,104.192 C112.896,102.829327 112.52267,101.914669 111.776,101.448 C111.514665,101.289333 111.206668,101.21 110.852,101.21 C109.853328,101.21 109.218668,101.821327 108.948,103.044 C108.864,103.408002 108.822,103.790665 108.822,104.192 C108.822,105.54534 109.19533,106.450664 109.942,106.908 C110.194001,107.066667 110.497332,107.146 110.852,107.146 C111.869338,107.146 112.513332,106.539339 112.784,105.326 C112.858667,104.971332 112.896,104.593335 112.896,104.192 Z M119.896,97.738 L119.826,98.69 C119.629999,98.6246663 119.340669,98.592 118.958,98.592 C118.341997,98.592 118.034,98.9373299 118.034,99.628 L118.034,100.356 L119.826,100.356 L119.826,101.42 L118.034,101.42 L118.034,108 L116.718,108 L116.718,101.42 L115.514,101.42 L115.514,100.356 L116.718,100.356 L116.718,99.6 C116.718,98.9559968 116.888332,98.4613351 117.229,98.116 C117.569668,97.7706649 118.052664,97.598 118.678,97.598 C119.25667,97.598 119.662665,97.6446662 119.896,97.738 Z M127.624,104.192 C127.624,105.396006 127.348669,106.35733 126.798,107.076 C126.200664,107.850671 125.346672,108.238 124.236,108.238 C123.115994,108.238 122.26667,107.850671 121.688,107.076 C121.137331,106.35733 120.862,105.396006 120.862,104.192 C120.862,102.978661 121.137331,102.01267 121.688,101.294 C122.276003,100.509996 123.125328,100.118 124.236,100.118 C125.337339,100.118 126.19133,100.509996 126.798,101.294 C127.348669,102.01267 127.624,102.978661 127.624,104.192 Z M126.28,104.192 C126.28,102.829327 125.90667,101.914669 125.16,101.448 C124.898665,101.289333 124.590668,101.21 124.236,101.21 C123.237328,101.21 122.602668,101.821327 122.332,103.044 C122.248,103.408002 122.206,103.790665 122.206,104.192 C122.206,105.54534 122.57933,106.450664 123.326,106.908 C123.578001,107.066667 123.881332,107.146 124.236,107.146 C125.253338,107.146 125.897332,106.539339 126.168,105.326 C126.242667,104.971332 126.28,104.593335 126.28,104.192 Z M133.826,100.356 L133.714,101.49 C133.461999,101.434 133.214668,101.406 132.972,101.406 C132.113329,101.406 131.544001,101.835329 131.264,102.694 C131.161333,102.992668 131.11,103.351998 131.11,103.772 L131.11,108 L129.794,108 L129.794,100.356 L131.068,100.356 L131.096,101.406 C131.534669,100.649996 132.183329,100.272 133.042,100.272 C133.312668,100.272 133.573999,100.3 133.826,100.356 Z M138.6,107.972 C138.394666,108.074667 137.94667,108.126 137.256,108.126 C136.061327,108.126 135.464,107.547339 135.464,106.39 L135.464,101.42 L134.274,101.42 L134.274,100.356 L135.464,100.356 L135.464,98.452 L136.78,98.452 L136.78,100.356 L138.53,100.356 L138.53,101.42 L136.78,101.42 L136.78,106.124 C136.78,106.441335 136.842999,106.669999 136.969,106.81 C137.095001,106.950001 137.311998,107.02 137.62,107.02 C138.058669,107.02 138.352666,106.982667 138.502,106.908 L138.6,107.972 Z M149.576,108 L148.316,108 C148.241333,107.785332 148.19,107.514668 148.162,107.188 C147.573997,107.888003 146.818005,108.238 145.894,108.238 C145.156663,108.238 144.573335,108.014002 144.144,107.566 C143.751998,107.155331 143.556,106.637336 143.556,106.012 C143.556,104.537326 144.409991,103.683335 146.118,103.45 L148.05,103.184 L148.05,102.372 C148.05,101.503996 147.560005,101.07 146.58,101.07 C146.122664,101.07 145.758668,101.186666 145.488,101.42 C145.263999,101.616001 145.086667,101.872665 144.956,102.19 L143.808,101.742 C143.957334,101.293998 144.251331,100.920668 144.69,100.622 C145.194003,100.285998 145.823996,100.118 146.58,100.118 C148.418676,100.118 149.338,100.873992 149.338,102.386 L149.338,106.684 C149.338,107.169336 149.417333,107.607998 149.576,108 Z M148.05,105.466 L148.05,104.136 L146.328,104.374 C145.366662,104.504667 144.886,105.031995 144.886,105.956 C144.886,106.357335 144.997999,106.672332 145.222,106.901 C145.446001,107.129668 145.758665,107.244 146.16,107.244 C146.682669,107.244 147.128331,107.076002 147.497,106.74 C147.865669,106.403998 148.05,105.979336 148.05,105.466 Z M157.794,108 L156.52,108 L156.478,106.992 C155.945997,107.822671 155.208671,108.238 154.266,108.238 C153.509996,108.238 152.924335,108.023335 152.509,107.594 C152.093665,107.164665 151.886,106.581337 151.886,105.844 L151.886,100.356 L153.202,100.356 L153.202,105.606 C153.202,106.623338 153.673329,107.132 154.616,107.132 C155.493338,107.132 156.076665,106.590672 156.366,105.508 C156.440667,105.209332 156.478,104.896668 156.478,104.57 L156.478,100.356 L157.794,100.356 L157.794,108 Z M163.828,97.738 L163.758,98.69 C163.561999,98.6246663 163.272669,98.592 162.89,98.592 C162.273997,98.592 161.966,98.9373299 161.966,99.628 L161.966,100.356 L163.758,100.356 L163.758,101.42 L161.966,101.42 L161.966,108 L160.65,108 L160.65,101.42 L159.446,101.42 L159.446,100.356 L160.65,100.356 L160.65,99.6 C160.65,98.9559968 160.820332,98.4613351 161.161,98.116 C161.501668,97.7706649 161.984664,97.598 162.61,97.598 C163.18867,97.598 163.594665,97.6446662 163.828,97.738 Z M175.126,108 L173.88,108 L173.852,106.964 C173.357331,107.813338 172.601338,108.238 171.584,108.238 C170.89333,108.238 170.305336,108.009336 169.82,107.552 C169.381331,107.150665 169.068668,106.600003 168.882,105.9 C168.751333,105.414664 168.686,104.88267 168.686,104.304 C168.686,103.118661 168.923998,102.15267 169.4,101.406 C169.950669,100.547329 170.734662,100.118 171.752,100.118 C172.769338,100.118 173.455332,100.481996 173.81,101.21 L173.81,97.836 L175.126,97.836 L175.126,108 Z M173.852,104.136 C173.852,102.847994 173.50667,101.956669 172.816,101.462 C172.573332,101.293999 172.288668,101.21 171.962,101.21 C171.27133,101.21 170.762668,101.55533 170.436,102.246 C170.183999,102.768669 170.058,103.412663 170.058,104.178 C170.058,105.064671 170.202665,105.764664 170.492,106.278 C170.818668,106.85667 171.289997,107.146 171.906,107.146 C172.867338,107.146 173.478665,106.506673 173.74,105.228 C173.814667,104.873332 173.852,104.509335 173.852,104.136 Z M183.708,104.528 L178.64,104.528 C178.677334,105.722673 179.031997,106.525331 179.704,106.936 C179.946668,107.094667 180.245332,107.174 180.6,107.174 C181.458671,107.174 182.037332,106.810004 182.336,106.082 L183.47,106.642 C182.919331,107.706005 181.948674,108.238 180.558,108.238 C179.493995,108.238 178.67267,107.846004 178.094,107.062 C177.561997,106.34333 177.296,105.386673 177.296,104.192 C177.296,103.034661 177.566664,102.08267 178.108,101.336 C178.696003,100.523996 179.517328,100.118 180.572,100.118 C181.598672,100.118 182.387331,100.47733 182.938,101.196 C183.451336,101.877337 183.708,102.763995 183.708,103.856 L183.708,104.528 Z M182.364,103.548 C182.289333,102.465328 181.972003,101.732669 181.412,101.35 C181.187999,101.200666 180.908002,101.126 180.572,101.126 C179.722662,101.126 179.144002,101.643995 178.836,102.68 C178.752,102.969335 178.696,103.258665 178.668,103.548 L182.364,103.548 Z M195.622,108 L194.306,108 L194.306,102.82 C194.306,102.231997 194.175335,101.802668 193.914,101.532 C193.699332,101.326666 193.405335,101.224 193.032,101.224 C192.518664,101.224 192.108002,101.489997 191.8,102.022 C191.519999,102.507336 191.38,103.099997 191.38,103.8 L191.38,108 L190.064,108 L190.064,102.82 C190.064,102.21333 189.933335,101.784001 189.672,101.532 C189.457332,101.326666 189.168002,101.224 188.804,101.224 C188.010663,101.224 187.492668,101.765328 187.25,102.848 C187.175333,103.156002 187.138,103.473332 187.138,103.8 L187.138,108 L185.822,108 L185.822,100.356 L187.11,100.356 L187.124,101.308 C187.609336,100.514663 188.309329,100.118 189.224,100.118 C190.222672,100.118 190.875998,100.551996 191.184,101.42 C191.641336,100.551996 192.387995,100.118 193.424,100.118 C194.124003,100.118 194.665331,100.332665 195.048,100.762 C195.430669,101.191335 195.622,101.75133 195.622,102.442 L195.622,108 Z M207.55,108 L206.29,108 C206.215333,107.785332 206.164,107.514668 206.136,107.188 C205.547997,107.888003 204.792005,108.238 203.868,108.238 C203.130663,108.238 202.547335,108.014002 202.118,107.566 C201.725998,107.155331 201.53,106.637336 201.53,106.012 C201.53,104.537326 202.383991,103.683335 204.092,103.45 L206.024,103.184 L206.024,102.372 C206.024,101.503996 205.534005,101.07 204.554,101.07 C204.096664,101.07 203.732668,101.186666 203.462,101.42 C203.237999,101.616001 203.060667,101.872665 202.93,102.19 L201.782,101.742 C201.931334,101.293998 202.225331,100.920668 202.664,100.622 C203.168003,100.285998 203.797996,100.118 204.554,100.118 C206.392676,100.118 207.312,100.873992 207.312,102.386 L207.312,106.684 C207.312,107.169336 207.391333,107.607998 207.55,108 Z M206.024,105.466 L206.024,104.136 L204.302,104.374 C203.340662,104.504667 202.86,105.031995 202.86,105.956 C202.86,106.357335 202.971999,106.672332 203.196,106.901 C203.420001,107.129668 203.732665,107.244 204.134,107.244 C204.656669,107.244 205.102331,107.076002 205.471,106.74 C205.839669,106.403998 206.024,105.979336 206.024,105.466 Z M216.23,108 L214.676,108 L212.212,103.954 L211.176,104.962 L211.176,108 L209.86,108 L209.86,97.836 L211.176,97.836 L211.176,103.422 L214.298,100.356 L215.88,100.356 L213.15,103.03 L216.23,108 Z M221.032,107.972 C220.826666,108.074667 220.37867,108.126 219.688,108.126 C218.493327,108.126 217.896,107.547339 217.896,106.39 L217.896,101.42 L216.706,101.42 L216.706,100.356 L217.896,100.356 L217.896,98.452 L219.212,98.452 L219.212,100.356 L220.962,100.356 L220.962,101.42 L219.212,101.42 L219.212,106.124 C219.212,106.441335 219.274999,106.669999 219.401,106.81 C219.527001,106.950001 219.743998,107.02 220.052,107.02 C220.490669,107.02 220.784666,106.982667 220.934,106.908 L221.032,107.972 Z M228.536,108 L227.262,108 L227.22,106.992 C226.687997,107.822671 225.950671,108.238 225.008,108.238 C224.251996,108.238 223.666335,108.023335 223.251,107.594 C222.835665,107.164665 222.628,106.581337 222.628,105.844 L222.628,100.356 L223.944,100.356 L223.944,105.606 C223.944,106.623338 224.415329,107.132 225.358,107.132 C226.235338,107.132 226.818665,106.590672 227.108,105.508 C227.182667,105.209332 227.22,104.896668 227.22,104.57 L227.22,100.356 L228.536,100.356 L228.536,108 Z M237.118,104.528 L232.05,104.528 C232.087334,105.722673 232.441997,106.525331 233.114,106.936 C233.356668,107.094667 233.655332,107.174 234.01,107.174 C234.868671,107.174 235.447332,106.810004 235.746,106.082 L236.88,106.642 C236.329331,107.706005 235.358674,108.238 233.968,108.238 C232.903995,108.238 232.08267,107.846004 231.504,107.062 C230.971997,106.34333 230.706,105.386673 230.706,104.192 C230.706,103.034661 230.976664,102.08267 231.518,101.336 C232.106003,100.523996 232.927328,100.118 233.982,100.118 C235.008672,100.118 235.797331,100.47733 236.348,101.196 C236.861336,101.877337 237.118,102.763995 237.118,103.856 L237.118,104.528 Z M235.774,103.548 C235.699333,102.465328 235.382003,101.732669 234.822,101.35 C234.597999,101.200666 234.318002,101.126 233.982,101.126 C233.132662,101.126 232.554002,101.643995 232.246,102.68 C232.162,102.969335 232.106,103.258665 232.078,103.548 L235.774,103.548 Z M240.548,108 L239.232,108 L239.232,97.836 L240.548,97.836 L240.548,108 Z M244.412,108 L243.096,108 L243.096,97.836 L244.412,97.836 L244.412,108 Z M252.126,105.872 C252.126,106.684004 251.832003,107.295331 251.244,107.706 C250.730664,108.060668 250.058671,108.238 249.228,108.238 C248.341329,108.238 247.622669,108.046669 247.072,107.664 C246.651998,107.374665 246.358001,107.001336 246.19,106.544 L247.296,105.998 C247.650668,106.791337 248.294662,107.188 249.228,107.188 C250.301339,107.188 250.838,106.782004 250.838,105.97 C250.838,105.615332 250.702668,105.340001 250.432,105.144 C250.254666,105.003999 249.956002,104.878001 249.536,104.766 L248.43,104.458 C247.067327,104.075331 246.386,103.366005 246.386,102.33 C246.386,101.58333 246.67533,101.014002 247.254,100.622 C247.758003,100.285998 248.397329,100.118 249.172,100.118 C249.900004,100.118 250.520664,100.257999 251.034,100.538 C251.398002,100.734001 251.705999,101.009332 251.958,101.364 L251.006,102.106 C250.781999,101.723331 250.427336,101.443334 249.942,101.266 C249.717999,101.191333 249.452002,101.154 249.144,101.154 C248.126662,101.154 247.618,101.531996 247.618,102.288 C247.618,102.801336 248.047329,103.174666 248.906,103.408 L249.998,103.702 C250.670003,103.879334 251.169332,104.112665 251.496,104.402 C251.916002,104.766002 252.126,105.255997 252.126,105.872 Z M257.502,107.972 C257.296666,108.074667 256.84867,108.126 256.158,108.126 C254.963327,108.126 254.366,107.547339 254.366,106.39 L254.366,101.42 L253.176,101.42 L253.176,100.356 L254.366,100.356 L254.366,98.452 L255.682,98.452 L255.682,100.356 L257.432,100.356 L257.432,101.42 L255.682,101.42 L255.682,106.124 C255.682,106.441335 255.744999,106.669999 255.871,106.81 C255.997001,106.950001 256.213998,107.02 256.522,107.02 C256.960669,107.02 257.254666,106.982667 257.404,106.908 L257.502,107.972 Z M265.132,104.528 L260.064,104.528 C260.101334,105.722673 260.455997,106.525331 261.128,106.936 C261.370668,107.094667 261.669332,107.174 262.024,107.174 C262.882671,107.174 263.461332,106.810004 263.76,106.082 L264.894,106.642 C264.343331,107.706005 263.372674,108.238 261.982,108.238 C260.917995,108.238 260.09667,107.846004 259.518,107.062 C258.985997,106.34333 258.72,105.386673 258.72,104.192 C258.72,103.034661 258.990664,102.08267 259.532,101.336 C260.120003,100.523996 260.941328,100.118 261.996,100.118 C263.022672,100.118 263.811331,100.47733 264.362,101.196 C264.875336,101.877337 265.132,102.763995 265.132,103.856 L265.132,104.528 Z M263.788,103.548 C263.713333,102.465328 263.396003,101.732669 262.836,101.35 C262.611999,101.200666 262.332002,101.126 261.996,101.126 C261.146662,101.126 260.568002,101.643995 260.26,102.68 C260.176,102.969335 260.12,103.258665 260.092,103.548 L263.788,103.548 Z M273.168,108 L271.852,108 L271.852,102.82 C271.852,101.755995 271.376005,101.224 270.424,101.224 C269.537329,101.224 268.958668,101.765328 268.688,102.848 C268.604,103.156002 268.562,103.473332 268.562,103.8 L268.562,108 L267.246,108 L267.246,100.356 L268.534,100.356 L268.562,101.364 C269.112669,100.533329 269.873328,100.118 270.844,100.118 C271.581337,100.118 272.152998,100.334998 272.559,100.769 C272.965002,101.203002 273.168,101.77933 273.168,102.498 L273.168,108 Z M286.314,105.228 C286.314,106.646674 285.63734,107.575331 284.284,108.014 C283.798664,108.163334 283.215337,108.238 282.534,108.238 C281.441995,108.238 280.546003,108.009336 279.846,107.552 C279.304664,107.206665 278.940668,106.754003 278.754,106.194 L279.972,105.536 C280.336002,106.562672 281.217993,107.076 282.618,107.076 C284.120674,107.076 284.872,106.488006 284.872,105.312 C284.872,104.789331 284.685335,104.383335 284.312,104.094 C284.041332,103.879332 283.612003,103.702001 283.024,103.562 L281.666,103.24 C279.883324,102.819998 278.992,101.900674 278.992,100.482 C278.992,99.1473267 279.663993,98.2560022 281.008,97.808 C281.446669,97.6679993 281.95533,97.598 282.534,97.598 C283.467338,97.598 284.255997,97.7613317 284.9,98.088 C285.366669,98.3306679 285.739999,98.6619979 286.02,99.082 L284.942,99.95 C284.671332,99.483331 284.209337,99.1333345 283.556,98.9 C283.266665,98.7973328 282.912002,98.746 282.492,98.746 C281.063993,98.746 280.35,99.3013278 280.35,100.412 C280.35,101.224004 280.97066,101.779332 282.212,102.078 L283.57,102.4 C285.399342,102.829335 286.314,103.771993 286.314,105.228 Z M291.536,107.972 C291.330666,108.074667 290.88267,108.126 290.192,108.126 C288.997327,108.126 288.4,107.547339 288.4,106.39 L288.4,101.42 L287.21,101.42 L287.21,100.356 L288.4,100.356 L288.4,98.452 L289.716,98.452 L289.716,100.356 L291.466,100.356 L291.466,101.42 L289.716,101.42 L289.716,106.124 C289.716,106.441335 289.778999,106.669999 289.905,106.81 C290.031001,106.950001 290.247998,107.02 290.556,107.02 C290.994669,107.02 291.288666,106.982667 291.438,106.908 L291.536,107.972 Z M298.62,108 L297.36,108 C297.285333,107.785332 297.234,107.514668 297.206,107.188 C296.617997,107.888003 295.862005,108.238 294.938,108.238 C294.200663,108.238 293.617335,108.014002 293.188,107.566 C292.795998,107.155331 292.6,106.637336 292.6,106.012 C292.6,104.537326 293.453991,103.683335 295.162,103.45 L297.094,103.184 L297.094,102.372 C297.094,101.503996 296.604005,101.07 295.624,101.07 C295.166664,101.07 294.802668,101.186666 294.532,101.42 C294.307999,101.616001 294.130667,101.872665 294,102.19 L292.852,101.742 C293.001334,101.293998 293.295331,100.920668 293.734,100.622 C294.238003,100.285998 294.867996,100.118 295.624,100.118 C297.462676,100.118 298.382,100.873992 298.382,102.386 L298.382,106.684 C298.382,107.169336 298.461333,107.607998 298.62,108 Z M297.094,105.466 L297.094,104.136 L295.372,104.374 C294.410662,104.504667 293.93,105.031995 293.93,105.956 C293.93,106.357335 294.041999,106.672332 294.266,106.901 C294.490001,107.129668 294.802665,107.244 295.204,107.244 C295.726669,107.244 296.172331,107.076002 296.541,106.74 C296.909669,106.403998 297.094,105.979336 297.094,105.466 Z M306.852,108 L305.536,108 L305.536,102.82 C305.536,101.755995 305.060005,101.224 304.108,101.224 C303.221329,101.224 302.642668,101.765328 302.372,102.848 C302.288,103.156002 302.246,103.473332 302.246,103.8 L302.246,108 L300.93,108 L300.93,100.356 L302.218,100.356 L302.246,101.364 C302.796669,100.533329 303.557328,100.118 304.528,100.118 C305.265337,100.118 305.836998,100.334998 306.243,100.769 C306.649002,101.203002 306.852,101.77933 306.852,102.498 L306.852,108 Z M315.462,108 L314.216,108 L314.188,106.964 C313.693331,107.813338 312.937338,108.238 311.92,108.238 C311.22933,108.238 310.641336,108.009336 310.156,107.552 C309.717331,107.150665 309.404668,106.600003 309.218,105.9 C309.087333,105.414664 309.022,104.88267 309.022,104.304 C309.022,103.118661 309.259998,102.15267 309.736,101.406 C310.286669,100.547329 311.070662,100.118 312.088,100.118 C313.105338,100.118 313.791332,100.481996 314.146,101.21 L314.146,97.836 L315.462,97.836 L315.462,108 Z M314.188,104.136 C314.188,102.847994 313.84267,101.956669 313.152,101.462 C312.909332,101.293999 312.624668,101.21 312.298,101.21 C311.60733,101.21 311.098668,101.55533 310.772,102.246 C310.519999,102.768669 310.394,103.412663 310.394,104.178 C310.394,105.064671 310.538665,105.764664 310.828,106.278 C311.154668,106.85667 311.625997,107.146 312.242,107.146 C313.203338,107.146 313.814665,106.506673 314.076,105.228 C314.150667,104.873332 314.188,104.509335 314.188,104.136 Z M319.466,102.218 L317.884,102.218 L317.884,100.356 L319.466,100.356 L319.466,102.218 Z M319.466,108 L317.884,108 L317.884,106.138 L319.466,106.138 L319.466,108 Z" id="BleibenSieabsofortaufdemaktuellstenStand:" fill="#A0A0A0"></path>
                <path d="M15.144,16.84 C15.144,18.7440095 14.5200062,20.1199958 13.272,20.968 C12.2479949,21.6560034 10.8080093,22 8.952,22 L2.184,22 L2.184,4.576 L9.072,4.576 C10.672008,4.576 11.9039957,4.87999696 12.768,5.488 C13.8240053,6.22400368 14.352,7.3519924 14.352,8.872 C14.352,10.4560079 13.656007,11.6879956 12.264,12.568 C14.1840096,13.2400034 15.144,14.6639891 15.144,16.84 Z M11.856,9.136 C11.856,8.1759952 11.5760028,7.496002 11.016,7.096 C10.5359976,6.74399824 9.79200504,6.568 8.784,6.568 L4.488,6.568 L4.488,11.776 L8.616,11.776 C10.1040074,11.776 11.0879976,11.3440043 11.568,10.48 C11.760001,10.1439983 11.856,9.6960028 11.856,9.136 Z M12.624,16.864 C12.624,15.6959942 12.2640036,14.8560026 11.544,14.344 C10.9839972,13.9599981 10.1360057,13.768 9,13.768 L4.488,13.768 L4.488,20.008 L8.76,20.008 C11.3360129,20.008 12.624,18.9600105 12.624,16.864 Z M29.28,16.048 L20.592,16.048 C20.6560003,18.0960102 21.2639942,19.4719965 22.416,20.176 C22.8320021,20.4480014 23.343997,20.584 23.952,20.584 C25.4240074,20.584 26.4159974,19.9600062 26.928,18.712 L28.872,19.672 C27.9279953,21.4960091 26.2640119,22.408 23.88,22.408 C22.0559909,22.408 20.648005,21.7360067 19.656,20.392 C18.7439954,19.1599938 18.288,17.5200102 18.288,15.472 C18.288,13.4879901 18.7519954,11.8560064 19.68,10.576 C20.688005,9.18399304 22.095991,8.488 23.904,8.488 C25.6640088,8.488 27.0159953,9.10399384 27.96,10.336 C28.8400044,11.5040058 29.28,13.0239906 29.28,14.896 L29.28,16.048 Z M26.976,14.368 C26.8479994,12.5119907 26.3040048,11.2560033 25.344,10.6 C24.9599981,10.3439987 24.4800029,10.216 23.904,10.216 C22.4479927,10.216 21.4560026,11.1039911 20.928,12.88 C20.7839993,13.3760025 20.6880002,13.8719975 20.64,14.368 L26.976,14.368 Z M41.76,18.352 C41.76,19.744007 41.256005,20.7919965 40.248,21.496 C39.3679956,22.104003 38.2160071,22.408 36.792,22.408 C35.2719924,22.408 34.0400047,22.0800033 33.096,21.424 C32.3759964,20.9279975 31.8720014,20.2880039 31.584,19.504 L33.48,18.568 C34.088003,19.9280068 35.191992,20.608 36.792,20.608 C38.6320092,20.608 39.552,19.912007 39.552,18.52 C39.552,17.911997 39.3200023,17.4400017 38.856,17.104 C38.5519985,16.8639988 38.0400036,16.648001 37.32,16.456 L35.424,15.928 C33.0879883,15.2719967 31.92,14.0560089 31.92,12.28 C31.92,10.9999936 32.415995,10.0240034 33.408,9.352 C34.2720043,8.77599712 35.3679934,8.488 36.696,8.488 C37.9440062,8.488 39.0079956,8.7279976 39.888,9.208 C40.5120031,9.54400168 41.0399978,10.015997 41.472,10.624 L39.84,11.896 C39.4559981,11.2399967 38.8480042,10.7600015 38.016,10.456 C37.6319981,10.3279994 37.1760026,10.264 36.648,10.264 C34.9039913,10.264 34.032,10.9119935 34.032,12.208 C34.032,13.0880044 34.7679926,13.727998 36.24,14.128 L38.112,14.632 C39.2640058,14.9360015 40.1199972,15.3359975 40.68,15.832 C41.4000036,16.4560031 41.76,17.2959947 41.76,18.352 Z M50.976,21.952 C50.6239982,22.1280009 49.8560059,22.216 48.672,22.216 C46.6239898,22.216 45.6,21.2240099 45.6,19.24 L45.6,10.72 L43.56,10.72 L43.56,8.896 L45.6,8.896 L45.6,5.632 L47.856,5.632 L47.856,8.896 L50.856,8.896 L50.856,10.72 L47.856,10.72 L47.856,18.784 C47.856,19.3280027 47.9639989,19.7199988 48.18,19.96 C48.3960011,20.2000012 48.7679974,20.32 49.296,20.32 C50.0480038,20.32 50.5519987,20.2560006 50.808,20.128 L50.976,21.952 Z M64.056,16.048 L55.368,16.048 C55.4320003,18.0960102 56.0399942,19.4719965 57.192,20.176 C57.6080021,20.4480014 58.119997,20.584 58.728,20.584 C60.2000074,20.584 61.1919974,19.9600062 61.704,18.712 L63.648,19.672 C62.7039953,21.4960091 61.0400119,22.408 58.656,22.408 C56.8319909,22.408 55.424005,21.7360067 54.432,20.392 C53.5199954,19.1599938 53.064,17.5200102 53.064,15.472 C53.064,13.4879901 53.5279954,11.8560064 54.456,10.576 C55.464005,9.18399304 56.871991,8.488 58.68,8.488 C60.4400088,8.488 61.7919953,9.10399384 62.736,10.336 C63.6160044,11.5040058 64.056,13.0239906 64.056,14.896 L64.056,16.048 Z M61.752,14.368 C61.6239994,12.5119907 61.0800048,11.2560033 60.12,10.6 C59.7359981,10.3439987 59.2560029,10.216 58.68,10.216 C57.2239927,10.216 56.2320026,11.1039911 55.704,12.88 C55.5599993,13.3760025 55.4640002,13.8719975 55.416,14.368 L61.752,14.368 Z M77.832,22 L75.576,22 L75.576,13.12 C75.576,11.2959909 74.7600082,10.384 73.128,10.384 C71.6079924,10.384 70.6160023,11.3119907 70.152,13.168 C70.0079993,13.6960026 69.936,14.2399972 69.936,14.8 L69.936,22 L67.68,22 L67.68,8.896 L69.888,8.896 L69.936,10.624 C70.8800047,9.19999288 72.1839917,8.488 73.848,8.488 C75.1120063,8.488 76.0919965,8.85999628 76.788,9.604 C77.4840035,10.3480037 77.832,11.3359938 77.832,12.568 L77.832,22 Z M91.056,18.352 C91.056,19.744007 90.552005,20.7919965 89.544,21.496 C88.6639956,22.104003 87.5120071,22.408 86.088,22.408 C84.5679924,22.408 83.3360047,22.0800033 82.392,21.424 C81.6719964,20.9279975 81.1680014,20.2880039 80.88,19.504 L82.776,18.568 C83.384003,19.9280068 84.487992,20.608 86.088,20.608 C87.9280092,20.608 88.848,19.912007 88.848,18.52 C88.848,17.911997 88.6160023,17.4400017 88.152,17.104 C87.8479985,16.8639988 87.3360036,16.648001 86.616,16.456 L84.72,15.928 C82.3839883,15.2719967 81.216,14.0560089 81.216,12.28 C81.216,10.9999936 81.711995,10.0240034 82.704,9.352 C83.5680043,8.77599712 84.6639934,8.488 85.992,8.488 C87.2400062,8.488 88.3039956,8.7279976 89.184,9.208 C89.8080031,9.54400168 90.3359978,10.015997 90.768,10.624 L89.136,11.896 C88.7519981,11.2399967 88.1440042,10.7600015 87.312,10.456 C86.9279981,10.3279994 86.4720026,10.264 85.944,10.264 C84.1999913,10.264 83.328,10.9119935 83.328,12.208 C83.328,13.0880044 84.0639926,13.727998 85.536,14.128 L87.408,14.632 C88.5600058,14.9360015 89.4159972,15.3359975 89.976,15.832 C90.6960036,16.4560031 91.056,17.2959947 91.056,18.352 Z M110.352,8.896 L106.152,22 L103.344,22 L99.168,8.896 L101.544,8.896 L104.808,19.84 L108.072,8.896 L110.352,8.896 Z M123.168,16.048 L114.48,16.048 C114.544,18.0960102 115.151994,19.4719965 116.304,20.176 C116.720002,20.4480014 117.231997,20.584 117.84,20.584 C119.312007,20.584 120.303997,19.9600062 120.816,18.712 L122.76,19.672 C121.815995,21.4960091 120.152012,22.408 117.768,22.408 C115.943991,22.408 114.536005,21.7360067 113.544,20.392 C112.631995,19.1599938 112.176,17.5200102 112.176,15.472 C112.176,13.4879901 112.639995,11.8560064 113.568,10.576 C114.576005,9.18399304 115.983991,8.488 117.792,8.488 C119.552009,8.488 120.903995,9.10399384 121.848,10.336 C122.728004,11.5040058 123.168,13.0239906 123.168,14.896 L123.168,16.048 Z M120.864,14.368 C120.735999,12.5119907 120.192005,11.2560033 119.232,10.6 C118.847998,10.3439987 118.368003,10.216 117.792,10.216 C116.335993,10.216 115.344003,11.1039911 114.816,12.88 C114.671999,13.3760025 114.576,13.8719975 114.528,14.368 L120.864,14.368 Z M133.704,8.896 L133.512,10.84 C133.079998,10.7439995 132.656002,10.696 132.24,10.696 C130.767993,10.696 129.792002,11.4319926 129.312,12.904 C129.135999,13.4160026 129.048,14.0319964 129.048,14.752 L129.048,22 L126.792,22 L126.792,8.896 L128.976,8.896 L129.024,10.696 C129.776004,9.39999352 130.887993,8.752 132.36,8.752 C132.824002,8.752 133.271998,8.79999952 133.704,8.896 Z M146.16,22 L143.904,22 L143.904,13.12 C143.904,11.2959909 143.088008,10.384 141.456,10.384 C139.935992,10.384 138.944002,11.3119907 138.48,13.168 C138.335999,13.6960026 138.264,14.2399972 138.264,14.8 L138.264,22 L136.008,22 L136.008,8.896 L138.216,8.896 L138.264,10.624 C139.208005,9.19999288 140.511992,8.488 142.176,8.488 C143.440006,8.488 144.419997,8.85999628 145.116,9.604 C145.812003,10.3480037 146.16,11.3359938 146.16,12.568 L146.16,22 Z M160.872,16.048 L152.184,16.048 C152.248,18.0960102 152.855994,19.4719965 154.008,20.176 C154.424002,20.4480014 154.935997,20.584 155.544,20.584 C157.016007,20.584 158.007997,19.9600062 158.52,18.712 L160.464,19.672 C159.519995,21.4960091 157.856012,22.408 155.472,22.408 C153.647991,22.408 152.240005,21.7360067 151.248,20.392 C150.335995,19.1599938 149.88,17.5200102 149.88,15.472 C149.88,13.4879901 150.343995,11.8560064 151.272,10.576 C152.280005,9.18399304 153.687991,8.488 155.496,8.488 C157.256009,8.488 158.607995,9.10399384 159.552,10.336 C160.432004,11.5040058 160.872,13.0239906 160.872,14.896 L160.872,16.048 Z M158.568,14.368 C158.439999,12.5119907 157.896005,11.2560033 156.936,10.6 C156.551998,10.3439987 156.072003,10.216 155.496,10.216 C154.039993,10.216 153.048003,11.1039911 152.52,12.88 C152.375999,13.3760025 152.28,13.8719975 152.232,14.368 L158.568,14.368 Z M170.376,21.952 C170.023998,22.1280009 169.256006,22.216 168.072,22.216 C166.02399,22.216 165,21.2240099 165,19.24 L165,10.72 L162.96,10.72 L162.96,8.896 L165,8.896 L165,5.632 L167.256,5.632 L167.256,8.896 L170.256,8.896 L170.256,10.72 L167.256,10.72 L167.256,18.784 C167.256,19.3280027 167.363999,19.7199988 167.58,19.96 C167.796001,20.2000012 168.167997,20.32 168.696,20.32 C169.448004,20.32 169.951999,20.2560006 170.208,20.128 L170.376,21.952 Z M181.464,22 L171.768,22 L171.768,20.32 L178.56,10.72 L172.08,10.72 L172.08,8.896 L181.224,8.896 L181.224,10.576 L174.384,20.2 L181.464,20.2 L181.464,22 Z M190.368,21.952 C190.015998,22.1280009 189.248006,22.216 188.064,22.216 C186.01599,22.216 184.992,21.2240099 184.992,19.24 L184.992,10.72 L182.952,10.72 L182.952,8.896 L184.992,8.896 L184.992,5.632 L187.248,5.632 L187.248,8.896 L190.248,8.896 L190.248,10.72 L187.248,10.72 L187.248,18.784 C187.248,19.3280027 187.355999,19.7199988 187.572,19.96 C187.788001,20.2000012 188.159997,20.32 188.688,20.32 C189.440004,20.32 189.943999,20.2560006 190.2,20.128 L190.368,21.952 Z M216.576,22 L214.32,22 L214.32,13.12 C214.32,12.111995 214.096002,11.3760023 213.648,10.912 C213.279998,10.5599982 212.776003,10.384 212.136,10.384 C211.255996,10.384 210.552003,10.8399954 210.024,11.752 C209.543998,12.5840042 209.304,13.599994 209.304,14.8 L209.304,22 L207.048,22 L207.048,13.12 C207.048,12.0799948 206.824002,11.3440022 206.376,10.912 C206.007998,10.5599982 205.512003,10.384 204.888,10.384 C203.527993,10.384 202.640002,11.3119907 202.224,13.168 C202.095999,13.6960026 202.032,14.2399972 202.032,14.8 L202.032,22 L199.776,22 L199.776,8.896 L201.984,8.896 L202.008,10.528 C202.840004,9.1679932 204.039992,8.488 205.608,8.488 C207.320009,8.488 208.439997,9.23199256 208.968,10.72 C209.752004,9.23199256 211.031991,8.488 212.808,8.488 C214.008006,8.488 214.935997,8.85599632 215.592,9.592 C216.248003,10.3280037 216.576,11.2879941 216.576,12.472 L216.576,22 Z M223.2,7.048 L220.944,7.048 L220.944,4.576 L223.2,4.576 L223.2,7.048 Z M223.2,22 L220.944,22 L220.944,8.896 L223.2,8.896 L223.2,22 Z M233.448,21.952 C233.095998,22.1280009 232.328006,22.216 231.144,22.216 C229.09599,22.216 228.072,21.2240099 228.072,19.24 L228.072,10.72 L226.032,10.72 L226.032,8.896 L228.072,8.896 L228.072,5.632 L230.328,5.632 L230.328,8.896 L233.328,8.896 L233.328,10.72 L230.328,10.72 L230.328,18.784 C230.328,19.3280027 230.435999,19.7199988 230.652,19.96 C230.868001,20.2000012 231.239997,20.32 231.768,20.32 C232.520004,20.32 233.023999,20.2560006 233.28,20.128 L233.448,21.952 Z M245.256,22 L242.856,22 L242.856,4.576 L245.256,4.576 L245.256,22 Z M259.752,22 L257.496,22 L257.496,13.12 C257.496,11.2959909 256.680008,10.384 255.048,10.384 C253.511992,10.384 252.520002,11.3119907 252.072,13.168 C251.943999,13.6960026 251.88,14.2399972 251.88,14.8 L251.88,22 L249.624,22 L249.624,4.576 L251.88,4.576 L251.88,10.456 C252.808005,9.14399344 254.103992,8.488 255.768,8.488 C257.032006,8.488 258.011997,8.85999628 258.708,9.604 C259.404003,10.3480037 259.752,11.3359938 259.752,12.568 L259.752,22 Z M271.032,8.896 L270.84,10.84 C270.407998,10.7439995 269.984002,10.696 269.568,10.696 C268.095993,10.696 267.120002,11.4319926 266.64,12.904 C266.463999,13.4160026 266.376,14.0319964 266.376,14.752 L266.376,22 L264.12,22 L264.12,8.896 L266.304,8.896 L266.352,10.696 C267.104004,9.39999352 268.215993,8.752 269.688,8.752 C270.152002,8.752 270.599998,8.79999952 271.032,8.896 Z M283.68,16.048 L274.992,16.048 C275.056,18.0960102 275.663994,19.4719965 276.816,20.176 C277.232002,20.4480014 277.743997,20.584 278.352,20.584 C279.824007,20.584 280.815997,19.9600062 281.328,18.712 L283.272,19.672 C282.327995,21.4960091 280.664012,22.408 278.28,22.408 C276.455991,22.408 275.048005,21.7360067 274.056,20.392 C273.143995,19.1599938 272.688,17.5200102 272.688,15.472 C272.688,13.4879901 273.151995,11.8560064 274.08,10.576 C275.088005,9.18399304 276.495991,8.488 278.304,8.488 C280.064009,8.488 281.415995,9.10399384 282.36,10.336 C283.240004,11.5040058 283.68,13.0239906 283.68,14.896 L283.68,16.048 Z M281.376,14.368 C281.247999,12.5119907 280.704005,11.2560033 279.744,10.6 C279.359998,10.3439987 278.880003,10.216 278.304,10.216 C276.847993,10.216 275.856003,11.1039911 275.328,12.88 C275.183999,13.3760025 275.088,13.8719975 275.04,14.368 L281.376,14.368 Z M304.104,22 L301.848,22 L301.848,13.12 C301.848,12.111995 301.624002,11.3760023 301.176,10.912 C300.807998,10.5599982 300.304003,10.384 299.664,10.384 C298.783996,10.384 298.080003,10.8399954 297.552,11.752 C297.071998,12.5840042 296.832,13.599994 296.832,14.8 L296.832,22 L294.576,22 L294.576,13.12 C294.576,12.0799948 294.352002,11.3440022 293.904,10.912 C293.535998,10.5599982 293.040003,10.384 292.416,10.384 C291.055993,10.384 290.168002,11.3119907 289.752,13.168 C289.623999,13.6960026 289.56,14.2399972 289.56,14.8 L289.56,22 L287.304,22 L287.304,8.896 L289.512,8.896 L289.536,10.528 C290.368004,9.1679932 291.567992,8.488 293.136,8.488 C294.848009,8.488 295.967997,9.23199256 296.496,10.72 C297.280004,9.23199256 298.559991,8.488 300.336,8.488 C301.536006,8.488 302.463997,8.85599632 303.12,9.592 C303.776003,10.3280037 304.104,11.2879941 304.104,12.472 L304.104,22 Z M15.144,45.84 C15.144,47.7440095 14.5200062,49.1199958 13.272,49.968 C12.2479949,50.6560034 10.8080093,51 8.952,51 L2.184,51 L2.184,33.576 L9.072,33.576 C10.672008,33.576 11.9039957,33.879997 12.768,34.488 C13.8240053,35.2240037 14.352,36.3519924 14.352,37.872 C14.352,39.4560079 13.656007,40.6879956 12.264,41.568 C14.1840096,42.2400034 15.144,43.6639891 15.144,45.84 Z M11.856,38.136 C11.856,37.1759952 11.5760028,36.496002 11.016,36.096 C10.5359976,35.7439982 9.79200504,35.568 8.784,35.568 L4.488,35.568 L4.488,40.776 L8.616,40.776 C10.1040074,40.776 11.0879976,40.3440043 11.568,39.48 C11.760001,39.1439983 11.856,38.6960028 11.856,38.136 Z M12.624,45.864 C12.624,44.6959942 12.2640036,43.8560026 11.544,43.344 C10.9839972,42.9599981 10.1360057,42.768 9,42.768 L4.488,42.768 L4.488,49.008 L8.76,49.008 C11.3360129,49.008 12.624,47.9600105 12.624,45.864 Z M36.48,51 L34.224,51 L34.224,36.192 L28.8,51 L26.4,51 L21.192,36.216 L21.192,51 L18.936,51 L18.936,33.576 L22.488,33.576 L27.672,48.312 L33.048,33.576 L36.48,33.576 L36.48,51 Z M60.192,33.576 L55.92,51 L53.088,51 L49.68,36.792 L46.104,51 L43.248,51 L39.264,33.576 L41.808,33.576 L44.952,48.336 L48.408,33.576 L51.024,33.576 L54.36,48.36 L57.696,33.576 L60.192,33.576 Z" id="BestensvernetztmitIhremBMW" fill="#A0A0A0"></path>
                <polygon id="Hi---Lite-Bar" fill="#404648" points="0 74 0 70 78 70 75.1111111 74"></polygon>
                <path d="M4.298,134.06 L0.378,134.06 L0.378,132.688 L4.298,132.688 L4.298,134.06 Z M16.534,134.228 C16.534,135.646674 15.8573401,136.575331 14.504,137.014 C14.0186642,137.163334 13.4353367,137.238 12.754,137.238 C11.6619945,137.238 10.7660035,137.009336 10.066,136.552 C9.52466396,136.206665 9.1606676,135.754003 8.974,135.194 L10.192,134.536 C10.5560018,135.562672 11.437993,136.076 12.838,136.076 C14.3406742,136.076 15.092,135.488006 15.092,134.312 C15.092,133.789331 14.9053352,133.383335 14.532,133.094 C14.261332,132.879332 13.8320029,132.702001 13.244,132.562 L11.886,132.24 C10.1033244,131.819998 9.212,130.900674 9.212,129.482 C9.212,128.147327 9.88399328,127.256002 11.228,126.808 C11.6666689,126.667999 12.1753304,126.598 12.754,126.598 C13.687338,126.598 14.4759968,126.761332 15.12,127.088 C15.586669,127.330668 15.9599986,127.661998 16.24,128.082 L15.162,128.95 C14.891332,128.483331 14.4293366,128.133334 13.776,127.9 C13.4866652,127.797333 13.1320021,127.746 12.712,127.746 C11.2839929,127.746 10.57,128.301328 10.57,129.412 C10.57,130.224004 11.1906605,130.779332 12.432,131.078 L13.79,131.4 C15.6193425,131.829335 16.534,132.771993 16.534,134.228 Z M24.766,133.052 C24.766,134.237339 24.532669,135.198663 24.066,135.936 C23.5059972,136.804004 22.7173384,137.238 21.7,137.238 C20.6733282,137.238 19.9873351,136.855337 19.642,136.09 L19.642,139.576 L18.326,139.576 L18.326,129.356 L19.586,129.356 L19.614,130.392 C20.1086691,129.542662 20.859995,129.118 21.868,129.118 C22.5586701,129.118 23.1466642,129.346664 23.632,129.804 C24.0706689,130.205335 24.3833324,130.755996 24.57,131.456 C24.7006673,131.941336 24.766,132.47333 24.766,133.052 Z M23.394,133.178 C23.394,132.291329 23.2493348,131.586669 22.96,131.064 C22.6333317,130.494664 22.1620031,130.21 21.546,130.21 C20.5846619,130.21 19.9733346,130.84466 19.712,132.114 C19.637333,132.478002 19.6,132.846665 19.6,133.22 C19.6,134.508006 19.9499965,135.399331 20.65,135.894 C20.8833345,136.062001 21.1633317,136.146 21.49,136.146 C22.1806701,136.146 22.6893317,135.80067 23.016,135.11 C23.2680013,134.587331 23.394,133.943337 23.394,133.178 Z M32.97,133.528 L27.902,133.528 C27.9393335,134.722673 28.2939966,135.525331 28.966,135.936 C29.2086679,136.094667 29.5073316,136.174 29.862,136.174 C30.720671,136.174 31.2993318,135.810004 31.598,135.082 L32.732,135.642 C32.1813306,136.706005 31.2106736,137.238 29.82,137.238 C28.7559947,137.238 27.9346696,136.846004 27.356,136.062 C26.8239973,135.34333 26.558,134.386673 26.558,133.192 C26.558,132.034661 26.828664,131.08267 27.37,130.336 C27.9580029,129.523996 28.7793281,129.118 29.834,129.118 C30.8606718,129.118 31.6493306,129.47733 32.2,130.196 C32.7133359,130.877337 32.97,131.763995 32.97,132.856 L32.97,133.528 Z M31.626,132.548 C31.551333,131.465328 31.2340028,130.732669 30.674,130.35 C30.4499989,130.200666 30.1700017,130.126 29.834,130.126 C28.9846624,130.126 28.4060015,130.643995 28.098,131.68 C28.0139996,131.969335 27.9580001,132.258665 27.93,132.548 L31.626,132.548 Z M39.956,137 L34.3,137 L34.3,136.02 L38.262,130.42 L34.482,130.42 L34.482,129.356 L39.816,129.356 L39.816,130.336 L35.826,135.95 L39.956,135.95 L39.956,137 Z M43.036,128.278 L41.72,128.278 L41.72,126.836 L43.036,126.836 L43.036,128.278 Z M43.036,137 L41.72,137 L41.72,129.356 L43.036,129.356 L43.036,137 Z M49.07,126.738 L49,127.69 C48.803999,127.624666 48.5146686,127.592 48.132,127.592 C47.5159969,127.592 47.208,127.93733 47.208,128.628 L47.208,129.356 L49,129.356 L49,130.42 L47.208,130.42 L47.208,137 L45.892,137 L45.892,130.42 L44.688,130.42 L44.688,129.356 L45.892,129.356 L45.892,128.6 C45.892,127.955997 46.0623316,127.461335 46.403,127.116 C46.7436684,126.770665 47.2266635,126.598 47.852,126.598 C48.4306696,126.598 48.8366655,126.644666 49.07,126.738 Z M51.73,128.278 L50.414,128.278 L50.414,126.836 L51.73,126.836 L51.73,128.278 Z M51.73,137 L50.414,137 L50.414,129.356 L51.73,129.356 L51.73,137 Z M59.444,134.872 C59.444,135.684004 59.1500029,136.295331 58.562,136.706 C58.0486641,137.060668 57.3766708,137.238 56.546,137.238 C55.6593289,137.238 54.9406694,137.046669 54.39,136.664 C53.9699979,136.374665 53.6760008,136.001336 53.508,135.544 L54.614,134.998 C54.9686684,135.791337 55.612662,136.188 56.546,136.188 C57.6193387,136.188 58.156,135.782004 58.156,134.97 C58.156,134.615332 58.020668,134.340001 57.75,134.144 C57.5726658,134.003999 57.2740021,133.878001 56.854,133.766 L55.748,133.458 C54.3853265,133.075331 53.704,132.366005 53.704,131.33 C53.704,130.58333 53.9933304,130.014002 54.572,129.622 C55.0760025,129.285998 55.7153295,129.118 56.49,129.118 C57.2180036,129.118 57.8386641,129.257999 58.352,129.538 C58.7160018,129.734001 59.0239987,130.009332 59.276,130.364 L58.324,131.106 C58.0999989,130.723331 57.7453358,130.443334 57.26,130.266 C57.0359989,130.191333 56.7700015,130.154 56.462,130.154 C55.4446616,130.154 54.936,130.531996 54.936,131.288 C54.936,131.801336 55.365329,132.174666 56.224,132.408 L57.316,132.702 C57.9880034,132.879334 58.4873317,133.112665 58.814,133.402 C59.2340021,133.766002 59.444,134.255997 59.444,134.872 Z M67.074,135.698 C66.5513307,136.724672 65.6133401,137.238 64.26,137.238 C63.1959947,137.238 62.3793362,136.836671 61.81,136.034 C61.2779973,135.305996 61.012,134.358673 61.012,133.192 C61.012,132.006661 61.282664,131.045337 61.824,130.308 C62.4120029,129.514663 63.2379947,129.118 64.302,129.118 C65.62734,129.118 66.5466641,129.617328 67.06,130.616 L65.982,131.274 C65.7953324,130.891331 65.5760013,130.618334 65.324,130.455 C65.0719987,130.291666 64.7360021,130.21 64.316,130.21 C63.3546619,130.21 62.7433346,130.811994 62.482,132.016 C62.3979996,132.380002 62.356,132.771998 62.356,133.192 C62.356,134.526673 62.7059965,135.427331 63.406,135.894 C63.6580013,136.062001 63.9613316,136.146 64.316,136.146 C64.9880034,136.146 65.4733318,135.912669 65.772,135.446 C65.846667,135.324666 65.9119997,135.203334 65.968,135.082 L67.074,135.698 Z M74.816,137 L73.5,137 L73.5,131.82 C73.5,130.755995 73.0240048,130.224 72.072,130.224 C71.1759955,130.224 70.5973346,130.765328 70.336,131.848 C70.261333,132.156002 70.224,132.473332 70.224,132.8 L70.224,137 L68.908,137 L68.908,126.836 L70.224,126.836 L70.224,130.266 C70.765336,129.500663 71.5213285,129.118 72.492,129.118 C73.229337,129.118 73.800998,129.334998 74.207,129.769 C74.613002,130.203002 74.816,130.77933 74.816,131.498 L74.816,137 Z M83.398,133.528 L78.33,133.528 C78.3673335,134.722673 78.7219966,135.525331 79.394,135.936 C79.6366679,136.094667 79.9353316,136.174 80.29,136.174 C81.148671,136.174 81.7273318,135.810004 82.026,135.082 L83.16,135.642 C82.6093306,136.706005 81.6386736,137.238 80.248,137.238 C79.1839947,137.238 78.3626696,136.846004 77.784,136.062 C77.2519973,135.34333 76.986,134.386673 76.986,133.192 C76.986,132.034661 77.256664,131.08267 77.798,130.336 C78.3860029,129.523996 79.2073281,129.118 80.262,129.118 C81.2886718,129.118 82.0773306,129.47733 82.628,130.196 C83.1413359,130.877337 83.398,131.763995 83.398,132.856 L83.398,133.528 Z M82.054,132.548 C81.979333,131.465328 81.6620028,130.732669 81.102,130.35 C80.8779989,130.200666 80.5980017,130.126 80.262,130.126 C79.4126624,130.126 78.8340015,130.643995 78.526,131.68 C78.4419996,131.969335 78.3860001,132.258665 78.358,132.548 L82.054,132.548 Z M90.804,137 L89.404,137 L89.404,126.836 L90.804,126.836 L90.804,137 Z M99.274,137 L97.958,137 L97.958,131.82 C97.958,130.755995 97.4820048,130.224 96.53,130.224 C95.6433289,130.224 95.064668,130.765328 94.794,131.848 C94.7099996,132.156002 94.668,132.473332 94.668,132.8 L94.668,137 L93.352,137 L93.352,129.356 L94.64,129.356 L94.668,130.364 C95.2186694,129.533329 95.9793285,129.118 96.95,129.118 C97.687337,129.118 98.258998,129.334998 98.665,129.769 C99.071002,130.203002 99.274,130.77933 99.274,131.498 L99.274,137 Z M105.308,126.738 L105.238,127.69 C105.041999,127.624666 104.752669,127.592 104.37,127.592 C103.753997,127.592 103.446,127.93733 103.446,128.628 L103.446,129.356 L105.238,129.356 L105.238,130.42 L103.446,130.42 L103.446,137 L102.13,137 L102.13,130.42 L100.926,130.42 L100.926,129.356 L102.13,129.356 L102.13,128.6 C102.13,127.955997 102.300332,127.461335 102.641,127.116 C102.981668,126.770665 103.464664,126.598 104.09,126.598 C104.66867,126.598 105.074665,126.644666 105.308,126.738 Z M113.036,133.192 C113.036,134.396006 112.760669,135.35733 112.21,136.076 C111.612664,136.850671 110.758672,137.238 109.648,137.238 C108.527994,137.238 107.67867,136.850671 107.1,136.076 C106.549331,135.35733 106.274,134.396006 106.274,133.192 C106.274,131.978661 106.549331,131.01267 107.1,130.294 C107.688003,129.509996 108.537328,129.118 109.648,129.118 C110.749339,129.118 111.60333,129.509996 112.21,130.294 C112.760669,131.01267 113.036,131.978661 113.036,133.192 Z M111.692,133.192 C111.692,131.829327 111.31867,130.914669 110.572,130.448 C110.310665,130.289333 110.002668,130.21 109.648,130.21 C108.649328,130.21 108.014668,130.821327 107.744,132.044 C107.66,132.408002 107.618,132.790665 107.618,133.192 C107.618,134.54534 107.99133,135.450664 108.738,135.908 C108.990001,136.066667 109.293332,136.146 109.648,136.146 C110.665338,136.146 111.309332,135.539339 111.58,134.326 C111.654667,133.971332 111.692,133.593335 111.692,133.192 Z M119.238,129.356 L119.126,130.49 C118.873999,130.434 118.626668,130.406 118.384,130.406 C117.525329,130.406 116.956001,130.835329 116.676,131.694 C116.573333,131.992668 116.522,132.351998 116.522,132.772 L116.522,137 L115.206,137 L115.206,129.356 L116.48,129.356 L116.508,130.406 C116.946669,129.649996 117.595329,129.272 118.454,129.272 C118.724668,129.272 118.985999,129.3 119.238,129.356 Z M130.382,137 L129.066,137 L129.066,131.82 C129.066,131.231997 128.935335,130.802668 128.674,130.532 C128.459332,130.326666 128.165335,130.224 127.792,130.224 C127.278664,130.224 126.868002,130.489997 126.56,131.022 C126.279999,131.507336 126.14,132.099997 126.14,132.8 L126.14,137 L124.824,137 L124.824,131.82 C124.824,131.21333 124.693335,130.784001 124.432,130.532 C124.217332,130.326666 123.928002,130.224 123.564,130.224 C122.770663,130.224 122.252668,130.765328 122.01,131.848 C121.935333,132.156002 121.898,132.473332 121.898,132.8 L121.898,137 L120.582,137 L120.582,129.356 L121.87,129.356 L121.884,130.308 C122.369336,129.514663 123.069329,129.118 123.984,129.118 C124.982672,129.118 125.635998,129.551996 125.944,130.42 C126.401336,129.551996 127.147995,129.118 128.184,129.118 C128.884004,129.118 129.425331,129.332665 129.808,129.762 C130.190669,130.191335 130.382,130.75133 130.382,131.442 L130.382,137 Z M138.418,137 L137.158,137 C137.083333,136.785332 137.032,136.514668 137.004,136.188 C136.415997,136.888003 135.660005,137.238 134.736,137.238 C133.998663,137.238 133.415335,137.014002 132.986,136.566 C132.593998,136.155331 132.398,135.637336 132.398,135.012 C132.398,133.537326 133.251991,132.683335 134.96,132.45 L136.892,132.184 L136.892,131.372 C136.892,130.503996 136.402005,130.07 135.422,130.07 C134.964664,130.07 134.600668,130.186666 134.33,130.42 C134.105999,130.616001 133.928667,130.872665 133.798,131.19 L132.65,130.742 C132.799334,130.293998 133.093331,129.920668 133.532,129.622 C134.036003,129.285998 134.665996,129.118 135.422,129.118 C137.260676,129.118 138.18,129.873992 138.18,131.386 L138.18,135.684 C138.18,136.169336 138.259333,136.607998 138.418,137 Z M136.892,134.466 L136.892,133.136 L135.17,133.374 C134.208662,133.504667 133.728,134.031995 133.728,134.956 C133.728,135.357335 133.839999,135.672332 134.064,135.901 C134.288001,136.129668 134.600665,136.244 135.002,136.244 C135.524669,136.244 135.970331,136.076002 136.339,135.74 C136.707669,135.403998 136.892,134.979336 136.892,134.466 Z M144.158,136.972 C143.952666,137.074667 143.50467,137.126 142.814,137.126 C141.619327,137.126 141.022,136.547339 141.022,135.39 L141.022,130.42 L139.832,130.42 L139.832,129.356 L141.022,129.356 L141.022,127.452 L142.338,127.452 L142.338,129.356 L144.088,129.356 L144.088,130.42 L142.338,130.42 L142.338,135.124 C142.338,135.441335 142.400999,135.669999 142.527,135.81 C142.653001,135.950001 142.869998,136.02 143.178,136.02 C143.616669,136.02 143.910666,135.982667 144.06,135.908 L144.158,136.972 Z M147.07,128.278 L145.754,128.278 L145.754,126.836 L147.07,126.836 L147.07,128.278 Z M147.07,137 L145.754,137 L145.754,129.356 L147.07,129.356 L147.07,137 Z M156.002,133.192 C156.002,134.396006 155.726669,135.35733 155.176,136.076 C154.578664,136.850671 153.724672,137.238 152.614,137.238 C151.493994,137.238 150.64467,136.850671 150.066,136.076 C149.515331,135.35733 149.24,134.396006 149.24,133.192 C149.24,131.978661 149.515331,131.01267 150.066,130.294 C150.654003,129.509996 151.503328,129.118 152.614,129.118 C153.715339,129.118 154.56933,129.509996 155.176,130.294 C155.726669,131.01267 156.002,131.978661 156.002,133.192 Z M154.658,133.192 C154.658,131.829327 154.28467,130.914669 153.538,130.448 C153.276665,130.289333 152.968668,130.21 152.614,130.21 C151.615328,130.21 150.980668,130.821327 150.71,132.044 C150.626,132.408002 150.584,132.790665 150.584,133.192 C150.584,134.54534 150.95733,135.450664 151.704,135.908 C151.956001,136.066667 152.259332,136.146 152.614,136.146 C153.631338,136.146 154.275332,135.539339 154.546,134.326 C154.620667,133.971332 154.658,133.593335 154.658,133.192 Z M164.094,137 L162.778,137 L162.778,131.82 C162.778,130.755995 162.302005,130.224 161.35,130.224 C160.463329,130.224 159.884668,130.765328 159.614,131.848 C159.53,132.156002 159.488,132.473332 159.488,132.8 L159.488,137 L158.172,137 L158.172,129.356 L159.46,129.356 L159.488,130.364 C160.038669,129.533329 160.799328,129.118 161.77,129.118 C162.507337,129.118 163.078998,129.334998 163.485,129.769 C163.891002,130.203002 164.094,130.77933 164.094,131.498 L164.094,137 Z M172.676,133.528 L167.608,133.528 C167.645334,134.722673 167.999997,135.525331 168.672,135.936 C168.914668,136.094667 169.213332,136.174 169.568,136.174 C170.426671,136.174 171.005332,135.810004 171.304,135.082 L172.438,135.642 C171.887331,136.706005 170.916674,137.238 169.526,137.238 C168.461995,137.238 167.64067,136.846004 167.062,136.062 C166.529997,135.34333 166.264,134.386673 166.264,133.192 C166.264,132.034661 166.534664,131.08267 167.076,130.336 C167.664003,129.523996 168.485328,129.118 169.54,129.118 C170.566672,129.118 171.355331,129.47733 171.906,130.196 C172.419336,130.877337 172.676,131.763995 172.676,132.856 L172.676,133.528 Z M171.332,132.548 C171.257333,131.465328 170.940003,130.732669 170.38,130.35 C170.155999,130.200666 169.876002,130.126 169.54,130.126 C168.690662,130.126 168.112002,130.643995 167.804,131.68 C167.72,131.969335 167.664,132.258665 167.636,132.548 L171.332,132.548 Z M180.712,137 L179.396,137 L179.396,131.82 C179.396,130.755995 178.920005,130.224 177.968,130.224 C177.081329,130.224 176.502668,130.765328 176.232,131.848 C176.148,132.156002 176.106,132.473332 176.106,132.8 L176.106,137 L174.79,137 L174.79,129.356 L176.078,129.356 L176.106,130.364 C176.656669,129.533329 177.417328,129.118 178.388,129.118 C179.125337,129.118 179.696998,129.334998 180.103,129.769 C180.509002,130.203002 180.712,130.77933 180.712,131.498 L180.712,137 Z M192.024,137 L186.368,137 L186.368,136.02 L190.33,130.42 L186.55,130.42 L186.55,129.356 L191.884,129.356 L191.884,130.336 L187.894,135.95 L192.024,135.95 L192.024,137 Z M199.696,137 L198.422,137 L198.38,135.992 C197.847997,136.822671 197.110671,137.238 196.168,137.238 C195.411996,137.238 194.826335,137.023335 194.411,136.594 C193.995665,136.164665 193.788,135.581337 193.788,134.844 L193.788,129.356 L195.104,129.356 L195.104,134.606 C195.104,135.623338 195.575329,136.132 196.518,136.132 C197.395338,136.132 197.978665,135.590672 198.268,134.508 C198.342667,134.209332 198.38,133.896668 198.38,133.57 L198.38,129.356 L199.696,129.356 L199.696,137 Z M207.536,137 L206.136,137 L206.136,126.836 L207.536,126.836 L207.536,137 Z M215.992,137 L214.676,137 L214.676,131.82 C214.676,130.755995 214.200005,130.224 213.248,130.224 C212.351996,130.224 211.773335,130.765328 211.512,131.848 C211.437333,132.156002 211.4,132.473332 211.4,132.8 L211.4,137 L210.084,137 L210.084,126.836 L211.4,126.836 L211.4,130.266 C211.941336,129.500663 212.697328,129.118 213.668,129.118 C214.405337,129.118 214.976998,129.334998 215.383,129.769 C215.789002,130.203002 215.992,130.77933 215.992,131.498 L215.992,137 Z M222.572,129.356 L222.46,130.49 C222.207999,130.434 221.960668,130.406 221.718,130.406 C220.859329,130.406 220.290001,130.835329 220.01,131.694 C219.907333,131.992668 219.856,132.351998 219.856,132.772 L219.856,137 L218.54,137 L218.54,129.356 L219.814,129.356 L219.842,130.406 C220.280669,129.649996 220.929329,129.272 221.788,129.272 C222.058668,129.272 222.319999,129.3 222.572,129.356 Z M229.95,133.528 L224.882,133.528 C224.919334,134.722673 225.273997,135.525331 225.946,135.936 C226.188668,136.094667 226.487332,136.174 226.842,136.174 C227.700671,136.174 228.279332,135.810004 228.578,135.082 L229.712,135.642 C229.161331,136.706005 228.190674,137.238 226.8,137.238 C225.735995,137.238 224.91467,136.846004 224.336,136.062 C223.803997,135.34333 223.538,134.386673 223.538,133.192 C223.538,132.034661 223.808664,131.08267 224.35,130.336 C224.938003,129.523996 225.759328,129.118 226.814,129.118 C227.840672,129.118 228.629331,129.47733 229.18,130.196 C229.693336,130.877337 229.95,131.763995 229.95,132.856 L229.95,133.528 Z M228.606,132.548 C228.531333,131.465328 228.214003,130.732669 227.654,130.35 C227.429999,130.200666 227.150002,130.126 226.814,130.126 C225.964662,130.126 225.386002,130.643995 225.078,131.68 C224.994,131.969335 224.938,132.258665 224.91,132.548 L228.606,132.548 Z M241.864,137 L240.548,137 L240.548,131.82 C240.548,131.231997 240.417335,130.802668 240.156,130.532 C239.941332,130.326666 239.647335,130.224 239.274,130.224 C238.760664,130.224 238.350002,130.489997 238.042,131.022 C237.761999,131.507336 237.622,132.099997 237.622,132.8 L237.622,137 L236.306,137 L236.306,131.82 C236.306,131.21333 236.175335,130.784001 235.914,130.532 C235.699332,130.326666 235.410002,130.224 235.046,130.224 C234.252663,130.224 233.734668,130.765328 233.492,131.848 C233.417333,132.156002 233.38,132.473332 233.38,132.8 L233.38,137 L232.064,137 L232.064,129.356 L233.352,129.356 L233.366,130.308 C233.851336,129.514663 234.551329,129.118 235.466,129.118 C236.464672,129.118 237.117998,129.551996 237.426,130.42 C237.883336,129.551996 238.629995,129.118 239.666,129.118 C240.366003,129.118 240.907331,129.332665 241.29,129.762 C241.672669,130.191335 241.864,130.75133 241.864,131.442 L241.864,137 Z M255.864,133.99 C255.864,135.100672 255.500004,135.903331 254.772,136.398 C254.174664,136.799335 253.334672,137 252.252,137 L248.304,137 L248.304,126.836 L252.322,126.836 C253.255338,126.836 253.973997,127.013332 254.478,127.368 C255.094003,127.797335 255.402,128.455329 255.402,129.342 C255.402,130.266005 254.996004,130.984664 254.184,131.498 C255.304006,131.890002 255.864,132.72066 255.864,133.99 Z M253.946,129.496 C253.946,128.935997 253.782668,128.539334 253.456,128.306 C253.175999,128.100666 252.742003,127.998 252.154,127.998 L249.648,127.998 L249.648,131.036 L252.056,131.036 C252.924004,131.036 253.497999,130.784003 253.778,130.28 C253.890001,130.083999 253.946,129.822668 253.946,129.496 Z M254.394,134.004 C254.394,133.322663 254.184002,132.832668 253.764,132.534 C253.437332,132.309999 252.94267,132.198 252.28,132.198 L249.648,132.198 L249.648,135.838 L252.14,135.838 C253.642674,135.838 254.394,135.226673 254.394,134.004 Z M268.31,137 L266.994,137 L266.994,128.362 L263.83,137 L262.43,137 L259.392,128.376 L259.392,137 L258.076,137 L258.076,126.836 L260.148,126.836 L263.172,135.432 L266.308,126.836 L268.31,126.836 L268.31,137 Z M282.142,126.836 L279.65,137 L277.998,137 L276.01,128.712 L273.924,137 L272.258,137 L269.934,126.836 L271.418,126.836 L273.252,135.446 L275.268,126.836 L276.794,126.836 L278.74,135.46 L280.686,126.836 L282.142,126.836 Z M4.298,153.06 L0.378,153.06 L0.378,151.688 L4.298,151.688 L4.298,153.06 Z M16.534,153.228 C16.534,154.646674 15.8573401,155.575331 14.504,156.014 C14.0186642,156.163334 13.4353367,156.238 12.754,156.238 C11.6619945,156.238 10.7660035,156.009336 10.066,155.552 C9.52466396,155.206665 9.1606676,154.754003 8.974,154.194 L10.192,153.536 C10.5560018,154.562672 11.437993,155.076 12.838,155.076 C14.3406742,155.076 15.092,154.488006 15.092,153.312 C15.092,152.789331 14.9053352,152.383335 14.532,152.094 C14.261332,151.879332 13.8320029,151.702001 13.244,151.562 L11.886,151.24 C10.1033244,150.819998 9.212,149.900674 9.212,148.482 C9.212,147.147327 9.88399328,146.256002 11.228,145.808 C11.6666689,145.667999 12.1753304,145.598 12.754,145.598 C13.687338,145.598 14.4759968,145.761332 15.12,146.088 C15.586669,146.330668 15.9599986,146.661998 16.24,147.082 L15.162,147.95 C14.891332,147.483331 14.4293366,147.133334 13.776,146.9 C13.4866652,146.797333 13.1320021,146.746 12.712,146.746 C11.2839929,146.746 10.57,147.301328 10.57,148.412 C10.57,149.224004 11.1906605,149.779332 12.432,150.078 L13.79,150.4 C15.6193425,150.829335 16.534,151.771993 16.534,153.228 Z M24.36,152.528 L19.292,152.528 C19.3293335,153.722673 19.6839966,154.525331 20.356,154.936 C20.5986679,155.094667 20.8973316,155.174 21.252,155.174 C22.110671,155.174 22.6893318,154.810004 22.988,154.082 L24.122,154.642 C23.5713306,155.706005 22.6006736,156.238 21.21,156.238 C20.1459947,156.238 19.3246696,155.846004 18.746,155.062 C18.2139973,154.34333 17.948,153.386673 17.948,152.192 C17.948,151.034661 18.218664,150.08267 18.76,149.336 C19.3480029,148.523996 20.1693281,148.118 21.224,148.118 C22.2506718,148.118 23.0393306,148.47733 23.59,149.196 C24.1033359,149.877337 24.36,150.763995 24.36,151.856 L24.36,152.528 Z M23.016,151.548 C22.941333,150.465328 22.6240028,149.732669 22.064,149.35 C21.8399989,149.200666 21.5600017,149.126 21.224,149.126 C20.3746624,149.126 19.7960015,149.643995 19.488,150.68 C19.4039996,150.969335 19.3480001,151.258665 19.32,151.548 L23.016,151.548 Z M30.506,148.356 L30.394,149.49 C30.1419987,149.434 29.8946679,149.406 29.652,149.406 C28.793329,149.406 28.2240014,149.835329 27.944,150.694 C27.8413328,150.992668 27.79,151.351998 27.79,151.772 L27.79,156 L26.474,156 L26.474,148.356 L27.748,148.356 L27.776,149.406 C28.2146689,148.649996 28.863329,148.272 29.722,148.272 C29.992668,148.272 30.2539987,148.3 30.506,148.356 Z M37.268,148.356 L34.818,156 L33.18,156 L30.744,148.356 L32.13,148.356 L34.034,154.74 L35.938,148.356 L37.268,148.356 Z M40.026,147.278 L38.71,147.278 L38.71,145.836 L40.026,145.836 L40.026,147.278 Z M40.026,156 L38.71,156 L38.71,148.356 L40.026,148.356 L40.026,156 Z M48.258,154.698 C47.7353307,155.724672 46.7973401,156.238 45.444,156.238 C44.3799947,156.238 43.5633362,155.836671 42.994,155.034 C42.4619973,154.305996 42.196,153.358673 42.196,152.192 C42.196,151.006661 42.466664,150.045337 43.008,149.308 C43.5960029,148.514663 44.4219947,148.118 45.486,148.118 C46.81134,148.118 47.7306641,148.617328 48.244,149.616 L47.166,150.274 C46.9793324,149.891331 46.7600013,149.618334 46.508,149.455 C46.2559987,149.291666 45.9200021,149.21 45.5,149.21 C44.5386619,149.21 43.9273346,149.811994 43.666,151.016 C43.5819996,151.380002 43.54,151.771998 43.54,152.192 C43.54,153.526673 43.8899965,154.427331 44.59,154.894 C44.8420013,155.062001 45.1453316,155.146 45.5,155.146 C46.1720034,155.146 46.6573318,154.912669 46.956,154.446 C47.030667,154.324666 47.0959997,154.203334 47.152,154.082 L48.258,154.698 Z M56.126,152.528 L51.058,152.528 C51.0953335,153.722673 51.4499966,154.525331 52.122,154.936 C52.3646679,155.094667 52.6633316,155.174 53.018,155.174 C53.876671,155.174 54.4553318,154.810004 54.754,154.082 L55.888,154.642 C55.3373306,155.706005 54.3666736,156.238 52.976,156.238 C51.9119947,156.238 51.0906696,155.846004 50.512,155.062 C49.9799973,154.34333 49.714,153.386673 49.714,152.192 C49.714,151.034661 49.984664,150.08267 50.526,149.336 C51.1140029,148.523996 51.9353281,148.118 52.99,148.118 C54.0166718,148.118 54.8053306,148.47733 55.356,149.196 C55.8693359,149.877337 56.126,150.763995 56.126,151.856 L56.126,152.528 Z M54.782,151.548 C54.707333,150.465328 54.3900028,149.732669 53.83,149.35 C53.6059989,149.200666 53.3260017,149.126 52.99,149.126 C52.1406624,149.126 51.5620015,149.643995 51.254,150.68 C51.1699996,150.969335 51.1140001,151.258665 51.086,151.548 L54.782,151.548 Z M69.3,147.068 L65.87,147.068 L65.87,156 L64.47,156 L64.47,147.068 L61.026,147.068 L61.026,145.836 L69.3,145.836 L69.3,147.068 Z M76.776,152.528 L71.708,152.528 C71.7453335,153.722673 72.0999966,154.525331 72.772,154.936 C73.0146679,155.094667 73.3133316,155.174 73.668,155.174 C74.526671,155.174 75.1053318,154.810004 75.404,154.082 L76.538,154.642 C75.9873306,155.706005 75.0166736,156.238 73.626,156.238 C72.5619947,156.238 71.7406696,155.846004 71.162,155.062 C70.6299973,154.34333 70.364,153.386673 70.364,152.192 C70.364,151.034661 70.634664,150.08267 71.176,149.336 C71.7640029,148.523996 72.5853281,148.118 73.64,148.118 C74.6666718,148.118 75.4553306,148.47733 76.006,149.196 C76.5193359,149.877337 76.776,150.763995 76.776,151.856 L76.776,152.528 Z M75.432,151.548 C75.357333,150.465328 75.0400028,149.732669 74.48,149.35 C74.2559989,149.200666 73.9760017,149.126 73.64,149.126 C72.7906624,149.126 72.2120015,149.643995 71.904,150.68 C71.8199996,150.969335 71.7640001,151.258665 71.736,151.548 L75.432,151.548 Z M82.922,148.356 L82.81,149.49 C82.5579987,149.434 82.3106679,149.406 82.068,149.406 C81.209329,149.406 80.6400014,149.835329 80.36,150.694 C80.2573328,150.992668 80.206,151.351998 80.206,151.772 L80.206,156 L78.89,156 L78.89,148.356 L80.164,148.356 L80.192,149.406 C80.6306689,148.649996 81.279329,148.272 82.138,148.272 C82.408668,148.272 82.6699987,148.3 82.922,148.356 Z M94.066,156 L92.75,156 L92.75,150.82 C92.75,150.231997 92.6193346,149.802668 92.358,149.532 C92.1433323,149.326666 91.8493352,149.224 91.476,149.224 C90.9626641,149.224 90.5520015,149.489997 90.244,150.022 C89.9639986,150.507336 89.824,151.099997 89.824,151.8 L89.824,156 L88.508,156 L88.508,150.82 C88.508,150.21333 88.3773346,149.784001 88.116,149.532 C87.9013323,149.326666 87.6120018,149.224 87.248,149.224 C86.4546627,149.224 85.9366679,149.765328 85.694,150.848 C85.619333,151.156002 85.582,151.473332 85.582,151.8 L85.582,156 L84.266,156 L84.266,148.356 L85.554,148.356 L85.568,149.308 C86.0533358,148.514663 86.7533288,148.118 87.668,148.118 C88.6666717,148.118 89.3199985,148.551996 89.628,149.42 C90.0853356,148.551996 90.8319948,148.118 91.868,148.118 C92.5680035,148.118 93.1093314,148.332665 93.492,148.762 C93.8746686,149.191335 94.066,149.75133 94.066,150.442 L94.066,156 Z M97.93,147.278 L96.614,147.278 L96.614,145.836 L97.93,145.836 L97.93,147.278 Z M97.93,156 L96.614,156 L96.614,148.356 L97.93,148.356 L97.93,156 Z M106.4,156 L105.084,156 L105.084,150.82 C105.084,149.755995 104.608005,149.224 103.656,149.224 C102.769329,149.224 102.190668,149.765328 101.92,150.848 C101.836,151.156002 101.794,151.473332 101.794,151.8 L101.794,156 L100.478,156 L100.478,148.356 L101.766,148.356 L101.794,149.364 C102.344669,148.533329 103.105328,148.118 104.076,148.118 C104.813337,148.118 105.384998,148.334998 105.791,148.769 C106.197002,149.203002 106.4,149.77933 106.4,150.498 L106.4,156 Z M114.982,152.528 L109.914,152.528 C109.951334,153.722673 110.305997,154.525331 110.978,154.936 C111.220668,155.094667 111.519332,155.174 111.874,155.174 C112.732671,155.174 113.311332,154.810004 113.61,154.082 L114.744,154.642 C114.193331,155.706005 113.222674,156.238 111.832,156.238 C110.767995,156.238 109.94667,155.846004 109.368,155.062 C108.835997,154.34333 108.57,153.386673 108.57,152.192 C108.57,151.034661 108.840664,150.08267 109.382,149.336 C109.970003,148.523996 110.791328,148.118 111.846,148.118 C112.872672,148.118 113.661331,148.47733 114.212,149.196 C114.725336,149.877337 114.982,150.763995 114.982,151.856 L114.982,152.528 Z M113.638,151.548 C113.563333,150.465328 113.246003,149.732669 112.686,149.35 C112.461999,149.200666 112.182002,149.126 111.846,149.126 C110.996662,149.126 110.418002,149.643995 110.11,150.68 C110.026,150.969335 109.97,151.258665 109.942,151.548 L113.638,151.548 Z M4.298,172.06 L0.378,172.06 L0.378,170.688 L4.298,170.688 L4.298,172.06 Z M17.36,175 L15.778,175 L11.186,166.726 L11.186,175 L9.828,175 L9.828,164.836 L11.41,164.836 L16.002,173.096 L16.002,164.836 L17.36,164.836 L17.36,175 Z M25.942,171.528 L20.874,171.528 C20.9113335,172.722673 21.2659966,173.525331 21.938,173.936 C22.1806679,174.094667 22.4793316,174.174 22.834,174.174 C23.692671,174.174 24.2713318,173.810004 24.57,173.082 L25.704,173.642 C25.1533306,174.706005 24.1826736,175.238 22.792,175.238 C21.7279947,175.238 20.9066696,174.846004 20.328,174.062 C19.7959973,173.34333 19.53,172.386673 19.53,171.192 C19.53,170.034661 19.800664,169.08267 20.342,168.336 C20.9300029,167.523996 21.7513281,167.118 22.806,167.118 C23.8326718,167.118 24.6213306,167.47733 25.172,168.196 C25.6853359,168.877337 25.942,169.763995 25.942,170.856 L25.942,171.528 Z M24.598,170.548 C24.523333,169.465328 24.2060028,168.732669 23.646,168.35 C23.4219989,168.200666 23.1420017,168.126 22.806,168.126 C21.9566624,168.126 21.3780015,168.643995 21.07,169.68 C20.9859996,169.969335 20.9300001,170.258665 20.902,170.548 L24.598,170.548 Z M33.964,175 L32.69,175 L32.648,173.992 C32.1159973,174.822671 31.3786714,175.238 30.436,175.238 C29.6799962,175.238 29.0943354,175.023335 28.679,174.594 C28.2636646,174.164665 28.056,173.581337 28.056,172.844 L28.056,167.356 L29.372,167.356 L29.372,172.606 C29.372,173.623338 29.8433286,174.132 30.786,174.132 C31.6633377,174.132 32.2466652,173.590672 32.536,172.508 C32.610667,172.209332 32.648,171.896668 32.648,171.57 L32.648,167.356 L33.964,167.356 L33.964,175 Z M42.546,171.528 L37.478,171.528 C37.5153335,172.722673 37.8699966,173.525331 38.542,173.936 C38.7846679,174.094667 39.0833316,174.174 39.438,174.174 C40.296671,174.174 40.8753318,173.810004 41.174,173.082 L42.308,173.642 C41.7573306,174.706005 40.7866736,175.238 39.396,175.238 C38.3319947,175.238 37.5106696,174.846004 36.932,174.062 C36.3999973,173.34333 36.134,172.386673 36.134,171.192 C36.134,170.034661 36.404664,169.08267 36.946,168.336 C37.5340029,167.523996 38.3553281,167.118 39.41,167.118 C40.4366718,167.118 41.2253306,167.47733 41.776,168.196 C42.2893359,168.877337 42.546,169.763995 42.546,170.856 L42.546,171.528 Z M41.202,170.548 C41.127333,169.465328 40.8100028,168.732669 40.25,168.35 C40.0259989,168.200666 39.7460017,168.126 39.41,168.126 C38.5606624,168.126 37.9820015,168.643995 37.674,169.68 C37.5899996,169.969335 37.5340001,170.258665 37.506,170.548 L41.202,170.548 Z M56.574,175 L55.09,175 L54.194,172.424 L49.742,172.424 L48.832,175 L47.488,175 L51.184,164.836 L52.878,164.836 L56.574,175 Z M53.774,171.22 L51.982,166.082 L50.162,171.22 L53.774,171.22 Z M64.498,171.052 C64.498,172.237339 64.264669,173.198663 63.798,173.936 C63.2379972,174.804004 62.4493384,175.238 61.432,175.238 C60.4053282,175.238 59.7193351,174.855337 59.374,174.09 L59.374,177.576 L58.058,177.576 L58.058,167.356 L59.318,167.356 L59.346,168.392 C59.8406691,167.542662 60.591995,167.118 61.6,167.118 C62.2906701,167.118 62.8786642,167.346664 63.364,167.804 C63.8026689,168.205335 64.1153324,168.755996 64.302,169.456 C64.4326673,169.941336 64.498,170.47333 64.498,171.052 Z M63.126,171.178 C63.126,170.291329 62.9813348,169.586669 62.692,169.064 C62.3653317,168.494664 61.8940031,168.21 61.278,168.21 C60.3166619,168.21 59.7053346,168.84466 59.444,170.114 C59.369333,170.478002 59.332,170.846665 59.332,171.22 C59.332,172.508006 59.6819965,173.399331 60.382,173.894 C60.6153345,174.062001 60.8953317,174.146 61.222,174.146 C61.9126701,174.146 62.4213317,173.80067 62.748,173.11 C63.0000013,172.587331 63.126,171.943337 63.126,171.178 Z M73.108,171.052 C73.108,172.237339 72.874669,173.198663 72.408,173.936 C71.8479972,174.804004 71.0593384,175.238 70.042,175.238 C69.0153282,175.238 68.3293351,174.855337 67.984,174.09 L67.984,177.576 L66.668,177.576 L66.668,167.356 L67.928,167.356 L67.956,168.392 C68.4506691,167.542662 69.201995,167.118 70.21,167.118 C70.9006701,167.118 71.4886642,167.346664 71.974,167.804 C72.4126689,168.205335 72.7253324,168.755996 72.912,169.456 C73.0426673,169.941336 73.108,170.47333 73.108,171.052 Z M71.736,171.178 C71.736,170.291329 71.5913348,169.586669 71.302,169.064 C70.9753317,168.494664 70.5040031,168.21 69.888,168.21 C68.9266619,168.21 68.3153346,168.84466 68.054,170.114 C67.979333,170.478002 67.942,170.846665 67.942,171.22 C67.942,172.508006 68.2919965,173.399331 68.992,173.894 C69.2253345,174.062001 69.5053317,174.146 69.832,174.146 C70.5226701,174.146 71.0313317,173.80067 71.358,173.11 C71.6100013,172.587331 71.736,171.943337 71.736,171.178 Z M85.274,166.068 L80.57,166.068 L80.57,169.162 L84.728,169.162 L84.728,170.408 L80.57,170.408 L80.57,175 L79.17,175 L79.17,164.836 L85.274,164.836 L85.274,166.068 Z M92.876,175 L91.602,175 L91.56,173.992 C91.0279973,174.822671 90.2906714,175.238 89.348,175.238 C88.5919962,175.238 88.0063354,175.023335 87.591,174.594 C87.1756646,174.164665 86.968,173.581337 86.968,172.844 L86.968,167.356 L88.284,167.356 L88.284,172.606 C88.284,173.623338 88.7553286,174.132 89.698,174.132 C90.5753377,174.132 91.1586652,173.590672 91.448,172.508 C91.522667,172.209332 91.56,171.896668 91.56,171.57 L91.56,167.356 L92.876,167.356 L92.876,175 Z M101.346,175 L100.03,175 L100.03,169.82 C100.03,168.755995 99.5540048,168.224 98.602,168.224 C97.7153289,168.224 97.136668,168.765328 96.866,169.848 C96.7819996,170.156002 96.74,170.473332 96.74,170.8 L96.74,175 L95.424,175 L95.424,167.356 L96.712,167.356 L96.74,168.364 C97.2906694,167.533329 98.0513285,167.118 99.022,167.118 C99.759337,167.118 100.330998,167.334998 100.737,167.769 C101.143002,168.203002 101.346,168.77933 101.346,169.498 L101.346,175 Z M110.264,175 L108.71,175 L106.246,170.954 L105.21,171.962 L105.21,175 L103.894,175 L103.894,164.836 L105.21,164.836 L105.21,170.422 L108.332,167.356 L109.914,167.356 L107.184,170.03 L110.264,175 Z M115.066,174.972 C114.860666,175.074667 114.41267,175.126 113.722,175.126 C112.527327,175.126 111.93,174.547339 111.93,173.39 L111.93,168.42 L110.74,168.42 L110.74,167.356 L111.93,167.356 L111.93,165.452 L113.246,165.452 L113.246,167.356 L114.996,167.356 L114.996,168.42 L113.246,168.42 L113.246,173.124 C113.246,173.441335 113.308999,173.669999 113.435,173.81 C113.561001,173.950001 113.777998,174.02 114.086,174.02 C114.524669,174.02 114.818666,173.982667 114.968,173.908 L115.066,174.972 Z M117.978,166.278 L116.662,166.278 L116.662,164.836 L117.978,164.836 L117.978,166.278 Z M117.978,175 L116.662,175 L116.662,167.356 L117.978,167.356 L117.978,175 Z M126.91,171.192 C126.91,172.396006 126.634669,173.35733 126.084,174.076 C125.486664,174.850671 124.632672,175.238 123.522,175.238 C122.401994,175.238 121.55267,174.850671 120.974,174.076 C120.423331,173.35733 120.148,172.396006 120.148,171.192 C120.148,169.978661 120.423331,169.01267 120.974,168.294 C121.562003,167.509996 122.411328,167.118 123.522,167.118 C124.623339,167.118 125.47733,167.509996 126.084,168.294 C126.634669,169.01267 126.91,169.978661 126.91,171.192 Z M125.566,171.192 C125.566,169.829327 125.19267,168.914669 124.446,168.448 C124.184665,168.289333 123.876668,168.21 123.522,168.21 C122.523328,168.21 121.888668,168.821327 121.618,170.044 C121.534,170.408002 121.492,170.790665 121.492,171.192 C121.492,172.54534 121.86533,173.450664 122.612,173.908 C122.864001,174.066667 123.167332,174.146 123.522,174.146 C124.539338,174.146 125.183332,173.539339 125.454,172.326 C125.528667,171.971332 125.566,171.593335 125.566,171.192 Z M135.002,175 L133.686,175 L133.686,169.82 C133.686,168.755995 133.210005,168.224 132.258,168.224 C131.371329,168.224 130.792668,168.765328 130.522,169.848 C130.438,170.156002 130.396,170.473332 130.396,170.8 L130.396,175 L129.08,175 L129.08,167.356 L130.368,167.356 L130.396,168.364 C130.946669,167.533329 131.707328,167.118 132.678,167.118 C133.415337,167.118 133.986998,167.334998 134.393,167.769 C134.799002,168.203002 135.002,168.77933 135.002,169.498 L135.002,175 Z M143.038,175 L141.778,175 C141.703333,174.785332 141.652,174.514668 141.624,174.188 C141.035997,174.888003 140.280005,175.238 139.356,175.238 C138.618663,175.238 138.035335,175.014002 137.606,174.566 C137.213998,174.155331 137.018,173.637336 137.018,173.012 C137.018,171.537326 137.871991,170.683335 139.58,170.45 L141.512,170.184 L141.512,169.372 C141.512,168.503996 141.022005,168.07 140.042,168.07 C139.584664,168.07 139.220668,168.186666 138.95,168.42 C138.725999,168.616001 138.548667,168.872665 138.418,169.19 L137.27,168.742 C137.419334,168.293998 137.713331,167.920668 138.152,167.622 C138.656003,167.285998 139.285996,167.118 140.042,167.118 C141.880676,167.118 142.8,167.873992 142.8,169.386 L142.8,173.684 C142.8,174.169336 142.879333,174.607998 143.038,175 Z M141.512,172.466 L141.512,171.136 L139.79,171.374 C138.828662,171.504667 138.348,172.031995 138.348,172.956 C138.348,173.357335 138.459999,173.672332 138.684,173.901 C138.908001,174.129668 139.220665,174.244 139.622,174.244 C140.144669,174.244 140.590331,174.076002 140.959,173.74 C141.327669,173.403998 141.512,172.979336 141.512,172.466 Z M146.664,175 L145.348,175 L145.348,164.836 L146.664,164.836 L146.664,175 Z M150.528,166.278 L149.212,166.278 L149.212,164.836 L150.528,164.836 L150.528,166.278 Z M150.528,175 L149.212,175 L149.212,167.356 L150.528,167.356 L150.528,175 Z M156.506,174.972 C156.300666,175.074667 155.85267,175.126 155.162,175.126 C153.967327,175.126 153.37,174.547339 153.37,173.39 L153.37,168.42 L152.18,168.42 L152.18,167.356 L153.37,167.356 L153.37,165.452 L154.686,165.452 L154.686,167.356 L156.436,167.356 L156.436,168.42 L154.686,168.42 L154.686,173.124 C154.686,173.441335 154.748999,173.669999 154.875,173.81 C155.001001,173.950001 155.217998,174.02 155.526,174.02 C155.964669,174.02 156.258666,173.982667 156.408,173.908 L156.506,174.972 Z M163.59,175 L162.33,175 C162.255333,174.785332 162.204,174.514668 162.176,174.188 C161.587997,174.888003 160.832005,175.238 159.908,175.238 C159.170663,175.238 158.587335,175.014002 158.158,174.566 C157.765998,174.155331 157.57,173.637336 157.57,173.012 C157.57,171.537326 158.423991,170.683335 160.132,170.45 L162.064,170.184 L162.064,169.372 C162.064,168.503996 161.574005,168.07 160.594,168.07 C160.136664,168.07 159.772668,168.186666 159.502,168.42 C159.277999,168.616001 159.100667,168.872665 158.97,169.19 L157.822,168.742 C157.971334,168.293998 158.265331,167.920668 158.704,167.622 C159.208003,167.285998 159.837996,167.118 160.594,167.118 C162.432676,167.118 163.352,167.873992 163.352,169.386 L163.352,173.684 C163.352,174.169336 163.431333,174.607998 163.59,175 Z M162.064,172.466 L162.064,171.136 L160.342,171.374 C159.380662,171.504667 158.9,172.031995 158.9,172.956 C158.9,173.357335 159.011999,173.672332 159.236,173.901 C159.460001,174.129668 159.772665,174.244 160.174,174.244 C160.696669,174.244 161.142331,174.076002 161.511,173.74 C161.879669,173.403998 162.064,172.979336 162.064,172.466 Z M163.058,166.278 L161.714,166.278 L161.714,164.626 L163.058,164.626 L163.058,166.278 Z M159.614,166.278 L158.27,166.278 L158.27,164.626 L159.614,164.626 L159.614,166.278 Z M169.33,174.972 C169.124666,175.074667 168.67667,175.126 167.986,175.126 C166.791327,175.126 166.194,174.547339 166.194,173.39 L166.194,168.42 L165.004,168.42 L165.004,167.356 L166.194,167.356 L166.194,165.452 L167.51,165.452 L167.51,167.356 L169.26,167.356 L169.26,168.42 L167.51,168.42 L167.51,173.124 C167.51,173.441335 167.572999,173.669999 167.699,173.81 C167.825001,173.950001 168.041998,174.02 168.35,174.02 C168.788669,174.02 169.082666,173.982667 169.232,173.908 L169.33,174.972 Z M176.96,171.528 L171.892,171.528 C171.929334,172.722673 172.283997,173.525331 172.956,173.936 C173.198668,174.094667 173.497332,174.174 173.852,174.174 C174.710671,174.174 175.289332,173.810004 175.588,173.082 L176.722,173.642 C176.171331,174.706005 175.200674,175.238 173.81,175.238 C172.745995,175.238 171.92467,174.846004 171.346,174.062 C170.813997,173.34333 170.548,172.386673 170.548,171.192 C170.548,170.034661 170.818664,169.08267 171.36,168.336 C171.948003,167.523996 172.769328,167.118 173.824,167.118 C174.850672,167.118 175.639331,167.47733 176.19,168.196 C176.703336,168.877337 176.96,169.763995 176.96,170.856 L176.96,171.528 Z M175.616,170.548 C175.541333,169.465328 175.224003,168.732669 174.664,168.35 C174.439999,168.200666 174.160002,168.126 173.824,168.126 C172.974662,168.126 172.396002,168.643995 172.088,169.68 C172.004,169.969335 171.948,170.258665 171.92,170.548 L175.616,170.548 Z M184.996,175 L183.68,175 L183.68,169.82 C183.68,168.755995 183.204005,168.224 182.252,168.224 C181.365329,168.224 180.786668,168.765328 180.516,169.848 C180.432,170.156002 180.39,170.473332 180.39,170.8 L180.39,175 L179.074,175 L179.074,167.356 L180.362,167.356 L180.39,168.364 C180.940669,167.533329 181.701328,167.118 182.672,167.118 C183.409337,167.118 183.980998,167.334998 184.387,167.769 C184.793002,168.203002 184.996,168.77933 184.996,169.498 L184.996,175 Z" id="-SpezifischeInformationenzuIhremBMW-ServiceTermine-NeueAppFunktionalitten" fill="#A0A0A0"></path>
            </g>
        </g>
    </g>
</svg>
