<?xml version="1.0" encoding="UTF-8"?>
<svg class="textBox" preserveAspectRatio="xMinYMin meet" viewBox="0 0 332 174" version="1.1" xmlns="http://www.w3.org/2000/svg" xmlns:xlink="http://www.w3.org/1999/xlink">
    <!-- Generator: Sketch 53.2 (72643) - https://sketchapp.com -->
    <title>Group 5</title>
    <desc>Created with Sketch.</desc>
    <g id="Page-1" stroke="none" stroke-width="1" fill="none" fill-rule="evenodd">
        <g id="Enable-Notifications-Copy-7" transform="translate(-15.000000, -336.000000)">
            <g id="Group-5" transform="translate(15.000000, 332.000000)">
                <g id="Group-3" fill-rule="nonzero">
                    <path d="M8.834,71.99 C8.834,73.1006722 8.47000364,73.9033309 7.742,74.398 C7.14466368,74.7993353 6.30467208,75 5.222,75 L1.274,75 L1.274,64.836 L5.292,64.836 C6.225338,64.836 6.94399748,65.0133316 7.448,65.368 C8.06400308,65.7973355 8.372,66.4553289 8.372,67.342 C8.372,68.2660046 7.96600406,68.9846641 7.154,69.498 C8.2740056,69.890002 8.834,70.7206603 8.834,71.99 Z M6.916,67.496 C6.916,66.9359972 6.7526683,66.5393345 6.426,66.306 C6.1459986,66.1006656 5.71200294,65.998 5.124,65.998 L2.618,65.998 L2.618,69.036 L5.026,69.036 C5.89400434,69.036 6.4679986,68.7840025 6.748,68.28 C6.86000056,68.083999 6.916,67.8226683 6.916,67.496 Z M7.364,72.004 C7.364,71.3226633 7.1540021,70.8326682 6.734,70.534 C6.4073317,70.3099989 5.91266998,70.198 5.25,70.198 L2.618,70.198 L2.618,73.838 L5.11,73.838 C6.61267418,73.838 7.364,73.2266728 7.364,72.004 Z M12.362,75 L11.046,75 L11.046,64.836 L12.362,64.836 L12.362,75 Z M20.944,71.528 L15.876,71.528 C15.9133335,72.7226726 16.2679966,73.5253313 16.94,73.936 C17.1826679,74.0946675 17.4813316,74.174 17.836,74.174 C18.694671,74.174 19.2733318,73.8100036 19.572,73.082 L20.706,73.642 C20.1553306,74.7060053 19.1846736,75.238 17.794,75.238 C16.7299947,75.238 15.9086696,74.8460039 15.33,74.062 C14.7979973,73.3433297 14.532,72.3866726 14.532,71.192 C14.532,70.0346609 14.802664,69.0826704 15.344,68.336 C15.9320029,67.5239959 16.7533281,67.118 17.808,67.118 C18.8346718,67.118 19.6233306,67.4773297 20.174,68.196 C20.6873359,68.8773367 20.944,69.7639945 20.944,70.856 L20.944,71.528 Z M19.6,70.548 C19.525333,69.4653279 19.2080028,68.7326686 18.648,68.35 C18.4239989,68.2006659 18.1440017,68.126 17.808,68.126 C16.9586624,68.126 16.3800015,68.6439948 16.072,69.68 C15.9879996,69.9693348 15.9320001,70.2586652 15.904,70.548 L19.6,70.548 Z M24.374,66.278 L23.058,66.278 L23.058,64.836 L24.374,64.836 L24.374,66.278 Z M24.374,75 L23.058,75 L23.058,67.356 L24.374,67.356 L24.374,75 Z M33.362,71.052 C33.362,72.2373393 33.128669,73.198663 32.662,73.936 C32.1019972,74.8040043 31.3133384,75.238 30.296,75.238 C29.5959965,75.238 29.0266689,75.0280021 28.588,74.608 C28.4293325,74.4679993 28.3033338,74.2953344 28.21,74.09 L28.182,75 L26.922,75 L26.922,64.836 L28.238,64.836 L28.238,68.392 C28.7326691,67.5426624 29.4746617,67.118 30.464,67.118 C31.1546701,67.118 31.7426642,67.3466644 32.228,67.804 C32.6666689,68.2053353 32.9793324,68.7559965 33.166,69.456 C33.2966673,69.9413358 33.362,70.4733304 33.362,71.052 Z M31.99,71.178 C31.99,70.2913289 31.8453348,69.5866693 31.556,69.064 C31.2293317,68.4946638 30.7580031,68.21 30.142,68.21 C29.1806619,68.21 28.5693346,68.8446603 28.308,70.114 C28.233333,70.4780018 28.196,70.8466648 28.196,71.22 C28.196,72.5080064 28.5459965,73.3993309 29.246,73.894 C29.4793345,74.0620008 29.7593317,74.146 30.086,74.146 C30.7766701,74.146 31.2853317,73.8006701 31.612,73.11 C31.8640013,72.5873307 31.99,71.9433372 31.99,71.178 Z M41.566,71.528 L36.498,71.528 C36.5353335,72.7226726 36.8899966,73.5253313 37.562,73.936 C37.8046679,74.0946675 38.1033316,74.174 38.458,74.174 C39.316671,74.174 39.8953318,73.8100036 40.194,73.082 L41.328,73.642 C40.7773306,74.7060053 39.8066736,75.238 38.416,75.238 C37.3519947,75.238 36.5306696,74.8460039 35.952,74.062 C35.4199973,73.3433297 35.154,72.3866726 35.154,71.192 C35.154,70.0346609 35.424664,69.0826704 35.966,68.336 C36.5540029,67.5239959 37.3753281,67.118 38.43,67.118 C39.4566718,67.118 40.2453306,67.4773297 40.796,68.196 C41.3093359,68.8773367 41.566,69.7639945 41.566,70.856 L41.566,71.528 Z M40.222,70.548 C40.147333,69.4653279 39.8300028,68.7326686 39.27,68.35 C39.0459989,68.2006659 38.7660017,68.126 38.43,68.126 C37.5806624,68.126 37.0020015,68.6439948 36.694,69.68 C36.6099996,69.9693348 36.5540001,70.2586652 36.526,70.548 L40.222,70.548 Z M49.602,75 L48.286,75 L48.286,69.82 C48.286,68.7559947 47.8100048,68.224 46.858,68.224 C45.9713289,68.224 45.392668,68.7653279 45.122,69.848 C45.0379996,70.1560015 44.996,70.4733317 44.996,70.8 L44.996,75 L43.68,75 L43.68,67.356 L44.968,67.356 L44.996,68.364 C45.5466694,67.5333292 46.3073285,67.118 47.278,67.118 C48.015337,67.118 48.586998,67.3349978 48.993,67.769 C49.399002,68.2030022 49.602,68.7793297 49.602,69.498 L49.602,75 Z M62.748,72.228 C62.748,73.6466738 62.0713401,74.5753311 60.718,75.014 C60.2326642,75.1633341 59.6493367,75.238 58.968,75.238 C57.8759945,75.238 56.9800035,75.0093356 56.28,74.552 C55.738664,74.2066649 55.3746676,73.7540028 55.188,73.194 L56.406,72.536 C56.7700018,73.5626718 57.651993,74.076 59.052,74.076 C60.5546742,74.076 61.306,73.4880059 61.306,72.312 C61.306,71.7893307 61.1193352,71.3833348 60.746,71.094 C60.475332,70.8793323 60.0460029,70.7020007 59.458,70.562 L58.1,70.24 C56.3173244,69.8199979 55.426,68.9006738 55.426,67.482 C55.426,66.1473267 56.0979933,65.2560022 57.442,64.808 C57.8806689,64.6679993 58.3893304,64.598 58.968,64.598 C59.901338,64.598 60.6899968,64.7613317 61.334,65.088 C61.800669,65.3306679 62.1739986,65.6619979 62.454,66.082 L61.376,66.95 C61.105332,66.483331 60.6433366,66.1333345 59.99,65.9 C59.7006652,65.7973328 59.3460021,65.746 58.926,65.746 C57.4979929,65.746 56.784,66.3013278 56.784,67.412 C56.784,68.2240041 57.4046605,68.7793318 58.646,69.078 L60.004,69.4 C61.8333425,69.8293355 62.748,70.7719927 62.748,72.228 Z M65.856,66.278 L64.54,66.278 L64.54,64.836 L65.856,64.836 L65.856,66.278 Z M65.856,75 L64.54,75 L64.54,67.356 L65.856,67.356 L65.856,75 Z M74.438,71.528 L69.37,71.528 C69.4073335,72.7226726 69.7619966,73.5253313 70.434,73.936 C70.6766679,74.0946675 70.9753316,74.174 71.33,74.174 C72.188671,74.174 72.7673318,73.8100036 73.066,73.082 L74.2,73.642 C73.6493306,74.7060053 72.6786736,75.238 71.288,75.238 C70.2239947,75.238 69.4026696,74.8460039 68.824,74.062 C68.2919973,73.3433297 68.026,72.3866726 68.026,71.192 C68.026,70.0346609 68.296664,69.0826704 68.838,68.336 C69.4260029,67.5239959 70.2473281,67.118 71.302,67.118 C72.3286718,67.118 73.1173306,67.4773297 73.668,68.196 C74.1813359,68.8773367 74.438,69.7639945 74.438,70.856 L74.438,71.528 Z M73.094,70.548 C73.019333,69.4653279 72.7020028,68.7326686 72.142,68.35 C71.9179989,68.2006659 71.6380017,68.126 71.302,68.126 C70.4526624,68.126 69.8740015,68.6439948 69.566,69.68 C69.4819996,69.9693348 69.4260001,70.2586652 69.398,70.548 L73.094,70.548 Z M85.932,75 L84.672,75 C84.597333,74.7853323 84.5460001,74.5146683 84.518,74.188 C83.9299971,74.8880035 83.1740046,75.238 82.25,75.238 C81.512663,75.238 80.9293355,75.0140022 80.5,74.566 C80.107998,74.1553313 79.912,73.6373365 79.912,73.012 C79.912,71.537326 80.7659915,70.6833345 82.474,70.45 L84.406,70.184 L84.406,69.372 C84.406,68.5039957 83.9160049,68.07 82.936,68.07 C82.4786644,68.07 82.114668,68.1866655 81.844,68.42 C81.6199989,68.616001 81.4426673,68.8726651 81.312,69.19 L80.164,68.742 C80.3133341,68.2939978 80.6073311,67.9206682 81.046,67.622 C81.5500025,67.2859983 82.1799962,67.118 82.936,67.118 C84.7746759,67.118 85.694,67.8739924 85.694,69.386 L85.694,73.684 C85.694,74.1693358 85.7733325,74.607998 85.932,75 Z M84.406,72.466 L84.406,71.136 L82.684,71.374 C81.7226619,71.5046673 81.242,72.0319954 81.242,72.956 C81.242,73.3573353 81.3539989,73.6723322 81.578,73.901 C81.8020011,74.1296678 82.1146647,74.244 82.516,74.244 C83.0386693,74.244 83.4843315,74.0760017 83.853,73.74 C84.2216685,73.4039983 84.406,72.9793359 84.406,72.466 Z M94.682,71.052 C94.682,72.2373393 94.448669,73.198663 93.982,73.936 C93.4219972,74.8040043 92.6333384,75.238 91.616,75.238 C90.9159965,75.238 90.3466689,75.0280021 89.908,74.608 C89.7493325,74.4679993 89.6233338,74.2953344 89.53,74.09 L89.502,75 L88.242,75 L88.242,64.836 L89.558,64.836 L89.558,68.392 C90.0526691,67.5426624 90.7946617,67.118 91.784,67.118 C92.4746701,67.118 93.0626642,67.3466644 93.548,67.804 C93.9866689,68.2053353 94.2993324,68.7559965 94.486,69.456 C94.6166673,69.9413358 94.682,70.4733304 94.682,71.052 Z M93.31,71.178 C93.31,70.2913289 93.1653348,69.5866693 92.876,69.064 C92.5493317,68.4946638 92.0780031,68.21 91.462,68.21 C90.5006619,68.21 89.8893346,68.8446603 89.628,70.114 C89.553333,70.4780018 89.516,70.8466648 89.516,71.22 C89.516,72.5080064 89.8659965,73.3993309 90.566,73.894 C90.7993345,74.0620008 91.0793317,74.146 91.406,74.146 C92.0966701,74.146 92.6053317,73.8006701 92.932,73.11 C93.1840013,72.5873307 93.31,71.9433372 93.31,71.178 Z M105.91,72.872 C105.91,73.6840041 105.616003,74.2953313 105.028,74.706 C104.514664,75.0606684 103.842671,75.238 103.012,75.238 C102.125329,75.238 101.406669,75.0466686 100.856,74.664 C100.435998,74.3746652 100.142001,74.0013356 99.974,73.544 L101.08,72.998 C101.434668,73.7913373 102.078662,74.188 103.012,74.188 C104.085339,74.188 104.622,73.7820041 104.622,72.97 C104.622,72.6153316 104.486668,72.340001 104.216,72.144 C104.038666,72.0039993 103.740002,71.8780006 103.32,71.766 L102.214,71.458 C100.851327,71.0753314 100.17,70.3660052 100.17,69.33 C100.17,68.5833296 100.45933,68.014002 101.038,67.622 C101.542003,67.2859983 102.181329,67.118 102.956,67.118 C103.684004,67.118 104.304664,67.2579986 104.818,67.538 C105.182002,67.734001 105.489999,68.0093316 105.742,68.364 L104.79,69.106 C104.565999,68.7233314 104.211336,68.4433342 103.726,68.266 C103.501999,68.191333 103.236002,68.154 102.928,68.154 C101.910662,68.154 101.402,68.5319962 101.402,69.288 C101.402,69.8013359 101.831329,70.1746655 102.69,70.408 L103.782,70.702 C104.454003,70.8793342 104.953332,71.1126652 105.28,71.402 C105.700002,71.7660018 105.91,72.2559969 105.91,72.872 Z M114.24,71.192 C114.24,72.396006 113.964669,73.3573297 113.414,74.076 C112.816664,74.8506705 111.962672,75.238 110.852,75.238 C109.731994,75.238 108.88267,74.8506705 108.304,74.076 C107.753331,73.3573297 107.478,72.396006 107.478,71.192 C107.478,69.9786606 107.753331,69.0126703 108.304,68.294 C108.892003,67.5099961 109.741328,67.118 110.852,67.118 C111.953339,67.118 112.80733,67.5099961 113.414,68.294 C113.964669,69.0126703 114.24,69.9786606 114.24,71.192 Z M112.896,71.192 C112.896,69.8293265 112.52267,68.914669 111.776,68.448 C111.514665,68.2893325 111.206668,68.21 110.852,68.21 C109.853328,68.21 109.218668,68.8213272 108.948,70.044 C108.864,70.4080018 108.822,70.7906647 108.822,71.192 C108.822,72.5453401 109.19533,73.4506644 109.942,73.908 C110.194001,74.0666675 110.497332,74.146 110.852,74.146 C111.869338,74.146 112.513332,73.5393394 112.784,72.326 C112.858667,71.9713316 112.896,71.5933353 112.896,71.192 Z M119.896,64.738 L119.826,65.69 C119.629999,65.6246663 119.340669,65.592 118.958,65.592 C118.341997,65.592 118.034,65.9373299 118.034,66.628 L118.034,67.356 L119.826,67.356 L119.826,68.42 L118.034,68.42 L118.034,75 L116.718,75 L116.718,68.42 L115.514,68.42 L115.514,67.356 L116.718,67.356 L116.718,66.6 C116.718,65.9559968 116.888332,65.4613351 117.229,65.116 C117.569668,64.7706649 118.052664,64.598 118.678,64.598 C119.25667,64.598 119.662665,64.6446662 119.896,64.738 Z M127.624,71.192 C127.624,72.396006 127.348669,73.3573297 126.798,74.076 C126.200664,74.8506705 125.346672,75.238 124.236,75.238 C123.115994,75.238 122.26667,74.8506705 121.688,74.076 C121.137331,73.3573297 120.862,72.396006 120.862,71.192 C120.862,69.9786606 121.137331,69.0126703 121.688,68.294 C122.276003,67.5099961 123.125328,67.118 124.236,67.118 C125.337339,67.118 126.19133,67.5099961 126.798,68.294 C127.348669,69.0126703 127.624,69.9786606 127.624,71.192 Z M126.28,71.192 C126.28,69.8293265 125.90667,68.914669 125.16,68.448 C124.898665,68.2893325 124.590668,68.21 124.236,68.21 C123.237328,68.21 122.602668,68.8213272 122.332,70.044 C122.248,70.4080018 122.206,70.7906647 122.206,71.192 C122.206,72.5453401 122.57933,73.4506644 123.326,73.908 C123.578001,74.0666675 123.881332,74.146 124.236,74.146 C125.253338,74.146 125.897332,73.5393394 126.168,72.326 C126.242667,71.9713316 126.28,71.5933353 126.28,71.192 Z M133.826,67.356 L133.714,68.49 C133.461999,68.4339997 133.214668,68.406 132.972,68.406 C132.113329,68.406 131.544001,68.835329 131.264,69.694 C131.161333,69.9926682 131.11,70.3519979 131.11,70.772 L131.11,75 L129.794,75 L129.794,67.356 L131.068,67.356 L131.096,68.406 C131.534669,67.6499962 132.183329,67.272 133.042,67.272 C133.312668,67.272 133.573999,67.2999997 133.826,67.356 Z M138.6,74.972 C138.394666,75.0746672 137.94667,75.126 137.256,75.126 C136.061327,75.126 135.464,74.5473391 135.464,73.39 L135.464,68.42 L134.274,68.42 L134.274,67.356 L135.464,67.356 L135.464,65.452 L136.78,65.452 L136.78,67.356 L138.53,67.356 L138.53,68.42 L136.78,68.42 L136.78,73.124 C136.78,73.4413349 136.842999,73.6699993 136.969,73.81 C137.095001,73.9500007 137.311998,74.02 137.62,74.02 C138.058669,74.02 138.352666,73.982667 138.502,73.908 L138.6,74.972 Z M149.576,75 L148.316,75 C148.241333,74.7853323 148.19,74.5146683 148.162,74.188 C147.573997,74.8880035 146.818005,75.238 145.894,75.238 C145.156663,75.238 144.573335,75.0140022 144.144,74.566 C143.751998,74.1553313 143.556,73.6373365 143.556,73.012 C143.556,71.537326 144.409991,70.6833345 146.118,70.45 L148.05,70.184 L148.05,69.372 C148.05,68.5039957 147.560005,68.07 146.58,68.07 C146.122664,68.07 145.758668,68.1866655 145.488,68.42 C145.263999,68.616001 145.086667,68.8726651 144.956,69.19 L143.808,68.742 C143.957334,68.2939978 144.251331,67.9206682 144.69,67.622 C145.194003,67.2859983 145.823996,67.118 146.58,67.118 C148.418676,67.118 149.338,67.8739924 149.338,69.386 L149.338,73.684 C149.338,74.1693358 149.417333,74.607998 149.576,75 Z M148.05,72.466 L148.05,71.136 L146.328,71.374 C145.366662,71.5046673 144.886,72.0319954 144.886,72.956 C144.886,73.3573353 144.997999,73.6723322 145.222,73.901 C145.446001,74.1296678 145.758665,74.244 146.16,74.244 C146.682669,74.244 147.128331,74.0760017 147.497,73.74 C147.865669,73.4039983 148.05,72.9793359 148.05,72.466 Z M157.794,75 L156.52,75 L156.478,73.992 C155.945997,74.8226708 155.208671,75.238 154.266,75.238 C153.509996,75.238 152.924335,75.0233355 152.509,74.594 C152.093665,74.1646645 151.886,73.581337 151.886,72.844 L151.886,67.356 L153.202,67.356 L153.202,72.606 C153.202,73.6233384 153.673329,74.132 154.616,74.132 C155.493338,74.132 156.076665,73.5906721 156.366,72.508 C156.440667,72.2093318 156.478,71.8966683 156.478,71.57 L156.478,67.356 L157.794,67.356 L157.794,75 Z M163.828,64.738 L163.758,65.69 C163.561999,65.6246663 163.272669,65.592 162.89,65.592 C162.273997,65.592 161.966,65.9373299 161.966,66.628 L161.966,67.356 L163.758,67.356 L163.758,68.42 L161.966,68.42 L161.966,75 L160.65,75 L160.65,68.42 L159.446,68.42 L159.446,67.356 L160.65,67.356 L160.65,66.6 C160.65,65.9559968 160.820332,65.4613351 161.161,65.116 C161.501668,64.7706649 161.984664,64.598 162.61,64.598 C163.18867,64.598 163.594665,64.6446662 163.828,64.738 Z M175.126,75 L173.88,75 L173.852,73.964 C173.357331,74.8133376 172.601338,75.238 171.584,75.238 C170.89333,75.238 170.305336,75.0093356 169.82,74.552 C169.381331,74.1506647 169.068668,73.6000035 168.882,72.9 C168.751333,72.4146642 168.686,71.8826696 168.686,71.304 C168.686,70.1186607 168.923998,69.1526704 169.4,68.406 C169.950669,67.547329 170.734662,67.118 171.752,67.118 C172.769338,67.118 173.455332,67.4819964 173.81,68.21 L173.81,64.836 L175.126,64.836 L175.126,75 Z M173.852,71.136 C173.852,69.8479936 173.50667,68.9566691 172.816,68.462 C172.573332,68.2939992 172.288668,68.21 171.962,68.21 C171.27133,68.21 170.762668,68.5553299 170.436,69.246 C170.183999,69.7686693 170.058,70.4126628 170.058,71.178 C170.058,72.0646711 170.202665,72.7646641 170.492,73.278 C170.818668,73.8566696 171.289997,74.146 171.906,74.146 C172.867338,74.146 173.478665,73.5066731 173.74,72.228 C173.814667,71.8733316 173.852,71.5093352 173.852,71.136 Z M183.708,71.528 L178.64,71.528 C178.677334,72.7226726 179.031997,73.5253313 179.704,73.936 C179.946668,74.0946675 180.245332,74.174 180.6,74.174 C181.458671,74.174 182.037332,73.8100036 182.336,73.082 L183.47,73.642 C182.919331,74.7060053 181.948674,75.238 180.558,75.238 C179.493995,75.238 178.67267,74.8460039 178.094,74.062 C177.561997,73.3433297 177.296,72.3866726 177.296,71.192 C177.296,70.0346609 177.566664,69.0826704 178.108,68.336 C178.696003,67.5239959 179.517328,67.118 180.572,67.118 C181.598672,67.118 182.387331,67.4773297 182.938,68.196 C183.451336,68.8773367 183.708,69.7639945 183.708,70.856 L183.708,71.528 Z M182.364,70.548 C182.289333,69.4653279 181.972003,68.7326686 181.412,68.35 C181.187999,68.2006659 180.908002,68.126 180.572,68.126 C179.722662,68.126 179.144002,68.6439948 178.836,69.68 C178.752,69.9693348 178.696,70.2586652 178.668,70.548 L182.364,70.548 Z M195.622,75 L194.306,75 L194.306,69.82 C194.306,69.2319971 194.175335,68.802668 193.914,68.532 C193.699332,68.3266656 193.405335,68.224 193.032,68.224 C192.518664,68.224 192.108002,68.4899973 191.8,69.022 C191.519999,69.5073358 191.38,70.0999965 191.38,70.8 L191.38,75 L190.064,75 L190.064,69.82 C190.064,69.2133303 189.933335,68.7840013 189.672,68.532 C189.457332,68.3266656 189.168002,68.224 188.804,68.224 C188.010663,68.224 187.492668,68.7653279 187.25,69.848 C187.175333,70.1560015 187.138,70.4733317 187.138,70.8 L187.138,75 L185.822,75 L185.822,67.356 L187.11,67.356 L187.124,68.308 C187.609336,67.5146627 188.309329,67.118 189.224,67.118 C190.222672,67.118 190.875998,67.5519957 191.184,68.42 C191.641336,67.5519957 192.387995,67.118 193.424,67.118 C194.124003,67.118 194.665331,67.3326645 195.048,67.762 C195.430669,68.1913355 195.622,68.7513299 195.622,69.442 L195.622,75 Z M207.55,75 L206.29,75 C206.215333,74.7853323 206.164,74.5146683 206.136,74.188 C205.547997,74.8880035 204.792005,75.238 203.868,75.238 C203.130663,75.238 202.547335,75.0140022 202.118,74.566 C201.725998,74.1553313 201.53,73.6373365 201.53,73.012 C201.53,71.537326 202.383991,70.6833345 204.092,70.45 L206.024,70.184 L206.024,69.372 C206.024,68.5039957 205.534005,68.07 204.554,68.07 C204.096664,68.07 203.732668,68.1866655 203.462,68.42 C203.237999,68.616001 203.060667,68.8726651 202.93,69.19 L201.782,68.742 C201.931334,68.2939978 202.225331,67.9206682 202.664,67.622 C203.168003,67.2859983 203.797996,67.118 204.554,67.118 C206.392676,67.118 207.312,67.8739924 207.312,69.386 L207.312,73.684 C207.312,74.1693358 207.391333,74.607998 207.55,75 Z M206.024,72.466 L206.024,71.136 L204.302,71.374 C203.340662,71.5046673 202.86,72.0319954 202.86,72.956 C202.86,73.3573353 202.971999,73.6723322 203.196,73.901 C203.420001,74.1296678 203.732665,74.244 204.134,74.244 C204.656669,74.244 205.102331,74.0760017 205.471,73.74 C205.839669,73.4039983 206.024,72.9793359 206.024,72.466 Z M216.23,75 L214.676,75 L212.212,70.954 L211.176,71.962 L211.176,75 L209.86,75 L209.86,64.836 L211.176,64.836 L211.176,70.422 L214.298,67.356 L215.88,67.356 L213.15,70.03 L216.23,75 Z M221.032,74.972 C220.826666,75.0746672 220.37867,75.126 219.688,75.126 C218.493327,75.126 217.896,74.5473391 217.896,73.39 L217.896,68.42 L216.706,68.42 L216.706,67.356 L217.896,67.356 L217.896,65.452 L219.212,65.452 L219.212,67.356 L220.962,67.356 L220.962,68.42 L219.212,68.42 L219.212,73.124 C219.212,73.4413349 219.274999,73.6699993 219.401,73.81 C219.527001,73.9500007 219.743998,74.02 220.052,74.02 C220.490669,74.02 220.784666,73.982667 220.934,73.908 L221.032,74.972 Z M228.536,75 L227.262,75 L227.22,73.992 C226.687997,74.8226708 225.950671,75.238 225.008,75.238 C224.251996,75.238 223.666335,75.0233355 223.251,74.594 C222.835665,74.1646645 222.628,73.581337 222.628,72.844 L222.628,67.356 L223.944,67.356 L223.944,72.606 C223.944,73.6233384 224.415329,74.132 225.358,74.132 C226.235338,74.132 226.818665,73.5906721 227.108,72.508 C227.182667,72.2093318 227.22,71.8966683 227.22,71.57 L227.22,67.356 L228.536,67.356 L228.536,75 Z M237.118,71.528 L232.05,71.528 C232.087334,72.7226726 232.441997,73.5253313 233.114,73.936 C233.356668,74.0946675 233.655332,74.174 234.01,74.174 C234.868671,74.174 235.447332,73.8100036 235.746,73.082 L236.88,73.642 C236.329331,74.7060053 235.358674,75.238 233.968,75.238 C232.903995,75.238 232.08267,74.8460039 231.504,74.062 C230.971997,73.3433297 230.706,72.3866726 230.706,71.192 C230.706,70.0346609 230.976664,69.0826704 231.518,68.336 C232.106003,67.5239959 232.927328,67.118 233.982,67.118 C235.008672,67.118 235.797331,67.4773297 236.348,68.196 C236.861336,68.8773367 237.118,69.7639945 237.118,70.856 L237.118,71.528 Z M235.774,70.548 C235.699333,69.4653279 235.382003,68.7326686 234.822,68.35 C234.597999,68.2006659 234.318002,68.126 233.982,68.126 C233.132662,68.126 232.554002,68.6439948 232.246,69.68 C232.162,69.9693348 232.106,70.2586652 232.078,70.548 L235.774,70.548 Z M240.548,75 L239.232,75 L239.232,64.836 L240.548,64.836 L240.548,75 Z M244.412,75 L243.096,75 L243.096,64.836 L244.412,64.836 L244.412,75 Z M252.126,72.872 C252.126,73.6840041 251.832003,74.2953313 251.244,74.706 C250.730664,75.0606684 250.058671,75.238 249.228,75.238 C248.341329,75.238 247.622669,75.0466686 247.072,74.664 C246.651998,74.3746652 246.358001,74.0013356 246.19,73.544 L247.296,72.998 C247.650668,73.7913373 248.294662,74.188 249.228,74.188 C250.301339,74.188 250.838,73.7820041 250.838,72.97 C250.838,72.6153316 250.702668,72.340001 250.432,72.144 C250.254666,72.0039993 249.956002,71.8780006 249.536,71.766 L248.43,71.458 C247.067327,71.0753314 246.386,70.3660052 246.386,69.33 C246.386,68.5833296 246.67533,68.014002 247.254,67.622 C247.758003,67.2859983 248.397329,67.118 249.172,67.118 C249.900004,67.118 250.520664,67.2579986 251.034,67.538 C251.398002,67.734001 251.705999,68.0093316 251.958,68.364 L251.006,69.106 C250.781999,68.7233314 250.427336,68.4433342 249.942,68.266 C249.717999,68.191333 249.452002,68.154 249.144,68.154 C248.126662,68.154 247.618,68.5319962 247.618,69.288 C247.618,69.8013359 248.047329,70.1746655 248.906,70.408 L249.998,70.702 C250.670003,70.8793342 251.169332,71.1126652 251.496,71.402 C251.916002,71.7660018 252.126,72.2559969 252.126,72.872 Z M257.502,74.972 C257.296666,75.0746672 256.84867,75.126 256.158,75.126 C254.963327,75.126 254.366,74.5473391 254.366,73.39 L254.366,68.42 L253.176,68.42 L253.176,67.356 L254.366,67.356 L254.366,65.452 L255.682,65.452 L255.682,67.356 L257.432,67.356 L257.432,68.42 L255.682,68.42 L255.682,73.124 C255.682,73.4413349 255.744999,73.6699993 255.871,73.81 C255.997001,73.9500007 256.213998,74.02 256.522,74.02 C256.960669,74.02 257.254666,73.982667 257.404,73.908 L257.502,74.972 Z M265.132,71.528 L260.064,71.528 C260.101334,72.7226726 260.455997,73.5253313 261.128,73.936 C261.370668,74.0946675 261.669332,74.174 262.024,74.174 C262.882671,74.174 263.461332,73.8100036 263.76,73.082 L264.894,73.642 C264.343331,74.7060053 263.372674,75.238 261.982,75.238 C260.917995,75.238 260.09667,74.8460039 259.518,74.062 C258.985997,73.3433297 258.72,72.3866726 258.72,71.192 C258.72,70.0346609 258.990664,69.0826704 259.532,68.336 C260.120003,67.5239959 260.941328,67.118 261.996,67.118 C263.022672,67.118 263.811331,67.4773297 264.362,68.196 C264.875336,68.8773367 265.132,69.7639945 265.132,70.856 L265.132,71.528 Z M263.788,70.548 C263.713333,69.4653279 263.396003,68.7326686 262.836,68.35 C262.611999,68.2006659 262.332002,68.126 261.996,68.126 C261.146662,68.126 260.568002,68.6439948 260.26,69.68 C260.176,69.9693348 260.12,70.2586652 260.092,70.548 L263.788,70.548 Z M273.168,75 L271.852,75 L271.852,69.82 C271.852,68.7559947 271.376005,68.224 270.424,68.224 C269.537329,68.224 268.958668,68.7653279 268.688,69.848 C268.604,70.1560015 268.562,70.4733317 268.562,70.8 L268.562,75 L267.246,75 L267.246,67.356 L268.534,67.356 L268.562,68.364 C269.112669,67.5333292 269.873328,67.118 270.844,67.118 C271.581337,67.118 272.152998,67.3349978 272.559,67.769 C272.965002,68.2030022 273.168,68.7793297 273.168,69.498 L273.168,75 Z M286.314,72.228 C286.314,73.6466738 285.63734,74.5753311 284.284,75.014 C283.798664,75.1633341 283.215337,75.238 282.534,75.238 C281.441995,75.238 280.546003,75.0093356 279.846,74.552 C279.304664,74.2066649 278.940668,73.7540028 278.754,73.194 L279.972,72.536 C280.336002,73.5626718 281.217993,74.076 282.618,74.076 C284.120674,74.076 284.872,73.4880059 284.872,72.312 C284.872,71.7893307 284.685335,71.3833348 284.312,71.094 C284.041332,70.8793323 283.612003,70.7020007 283.024,70.562 L281.666,70.24 C279.883324,69.8199979 278.992,68.9006738 278.992,67.482 C278.992,66.1473267 279.663993,65.2560022 281.008,64.808 C281.446669,64.6679993 281.95533,64.598 282.534,64.598 C283.467338,64.598 284.255997,64.7613317 284.9,65.088 C285.366669,65.3306679 285.739999,65.6619979 286.02,66.082 L284.942,66.95 C284.671332,66.483331 284.209337,66.1333345 283.556,65.9 C283.266665,65.7973328 282.912002,65.746 282.492,65.746 C281.063993,65.746 280.35,66.3013278 280.35,67.412 C280.35,68.2240041 280.97066,68.7793318 282.212,69.078 L283.57,69.4 C285.399342,69.8293355 286.314,70.7719927 286.314,72.228 Z M291.536,74.972 C291.330666,75.0746672 290.88267,75.126 290.192,75.126 C288.997327,75.126 288.4,74.5473391 288.4,73.39 L288.4,68.42 L287.21,68.42 L287.21,67.356 L288.4,67.356 L288.4,65.452 L289.716,65.452 L289.716,67.356 L291.466,67.356 L291.466,68.42 L289.716,68.42 L289.716,73.124 C289.716,73.4413349 289.778999,73.6699993 289.905,73.81 C290.031001,73.9500007 290.247998,74.02 290.556,74.02 C290.994669,74.02 291.288666,73.982667 291.438,73.908 L291.536,74.972 Z M298.62,75 L297.36,75 C297.285333,74.7853323 297.234,74.5146683 297.206,74.188 C296.617997,74.8880035 295.862005,75.238 294.938,75.238 C294.200663,75.238 293.617335,75.0140022 293.188,74.566 C292.795998,74.1553313 292.6,73.6373365 292.6,73.012 C292.6,71.537326 293.453991,70.6833345 295.162,70.45 L297.094,70.184 L297.094,69.372 C297.094,68.5039957 296.604005,68.07 295.624,68.07 C295.166664,68.07 294.802668,68.1866655 294.532,68.42 C294.307999,68.616001 294.130667,68.8726651 294,69.19 L292.852,68.742 C293.001334,68.2939978 293.295331,67.9206682 293.734,67.622 C294.238003,67.2859983 294.867996,67.118 295.624,67.118 C297.462676,67.118 298.382,67.8739924 298.382,69.386 L298.382,73.684 C298.382,74.1693358 298.461333,74.607998 298.62,75 Z M297.094,72.466 L297.094,71.136 L295.372,71.374 C294.410662,71.5046673 293.93,72.0319954 293.93,72.956 C293.93,73.3573353 294.041999,73.6723322 294.266,73.901 C294.490001,74.1296678 294.802665,74.244 295.204,74.244 C295.726669,74.244 296.172331,74.0760017 296.541,73.74 C296.909669,73.4039983 297.094,72.9793359 297.094,72.466 Z M306.852,75 L305.536,75 L305.536,69.82 C305.536,68.7559947 305.060005,68.224 304.108,68.224 C303.221329,68.224 302.642668,68.7653279 302.372,69.848 C302.288,70.1560015 302.246,70.4733317 302.246,70.8 L302.246,75 L300.93,75 L300.93,67.356 L302.218,67.356 L302.246,68.364 C302.796669,67.5333292 303.557328,67.118 304.528,67.118 C305.265337,67.118 305.836998,67.3349978 306.243,67.769 C306.649002,68.2030022 306.852,68.7793297 306.852,69.498 L306.852,75 Z M315.462,75 L314.216,75 L314.188,73.964 C313.693331,74.8133376 312.937338,75.238 311.92,75.238 C311.22933,75.238 310.641336,75.0093356 310.156,74.552 C309.717331,74.1506647 309.404668,73.6000035 309.218,72.9 C309.087333,72.4146642 309.022,71.8826696 309.022,71.304 C309.022,70.1186607 309.259998,69.1526704 309.736,68.406 C310.286669,67.547329 311.070662,67.118 312.088,67.118 C313.105338,67.118 313.791332,67.4819964 314.146,68.21 L314.146,64.836 L315.462,64.836 L315.462,75 Z M314.188,71.136 C314.188,69.8479936 313.84267,68.9566691 313.152,68.462 C312.909332,68.2939992 312.624668,68.21 312.298,68.21 C311.60733,68.21 311.098668,68.5553299 310.772,69.246 C310.519999,69.7686693 310.394,70.4126628 310.394,71.178 C310.394,72.0646711 310.538665,72.7646641 310.828,73.278 C311.154668,73.8566696 311.625997,74.146 312.242,74.146 C313.203338,74.146 313.814665,73.5066731 314.076,72.228 C314.150667,71.8733316 314.188,71.5093352 314.188,71.136 Z M319.466,69.218 L317.884,69.218 L317.884,67.356 L319.466,67.356 L319.466,69.218 Z M319.466,75 L317.884,75 L317.884,73.138 L319.466,73.138 L319.466,75 Z" id="BleibenSieabsofortaufdemaktuellstenStand:" fill="#A0A0A0"></path>
                    <path d="M13.882,15.27 C13.882,17.0153421 13.3100057,18.2766628 12.166,19.054 C11.2273286,19.6846698 9.90734184,20 8.206,20 L2.002,20 L2.002,4.028 L8.316,4.028 C9.782674,4.028 10.911996,4.30666388 11.704,4.864 C12.6720048,5.53867004 13.156,6.5726597 13.156,7.966 C13.156,9.41800726 12.5180064,10.5473293 11.242,11.354 C13.0020088,11.9700031 13.882,13.2753234 13.882,15.27 Z M10.868,8.208 C10.868,7.3279956 10.6113359,6.7046685 10.098,6.338 C9.6579978,6.01533172 8.97600462,5.854 8.052,5.854 L4.114,5.854 L4.114,10.628 L7.898,10.628 C9.26200682,10.628 10.1639978,10.232004 10.604,9.44 C10.7800009,9.13199846 10.868,8.7213359 10.868,8.208 Z M11.572,15.292 C11.572,14.221328 11.2420033,13.4513357 10.582,12.982 C10.0686641,12.6299982 9.29133854,12.454 8.25,12.454 L4.114,12.454 L4.114,18.174 L8.03,18.174 C10.3913451,18.174 11.572,17.2133429 11.572,15.292 Z M26.84,14.544 L18.876,14.544 C18.934667,16.4213427 19.4919947,17.6826634 20.548,18.328 C20.9293352,18.5773346 21.3986639,18.702 21.956,18.702 C23.3053401,18.702 24.2146643,18.1300057 24.684,16.986 L26.466,17.866 C25.6006623,19.5380084 24.0753443,20.374 21.89,20.374 C20.2179916,20.374 18.9273379,19.7580062 18.018,18.526 C17.1819958,17.396661 16.764,15.8933427 16.764,14.016 C16.764,12.1973242 17.1893291,10.7013392 18.04,9.528 C18.9640046,8.25199362 20.2546584,7.614 21.912,7.614 C23.5253414,7.614 24.7646623,8.17866102 25.63,9.308 C26.4366707,10.378672 26.84,11.7719914 26.84,13.488 L26.84,14.544 Z M24.728,13.004 C24.6106661,11.3026582 24.1120044,10.1513363 23.232,9.55 C22.8799982,9.31533216 22.4400026,9.198 21.912,9.198 C20.5773267,9.198 19.6680024,10.0119919 19.184,11.64 C19.0519993,12.0946689 18.9640002,12.5493311 18.92,13.004 L24.728,13.004 Z M38.28,16.656 C38.28,17.9320064 37.8180046,18.8926634 36.894,19.538 C36.0873293,20.0953361 35.0313399,20.374 33.726,20.374 C32.3326597,20.374 31.2033377,20.0733363 30.338,19.472 C29.6779967,19.0173311 29.2160013,18.4306703 28.952,17.712 L30.69,16.854 C31.2473361,18.1006729 32.259326,18.724 33.726,18.724 C35.4126751,18.724 36.256,18.0860064 36.256,16.81 C36.256,16.2526639 36.0433355,15.8200015 35.618,15.512 C35.3393319,15.2919989 34.8700033,15.0940009 34.21,14.918 L32.472,14.434 C30.330656,13.8326637 29.26,12.7180081 29.26,11.09 C29.26,9.9166608 29.7146621,9.02200308 30.624,8.406 C31.416004,7.87799736 32.4206606,7.614 33.638,7.614 C34.7820057,7.614 35.7573293,7.8339978 36.564,8.274 C37.1360029,8.58200154 37.619998,9.01466388 38.016,9.572 L36.52,10.738 C36.1679982,10.1366637 35.6106705,9.69666806 34.848,9.418 C34.4959982,9.30066608 34.0780024,9.242 33.594,9.242 C31.9953253,9.242 31.196,9.83599406 31.196,11.024 C31.196,11.8306707 31.8706599,12.4173315 33.22,12.784 L34.936,13.246 C35.9920053,13.5246681 36.7766641,13.8913311 37.29,14.346 C37.9500033,14.9180029 38.28,15.6879952 38.28,16.656 Z M46.728,19.956 C46.4053317,20.1173341 45.7013388,20.198 44.616,20.198 C42.7386573,20.198 41.8,19.2886758 41.8,17.47 L41.8,9.66 L39.93,9.66 L39.93,7.988 L41.8,7.988 L41.8,4.996 L43.868,4.996 L43.868,7.988 L46.618,7.988 L46.618,9.66 L43.868,9.66 L43.868,17.052 C43.868,17.5506692 43.966999,17.9099989 44.165,18.13 C44.363001,18.3500011 44.7039976,18.46 45.188,18.46 C45.8773368,18.46 46.3393322,18.4013339 46.574,18.284 L46.728,19.956 Z M58.718,14.544 L50.754,14.544 C50.812667,16.4213427 51.3699947,17.6826634 52.426,18.328 C52.8073352,18.5773346 53.2766639,18.702 53.834,18.702 C55.1833401,18.702 56.0926643,18.1300057 56.562,16.986 L58.344,17.866 C57.4786623,19.5380084 55.9533443,20.374 53.768,20.374 C52.0959916,20.374 50.8053379,19.7580062 49.896,18.526 C49.0599958,17.396661 48.642,15.8933427 48.642,14.016 C48.642,12.1973242 49.0673291,10.7013392 49.918,9.528 C50.8420046,8.25199362 52.1326584,7.614 53.79,7.614 C55.4033414,7.614 56.6426623,8.17866102 57.508,9.308 C58.3146707,10.378672 58.718,11.7719914 58.718,13.488 L58.718,14.544 Z M56.606,13.004 C56.4886661,11.3026582 55.9900044,10.1513363 55.11,9.55 C54.7579982,9.31533216 54.3180026,9.198 53.79,9.198 C52.4553267,9.198 51.5460024,10.0119919 51.062,11.64 C50.9299993,12.0946689 50.8420002,12.5493311 50.798,13.004 L56.606,13.004 Z M71.346,20 L69.278,20 L69.278,11.86 C69.278,10.1879916 68.5300075,9.352 67.034,9.352 C65.6406597,9.352 64.7313355,10.2026582 64.306,11.904 C64.1739993,12.3880024 64.108,12.8866641 64.108,13.4 L64.108,20 L62.04,20 L62.04,7.988 L64.064,7.988 L64.108,9.572 C64.9733377,8.26666014 66.168659,7.614 67.694,7.614 C68.8526725,7.614 69.7509968,7.95499659 70.389,8.637 C71.0270032,9.31900341 71.346,10.224661 71.346,11.354 L71.346,20 Z M83.468,16.656 C83.468,17.9320064 83.0060046,18.8926634 82.082,19.538 C81.2753293,20.0953361 80.2193399,20.374 78.914,20.374 C77.5206597,20.374 76.3913377,20.0733363 75.526,19.472 C74.8659967,19.0173311 74.4040013,18.4306703 74.14,17.712 L75.878,16.854 C76.4353361,18.1006729 77.447326,18.724 78.914,18.724 C80.6006751,18.724 81.444,18.0860064 81.444,16.81 C81.444,16.2526639 81.2313355,15.8200015 80.806,15.512 C80.5273319,15.2919989 80.0580033,15.0940009 79.398,14.918 L77.66,14.434 C75.518656,13.8326637 74.448,12.7180081 74.448,11.09 C74.448,9.9166608 74.9026621,9.02200308 75.812,8.406 C76.604004,7.87799736 77.6086606,7.614 78.826,7.614 C79.9700057,7.614 80.9453293,7.8339978 81.752,8.274 C82.3240029,8.58200154 82.807998,9.01466388 83.204,9.572 L81.708,10.738 C81.3559982,10.1366637 80.7986705,9.69666806 80.036,9.418 C79.6839982,9.30066608 79.2660024,9.242 78.782,9.242 C77.1833253,9.242 76.384,9.83599406 76.384,11.024 C76.384,11.8306707 77.0586599,12.4173315 78.408,12.784 L80.124,13.246 C81.1800053,13.5246681 81.9646641,13.8913311 82.478,14.346 C83.1380033,14.9180029 83.468,15.6879952 83.468,16.656 Z M101.156,7.988 L97.306,20 L94.732,20 L90.904,7.988 L93.082,7.988 L96.074,18.02 L99.066,7.988 L101.156,7.988 Z M112.904,14.544 L104.94,14.544 C104.998667,16.4213427 105.555995,17.6826634 106.612,18.328 C106.993335,18.5773346 107.462664,18.702 108.02,18.702 C109.36934,18.702 110.278664,18.1300057 110.748,16.986 L112.53,17.866 C111.664662,19.5380084 110.139344,20.374 107.954,20.374 C106.281992,20.374 104.991338,19.7580062 104.082,18.526 C103.245996,17.396661 102.828,15.8933427 102.828,14.016 C102.828,12.1973242 103.253329,10.7013392 104.104,9.528 C105.028005,8.25199362 106.318658,7.614 107.976,7.614 C109.589341,7.614 110.828662,8.17866102 111.694,9.308 C112.500671,10.378672 112.904,11.7719914 112.904,13.488 L112.904,14.544 Z M110.792,13.004 C110.674666,11.3026582 110.176004,10.1513363 109.296,9.55 C108.943998,9.31533216 108.504003,9.198 107.976,9.198 C106.641327,9.198 105.732002,10.0119919 105.248,11.64 C105.115999,12.0946689 105.028,12.5493311 104.984,13.004 L110.792,13.004 Z M122.562,7.988 L122.386,9.77 C121.989998,9.68199956 121.601335,9.638 121.22,9.638 C119.87066,9.638 118.976002,10.3126599 118.536,11.662 C118.374666,12.1313357 118.294,12.6959967 118.294,13.356 L118.294,20 L116.226,20 L116.226,7.988 L118.228,7.988 L118.272,9.638 C118.961337,8.44999406 119.98066,7.856 121.33,7.856 C121.755335,7.856 122.165998,7.89999956 122.562,7.988 Z M133.98,20 L131.912,20 L131.912,11.86 C131.912,10.1879916 131.164007,9.352 129.668,9.352 C128.27466,9.352 127.365335,10.2026582 126.94,11.904 C126.807999,12.3880024 126.742,12.8866641 126.742,13.4 L126.742,20 L124.674,20 L124.674,7.988 L126.698,7.988 L126.742,9.572 C127.607338,8.26666014 128.802659,7.614 130.328,7.614 C131.486672,7.614 132.384997,7.95499659 133.023,8.637 C133.661003,9.31900341 133.98,10.224661 133.98,11.354 L133.98,20 Z M147.466,14.544 L139.502,14.544 C139.560667,16.4213427 140.117995,17.6826634 141.174,18.328 C141.555335,18.5773346 142.024664,18.702 142.582,18.702 C143.93134,18.702 144.840664,18.1300057 145.31,16.986 L147.092,17.866 C146.226662,19.5380084 144.701344,20.374 142.516,20.374 C140.843992,20.374 139.553338,19.7580062 138.644,18.526 C137.807996,17.396661 137.39,15.8933427 137.39,14.016 C137.39,12.1973242 137.815329,10.7013392 138.666,9.528 C139.590005,8.25199362 140.880658,7.614 142.538,7.614 C144.151341,7.614 145.390662,8.17866102 146.256,9.308 C147.062671,10.378672 147.466,11.7719914 147.466,13.488 L147.466,14.544 Z M145.354,13.004 C145.236666,11.3026582 144.738004,10.1513363 143.858,9.55 C143.505998,9.31533216 143.066003,9.198 142.538,9.198 C141.203327,9.198 140.294002,10.0119919 139.81,11.64 C139.677999,12.0946689 139.59,12.5493311 139.546,13.004 L145.354,13.004 Z M156.178,19.956 C155.855332,20.1173341 155.151339,20.198 154.066,20.198 C152.188657,20.198 151.25,19.2886758 151.25,17.47 L151.25,9.66 L149.38,9.66 L149.38,7.988 L151.25,7.988 L151.25,4.996 L153.318,4.996 L153.318,7.988 L156.068,7.988 L156.068,9.66 L153.318,9.66 L153.318,17.052 C153.318,17.5506692 153.416999,17.9099989 153.615,18.13 C153.813001,18.3500011 154.153998,18.46 154.638,18.46 C155.327337,18.46 155.789332,18.4013339 156.024,18.284 L156.178,19.956 Z M166.342,20 L157.454,20 L157.454,18.46 L163.68,9.66 L157.74,9.66 L157.74,7.988 L166.122,7.988 L166.122,9.528 L159.852,18.35 L166.342,18.35 L166.342,20 Z M174.504,19.956 C174.181332,20.1173341 173.477339,20.198 172.392,20.198 C170.514657,20.198 169.576,19.2886758 169.576,17.47 L169.576,9.66 L167.706,9.66 L167.706,7.988 L169.576,7.988 L169.576,4.996 L171.644,4.996 L171.644,7.988 L174.394,7.988 L174.394,9.66 L171.644,9.66 L171.644,17.052 C171.644,17.5506692 171.742999,17.9099989 171.941,18.13 C172.139001,18.3500011 172.479998,18.46 172.964,18.46 C173.653337,18.46 174.115332,18.4013339 174.35,18.284 L174.504,19.956 Z M198.528,20 L196.46,20 L196.46,11.86 C196.46,10.9359954 196.254669,10.2613355 195.844,9.836 C195.506665,9.51333172 195.04467,9.352 194.458,9.352 C193.651329,9.352 193.006002,9.76999582 192.522,10.606 C192.081998,11.3686705 191.862,12.2999945 191.862,13.4 L191.862,20 L189.794,20 L189.794,11.86 C189.794,10.9066619 189.588669,10.232002 189.178,9.836 C188.840665,9.51333172 188.386003,9.352 187.814,9.352 C186.567327,9.352 185.753335,10.2026582 185.372,11.904 C185.254666,12.3880024 185.196,12.8866641 185.196,13.4 L185.196,20 L183.128,20 L183.128,7.988 L185.152,7.988 L185.174,9.484 C185.93667,8.2373271 187.036659,7.614 188.474,7.614 C190.043341,7.614 191.069998,8.29599318 191.554,9.66 C192.27267,8.29599318 193.445992,7.614 195.074,7.614 C196.174005,7.614 197.024664,7.95132996 197.626,8.626 C198.227336,9.30067004 198.528,10.1806612 198.528,11.266 L198.528,20 Z M204.6,6.294 L202.532,6.294 L202.532,4.028 L204.6,4.028 L204.6,6.294 Z M204.6,20 L202.532,20 L202.532,7.988 L204.6,7.988 L204.6,20 Z M213.994,19.956 C213.671332,20.1173341 212.967339,20.198 211.882,20.198 C210.004657,20.198 209.066,19.2886758 209.066,17.47 L209.066,9.66 L207.196,9.66 L207.196,7.988 L209.066,7.988 L209.066,4.996 L211.134,4.996 L211.134,7.988 L213.884,7.988 L213.884,9.66 L211.134,9.66 L211.134,17.052 C211.134,17.5506692 211.232999,17.9099989 211.431,18.13 C211.629001,18.3500011 211.969998,18.46 212.454,18.46 C213.143337,18.46 213.605332,18.4013339 213.84,18.284 L213.994,19.956 Z M224.818,20 L222.618,20 L222.618,4.028 L224.818,4.028 L224.818,20 Z M238.106,20 L236.038,20 L236.038,11.86 C236.038,10.1879916 235.290007,9.352 233.794,9.352 C232.385993,9.352 231.476669,10.2026582 231.066,11.904 C230.948666,12.3880024 230.89,12.8866641 230.89,13.4 L230.89,20 L228.822,20 L228.822,4.028 L230.89,4.028 L230.89,9.418 C231.740671,8.21532732 232.928659,7.614 234.454,7.614 C235.612672,7.614 236.510997,7.95499659 237.149,8.637 C237.787003,9.31900341 238.106,10.224661 238.106,11.354 L238.106,20 Z M248.446,7.988 L248.27,9.77 C247.873998,9.68199956 247.485335,9.638 247.104,9.638 C245.75466,9.638 244.860002,10.3126599 244.42,11.662 C244.258666,12.1313357 244.178,12.6959967 244.178,13.356 L244.178,20 L242.11,20 L242.11,7.988 L244.112,7.988 L244.156,9.638 C244.845337,8.44999406 245.86466,7.856 247.214,7.856 C247.639335,7.856 248.049998,7.89999956 248.446,7.988 Z M260.04,14.544 L252.076,14.544 C252.134667,16.4213427 252.691995,17.6826634 253.748,18.328 C254.129335,18.5773346 254.598664,18.702 255.156,18.702 C256.50534,18.702 257.414664,18.1300057 257.884,16.986 L259.666,17.866 C258.800662,19.5380084 257.275344,20.374 255.09,20.374 C253.417992,20.374 252.127338,19.7580062 251.218,18.526 C250.381996,17.396661 249.964,15.8933427 249.964,14.016 C249.964,12.1973242 250.389329,10.7013392 251.24,9.528 C252.164005,8.25199362 253.454658,7.614 255.112,7.614 C256.725341,7.614 257.964662,8.17866102 258.83,9.308 C259.636671,10.378672 260.04,11.7719914 260.04,13.488 L260.04,14.544 Z M257.928,13.004 C257.810666,11.3026582 257.312004,10.1513363 256.432,9.55 C256.079998,9.31533216 255.640003,9.198 255.112,9.198 C253.777327,9.198 252.868002,10.0119919 252.384,11.64 C252.251999,12.0946689 252.164,12.5493311 252.12,13.004 L257.928,13.004 Z M278.762,20 L276.694,20 L276.694,11.86 C276.694,10.9359954 276.488669,10.2613355 276.078,9.836 C275.740665,9.51333172 275.27867,9.352 274.692,9.352 C273.885329,9.352 273.240002,9.76999582 272.756,10.606 C272.315998,11.3686705 272.096,12.2999945 272.096,13.4 L272.096,20 L270.028,20 L270.028,11.86 C270.028,10.9066619 269.822669,10.232002 269.412,9.836 C269.074665,9.51333172 268.620003,9.352 268.048,9.352 C266.801327,9.352 265.987335,10.2026582 265.606,11.904 C265.488666,12.3880024 265.43,12.8866641 265.43,13.4 L265.43,20 L263.362,20 L263.362,7.988 L265.386,7.988 L265.408,9.484 C266.17067,8.2373271 267.270659,7.614 268.708,7.614 C270.277341,7.614 271.303998,8.29599318 271.788,9.66 C272.50667,8.29599318 273.679992,7.614 275.308,7.614 C276.408006,7.614 277.258664,7.95132996 277.86,8.626 C278.461336,9.30067004 278.762,10.1806612 278.762,11.266 L278.762,20 Z M300.762,15.27 C300.762,17.0153421 300.190006,18.2766628 299.046,19.054 C298.107329,19.6846698 296.787342,20 295.086,20 L288.882,20 L288.882,4.028 L295.196,4.028 C296.662674,4.028 297.791996,4.30666388 298.584,4.864 C299.552005,5.53867004 300.036,6.5726597 300.036,7.966 C300.036,9.41800726 299.398006,10.5473293 298.122,11.354 C299.882009,11.9700031 300.762,13.2753234 300.762,15.27 Z M297.748,8.208 C297.748,7.3279956 297.491336,6.7046685 296.978,6.338 C296.537998,6.01533172 295.856005,5.854 294.932,5.854 L290.994,5.854 L290.994,10.628 L294.778,10.628 C296.142007,10.628 297.043998,10.232004 297.484,9.44 C297.660001,9.13199846 297.748,8.7213359 297.748,8.208 Z M298.452,15.292 C298.452,14.221328 298.122003,13.4513357 297.462,12.982 C296.948664,12.6299982 296.171339,12.454 295.13,12.454 L290.994,12.454 L290.994,18.174 L294.91,18.174 C297.271345,18.174 298.452,17.2133429 298.452,15.292 Z M320.32,20 L318.252,20 L318.252,6.426 L313.28,20 L311.08,20 L306.306,6.448 L306.306,20 L304.238,20 L304.238,4.028 L307.494,4.028 L312.246,17.536 L317.174,4.028 L320.32,4.028 L320.32,20 Z M342.056,4.028 L338.14,20 L335.544,20 L332.42,6.976 L329.142,20 L326.524,20 L322.872,4.028 L325.204,4.028 L328.086,17.558 L331.254,4.028 L333.652,4.028 L336.71,17.58 L339.768,4.028 L342.056,4.028 Z" id="BestensvernetztmitIhremBMW" fill="#FFFFFF"></path>
                    <polygon id="Hi---Lite-Bar" fill="#404648" points="0 41 0 37 78 37 75.1111111 41"></polygon>
                    <path d="M30.98,105.228 C30.98,106.646674 30.3033401,107.575331 28.95,108.014 C28.4646642,108.163334 27.8813367,108.238 27.2,108.238 C26.1079945,108.238 25.2120035,108.009336 24.512,107.552 C23.970664,107.206665 23.6066676,106.754003 23.42,106.194 L24.638,105.536 C25.0020018,106.562672 25.883993,107.076 27.284,107.076 C28.7866742,107.076 29.538,106.488006 29.538,105.312 C29.538,104.789331 29.3513352,104.383335 28.978,104.094 C28.707332,103.879332 28.2780029,103.702001 27.69,103.562 L26.332,103.24 C24.5493244,102.819998 23.658,101.900674 23.658,100.482 C23.658,99.1473267 24.3299933,98.2560022 25.674,97.808 C26.1126689,97.6679993 26.6213304,97.598 27.2,97.598 C28.133338,97.598 28.9219968,97.7613317 29.566,98.088 C30.032669,98.3306679 30.4059986,98.6619979 30.686,99.082 L29.608,99.95 C29.337332,99.483331 28.8753366,99.1333345 28.222,98.9 C27.9326652,98.7973328 27.5780021,98.746 27.158,98.746 C25.7299929,98.746 25.016,99.3013278 25.016,100.412 C25.016,101.224004 25.6366605,101.779332 26.878,102.078 L28.236,102.4 C30.0653425,102.829335 30.98,103.771993 30.98,105.228 Z M39.212,104.052 C39.212,105.237339 38.978669,106.198663 38.512,106.936 C37.9519972,107.804004 37.1633384,108.238 36.146,108.238 C35.1193282,108.238 34.4333351,107.855337 34.088,107.09 L34.088,110.576 L32.772,110.576 L32.772,100.356 L34.032,100.356 L34.06,101.392 C34.5546691,100.542662 35.305995,100.118 36.314,100.118 C37.0046701,100.118 37.5926642,100.346664 38.078,100.804 C38.5166689,101.205335 38.8293324,101.755996 39.016,102.456 C39.1466673,102.941336 39.212,103.47333 39.212,104.052 Z M37.84,104.178 C37.84,103.291329 37.6953348,102.586669 37.406,102.064 C37.0793317,101.494664 36.6080031,101.21 35.992,101.21 C35.0306619,101.21 34.4193346,101.84466 34.158,103.114 C34.083333,103.478002 34.046,103.846665 34.046,104.22 C34.046,105.508006 34.3959965,106.399331 35.096,106.894 C35.3293345,107.062001 35.6093317,107.146 35.936,107.146 C36.6266701,107.146 37.1353317,106.80067 37.462,106.11 C37.7140013,105.587331 37.84,104.943337 37.84,104.178 Z M47.416,104.528 L42.348,104.528 C42.3853335,105.722673 42.7399966,106.525331 43.412,106.936 C43.6546679,107.094667 43.9533316,107.174 44.308,107.174 C45.166671,107.174 45.7453318,106.810004 46.044,106.082 L47.178,106.642 C46.6273306,107.706005 45.6566736,108.238 44.266,108.238 C43.2019947,108.238 42.3806696,107.846004 41.802,107.062 C41.2699973,106.34333 41.004,105.386673 41.004,104.192 C41.004,103.034661 41.274664,102.08267 41.816,101.336 C42.4040029,100.523996 43.2253281,100.118 44.28,100.118 C45.3066718,100.118 46.0953306,100.47733 46.646,101.196 C47.1593359,101.877337 47.416,102.763995 47.416,103.856 L47.416,104.528 Z M46.072,103.548 C45.997333,102.465328 45.6800028,101.732669 45.12,101.35 C44.8959989,101.200666 44.6160017,101.126 44.28,101.126 C43.4306624,101.126 42.8520015,101.643995 42.544,102.68 C42.4599996,102.969335 42.4040001,103.258665 42.376,103.548 L46.072,103.548 Z M54.402,108 L48.746,108 L48.746,107.02 L52.708,101.42 L48.928,101.42 L48.928,100.356 L54.262,100.356 L54.262,101.336 L50.272,106.95 L54.402,106.95 L54.402,108 Z M57.482,99.278 L56.166,99.278 L56.166,97.836 L57.482,97.836 L57.482,99.278 Z M57.482,108 L56.166,108 L56.166,100.356 L57.482,100.356 L57.482,108 Z M63.516,97.738 L63.446,98.69 C63.249999,98.6246663 62.9606686,98.592 62.578,98.592 C61.9619969,98.592 61.654,98.9373299 61.654,99.628 L61.654,100.356 L63.446,100.356 L63.446,101.42 L61.654,101.42 L61.654,108 L60.338,108 L60.338,101.42 L59.134,101.42 L59.134,100.356 L60.338,100.356 L60.338,99.6 C60.338,98.9559968 60.5083316,98.4613351 60.849,98.116 C61.1896684,97.7706649 61.6726635,97.598 62.298,97.598 C62.8766696,97.598 63.2826655,97.6446662 63.516,97.738 Z M66.176,99.278 L64.86,99.278 L64.86,97.836 L66.176,97.836 L66.176,99.278 Z M66.176,108 L64.86,108 L64.86,100.356 L66.176,100.356 L66.176,108 Z M73.89,105.872 C73.89,106.684004 73.5960029,107.295331 73.008,107.706 C72.4946641,108.060668 71.8226708,108.238 70.992,108.238 C70.1053289,108.238 69.3866694,108.046669 68.836,107.664 C68.4159979,107.374665 68.1220008,107.001336 67.954,106.544 L69.06,105.998 C69.4146684,106.791337 70.058662,107.188 70.992,107.188 C72.0653387,107.188 72.602,106.782004 72.602,105.97 C72.602,105.615332 72.466668,105.340001 72.196,105.144 C72.0186658,105.003999 71.7200021,104.878001 71.3,104.766 L70.194,104.458 C68.8313265,104.075331 68.15,103.366005 68.15,102.33 C68.15,101.58333 68.4393304,101.014002 69.018,100.622 C69.5220025,100.285998 70.1613295,100.118 70.936,100.118 C71.6640036,100.118 72.2846641,100.257999 72.798,100.538 C73.1620018,100.734001 73.4699987,101.009332 73.722,101.364 L72.77,102.106 C72.5459989,101.723331 72.1913358,101.443334 71.706,101.266 C71.4819989,101.191333 71.2160015,101.154 70.908,101.154 C69.8906616,101.154 69.382,101.531996 69.382,102.288 C69.382,102.801336 69.811329,103.174666 70.67,103.408 L71.762,103.702 C72.4340034,103.879334 72.9333317,104.112665 73.26,104.402 C73.6800021,104.766002 73.89,105.255997 73.89,105.872 Z M81.52,106.698 C80.9973307,107.724672 80.0593401,108.238 78.706,108.238 C77.6419947,108.238 76.8253362,107.836671 76.256,107.034 C75.7239973,106.305996 75.458,105.358672 75.458,104.192 C75.458,103.006661 75.728664,102.045337 76.27,101.308 C76.8580029,100.514663 77.6839947,100.118 78.748,100.118 C80.07334,100.118 80.9926641,100.617328 81.506,101.616 L80.428,102.274 C80.2413324,101.891331 80.0220013,101.618334 79.77,101.455 C79.5179987,101.291666 79.1820021,101.21 78.762,101.21 C77.8006619,101.21 77.1893346,101.811994 76.928,103.016 C76.8439996,103.380002 76.802,103.771998 76.802,104.192 C76.802,105.526673 77.1519965,106.427331 77.852,106.894 C78.1040013,107.062001 78.4073316,107.146 78.762,107.146 C79.4340034,107.146 79.9193318,106.912669 80.218,106.446 C80.292667,106.324666 80.3579997,106.203334 80.414,106.082 L81.52,106.698 Z M89.262,108 L87.946,108 L87.946,102.82 C87.946,101.755995 87.4700048,101.224 86.518,101.224 C85.6219955,101.224 85.0433346,101.765328 84.782,102.848 C84.707333,103.156002 84.67,103.473332 84.67,103.8 L84.67,108 L83.354,108 L83.354,97.836 L84.67,97.836 L84.67,101.266 C85.211336,100.500663 85.9673285,100.118 86.938,100.118 C87.675337,100.118 88.246998,100.334998 88.653,100.769 C89.059002,101.203002 89.262,101.77933 89.262,102.498 L89.262,108 Z M97.844,104.528 L92.776,104.528 C92.8133335,105.722673 93.1679966,106.525331 93.84,106.936 C94.0826679,107.094667 94.3813316,107.174 94.736,107.174 C95.594671,107.174 96.1733318,106.810004 96.472,106.082 L97.606,106.642 C97.0553306,107.706005 96.0846736,108.238 94.694,108.238 C93.6299947,108.238 92.8086696,107.846004 92.23,107.062 C91.6979973,106.34333 91.432,105.386673 91.432,104.192 C91.432,103.034661 91.702664,102.08267 92.244,101.336 C92.8320029,100.523996 93.6533281,100.118 94.708,100.118 C95.7346718,100.118 96.5233306,100.47733 97.074,101.196 C97.5873359,101.877337 97.844,102.763995 97.844,103.856 L97.844,104.528 Z M96.5,103.548 C96.425333,102.465328 96.1080028,101.732669 95.548,101.35 C95.3239989,101.200666 95.0440017,101.126 94.708,101.126 C93.8586624,101.126 93.2800015,101.643995 92.972,102.68 C92.8879996,102.969335 92.8320001,103.258665 92.804,103.548 L96.5,103.548 Z M105.25,108 L103.85,108 L103.85,97.836 L105.25,97.836 L105.25,108 Z M113.72,108 L112.404,108 L112.404,102.82 C112.404,101.755995 111.928005,101.224 110.976,101.224 C110.089329,101.224 109.510668,101.765328 109.24,102.848 C109.156,103.156002 109.114,103.473332 109.114,103.8 L109.114,108 L107.798,108 L107.798,100.356 L109.086,100.356 L109.114,101.364 C109.664669,100.533329 110.425328,100.118 111.396,100.118 C112.133337,100.118 112.704998,100.334998 113.111,100.769 C113.517002,101.203002 113.72,101.77933 113.72,102.498 L113.72,108 Z M119.754,97.738 L119.684,98.69 C119.487999,98.6246663 119.198669,98.592 118.816,98.592 C118.199997,98.592 117.892,98.9373299 117.892,99.628 L117.892,100.356 L119.684,100.356 L119.684,101.42 L117.892,101.42 L117.892,108 L116.576,108 L116.576,101.42 L115.372,101.42 L115.372,100.356 L116.576,100.356 L116.576,99.6 C116.576,98.9559968 116.746332,98.4613351 117.087,98.116 C117.427668,97.7706649 117.910664,97.598 118.536,97.598 C119.11467,97.598 119.520665,97.6446662 119.754,97.738 Z M127.482,104.192 C127.482,105.396006 127.206669,106.35733 126.656,107.076 C126.058664,107.850671 125.204672,108.238 124.094,108.238 C122.973994,108.238 122.12467,107.850671 121.546,107.076 C120.995331,106.35733 120.72,105.396006 120.72,104.192 C120.72,102.978661 120.995331,102.01267 121.546,101.294 C122.134003,100.509996 122.983328,100.118 124.094,100.118 C125.195339,100.118 126.04933,100.509996 126.656,101.294 C127.206669,102.01267 127.482,102.978661 127.482,104.192 Z M126.138,104.192 C126.138,102.829327 125.76467,101.914669 125.018,101.448 C124.756665,101.289333 124.448668,101.21 124.094,101.21 C123.095328,101.21 122.460668,101.821327 122.19,103.044 C122.106,103.408002 122.064,103.790665 122.064,104.192 C122.064,105.54534 122.43733,106.450664 123.184,106.908 C123.436001,107.066667 123.739332,107.146 124.094,107.146 C125.111338,107.146 125.755332,106.539339 126.026,105.326 C126.100667,104.971332 126.138,104.593335 126.138,104.192 Z M133.684,100.356 L133.572,101.49 C133.319999,101.434 133.072668,101.406 132.83,101.406 C131.971329,101.406 131.402001,101.835329 131.122,102.694 C131.019333,102.992668 130.968,103.351998 130.968,103.772 L130.968,108 L129.652,108 L129.652,100.356 L130.926,100.356 L130.954,101.406 C131.392669,100.649996 132.041329,100.272 132.9,100.272 C133.170668,100.272 133.431999,100.3 133.684,100.356 Z M144.828,108 L143.512,108 L143.512,102.82 C143.512,102.231997 143.381335,101.802668 143.12,101.532 C142.905332,101.326666 142.611335,101.224 142.238,101.224 C141.724664,101.224 141.314002,101.489997 141.006,102.022 C140.725999,102.507336 140.586,103.099997 140.586,103.8 L140.586,108 L139.27,108 L139.27,102.82 C139.27,102.21333 139.139335,101.784001 138.878,101.532 C138.663332,101.326666 138.374002,101.224 138.01,101.224 C137.216663,101.224 136.698668,101.765328 136.456,102.848 C136.381333,103.156002 136.344,103.473332 136.344,103.8 L136.344,108 L135.028,108 L135.028,100.356 L136.316,100.356 L136.33,101.308 C136.815336,100.514663 137.515329,100.118 138.43,100.118 C139.428672,100.118 140.081998,100.551996 140.39,101.42 C140.847336,100.551996 141.593995,100.118 142.63,100.118 C143.330003,100.118 143.871331,100.332665 144.254,100.762 C144.636669,101.191335 144.828,101.75133 144.828,102.442 L144.828,108 Z M152.864,108 L151.604,108 C151.529333,107.785332 151.478,107.514668 151.45,107.188 C150.861997,107.888003 150.106005,108.238 149.182,108.238 C148.444663,108.238 147.861335,108.014002 147.432,107.566 C147.039998,107.155331 146.844,106.637336 146.844,106.012 C146.844,104.537326 147.697991,103.683335 149.406,103.45 L151.338,103.184 L151.338,102.372 C151.338,101.503996 150.848005,101.07 149.868,101.07 C149.410664,101.07 149.046668,101.186666 148.776,101.42 C148.551999,101.616001 148.374667,101.872665 148.244,102.19 L147.096,101.742 C147.245334,101.293998 147.539331,100.920668 147.978,100.622 C148.482003,100.285998 149.111996,100.118 149.868,100.118 C151.706676,100.118 152.626,100.873992 152.626,102.386 L152.626,106.684 C152.626,107.169336 152.705333,107.607998 152.864,108 Z M151.338,105.466 L151.338,104.136 L149.616,104.374 C148.654662,104.504667 148.174,105.031995 148.174,105.956 C148.174,106.357335 148.285999,106.672332 148.51,106.901 C148.734001,107.129668 149.046665,107.244 149.448,107.244 C149.970669,107.244 150.416331,107.076002 150.785,106.74 C151.153669,106.403998 151.338,105.979336 151.338,105.466 Z M158.604,107.972 C158.398666,108.074667 157.95067,108.126 157.26,108.126 C156.065327,108.126 155.468,107.547339 155.468,106.39 L155.468,101.42 L154.278,101.42 L154.278,100.356 L155.468,100.356 L155.468,98.452 L156.784,98.452 L156.784,100.356 L158.534,100.356 L158.534,101.42 L156.784,101.42 L156.784,106.124 C156.784,106.441335 156.846999,106.669999 156.973,106.81 C157.099001,106.950001 157.315998,107.02 157.624,107.02 C158.062669,107.02 158.356666,106.982667 158.506,106.908 L158.604,107.972 Z M161.516,99.278 L160.2,99.278 L160.2,97.836 L161.516,97.836 L161.516,99.278 Z M161.516,108 L160.2,108 L160.2,100.356 L161.516,100.356 L161.516,108 Z M170.448,104.192 C170.448,105.396006 170.172669,106.35733 169.622,107.076 C169.024664,107.850671 168.170672,108.238 167.06,108.238 C165.939994,108.238 165.09067,107.850671 164.512,107.076 C163.961331,106.35733 163.686,105.396006 163.686,104.192 C163.686,102.978661 163.961331,102.01267 164.512,101.294 C165.100003,100.509996 165.949328,100.118 167.06,100.118 C168.161339,100.118 169.01533,100.509996 169.622,101.294 C170.172669,102.01267 170.448,102.978661 170.448,104.192 Z M169.104,104.192 C169.104,102.829327 168.73067,101.914669 167.984,101.448 C167.722665,101.289333 167.414668,101.21 167.06,101.21 C166.061328,101.21 165.426668,101.821327 165.156,103.044 C165.072,103.408002 165.03,103.790665 165.03,104.192 C165.03,105.54534 165.40333,106.450664 166.15,106.908 C166.402001,107.066667 166.705332,107.146 167.06,107.146 C168.077338,107.146 168.721332,106.539339 168.992,105.326 C169.066667,104.971332 169.104,104.593335 169.104,104.192 Z M178.54,108 L177.224,108 L177.224,102.82 C177.224,101.755995 176.748005,101.224 175.796,101.224 C174.909329,101.224 174.330668,101.765328 174.06,102.848 C173.976,103.156002 173.934,103.473332 173.934,103.8 L173.934,108 L172.618,108 L172.618,100.356 L173.906,100.356 L173.934,101.364 C174.484669,100.533329 175.245328,100.118 176.216,100.118 C176.953337,100.118 177.524998,100.334998 177.931,100.769 C178.337002,101.203002 178.54,101.77933 178.54,102.498 L178.54,108 Z M187.122,104.528 L182.054,104.528 C182.091334,105.722673 182.445997,106.525331 183.118,106.936 C183.360668,107.094667 183.659332,107.174 184.014,107.174 C184.872671,107.174 185.451332,106.810004 185.75,106.082 L186.884,106.642 C186.333331,107.706005 185.362674,108.238 183.972,108.238 C182.907995,108.238 182.08667,107.846004 181.508,107.062 C180.975997,106.34333 180.71,105.386673 180.71,104.192 C180.71,103.034661 180.980664,102.08267 181.522,101.336 C182.110003,100.523996 182.931328,100.118 183.986,100.118 C185.012672,100.118 185.801331,100.47733 186.352,101.196 C186.865336,101.877337 187.122,102.763995 187.122,103.856 L187.122,104.528 Z M185.778,103.548 C185.703333,102.465328 185.386003,101.732669 184.826,101.35 C184.601999,101.200666 184.322002,101.126 183.986,101.126 C183.136662,101.126 182.558002,101.643995 182.25,102.68 C182.166,102.969335 182.11,103.258665 182.082,103.548 L185.778,103.548 Z M195.158,108 L193.842,108 L193.842,102.82 C193.842,101.755995 193.366005,101.224 192.414,101.224 C191.527329,101.224 190.948668,101.765328 190.678,102.848 C190.594,103.156002 190.552,103.473332 190.552,103.8 L190.552,108 L189.236,108 L189.236,100.356 L190.524,100.356 L190.552,101.364 C191.102669,100.533329 191.863328,100.118 192.834,100.118 C193.571337,100.118 194.142998,100.334998 194.549,100.769 C194.955002,101.203002 195.158,101.77933 195.158,102.498 L195.158,108 Z M206.47,108 L200.814,108 L200.814,107.02 L204.776,101.42 L200.996,101.42 L200.996,100.356 L206.33,100.356 L206.33,101.336 L202.34,106.95 L206.47,106.95 L206.47,108 Z M214.142,108 L212.868,108 L212.826,106.992 C212.293997,107.822671 211.556671,108.238 210.614,108.238 C209.857996,108.238 209.272335,108.023335 208.857,107.594 C208.441665,107.164665 208.234,106.581337 208.234,105.844 L208.234,100.356 L209.55,100.356 L209.55,105.606 C209.55,106.623338 210.021329,107.132 210.964,107.132 C211.841338,107.132 212.424665,106.590672 212.714,105.508 C212.788667,105.209332 212.826,104.896668 212.826,104.57 L212.826,100.356 L214.142,100.356 L214.142,108 Z M221.982,108 L220.582,108 L220.582,97.836 L221.982,97.836 L221.982,108 Z M230.438,108 L229.122,108 L229.122,102.82 C229.122,101.755995 228.646005,101.224 227.694,101.224 C226.797996,101.224 226.219335,101.765328 225.958,102.848 C225.883333,103.156002 225.846,103.473332 225.846,103.8 L225.846,108 L224.53,108 L224.53,97.836 L225.846,97.836 L225.846,101.266 C226.387336,100.500663 227.143328,100.118 228.114,100.118 C228.851337,100.118 229.422998,100.334998 229.829,100.769 C230.235002,101.203002 230.438,101.77933 230.438,102.498 L230.438,108 Z M237.018,100.356 L236.906,101.49 C236.653999,101.434 236.406668,101.406 236.164,101.406 C235.305329,101.406 234.736001,101.835329 234.456,102.694 C234.353333,102.992668 234.302,103.351998 234.302,103.772 L234.302,108 L232.986,108 L232.986,100.356 L234.26,100.356 L234.288,101.406 C234.726669,100.649996 235.375329,100.272 236.234,100.272 C236.504668,100.272 236.765999,100.3 237.018,100.356 Z M244.396,104.528 L239.328,104.528 C239.365334,105.722673 239.719997,106.525331 240.392,106.936 C240.634668,107.094667 240.933332,107.174 241.288,107.174 C242.146671,107.174 242.725332,106.810004 243.024,106.082 L244.158,106.642 C243.607331,107.706005 242.636674,108.238 241.246,108.238 C240.181995,108.238 239.36067,107.846004 238.782,107.062 C238.249997,106.34333 237.984,105.386673 237.984,104.192 C237.984,103.034661 238.254664,102.08267 238.796,101.336 C239.384003,100.523996 240.205328,100.118 241.26,100.118 C242.286672,100.118 243.075331,100.47733 243.626,101.196 C244.139336,101.877337 244.396,102.763995 244.396,103.856 L244.396,104.528 Z M243.052,103.548 C242.977333,102.465328 242.660003,101.732669 242.1,101.35 C241.875999,101.200666 241.596002,101.126 241.26,101.126 C240.410662,101.126 239.832002,101.643995 239.524,102.68 C239.44,102.969335 239.384,103.258665 239.356,103.548 L243.052,103.548 Z M256.31,108 L254.994,108 L254.994,102.82 C254.994,102.231997 254.863335,101.802668 254.602,101.532 C254.387332,101.326666 254.093335,101.224 253.72,101.224 C253.206664,101.224 252.796002,101.489997 252.488,102.022 C252.207999,102.507336 252.068,103.099997 252.068,103.8 L252.068,108 L250.752,108 L250.752,102.82 C250.752,102.21333 250.621335,101.784001 250.36,101.532 C250.145332,101.326666 249.856002,101.224 249.492,101.224 C248.698663,101.224 248.180668,101.765328 247.938,102.848 C247.863333,103.156002 247.826,103.473332 247.826,103.8 L247.826,108 L246.51,108 L246.51,100.356 L247.798,100.356 L247.812,101.308 C248.297336,100.514663 248.997329,100.118 249.912,100.118 C250.910672,100.118 251.563998,100.551996 251.872,101.42 C252.329336,100.551996 253.075995,100.118 254.112,100.118 C254.812004,100.118 255.353331,100.332665 255.736,100.762 C256.118669,101.191335 256.31,101.75133 256.31,102.442 L256.31,108 Z M270.31,104.99 C270.31,106.100672 269.946004,106.903331 269.218,107.398 C268.620664,107.799335 267.780672,108 266.698,108 L262.75,108 L262.75,97.836 L266.768,97.836 C267.701338,97.836 268.419997,98.0133316 268.924,98.368 C269.540003,98.7973355 269.848,99.4553289 269.848,100.342 C269.848,101.266005 269.442004,101.984664 268.63,102.498 C269.750006,102.890002 270.31,103.72066 270.31,104.99 Z M268.392,100.496 C268.392,99.9359972 268.228668,99.5393345 267.902,99.306 C267.621999,99.1006656 267.188003,98.998 266.6,98.998 L264.094,98.998 L264.094,102.036 L266.502,102.036 C267.370004,102.036 267.943999,101.784003 268.224,101.28 C268.336001,101.083999 268.392,100.822668 268.392,100.496 Z M268.84,105.004 C268.84,104.322663 268.630002,103.832668 268.21,103.534 C267.883332,103.309999 267.38867,103.198 266.726,103.198 L264.094,103.198 L264.094,106.838 L266.586,106.838 C268.088674,106.838 268.84,106.226673 268.84,105.004 Z M282.756,108 L281.44,108 L281.44,99.362 L278.276,108 L276.876,108 L273.838,99.376 L273.838,108 L272.522,108 L272.522,97.836 L274.594,97.836 L277.618,106.432 L280.754,97.836 L282.756,97.836 L282.756,108 Z M296.588,97.836 L294.096,108 L292.444,108 L290.456,99.712 L288.37,108 L286.704,108 L284.38,97.836 L285.864,97.836 L287.698,106.446 L289.714,97.836 L291.24,97.836 L293.186,106.46 L295.132,97.836 L296.588,97.836 Z M30.98,125.228 C30.98,126.646674 30.3033401,127.575331 28.95,128.014 C28.4646642,128.163334 27.8813367,128.238 27.2,128.238 C26.1079945,128.238 25.2120035,128.009336 24.512,127.552 C23.970664,127.206665 23.6066676,126.754003 23.42,126.194 L24.638,125.536 C25.0020018,126.562672 25.883993,127.076 27.284,127.076 C28.7866742,127.076 29.538,126.488006 29.538,125.312 C29.538,124.789331 29.3513352,124.383335 28.978,124.094 C28.707332,123.879332 28.2780029,123.702001 27.69,123.562 L26.332,123.24 C24.5493244,122.819998 23.658,121.900674 23.658,120.482 C23.658,119.147327 24.3299933,118.256002 25.674,117.808 C26.1126689,117.667999 26.6213304,117.598 27.2,117.598 C28.133338,117.598 28.9219968,117.761332 29.566,118.088 C30.032669,118.330668 30.4059986,118.661998 30.686,119.082 L29.608,119.95 C29.337332,119.483331 28.8753366,119.133334 28.222,118.9 C27.9326652,118.797333 27.5780021,118.746 27.158,118.746 C25.7299929,118.746 25.016,119.301328 25.016,120.412 C25.016,121.224004 25.6366605,121.779332 26.878,122.078 L28.236,122.4 C30.0653425,122.829335 30.98,123.771993 30.98,125.228 Z M38.806,124.528 L33.738,124.528 C33.7753335,125.722673 34.1299966,126.525331 34.802,126.936 C35.0446679,127.094667 35.3433316,127.174 35.698,127.174 C36.556671,127.174 37.1353318,126.810004 37.434,126.082 L38.568,126.642 C38.0173306,127.706005 37.0466736,128.238 35.656,128.238 C34.5919947,128.238 33.7706696,127.846004 33.192,127.062 C32.6599973,126.34333 32.394,125.386673 32.394,124.192 C32.394,123.034661 32.664664,122.08267 33.206,121.336 C33.7940029,120.523996 34.6153281,120.118 35.67,120.118 C36.6966718,120.118 37.4853306,120.47733 38.036,121.196 C38.5493359,121.877337 38.806,122.763995 38.806,123.856 L38.806,124.528 Z M37.462,123.548 C37.387333,122.465328 37.0700028,121.732669 36.51,121.35 C36.2859989,121.200666 36.0060017,121.126 35.67,121.126 C34.8206624,121.126 34.2420015,121.643995 33.934,122.68 C33.8499996,122.969335 33.7940001,123.258665 33.766,123.548 L37.462,123.548 Z M44.952,120.356 L44.84,121.49 C44.5879987,121.434 44.3406679,121.406 44.098,121.406 C43.239329,121.406 42.6700014,121.835329 42.39,122.694 C42.2873328,122.992668 42.236,123.351998 42.236,123.772 L42.236,128 L40.92,128 L40.92,120.356 L42.194,120.356 L42.222,121.406 C42.6606689,120.649996 43.309329,120.272 44.168,120.272 C44.438668,120.272 44.6999987,120.3 44.952,120.356 Z M51.714,120.356 L49.264,128 L47.626,128 L45.19,120.356 L46.576,120.356 L48.48,126.74 L50.384,120.356 L51.714,120.356 Z M54.472,119.278 L53.156,119.278 L53.156,117.836 L54.472,117.836 L54.472,119.278 Z M54.472,128 L53.156,128 L53.156,120.356 L54.472,120.356 L54.472,128 Z M62.704,126.698 C62.1813307,127.724672 61.2433401,128.238 59.89,128.238 C58.8259947,128.238 58.0093362,127.836671 57.44,127.034 C56.9079973,126.305996 56.642,125.358672 56.642,124.192 C56.642,123.006661 56.912664,122.045337 57.454,121.308 C58.0420029,120.514663 58.8679947,120.118 59.932,120.118 C61.25734,120.118 62.1766641,120.617328 62.69,121.616 L61.612,122.274 C61.4253324,121.891331 61.2060013,121.618334 60.954,121.455 C60.7019987,121.291666 60.3660021,121.21 59.946,121.21 C58.9846619,121.21 58.3733346,121.811994 58.112,123.016 C58.0279996,123.380002 57.986,123.771998 57.986,124.192 C57.986,125.526673 58.3359965,126.427331 59.036,126.894 C59.2880013,127.062001 59.5913316,127.146 59.946,127.146 C60.6180034,127.146 61.1033318,126.912669 61.402,126.446 C61.476667,126.324666 61.5419997,126.203334 61.598,126.082 L62.704,126.698 Z M70.572,124.528 L65.504,124.528 C65.5413335,125.722673 65.8959966,126.525331 66.568,126.936 C66.8106679,127.094667 67.1093316,127.174 67.464,127.174 C68.322671,127.174 68.9013318,126.810004 69.2,126.082 L70.334,126.642 C69.7833306,127.706005 68.8126736,128.238 67.422,128.238 C66.3579947,128.238 65.5366696,127.846004 64.958,127.062 C64.4259973,126.34333 64.16,125.386673 64.16,124.192 C64.16,123.034661 64.430664,122.08267 64.972,121.336 C65.5600029,120.523996 66.3813281,120.118 67.436,120.118 C68.4626718,120.118 69.2513306,120.47733 69.802,121.196 C70.3153359,121.877337 70.572,122.763995 70.572,123.856 L70.572,124.528 Z M69.228,123.548 C69.153333,122.465328 68.8360028,121.732669 68.276,121.35 C68.0519989,121.200666 67.7720017,121.126 67.436,121.126 C66.5866624,121.126 66.0080015,121.643995 65.7,122.68 C65.6159996,122.969335 65.5600001,123.258665 65.532,123.548 L69.228,123.548 Z M83.746,119.068 L80.316,119.068 L80.316,128 L78.916,128 L78.916,119.068 L75.472,119.068 L75.472,117.836 L83.746,117.836 L83.746,119.068 Z M91.222,124.528 L86.154,124.528 C86.1913335,125.722673 86.5459966,126.525331 87.218,126.936 C87.4606679,127.094667 87.7593316,127.174 88.114,127.174 C88.972671,127.174 89.5513318,126.810004 89.85,126.082 L90.984,126.642 C90.4333306,127.706005 89.4626736,128.238 88.072,128.238 C87.0079947,128.238 86.1866696,127.846004 85.608,127.062 C85.0759973,126.34333 84.81,125.386673 84.81,124.192 C84.81,123.034661 85.080664,122.08267 85.622,121.336 C86.2100029,120.523996 87.0313281,120.118 88.086,120.118 C89.1126718,120.118 89.9013306,120.47733 90.452,121.196 C90.9653359,121.877337 91.222,122.763995 91.222,123.856 L91.222,124.528 Z M89.878,123.548 C89.803333,122.465328 89.4860028,121.732669 88.926,121.35 C88.7019989,121.200666 88.4220017,121.126 88.086,121.126 C87.2366624,121.126 86.6580015,121.643995 86.35,122.68 C86.2659996,122.969335 86.2100001,123.258665 86.182,123.548 L89.878,123.548 Z M97.368,120.356 L97.256,121.49 C97.0039987,121.434 96.7566679,121.406 96.514,121.406 C95.655329,121.406 95.0860014,121.835329 94.806,122.694 C94.7033328,122.992668 94.652,123.351998 94.652,123.772 L94.652,128 L93.336,128 L93.336,120.356 L94.61,120.356 L94.638,121.406 C95.0766689,120.649996 95.725329,120.272 96.584,120.272 C96.854668,120.272 97.1159987,120.3 97.368,120.356 Z M108.512,128 L107.196,128 L107.196,122.82 C107.196,122.231997 107.065335,121.802668 106.804,121.532 C106.589332,121.326666 106.295335,121.224 105.922,121.224 C105.408664,121.224 104.998002,121.489997 104.69,122.022 C104.409999,122.507336 104.27,123.099997 104.27,123.8 L104.27,128 L102.954,128 L102.954,122.82 C102.954,122.21333 102.823335,121.784001 102.562,121.532 C102.347332,121.326666 102.058002,121.224 101.694,121.224 C100.900663,121.224 100.382668,121.765328 100.14,122.848 C100.065333,123.156002 100.028,123.473332 100.028,123.8 L100.028,128 L98.712,128 L98.712,120.356 L100,120.356 L100.014,121.308 C100.499336,120.514663 101.199329,120.118 102.114,120.118 C103.112672,120.118 103.765998,120.551996 104.074,121.42 C104.531336,120.551996 105.277995,120.118 106.314,120.118 C107.014004,120.118 107.555331,120.332665 107.938,120.762 C108.320669,121.191335 108.512,121.75133 108.512,122.442 L108.512,128 Z M112.376,119.278 L111.06,119.278 L111.06,117.836 L112.376,117.836 L112.376,119.278 Z M112.376,128 L111.06,128 L111.06,120.356 L112.376,120.356 L112.376,128 Z M120.846,128 L119.53,128 L119.53,122.82 C119.53,121.755995 119.054005,121.224 118.102,121.224 C117.215329,121.224 116.636668,121.765328 116.366,122.848 C116.282,123.156002 116.24,123.473332 116.24,123.8 L116.24,128 L114.924,128 L114.924,120.356 L116.212,120.356 L116.24,121.364 C116.790669,120.533329 117.551328,120.118 118.522,120.118 C119.259337,120.118 119.830998,120.334998 120.237,120.769 C120.643002,121.203002 120.846,121.77933 120.846,122.498 L120.846,128 Z M129.428,124.528 L124.36,124.528 C124.397334,125.722673 124.751997,126.525331 125.424,126.936 C125.666668,127.094667 125.965332,127.174 126.32,127.174 C127.178671,127.174 127.757332,126.810004 128.056,126.082 L129.19,126.642 C128.639331,127.706005 127.668674,128.238 126.278,128.238 C125.213995,128.238 124.39267,127.846004 123.814,127.062 C123.281997,126.34333 123.016,125.386673 123.016,124.192 C123.016,123.034661 123.286664,122.08267 123.828,121.336 C124.416003,120.523996 125.237328,120.118 126.292,120.118 C127.318672,120.118 128.107331,120.47733 128.658,121.196 C129.171336,121.877337 129.428,122.763995 129.428,123.856 L129.428,124.528 Z M128.084,123.548 C128.009333,122.465328 127.692003,121.732669 127.132,121.35 C126.907999,121.200666 126.628002,121.126 126.292,121.126 C125.442662,121.126 124.864002,121.643995 124.556,122.68 C124.472,122.969335 124.416,123.258665 124.388,123.548 L128.084,123.548 Z M31.806,148 L30.224,148 L25.632,139.726 L25.632,148 L24.274,148 L24.274,137.836 L25.856,137.836 L30.448,146.096 L30.448,137.836 L31.806,137.836 L31.806,148 Z M40.388,144.528 L35.32,144.528 C35.3573335,145.722673 35.7119966,146.525331 36.384,146.936 C36.6266679,147.094667 36.9253316,147.174 37.28,147.174 C38.138671,147.174 38.7173318,146.810004 39.016,146.082 L40.15,146.642 C39.5993306,147.706005 38.6286736,148.238 37.238,148.238 C36.1739947,148.238 35.3526696,147.846004 34.774,147.062 C34.2419973,146.34333 33.976,145.386673 33.976,144.192 C33.976,143.034661 34.246664,142.08267 34.788,141.336 C35.3760029,140.523996 36.1973281,140.118 37.252,140.118 C38.2786718,140.118 39.0673306,140.47733 39.618,141.196 C40.1313359,141.877337 40.388,142.763995 40.388,143.856 L40.388,144.528 Z M39.044,143.548 C38.969333,142.465328 38.6520028,141.732669 38.092,141.35 C37.8679989,141.200666 37.5880017,141.126 37.252,141.126 C36.4026624,141.126 35.8240015,141.643995 35.516,142.68 C35.4319996,142.969335 35.3760001,143.258665 35.348,143.548 L39.044,143.548 Z M48.41,148 L47.136,148 L47.094,146.992 C46.5619973,147.822671 45.8246714,148.238 44.882,148.238 C44.1259962,148.238 43.5403354,148.023335 43.125,147.594 C42.7096646,147.164665 42.502,146.581337 42.502,145.844 L42.502,140.356 L43.818,140.356 L43.818,145.606 C43.818,146.623338 44.2893286,147.132 45.232,147.132 C46.1093377,147.132 46.6926652,146.590672 46.982,145.508 C47.056667,145.209332 47.094,144.896668 47.094,144.57 L47.094,140.356 L48.41,140.356 L48.41,148 Z M56.992,144.528 L51.924,144.528 C51.9613335,145.722673 52.3159966,146.525331 52.988,146.936 C53.2306679,147.094667 53.5293316,147.174 53.884,147.174 C54.742671,147.174 55.3213318,146.810004 55.62,146.082 L56.754,146.642 C56.2033306,147.706005 55.2326736,148.238 53.842,148.238 C52.7779947,148.238 51.9566696,147.846004 51.378,147.062 C50.8459973,146.34333 50.58,145.386673 50.58,144.192 C50.58,143.034661 50.850664,142.08267 51.392,141.336 C51.9800029,140.523996 52.8013281,140.118 53.856,140.118 C54.8826718,140.118 55.6713306,140.47733 56.222,141.196 C56.7353359,141.877337 56.992,142.763995 56.992,143.856 L56.992,144.528 Z M55.648,143.548 C55.573333,142.465328 55.2560028,141.732669 54.696,141.35 C54.4719989,141.200666 54.1920017,141.126 53.856,141.126 C53.0066624,141.126 52.4280015,141.643995 52.12,142.68 C52.0359996,142.969335 51.9800001,143.258665 51.952,143.548 L55.648,143.548 Z M71.02,148 L69.536,148 L68.64,145.424 L64.188,145.424 L63.278,148 L61.934,148 L65.63,137.836 L67.324,137.836 L71.02,148 Z M68.22,144.22 L66.428,139.082 L64.608,144.22 L68.22,144.22 Z M78.944,144.052 C78.944,145.237339 78.710669,146.198663 78.244,146.936 C77.6839972,147.804004 76.8953384,148.238 75.878,148.238 C74.8513282,148.238 74.1653351,147.855337 73.82,147.09 L73.82,150.576 L72.504,150.576 L72.504,140.356 L73.764,140.356 L73.792,141.392 C74.2866691,140.542662 75.037995,140.118 76.046,140.118 C76.7366701,140.118 77.3246642,140.346664 77.81,140.804 C78.2486689,141.205335 78.5613324,141.755996 78.748,142.456 C78.8786673,142.941336 78.944,143.47333 78.944,144.052 Z M77.572,144.178 C77.572,143.291329 77.4273348,142.586669 77.138,142.064 C76.8113317,141.494664 76.3400031,141.21 75.724,141.21 C74.7626619,141.21 74.1513346,141.84466 73.89,143.114 C73.815333,143.478002 73.778,143.846665 73.778,144.22 C73.778,145.508006 74.1279965,146.399331 74.828,146.894 C75.0613345,147.062001 75.3413317,147.146 75.668,147.146 C76.3586701,147.146 76.8673317,146.80067 77.194,146.11 C77.4460013,145.587331 77.572,144.943337 77.572,144.178 Z M87.554,144.052 C87.554,145.237339 87.320669,146.198663 86.854,146.936 C86.2939972,147.804004 85.5053384,148.238 84.488,148.238 C83.4613282,148.238 82.7753351,147.855337 82.43,147.09 L82.43,150.576 L81.114,150.576 L81.114,140.356 L82.374,140.356 L82.402,141.392 C82.8966691,140.542662 83.647995,140.118 84.656,140.118 C85.3466701,140.118 85.9346642,140.346664 86.42,140.804 C86.8586689,141.205335 87.1713324,141.755996 87.358,142.456 C87.4886673,142.941336 87.554,143.47333 87.554,144.052 Z M86.182,144.178 C86.182,143.291329 86.0373348,142.586669 85.748,142.064 C85.4213317,141.494664 84.9500031,141.21 84.334,141.21 C83.3726619,141.21 82.7613346,141.84466 82.5,143.114 C82.425333,143.478002 82.388,143.846665 82.388,144.22 C82.388,145.508006 82.7379965,146.399331 83.438,146.894 C83.6713345,147.062001 83.9513317,147.146 84.278,147.146 C84.9686701,147.146 85.4773317,146.80067 85.804,146.11 C86.0560013,145.587331 86.182,144.943337 86.182,144.178 Z M99.72,139.068 L95.016,139.068 L95.016,142.162 L99.174,142.162 L99.174,143.408 L95.016,143.408 L95.016,148 L93.616,148 L93.616,137.836 L99.72,137.836 L99.72,139.068 Z M107.322,148 L106.048,148 L106.006,146.992 C105.473997,147.822671 104.736671,148.238 103.794,148.238 C103.037996,148.238 102.452335,148.023335 102.037,147.594 C101.621665,147.164665 101.414,146.581337 101.414,145.844 L101.414,140.356 L102.73,140.356 L102.73,145.606 C102.73,146.623338 103.201329,147.132 104.144,147.132 C105.021338,147.132 105.604665,146.590672 105.894,145.508 C105.968667,145.209332 106.006,144.896668 106.006,144.57 L106.006,140.356 L107.322,140.356 L107.322,148 Z M115.792,148 L114.476,148 L114.476,142.82 C114.476,141.755995 114.000005,141.224 113.048,141.224 C112.161329,141.224 111.582668,141.765328 111.312,142.848 C111.228,143.156002 111.186,143.473332 111.186,143.8 L111.186,148 L109.87,148 L109.87,140.356 L111.158,140.356 L111.186,141.364 C111.736669,140.533329 112.497328,140.118 113.468,140.118 C114.205337,140.118 114.776998,140.334998 115.183,140.769 C115.589002,141.203002 115.792,141.77933 115.792,142.498 L115.792,148 Z M124.71,148 L123.156,148 L120.692,143.954 L119.656,144.962 L119.656,148 L118.34,148 L118.34,137.836 L119.656,137.836 L119.656,143.422 L122.778,140.356 L124.36,140.356 L121.63,143.03 L124.71,148 Z M129.512,147.972 C129.306666,148.074667 128.85867,148.126 128.168,148.126 C126.973327,148.126 126.376,147.547339 126.376,146.39 L126.376,141.42 L125.186,141.42 L125.186,140.356 L126.376,140.356 L126.376,138.452 L127.692,138.452 L127.692,140.356 L129.442,140.356 L129.442,141.42 L127.692,141.42 L127.692,146.124 C127.692,146.441335 127.754999,146.669999 127.881,146.81 C128.007001,146.950001 128.223998,147.02 128.532,147.02 C128.970669,147.02 129.264666,146.982667 129.414,146.908 L129.512,147.972 Z M132.424,139.278 L131.108,139.278 L131.108,137.836 L132.424,137.836 L132.424,139.278 Z M132.424,148 L131.108,148 L131.108,140.356 L132.424,140.356 L132.424,148 Z M141.356,144.192 C141.356,145.396006 141.080669,146.35733 140.53,147.076 C139.932664,147.850671 139.078672,148.238 137.968,148.238 C136.847994,148.238 135.99867,147.850671 135.42,147.076 C134.869331,146.35733 134.594,145.396006 134.594,144.192 C134.594,142.978661 134.869331,142.01267 135.42,141.294 C136.008003,140.509996 136.857328,140.118 137.968,140.118 C139.069339,140.118 139.92333,140.509996 140.53,141.294 C141.080669,142.01267 141.356,142.978661 141.356,144.192 Z M140.012,144.192 C140.012,142.829327 139.63867,141.914669 138.892,141.448 C138.630665,141.289333 138.322668,141.21 137.968,141.21 C136.969328,141.21 136.334668,141.821327 136.064,143.044 C135.98,143.408002 135.938,143.790665 135.938,144.192 C135.938,145.54534 136.31133,146.450664 137.058,146.908 C137.310001,147.066667 137.613332,147.146 137.968,147.146 C138.985338,147.146 139.629332,146.539339 139.9,145.326 C139.974667,144.971332 140.012,144.593335 140.012,144.192 Z M149.448,148 L148.132,148 L148.132,142.82 C148.132,141.755995 147.656005,141.224 146.704,141.224 C145.817329,141.224 145.238668,141.765328 144.968,142.848 C144.884,143.156002 144.842,143.473332 144.842,143.8 L144.842,148 L143.526,148 L143.526,140.356 L144.814,140.356 L144.842,141.364 C145.392669,140.533329 146.153328,140.118 147.124,140.118 C147.861337,140.118 148.432998,140.334998 148.839,140.769 C149.245002,141.203002 149.448,141.77933 149.448,142.498 L149.448,148 Z M157.484,148 L156.224,148 C156.149333,147.785332 156.098,147.514668 156.07,147.188 C155.481997,147.888003 154.726005,148.238 153.802,148.238 C153.064663,148.238 152.481335,148.014002 152.052,147.566 C151.659998,147.155331 151.464,146.637336 151.464,146.012 C151.464,144.537326 152.317991,143.683335 154.026,143.45 L155.958,143.184 L155.958,142.372 C155.958,141.503996 155.468005,141.07 154.488,141.07 C154.030664,141.07 153.666668,141.186666 153.396,141.42 C153.171999,141.616001 152.994667,141.872665 152.864,142.19 L151.716,141.742 C151.865334,141.293998 152.159331,140.920668 152.598,140.622 C153.102003,140.285998 153.731996,140.118 154.488,140.118 C156.326676,140.118 157.246,140.873992 157.246,142.386 L157.246,146.684 C157.246,147.169336 157.325333,147.607998 157.484,148 Z M155.958,145.466 L155.958,144.136 L154.236,144.374 C153.274662,144.504667 152.794,145.031995 152.794,145.956 C152.794,146.357335 152.905999,146.672332 153.13,146.901 C153.354001,147.129668 153.666665,147.244 154.068,147.244 C154.590669,147.244 155.036331,147.076002 155.405,146.74 C155.773669,146.403998 155.958,145.979336 155.958,145.466 Z M161.11,148 L159.794,148 L159.794,137.836 L161.11,137.836 L161.11,148 Z M164.974,139.278 L163.658,139.278 L163.658,137.836 L164.974,137.836 L164.974,139.278 Z M164.974,148 L163.658,148 L163.658,140.356 L164.974,140.356 L164.974,148 Z M170.952,147.972 C170.746666,148.074667 170.29867,148.126 169.608,148.126 C168.413327,148.126 167.816,147.547339 167.816,146.39 L167.816,141.42 L166.626,141.42 L166.626,140.356 L167.816,140.356 L167.816,138.452 L169.132,138.452 L169.132,140.356 L170.882,140.356 L170.882,141.42 L169.132,141.42 L169.132,146.124 C169.132,146.441335 169.194999,146.669999 169.321,146.81 C169.447001,146.950001 169.663998,147.02 169.972,147.02 C170.410669,147.02 170.704666,146.982667 170.854,146.908 L170.952,147.972 Z M178.036,148 L176.776,148 C176.701333,147.785332 176.65,147.514668 176.622,147.188 C176.033997,147.888003 175.278005,148.238 174.354,148.238 C173.616663,148.238 173.033335,148.014002 172.604,147.566 C172.211998,147.155331 172.016,146.637336 172.016,146.012 C172.016,144.537326 172.869991,143.683335 174.578,143.45 L176.51,143.184 L176.51,142.372 C176.51,141.503996 176.020005,141.07 175.04,141.07 C174.582664,141.07 174.218668,141.186666 173.948,141.42 C173.723999,141.616001 173.546667,141.872665 173.416,142.19 L172.268,141.742 C172.417334,141.293998 172.711331,140.920668 173.15,140.622 C173.654003,140.285998 174.283996,140.118 175.04,140.118 C176.878676,140.118 177.798,140.873992 177.798,142.386 L177.798,146.684 C177.798,147.169336 177.877333,147.607998 178.036,148 Z M176.51,145.466 L176.51,144.136 L174.788,144.374 C173.826662,144.504667 173.346,145.031995 173.346,145.956 C173.346,146.357335 173.457999,146.672332 173.682,146.901 C173.906001,147.129668 174.218665,147.244 174.62,147.244 C175.142669,147.244 175.588331,147.076002 175.957,146.74 C176.325669,146.403998 176.51,145.979336 176.51,145.466 Z M177.504,139.278 L176.16,139.278 L176.16,137.626 L177.504,137.626 L177.504,139.278 Z M174.06,139.278 L172.716,139.278 L172.716,137.626 L174.06,137.626 L174.06,139.278 Z M183.776,147.972 C183.570666,148.074667 183.12267,148.126 182.432,148.126 C181.237327,148.126 180.64,147.547339 180.64,146.39 L180.64,141.42 L179.45,141.42 L179.45,140.356 L180.64,140.356 L180.64,138.452 L181.956,138.452 L181.956,140.356 L183.706,140.356 L183.706,141.42 L181.956,141.42 L181.956,146.124 C181.956,146.441335 182.018999,146.669999 182.145,146.81 C182.271001,146.950001 182.487998,147.02 182.796,147.02 C183.234669,147.02 183.528666,146.982667 183.678,146.908 L183.776,147.972 Z M191.406,144.528 L186.338,144.528 C186.375334,145.722673 186.729997,146.525331 187.402,146.936 C187.644668,147.094667 187.943332,147.174 188.298,147.174 C189.156671,147.174 189.735332,146.810004 190.034,146.082 L191.168,146.642 C190.617331,147.706005 189.646674,148.238 188.256,148.238 C187.191995,148.238 186.37067,147.846004 185.792,147.062 C185.259997,146.34333 184.994,145.386673 184.994,144.192 C184.994,143.034661 185.264664,142.08267 185.806,141.336 C186.394003,140.523996 187.215328,140.118 188.27,140.118 C189.296672,140.118 190.085331,140.47733 190.636,141.196 C191.149336,141.877337 191.406,142.763995 191.406,143.856 L191.406,144.528 Z M190.062,143.548 C189.987333,142.465328 189.670003,141.732669 189.11,141.35 C188.885999,141.200666 188.606002,141.126 188.27,141.126 C187.420662,141.126 186.842002,141.643995 186.534,142.68 C186.45,142.969335 186.394,143.258665 186.366,143.548 L190.062,143.548 Z M199.442,148 L198.126,148 L198.126,142.82 C198.126,141.755995 197.650005,141.224 196.698,141.224 C195.811329,141.224 195.232668,141.765328 194.962,142.848 C194.878,143.156002 194.836,143.473332 194.836,143.8 L194.836,148 L193.52,148 L193.52,140.356 L194.808,140.356 L194.836,141.364 C195.386669,140.533329 196.147328,140.118 197.118,140.118 C197.855337,140.118 198.426998,140.334998 198.833,140.769 C199.239002,141.203002 199.442,141.77933 199.442,142.498 L199.442,148 Z" id="SpezifischeInformationenzuIhremBMWServiceTermineNeueAppFunktionalitten" fill="#A0A0A0"></path>
                </g>
                <circle id="Oval" fill="#A0A0A0" cx="3" cy="103" r="3"></circle>
                <circle id="Oval-Copy" fill="#A0A0A0" cx="3" cy="123" r="3"></circle>
                <circle id="Oval-Copy-2" fill="#A0A0A0" cx="3" cy="143" r="3"></circle>
            </g>
        </g>
    </g>
</svg>
