<?xml version="1.0" encoding="UTF-8"?>
<svg class="textBox" preserveAspectRatio="xMinYMin meet"  viewBox="0 0 332 158" version="1.1" xmlns="http://www.w3.org/2000/svg" xmlns:xlink="http://www.w3.org/1999/xlink">
    <!-- Generator: Sketch 53.2 (72643) - https://sketchapp.com -->
    <title>Group 3</title>
    <desc>Created with Sketch.</desc>
    <g id="Page-1" stroke="none" stroke-width="1" fill="none" fill-rule="evenodd">
        <g id="Enable-Notifications-Copy-7" transform="translate(-15.000000, -334.000000)" fill-rule="nonzero">
            <g id="Group-3" transform="translate(15.000000, 330.000000)">
                <path d="M9.254,71.876 C9.254,73.5093415 8.86200392,74.7599957 8.078,75.628 C7.25666256,76.5426712 6.03867474,77 4.424,77 L1.274,77 L1.274,66.836 L4.424,66.836 C7.6440161,66.836 9.254,68.5159832 9.254,71.876 Z M7.798,71.876 C7.798,70.671994 7.55066914,69.7433366 7.056,69.09 C6.50533058,68.3806631 5.65133912,68.026 4.494,68.026 L2.674,68.026 L2.674,75.796 L4.48,75.796 C5.63733912,75.796 6.4959972,75.427337 7.056,74.69 C7.55066914,74.0366634 7.798,73.0986728 7.798,71.876 Z M17.808,73.192 C17.808,74.396006 17.5326694,75.3573297 16.982,76.076 C16.3846637,76.8506705 15.5306722,77.238 14.42,77.238 C13.2999944,77.238 12.4506696,76.8506705 11.872,76.076 C11.3213306,75.3573297 11.046,74.396006 11.046,73.192 C11.046,71.9786606 11.3213306,71.0126703 11.872,70.294 C12.4600029,69.5099961 13.3093278,69.118 14.42,69.118 C15.5213388,69.118 16.3753303,69.5099961 16.982,70.294 C17.5326694,71.0126703 17.808,71.9786606 17.808,73.192 Z M16.464,73.192 C16.464,71.8293265 16.0906704,70.914669 15.344,70.448 C15.0826654,70.2893325 14.7746684,70.21 14.42,70.21 C13.4213283,70.21 12.786668,70.8213272 12.516,72.044 C12.4319996,72.4080018 12.39,72.7906647 12.39,73.192 C12.39,74.5453401 12.7633296,75.4506644 13.51,75.908 C13.7620013,76.0666675 14.0653316,76.146 14.42,76.146 C15.4373384,76.146 16.081332,75.5393394 16.352,74.326 C16.426667,73.9713316 16.464,73.5933353 16.464,73.192 Z M25.9,77 L24.584,77 L24.584,71.82 C24.584,70.7559947 24.1080048,70.224 23.156,70.224 C22.2693289,70.224 21.690668,70.7653279 21.42,71.848 C21.3359996,72.1560015 21.294,72.4733317 21.294,72.8 L21.294,77 L19.978,77 L19.978,69.356 L21.266,69.356 L21.294,70.364 C21.8446694,69.5333292 22.6053285,69.118 23.576,69.118 C24.313337,69.118 24.884998,69.3349978 25.291,69.769 C25.697002,70.2030022 25.9,70.7793297 25.9,71.498 L25.9,77 Z M30.044,68.432 C30.044,68.8893356 29.9880006,69.2673318 29.876,69.566 C29.7639994,69.8646682 29.5633348,70.1819983 29.274,70.518 C29.0873324,70.7233344 28.9100008,70.9006659 28.742,71.05 L28.196,70.476 C28.8026697,69.8973304 29.106,69.3466693 29.106,68.824 L29.106,68.698 L28.462,68.698 L28.462,66.836 L30.044,66.836 L30.044,68.432 Z M35.77,76.972 C35.5646656,77.0746672 35.1166701,77.126 34.426,77.126 C33.2313274,77.126 32.634,76.5473391 32.634,75.39 L32.634,70.42 L31.444,70.42 L31.444,69.356 L32.634,69.356 L32.634,67.452 L33.95,67.452 L33.95,69.356 L35.7,69.356 L35.7,70.42 L33.95,70.42 L33.95,75.124 C33.95,75.4413349 34.0129994,75.6699993 34.139,75.81 C34.2650006,75.9500007 34.4819985,76.02 34.79,76.02 C35.2286689,76.02 35.5226659,75.982667 35.672,75.908 L35.77,76.972 Z M51.058,77 L49.742,77 L49.742,71.82 C49.742,71.2319971 49.6113346,70.802668 49.35,70.532 C49.1353323,70.3266656 48.8413352,70.224 48.468,70.224 C47.9546641,70.224 47.5440015,70.4899973 47.236,71.022 C46.9559986,71.5073358 46.816,72.0999965 46.816,72.8 L46.816,77 L45.5,77 L45.5,71.82 C45.5,71.2133303 45.3693346,70.7840013 45.108,70.532 C44.8933323,70.3266656 44.6040018,70.224 44.24,70.224 C43.4466627,70.224 42.9286679,70.7653279 42.686,71.848 C42.611333,72.1560015 42.574,72.4733317 42.574,72.8 L42.574,77 L41.258,77 L41.258,69.356 L42.546,69.356 L42.56,70.308 C43.0453358,69.5146627 43.7453288,69.118 44.66,69.118 C45.6586717,69.118 46.3119985,69.5519957 46.62,70.42 C47.0773356,69.5519957 47.8239948,69.118 48.86,69.118 C49.5600035,69.118 50.1013314,69.3326645 50.484,69.762 C50.8666686,70.1913355 51.058,70.7513299 51.058,71.442 L51.058,77 Z M54.922,68.278 L53.606,68.278 L53.606,66.836 L54.922,66.836 L54.922,68.278 Z M54.922,77 L53.606,77 L53.606,69.356 L54.922,69.356 L54.922,77 Z M62.636,74.872 C62.636,75.6840041 62.3420029,76.2953313 61.754,76.706 C61.2406641,77.0606684 60.5686708,77.238 59.738,77.238 C58.8513289,77.238 58.1326694,77.0466686 57.582,76.664 C57.1619979,76.3746652 56.8680008,76.0013356 56.7,75.544 L57.806,74.998 C58.1606684,75.7913373 58.804662,76.188 59.738,76.188 C60.8113387,76.188 61.348,75.7820041 61.348,74.97 C61.348,74.6153316 61.212668,74.340001 60.942,74.144 C60.7646658,74.0039993 60.4660021,73.8780006 60.046,73.766 L58.94,73.458 C57.5773265,73.0753314 56.896,72.3660052 56.896,71.33 C56.896,70.5833296 57.1853304,70.014002 57.764,69.622 C58.2680025,69.2859983 58.9073295,69.118 59.682,69.118 C60.4100036,69.118 61.0306641,69.2579986 61.544,69.538 C61.9080018,69.734001 62.2159987,70.0093316 62.468,70.364 L61.516,71.106 C61.2919989,70.7233314 60.9373358,70.4433342 60.452,70.266 C60.2279989,70.191333 59.9620015,70.154 59.654,70.154 C58.6366616,70.154 58.128,70.5319962 58.128,71.288 C58.128,71.8013359 58.557329,72.1746655 59.416,72.408 L60.508,72.702 C61.1800034,72.8793342 61.6793317,73.1126652 62.006,73.402 C62.4260021,73.7660018 62.636,74.2559969 62.636,74.872 Z M69.748,74.872 C69.748,75.6840041 69.4540029,76.2953313 68.866,76.706 C68.3526641,77.0606684 67.6806708,77.238 66.85,77.238 C65.9633289,77.238 65.2446694,77.0466686 64.694,76.664 C64.2739979,76.3746652 63.9800008,76.0013356 63.812,75.544 L64.918,74.998 C65.2726684,75.7913373 65.916662,76.188 66.85,76.188 C67.9233387,76.188 68.46,75.7820041 68.46,74.97 C68.46,74.6153316 68.324668,74.340001 68.054,74.144 C67.8766658,74.0039993 67.5780021,73.8780006 67.158,73.766 L66.052,73.458 C64.6893265,73.0753314 64.008,72.3660052 64.008,71.33 C64.008,70.5833296 64.2973304,70.014002 64.876,69.622 C65.3800025,69.2859983 66.0193295,69.118 66.794,69.118 C67.5220036,69.118 68.1426641,69.2579986 68.656,69.538 C69.0200018,69.734001 69.3279987,70.0093316 69.58,70.364 L68.628,71.106 C68.4039989,70.7233314 68.0493358,70.4433342 67.564,70.266 C67.3399989,70.191333 67.0740015,70.154 66.766,70.154 C65.7486616,70.154 65.24,70.5319962 65.24,71.288 C65.24,71.8013359 65.669329,72.1746655 66.528,72.408 L67.62,72.702 C68.2920034,72.8793342 68.7913317,73.1126652 69.118,73.402 C69.5380021,73.7660018 69.748,74.2559969 69.748,74.872 Z M76.902,68.278 L75.586,68.278 L75.586,66.836 L76.902,66.836 L76.902,68.278 Z M76.902,77 L75.586,77 L75.586,69.356 L76.902,69.356 L76.902,77 Z M89.25,77 L87.934,77 L87.934,71.82 C87.934,71.2319971 87.8033346,70.802668 87.542,70.532 C87.3273323,70.3266656 87.0333352,70.224 86.66,70.224 C86.1466641,70.224 85.7360015,70.4899973 85.428,71.022 C85.1479986,71.5073358 85.008,72.0999965 85.008,72.8 L85.008,77 L83.692,77 L83.692,71.82 C83.692,71.2133303 83.5613346,70.7840013 83.3,70.532 C83.0853323,70.3266656 82.7960018,70.224 82.432,70.224 C81.6386627,70.224 81.1206679,70.7653279 80.878,71.848 C80.803333,72.1560015 80.766,72.4733317 80.766,72.8 L80.766,77 L79.45,77 L79.45,69.356 L80.738,69.356 L80.752,70.308 C81.2373358,69.5146627 81.9373288,69.118 82.852,69.118 C83.8506717,69.118 84.5039985,69.5519957 84.812,70.42 C85.2693356,69.5519957 86.0159948,69.118 87.052,69.118 C87.7520035,69.118 88.2933314,69.3326645 88.676,69.762 C89.0586686,70.1913355 89.25,70.7513299 89.25,71.442 L89.25,77 Z M98.238,73.052 C98.238,74.2373393 98.004669,75.198663 97.538,75.936 C96.9779972,76.8040043 96.1893384,77.238 95.172,77.238 C94.1453282,77.238 93.4593351,76.8553372 93.114,76.09 L93.114,79.576 L91.798,79.576 L91.798,69.356 L93.058,69.356 L93.086,70.392 C93.5806691,69.5426624 94.331995,69.118 95.34,69.118 C96.0306701,69.118 96.6186642,69.3466644 97.104,69.804 C97.5426689,70.2053353 97.8553324,70.7559965 98.042,71.456 C98.1726673,71.9413358 98.238,72.4733304 98.238,73.052 Z M96.866,73.178 C96.866,72.2913289 96.7213348,71.5866693 96.432,71.064 C96.1053317,70.4946638 95.6340031,70.21 95.018,70.21 C94.0566619,70.21 93.4453346,70.8446603 93.184,72.114 C93.109333,72.4780018 93.072,72.8466648 93.072,73.22 C93.072,74.5080064 93.4219965,75.3993309 94.122,75.894 C94.3553345,76.0620008 94.6353317,76.146 94.962,76.146 C95.6526701,76.146 96.1613317,75.8006701 96.488,75.11 C96.7400013,74.5873307 96.866,73.9433372 96.866,73.178 Z M106.792,73.192 C106.792,74.396006 106.516669,75.3573297 105.966,76.076 C105.368664,76.8506705 104.514672,77.238 103.404,77.238 C102.283994,77.238 101.43467,76.8506705 100.856,76.076 C100.305331,75.3573297 100.03,74.396006 100.03,73.192 C100.03,71.9786606 100.305331,71.0126703 100.856,70.294 C101.444003,69.5099961 102.293328,69.118 103.404,69.118 C104.505339,69.118 105.35933,69.5099961 105.966,70.294 C106.516669,71.0126703 106.792,71.9786606 106.792,73.192 Z M105.448,73.192 C105.448,71.8293265 105.07467,70.914669 104.328,70.448 C104.066665,70.2893325 103.758668,70.21 103.404,70.21 C102.405328,70.21 101.770668,70.8213272 101.5,72.044 C101.416,72.4080018 101.374,72.7906647 101.374,73.192 C101.374,74.5453401 101.74733,75.4506644 102.494,75.908 C102.746001,76.0666675 103.049332,76.146 103.404,76.146 C104.421338,76.146 105.065332,75.5393394 105.336,74.326 C105.410667,73.9713316 105.448,73.5933353 105.448,73.192 Z M112.994,69.356 L112.882,70.49 C112.629999,70.4339997 112.382668,70.406 112.14,70.406 C111.281329,70.406 110.712001,70.835329 110.432,71.694 C110.329333,71.9926682 110.278,72.3519979 110.278,72.772 L110.278,77 L108.962,77 L108.962,69.356 L110.236,69.356 L110.264,70.406 C110.702669,69.6499962 111.351329,69.272 112.21,69.272 C112.480668,69.272 112.741999,69.2999997 112.994,69.356 Z M117.768,76.972 C117.562666,77.0746672 117.11467,77.126 116.424,77.126 C115.229327,77.126 114.632,76.5473391 114.632,75.39 L114.632,70.42 L113.442,70.42 L113.442,69.356 L114.632,69.356 L114.632,67.452 L115.948,67.452 L115.948,69.356 L117.698,69.356 L117.698,70.42 L115.948,70.42 L115.948,75.124 C115.948,75.4413349 116.010999,75.6699993 116.137,75.81 C116.263001,75.9500007 116.479998,76.02 116.788,76.02 C117.226669,76.02 117.520666,75.982667 117.67,75.908 L117.768,76.972 Z M124.852,77 L123.592,77 C123.517333,76.7853323 123.466,76.5146683 123.438,76.188 C122.849997,76.8880035 122.094005,77.238 121.17,77.238 C120.432663,77.238 119.849335,77.0140022 119.42,76.566 C119.027998,76.1553313 118.832,75.6373365 118.832,75.012 C118.832,73.537326 119.685991,72.6833345 121.394,72.45 L123.326,72.184 L123.326,71.372 C123.326,70.5039957 122.836005,70.07 121.856,70.07 C121.398664,70.07 121.034668,70.1866655 120.764,70.42 C120.539999,70.616001 120.362667,70.8726651 120.232,71.19 L119.084,70.742 C119.233334,70.2939978 119.527331,69.9206682 119.966,69.622 C120.470003,69.2859983 121.099996,69.118 121.856,69.118 C123.694676,69.118 124.614,69.8739924 124.614,71.386 L124.614,75.684 C124.614,76.1693358 124.693333,76.607998 124.852,77 Z M123.326,74.466 L123.326,73.136 L121.604,73.374 C120.642662,73.5046673 120.162,74.0319954 120.162,74.956 C120.162,75.3573353 120.273999,75.6723322 120.498,75.901 C120.722001,76.1296678 121.034665,76.244 121.436,76.244 C121.958669,76.244 122.404331,76.0760017 122.773,75.74 C123.141669,75.4039983 123.326,74.9793359 123.326,74.466 Z M133.084,77 L131.768,77 L131.768,71.82 C131.768,70.7559947 131.292005,70.224 130.34,70.224 C129.453329,70.224 128.874668,70.7653279 128.604,71.848 C128.52,72.1560015 128.478,72.4733317 128.478,72.8 L128.478,77 L127.162,77 L127.162,69.356 L128.45,69.356 L128.478,70.364 C129.028669,69.5333292 129.789328,69.118 130.76,69.118 C131.497337,69.118 132.068998,69.3349978 132.475,69.769 C132.881002,70.2030022 133.084,70.7793297 133.084,71.498 L133.084,77 Z M139.062,76.972 C138.856666,77.0746672 138.40867,77.126 137.718,77.126 C136.523327,77.126 135.926,76.5473391 135.926,75.39 L135.926,70.42 L134.736,70.42 L134.736,69.356 L135.926,69.356 L135.926,67.452 L137.242,67.452 L137.242,69.356 L138.992,69.356 L138.992,70.42 L137.242,70.42 L137.242,75.124 C137.242,75.4413349 137.304999,75.6699993 137.431,75.81 C137.557001,75.9500007 137.773998,76.02 138.082,76.02 C138.520669,76.02 138.814666,75.982667 138.964,75.908 L139.062,76.972 Z M150.458,77 L149.184,77 L149.142,75.992 C148.609997,76.8226708 147.872671,77.238 146.93,77.238 C146.173996,77.238 145.588335,77.0233355 145.173,76.594 C144.757665,76.1646645 144.55,75.581337 144.55,74.844 L144.55,69.356 L145.866,69.356 L145.866,74.606 C145.866,75.6233384 146.337329,76.132 147.28,76.132 C148.157338,76.132 148.740665,75.5906721 149.03,74.508 C149.104667,74.2093318 149.142,73.8966683 149.142,73.57 L149.142,69.356 L150.458,69.356 L150.458,77 Z M159.446,73.052 C159.446,74.2373393 159.212669,75.198663 158.746,75.936 C158.185997,76.8040043 157.397338,77.238 156.38,77.238 C155.353328,77.238 154.667335,76.8553372 154.322,76.09 L154.322,79.576 L153.006,79.576 L153.006,69.356 L154.266,69.356 L154.294,70.392 C154.788669,69.5426624 155.539995,69.118 156.548,69.118 C157.23867,69.118 157.826664,69.3466644 158.312,69.804 C158.750669,70.2053353 159.063332,70.7559965 159.25,71.456 C159.380667,71.9413358 159.446,72.4733304 159.446,73.052 Z M158.074,73.178 C158.074,72.2913289 157.929335,71.5866693 157.64,71.064 C157.313332,70.4946638 156.842003,70.21 156.226,70.21 C155.264662,70.21 154.653335,70.8446603 154.392,72.114 C154.317333,72.4780018 154.28,72.8466648 154.28,73.22 C154.28,74.5080064 154.629997,75.3993309 155.33,75.894 C155.563335,76.0620008 155.843332,76.146 156.17,76.146 C156.86067,76.146 157.369332,75.8006701 157.696,75.11 C157.948001,74.5873307 158.074,73.9433372 158.074,73.178 Z M167.678,77 L166.432,77 L166.404,75.964 C165.909331,76.8133376 165.153338,77.238 164.136,77.238 C163.44533,77.238 162.857336,77.0093356 162.372,76.552 C161.933331,76.1506647 161.620668,75.6000035 161.434,74.9 C161.303333,74.4146642 161.238,73.8826696 161.238,73.304 C161.238,72.1186607 161.475998,71.1526704 161.952,70.406 C162.502669,69.547329 163.286662,69.118 164.304,69.118 C165.321338,69.118 166.007332,69.4819964 166.362,70.21 L166.362,66.836 L167.678,66.836 L167.678,77 Z M166.404,73.136 C166.404,71.8479936 166.05867,70.9566691 165.368,70.462 C165.125332,70.2939992 164.840668,70.21 164.514,70.21 C163.82333,70.21 163.314668,70.5553299 162.988,71.246 C162.735999,71.7686693 162.61,72.4126628 162.61,73.178 C162.61,74.0646711 162.754665,74.7646641 163.044,75.278 C163.370668,75.8566696 163.841997,76.146 164.458,76.146 C165.419338,76.146 166.030665,75.5066731 166.292,74.228 C166.366667,73.8733316 166.404,73.5093352 166.404,73.136 Z M175.714,77 L174.454,77 C174.379333,76.7853323 174.328,76.5146683 174.3,76.188 C173.711997,76.8880035 172.956005,77.238 172.032,77.238 C171.294663,77.238 170.711335,77.0140022 170.282,76.566 C169.889998,76.1553313 169.694,75.6373365 169.694,75.012 C169.694,73.537326 170.547991,72.6833345 172.256,72.45 L174.188,72.184 L174.188,71.372 C174.188,70.5039957 173.698005,70.07 172.718,70.07 C172.260664,70.07 171.896668,70.1866655 171.626,70.42 C171.401999,70.616001 171.224667,70.8726651 171.094,71.19 L169.946,70.742 C170.095334,70.2939978 170.389331,69.9206682 170.828,69.622 C171.332003,69.2859983 171.961996,69.118 172.718,69.118 C174.556676,69.118 175.476,69.8739924 175.476,71.386 L175.476,75.684 C175.476,76.1693358 175.555333,76.607998 175.714,77 Z M174.188,74.466 L174.188,73.136 L172.466,73.374 C171.504662,73.5046673 171.024,74.0319954 171.024,74.956 C171.024,75.3573353 171.135999,75.6723322 171.36,75.901 C171.584001,76.1296678 171.896665,76.244 172.298,76.244 C172.820669,76.244 173.266331,76.0760017 173.635,75.74 C174.003669,75.4039983 174.188,74.9793359 174.188,74.466 Z M181.454,76.972 C181.248666,77.0746672 180.80067,77.126 180.11,77.126 C178.915327,77.126 178.318,76.5473391 178.318,75.39 L178.318,70.42 L177.128,70.42 L177.128,69.356 L178.318,69.356 L178.318,67.452 L179.634,67.452 L179.634,69.356 L181.384,69.356 L181.384,70.42 L179.634,70.42 L179.634,75.124 C179.634,75.4413349 179.696999,75.6699993 179.823,75.81 C179.949001,75.9500007 180.165998,76.02 180.474,76.02 C180.912669,76.02 181.206666,75.982667 181.356,75.908 L181.454,76.972 Z M189.084,73.528 L184.016,73.528 C184.053334,74.7226726 184.407997,75.5253313 185.08,75.936 C185.322668,76.0946675 185.621332,76.174 185.976,76.174 C186.834671,76.174 187.413332,75.8100036 187.712,75.082 L188.846,75.642 C188.295331,76.7060053 187.324674,77.238 185.934,77.238 C184.869995,77.238 184.04867,76.8460039 183.47,76.062 C182.937997,75.3433297 182.672,74.3866726 182.672,73.192 C182.672,72.0346609 182.942664,71.0826704 183.484,70.336 C184.072003,69.5239959 184.893328,69.118 185.948,69.118 C186.974672,69.118 187.763331,69.4773297 188.314,70.196 C188.827336,70.8773367 189.084,71.7639945 189.084,72.856 L189.084,73.528 Z M187.74,72.548 C187.665333,71.4653279 187.348003,70.7326686 186.788,70.35 C186.563999,70.2006659 186.284002,70.126 185.948,70.126 C185.098662,70.126 184.520002,70.6439948 184.212,71.68 C184.128,71.9693348 184.072,72.2586652 184.044,72.548 L187.74,72.548 Z M196.364,74.872 C196.364,75.6840041 196.070003,76.2953313 195.482,76.706 C194.968664,77.0606684 194.296671,77.238 193.466,77.238 C192.579329,77.238 191.860669,77.0466686 191.31,76.664 C190.889998,76.3746652 190.596001,76.0013356 190.428,75.544 L191.534,74.998 C191.888668,75.7913373 192.532662,76.188 193.466,76.188 C194.539339,76.188 195.076,75.7820041 195.076,74.97 C195.076,74.6153316 194.940668,74.340001 194.67,74.144 C194.492666,74.0039993 194.194002,73.8780006 193.774,73.766 L192.668,73.458 C191.305327,73.0753314 190.624,72.3660052 190.624,71.33 C190.624,70.5833296 190.91333,70.014002 191.492,69.622 C191.996003,69.2859983 192.635329,69.118 193.41,69.118 C194.138004,69.118 194.758664,69.2579986 195.272,69.538 C195.636002,69.734001 195.943999,70.0093316 196.196,70.364 L195.244,71.106 C195.019999,70.7233314 194.665336,70.4433342 194.18,70.266 C193.955999,70.191333 193.690002,70.154 193.382,70.154 C192.364662,70.154 191.856,70.5319962 191.856,71.288 C191.856,71.8013359 192.285329,72.1746655 193.144,72.408 L194.236,72.702 C194.908003,72.8793342 195.407332,73.1126652 195.734,73.402 C196.154002,73.7660018 196.364,74.2559969 196.364,74.872 Z M208.586,73.192 C208.586,74.396006 208.310669,75.3573297 207.76,76.076 C207.162664,76.8506705 206.308672,77.238 205.198,77.238 C204.077994,77.238 203.22867,76.8506705 202.65,76.076 C202.099331,75.3573297 201.824,74.396006 201.824,73.192 C201.824,71.9786606 202.099331,71.0126703 202.65,70.294 C203.238003,69.5099961 204.087328,69.118 205.198,69.118 C206.299339,69.118 207.15333,69.5099961 207.76,70.294 C208.310669,71.0126703 208.586,71.9786606 208.586,73.192 Z M207.242,73.192 C207.242,71.8293265 206.86867,70.914669 206.122,70.448 C205.860665,70.2893325 205.552668,70.21 205.198,70.21 C204.199328,70.21 203.564668,70.8213272 203.294,72.044 C203.21,72.4080018 203.168,72.7906647 203.168,73.192 C203.168,74.5453401 203.54133,75.4506644 204.288,75.908 C204.540001,76.0666675 204.843332,76.146 205.198,76.146 C206.215338,76.146 206.859332,75.5393394 207.13,74.326 C207.204667,73.9713316 207.242,73.5933353 207.242,73.192 Z M216.678,77 L215.362,77 L215.362,71.82 C215.362,70.7559947 214.886005,70.224 213.934,70.224 C213.047329,70.224 212.468668,70.7653279 212.198,71.848 C212.114,72.1560015 212.072,72.4733317 212.072,72.8 L212.072,77 L210.756,77 L210.756,69.356 L212.044,69.356 L212.072,70.364 C212.622669,69.5333292 213.383328,69.118 214.354,69.118 C215.091337,69.118 215.662998,69.3349978 216.069,69.769 C216.475002,70.2030022 216.678,70.7793297 216.678,71.498 L216.678,77 Z M220.682,71.218 L219.1,71.218 L219.1,69.356 L220.682,69.356 L220.682,71.218 Z M220.682,77 L219.1,77 L219.1,75.138 L220.682,75.138 L220.682,77 Z" id="Don’tmissimportantupdateson:" fill="#A0A0A0"></path>
                <path d="M14.76,4.576 L8.64,15.184 L8.64,22 L6.24,22 L6.24,15.184 L0.12,4.576 L2.736,4.576 L7.536,12.952 L12.264,4.576 L14.76,4.576 Z M28.008,15.472 C28.008,17.5360103 27.5360047,19.1839938 26.592,20.416 C25.5679949,21.7440066 24.1040095,22.408 22.2,22.408 C20.2799904,22.408 18.824005,21.7440066 17.832,20.416 C16.8879953,19.1839938 16.416,17.5360103 16.416,15.472 C16.416,13.3919896 16.8879953,11.7360062 17.832,10.504 C18.840005,9.15999328 20.2959905,8.488 22.2,8.488 C24.0880094,8.488 25.5519948,9.15999328 26.592,10.504 C27.5360047,11.7360062 28.008,13.3919896 28.008,15.472 Z M25.704,15.472 C25.704,13.1359883 25.0640064,11.568004 23.784,10.768 C23.3359978,10.4959986 22.808003,10.36 22.2,10.36 C20.4879914,10.36 19.4000023,11.4079895 18.936,13.504 C18.7919993,14.1280031 18.72,14.7839966 18.72,15.472 C18.72,17.7920116 19.3599936,19.3439961 20.64,20.128 C21.0720022,20.4000014 21.591997,20.536 22.2,20.536 C23.9440087,20.536 25.0479977,19.4960104 25.512,17.416 C25.6400006,16.807997 25.704,16.1600034 25.704,15.472 Z M41.856,22 L39.672,22 L39.6,20.272 C38.6879954,21.6960071 37.4240081,22.408 35.808,22.408 C34.5119935,22.408 33.5080036,22.0400037 32.796,21.304 C32.0839964,20.5679963 31.728,19.5680063 31.728,18.304 L31.728,8.896 L33.984,8.896 L33.984,17.896 C33.984,19.6400087 34.7919919,20.512 36.408,20.512 C37.9120075,20.512 38.9119975,19.5840093 39.408,17.728 C39.5360006,17.2159974 39.6,16.6800028 39.6,16.12 L39.6,8.896 L41.856,8.896 L41.856,22 Z M53.136,8.896 L52.944,10.84 C52.5119978,10.7439995 52.0880021,10.696 51.672,10.696 C50.1999926,10.696 49.2240024,11.4319926 48.744,12.904 C48.5679991,13.4160026 48.48,14.0319964 48.48,14.752 L48.48,22 L46.224,22 L46.224,8.896 L48.408,8.896 L48.456,10.696 C49.2080038,9.39999352 50.3199926,8.752 51.792,8.752 C52.2560023,8.752 52.7039978,8.79999952 53.136,8.896 Z M71.856,19.768 C70.9599955,21.5280088 69.3520116,22.408 67.032,22.408 C65.2079909,22.408 63.8080049,21.7200069 62.832,20.344 C61.9199954,19.0959938 61.464,17.47201 61.464,15.472 C61.464,13.4399898 61.9279954,11.7920063 62.856,10.528 C63.864005,9.1679932 65.2799909,8.488 67.104,8.488 C69.3760114,8.488 70.9519956,9.34399144 71.832,11.056 L69.984,12.184 C69.6639984,11.5279967 69.2880022,11.0600014 68.856,10.78 C68.4239978,10.4999986 67.8480036,10.36 67.128,10.36 C65.4799918,10.36 64.4320022,11.3919897 63.984,13.456 C63.8399993,14.0800031 63.768,14.7519964 63.768,15.472 C63.768,17.7600114 64.367994,19.303996 65.568,20.104 C66.0000022,20.3920014 66.519997,20.536 67.128,20.536 C68.2800058,20.536 69.1119974,20.136004 69.624,19.336 C69.7520006,19.127999 69.8639995,18.920001 69.96,18.712 L71.856,19.768 Z M84.408,22 L82.248,22 C82.1199994,21.6319982 82.0320002,21.1680028 81.984,20.608 C80.975995,21.808006 79.6800079,22.408 78.096,22.408 C76.8319937,22.408 75.8320037,22.0240038 75.096,21.256 C74.4239966,20.5519965 74.088,19.6640054 74.088,18.592 C74.088,16.0639874 75.5519854,14.600002 78.48,14.2 L81.792,13.744 L81.792,12.352 C81.792,10.8639926 80.9520084,10.12 79.272,10.12 C78.4879961,10.12 77.8640023,10.319998 77.4,10.72 C77.0159981,11.0560017 76.7120011,11.4959973 76.488,12.04 L74.52,11.272 C74.7760013,10.5039962 75.2799962,9.86400256 76.032,9.352 C76.8960043,8.77599712 77.9759935,8.488 79.272,8.488 C82.4240158,8.488 84,9.78398704 84,12.376 L84,19.744 C84,20.5760042 84.1359986,21.3279966 84.408,22 Z M81.792,17.656 L81.792,15.376 L78.84,15.784 C77.1919918,16.0080011 76.368,16.9119921 76.368,18.496 C76.368,19.1840034 76.5599981,19.723998 76.944,20.116 C77.3280019,20.508002 77.8639966,20.704 78.552,20.704 C79.4480045,20.704 80.2119968,20.4160029 80.844,19.84 C81.4760032,19.2639971 81.792,18.5360044 81.792,17.656 Z M95.28,8.896 L95.088,10.84 C94.6559978,10.7439995 94.2320021,10.696 93.816,10.696 C92.3439926,10.696 91.3680024,11.4319926 90.888,12.904 C90.7119991,13.4160026 90.624,14.0319964 90.624,14.752 L90.624,22 L88.368,22 L88.368,8.896 L90.552,8.896 L90.6,10.696 C91.3520038,9.39999352 92.4639926,8.752 93.936,8.752 C94.4000023,8.752 94.8479978,8.79999952 95.28,8.896 Z M106.512,7.048 L104.256,7.048 L104.256,4.576 L106.512,4.576 L106.512,7.048 Z M106.512,22 L104.256,22 L104.256,8.896 L106.512,8.896 L106.512,22 Z M119.736,18.352 C119.736,19.744007 119.232005,20.7919965 118.224,21.496 C117.343996,22.104003 116.192007,22.408 114.768,22.408 C113.247992,22.408 112.016005,22.0800033 111.072,21.424 C110.351996,20.9279975 109.848001,20.2880039 109.56,19.504 L111.456,18.568 C112.064003,19.9280068 113.167992,20.608 114.768,20.608 C116.608009,20.608 117.528,19.912007 117.528,18.52 C117.528,17.911997 117.296002,17.4400017 116.832,17.104 C116.527998,16.8639988 116.016004,16.648001 115.296,16.456 L113.4,15.928 C111.063988,15.2719967 109.896,14.0560089 109.896,12.28 C109.896,10.9999936 110.391995,10.0240034 111.384,9.352 C112.248004,8.77599712 113.343993,8.488 114.672,8.488 C115.920006,8.488 116.983996,8.7279976 117.864,9.208 C118.488003,9.54400168 119.015998,10.015997 119.448,10.624 L117.816,11.896 C117.431998,11.2399967 116.824004,10.7600015 115.992,10.456 C115.607998,10.3279994 115.152003,10.264 114.624,10.264 C112.879991,10.264 112.008,10.9119935 112.008,12.208 C112.008,13.0880044 112.743993,13.727998 114.216,14.128 L116.088,14.632 C117.240006,14.9360015 118.095997,15.3359975 118.656,15.832 C119.376004,16.4560031 119.736,17.2959947 119.736,18.352 Z M139.488,19.768 C138.591996,21.5280088 136.984012,22.408 134.664,22.408 C132.839991,22.408 131.440005,21.7200069 130.464,20.344 C129.551995,19.0959938 129.096,17.47201 129.096,15.472 C129.096,13.4399898 129.559995,11.7920063 130.488,10.528 C131.496005,9.1679932 132.911991,8.488 134.736,8.488 C137.008011,8.488 138.583996,9.34399144 139.464,11.056 L137.616,12.184 C137.295998,11.5279967 136.920002,11.0600014 136.488,10.78 C136.055998,10.4999986 135.480004,10.36 134.76,10.36 C133.111992,10.36 132.064002,11.3919897 131.616,13.456 C131.471999,14.0800031 131.4,14.7519964 131.4,15.472 C131.4,17.7600114 131.999994,19.303996 133.2,20.104 C133.632002,20.3920014 134.151997,20.536 134.76,20.536 C135.912006,20.536 136.743997,20.136004 137.256,19.336 C137.384001,19.127999 137.496,18.920001 137.592,18.712 L139.488,19.768 Z M152.04,22 L149.88,22 C149.751999,21.6319982 149.664,21.1680028 149.616,20.608 C148.607995,21.808006 147.312008,22.408 145.728,22.408 C144.463994,22.408 143.464004,22.0240038 142.728,21.256 C142.055997,20.5519965 141.72,19.6640054 141.72,18.592 C141.72,16.0639874 143.183985,14.600002 146.112,14.2 L149.424,13.744 L149.424,12.352 C149.424,10.8639926 148.584008,10.12 146.904,10.12 C146.119996,10.12 145.496002,10.319998 145.032,10.72 C144.647998,11.0560017 144.344001,11.4959973 144.12,12.04 L142.152,11.272 C142.408001,10.5039962 142.911996,9.86400256 143.664,9.352 C144.528004,8.77599712 145.607994,8.488 146.904,8.488 C150.056016,8.488 151.632,9.78398704 151.632,12.376 L151.632,19.744 C151.632,20.5760042 151.767999,21.3279966 152.04,22 Z M149.424,17.656 L149.424,15.376 L146.472,15.784 C144.823992,16.0080011 144,16.9119921 144,18.496 C144,19.1840034 144.191998,19.723998 144.576,20.116 C144.960002,20.508002 145.495997,20.704 146.184,20.704 C147.080004,20.704 147.843997,20.4160029 148.476,19.84 C149.108003,19.2639971 149.424,18.5360044 149.424,17.656 Z M158.256,22 L156,22 L156,4.576 L158.256,4.576 L158.256,22 Z M164.88,22 L162.624,22 L162.624,4.576 L164.88,4.576 L164.88,22 Z M171.504,7.048 L169.248,7.048 L169.248,4.576 L171.504,4.576 L171.504,7.048 Z M171.504,22 L169.248,22 L169.248,8.896 L171.504,8.896 L171.504,22 Z M186.024,22 L183.768,22 L183.768,13.12 C183.768,11.2959909 182.952008,10.384 181.32,10.384 C179.799992,10.384 178.808002,11.3119907 178.344,13.168 C178.199999,13.6960026 178.128,14.2399972 178.128,14.8 L178.128,22 L175.872,22 L175.872,8.896 L178.08,8.896 L178.128,10.624 C179.072005,9.19999288 180.375992,8.488 182.04,8.488 C183.304006,8.488 184.283997,8.85999628 184.98,9.604 C185.676003,10.3480037 186.024,11.3359938 186.024,12.568 L186.024,22 Z M200.784,21.208 C200.784,23.000009 200.248005,24.3439955 199.176,25.24 C198.215995,26.0240039 196.896008,26.416 195.216,26.416 C193.839993,26.416 192.648005,26.2080021 191.64,25.792 C191.047997,25.5519988 190.632001,25.3120012 190.392,25.072 L191.544,23.512 C191.736001,23.6400006 192.071998,23.8319987 192.552,24.088 C193.320004,24.3920015 194.191995,24.544 195.168,24.544 C196.400006,24.544 197.287997,24.2240032 197.832,23.584 C198.296002,23.0399973 198.528,22.2080056 198.528,21.088 L198.528,18.976 C197.743996,20.4320073 196.472009,21.16 194.712,21.16 C192.999991,21.16 191.712004,20.5280063 190.848,19.264 C190.111996,18.1759946 189.744,16.728009 189.744,14.92 C189.744,12.9679902 190.151996,11.4400055 190.968,10.336 C191.864004,9.10399384 193.207991,8.488 195,8.488 C195.736004,8.488 196.415997,8.63999848 197.04,8.944 C197.744004,9.28000168 198.247998,9.75199696 198.552,10.36 L198.6,8.896 L200.784,8.896 L200.784,21.208 Z M198.6,14.632 C198.6,12.63199 198.008006,11.3120032 196.824,10.672 C196.407998,10.463999 195.920003,10.36 195.36,10.36 C193.183989,10.36 192.096,11.863985 192.096,14.872 C192.096,16.264007 192.343998,17.3279963 192.84,18.064 C193.384003,18.8800041 194.191995,19.288 195.264,19.288 C196.928008,19.288 197.975998,18.3360095 198.408,16.432 C198.536001,15.8719972 198.6,15.2720032 198.6,14.632 Z" id="Yourcariscalling" fill="#A0A0A0"></path>
                <polygon id="Hi---Lite-Bar" fill="#404648" points="0 43 0 39 78 39 75.1111111 43"></polygon>
                <path d="M4.298,101.06 L0.378,101.06 L0.378,99.688 L4.298,99.688 L4.298,101.06 Z M17.164,93.836 L13.594,100.024 L13.594,104 L12.194,104 L12.194,100.024 L8.624,93.836 L10.15,93.836 L12.95,98.722 L15.708,93.836 L17.164,93.836 Z M24.892,100.192 C24.892,101.396006 24.6166694,102.35733 24.066,103.076 C23.4686637,103.850671 22.6146722,104.238 21.504,104.238 C20.3839944,104.238 19.5346696,103.850671 18.956,103.076 C18.4053306,102.35733 18.13,101.396006 18.13,100.192 C18.13,98.9786606 18.4053306,98.0126703 18.956,97.294 C19.5440029,96.5099961 20.3933278,96.118 21.504,96.118 C22.6053388,96.118 23.4593303,96.5099961 24.066,97.294 C24.6166694,98.0126703 24.892,98.9786606 24.892,100.192 Z M23.548,100.192 C23.548,98.8293265 23.1746704,97.914669 22.428,97.448 C22.1666654,97.2893325 21.8586684,97.21 21.504,97.21 C20.5053283,97.21 19.870668,97.8213272 19.6,99.044 C19.5159996,99.4080018 19.474,99.7906647 19.474,100.192 C19.474,101.54534 19.8473296,102.450664 20.594,102.908 C20.8460013,103.066667 21.1493316,103.146 21.504,103.146 C22.5213384,103.146 23.165332,102.539339 23.436,101.326 C23.510667,100.971332 23.548,100.593335 23.548,100.192 Z M32.97,104 L31.696,104 L31.654,102.992 C31.1219973,103.822671 30.3846714,104.238 29.442,104.238 C28.6859962,104.238 28.1003354,104.023335 27.685,103.594 C27.2696646,103.164665 27.062,102.581337 27.062,101.844 L27.062,96.356 L28.378,96.356 L28.378,101.606 C28.378,102.623338 28.8493286,103.132 29.792,103.132 C30.6693377,103.132 31.2526652,102.590672 31.542,101.508 C31.616667,101.209332 31.654,100.896668 31.654,100.57 L31.654,96.356 L32.97,96.356 L32.97,104 Z M39.55,96.356 L39.438,97.49 C39.1859987,97.4339997 38.9386679,97.406 38.696,97.406 C37.837329,97.406 37.2680014,97.835329 36.988,98.694 C36.8853328,98.9926682 36.834,99.3519979 36.834,99.772 L36.834,104 L35.518,104 L35.518,96.356 L36.792,96.356 L36.82,97.406 C37.2586689,96.6499962 37.907329,96.272 38.766,96.272 C39.036668,96.272 39.2979987,96.2999997 39.55,96.356 Z M50.204,96.356 L47.754,104 L46.116,104 L43.68,96.356 L45.066,96.356 L46.97,102.74 L48.874,96.356 L50.204,96.356 Z M57.68,100.528 L52.612,100.528 C52.6493335,101.722673 53.0039966,102.525331 53.676,102.936 C53.9186679,103.094667 54.2173316,103.174 54.572,103.174 C55.430671,103.174 56.0093318,102.810004 56.308,102.082 L57.442,102.642 C56.8913306,103.706005 55.9206736,104.238 54.53,104.238 C53.4659947,104.238 52.6446696,103.846004 52.066,103.062 C51.5339973,102.34333 51.268,101.386673 51.268,100.192 C51.268,99.0346609 51.538664,98.0826704 52.08,97.336 C52.6680029,96.5239959 53.4893281,96.118 54.544,96.118 C55.5706718,96.118 56.3593306,96.4773297 56.91,97.196 C57.4233359,97.8773367 57.68,98.7639945 57.68,99.856 L57.68,100.528 Z M56.336,99.548 C56.261333,98.4653279 55.9440028,97.7326686 55.384,97.35 C55.1599989,97.2006659 54.8800017,97.126 54.544,97.126 C53.6946624,97.126 53.1160015,97.6439948 52.808,98.68 C52.7239996,98.9693348 52.6680001,99.2586652 52.64,99.548 L56.336,99.548 Z M65.702,104 L64.386,104 L64.386,98.82 C64.386,97.7559947 63.9100048,97.224 62.958,97.224 C62.0619955,97.224 61.4833346,97.7653279 61.222,98.848 C61.147333,99.1560015 61.11,99.4733317 61.11,99.8 L61.11,104 L59.794,104 L59.794,93.836 L61.11,93.836 L61.11,97.266 C61.651336,96.5006628 62.4073285,96.118 63.378,96.118 C64.115337,96.118 64.686998,96.3349978 65.093,96.769 C65.499002,97.2030022 65.702,97.7793297 65.702,98.498 L65.702,104 Z M69.566,95.278 L68.25,95.278 L68.25,93.836 L69.566,93.836 L69.566,95.278 Z M69.566,104 L68.25,104 L68.25,96.356 L69.566,96.356 L69.566,104 Z M77.798,102.698 C77.2753307,103.724672 76.3373401,104.238 74.984,104.238 C73.9199947,104.238 73.1033362,103.836671 72.534,103.034 C72.0019973,102.305996 71.736,101.358673 71.736,100.192 C71.736,99.0066607 72.006664,98.045337 72.548,97.308 C73.1360029,96.5146627 73.9619947,96.118 75.026,96.118 C76.35134,96.118 77.2706641,96.6173283 77.784,97.616 L76.706,98.274 C76.5193324,97.8913314 76.3000013,97.6183341 76.048,97.455 C75.7959987,97.2916659 75.4600021,97.21 75.04,97.21 C74.0786619,97.21 73.4673346,97.811994 73.206,99.016 C73.1219996,99.3800018 73.08,99.7719979 73.08,100.192 C73.08,101.526673 73.4299965,102.427331 74.13,102.894 C74.3820013,103.062001 74.6853316,103.146 75.04,103.146 C75.7120034,103.146 76.1973318,102.912669 76.496,102.446 C76.570667,102.324666 76.6359997,102.203334 76.692,102.082 L77.798,102.698 Z M80.948,104 L79.632,104 L79.632,93.836 L80.948,93.836 L80.948,104 Z M89.53,100.528 L84.462,100.528 C84.4993335,101.722673 84.8539966,102.525331 85.526,102.936 C85.7686679,103.094667 86.0673316,103.174 86.422,103.174 C87.280671,103.174 87.8593318,102.810004 88.158,102.082 L89.292,102.642 C88.7413306,103.706005 87.7706736,104.238 86.38,104.238 C85.3159947,104.238 84.4946696,103.846004 83.916,103.062 C83.3839973,102.34333 83.118,101.386673 83.118,100.192 C83.118,99.0346609 83.388664,98.0826704 83.93,97.336 C84.5180029,96.5239959 85.3393281,96.118 86.394,96.118 C87.4206718,96.118 88.2093306,96.4773297 88.76,97.196 C89.2733359,97.8773367 89.53,98.7639945 89.53,99.856 L89.53,100.528 Z M88.186,99.548 C88.111333,98.4653279 87.7940028,97.7326686 87.234,97.35 C87.0099989,97.2006659 86.7300017,97.126 86.394,97.126 C85.5446624,97.126 84.9660015,97.6439948 84.658,98.68 C84.5739996,98.9693348 84.5180001,99.2586652 84.49,99.548 L88.186,99.548 Z M93.24,95.432 C93.24,95.8893356 93.1840006,96.2673318 93.072,96.566 C92.9599994,96.8646682 92.7593348,97.1819983 92.47,97.518 C92.2833324,97.7233344 92.1060008,97.9006659 91.938,98.05 L91.392,97.476 C91.9986697,96.8973304 92.302,96.3466693 92.302,95.824 L92.302,95.698 L91.658,95.698 L91.658,93.836 L93.24,93.836 L93.24,95.432 Z M100.702,101.872 C100.702,102.684004 100.408003,103.295331 99.82,103.706 C99.3066641,104.060668 98.6346708,104.238 97.804,104.238 C96.9173289,104.238 96.1986694,104.046669 95.648,103.664 C95.2279979,103.374665 94.9340008,103.001336 94.766,102.544 L95.872,101.998 C96.2266684,102.791337 96.870662,103.188 97.804,103.188 C98.8773387,103.188 99.414,102.782004 99.414,101.97 C99.414,101.615332 99.278668,101.340001 99.008,101.144 C98.8306658,101.003999 98.5320021,100.878001 98.112,100.766 L97.006,100.458 C95.6433265,100.075331 94.962,99.3660052 94.962,98.33 C94.962,97.5833296 95.2513304,97.014002 95.83,96.622 C96.3340025,96.2859983 96.9733295,96.118 97.748,96.118 C98.4760036,96.118 99.0966641,96.2579986 99.61,96.538 C99.9740018,96.734001 100.281999,97.0093316 100.534,97.364 L99.582,98.106 C99.3579989,97.7233314 99.0033358,97.4433342 98.518,97.266 C98.2939989,97.191333 98.0280015,97.154 97.72,97.154 C96.7026616,97.154 96.194,97.5319962 96.194,98.288 C96.194,98.8013359 96.623329,99.1746655 97.482,99.408 L98.574,99.702 C99.2460034,99.8793342 99.7453317,100.112665 100.072,100.402 C100.492002,100.766002 100.702,101.255997 100.702,101.872 Z M111.706,101.872 C111.706,102.684004 111.412003,103.295331 110.824,103.706 C110.310664,104.060668 109.638671,104.238 108.808,104.238 C107.921329,104.238 107.202669,104.046669 106.652,103.664 C106.231998,103.374665 105.938001,103.001336 105.77,102.544 L106.876,101.998 C107.230668,102.791337 107.874662,103.188 108.808,103.188 C109.881339,103.188 110.418,102.782004 110.418,101.97 C110.418,101.615332 110.282668,101.340001 110.012,101.144 C109.834666,101.003999 109.536002,100.878001 109.116,100.766 L108.01,100.458 C106.647327,100.075331 105.966,99.3660052 105.966,98.33 C105.966,97.5833296 106.25533,97.014002 106.834,96.622 C107.338003,96.2859983 107.977329,96.118 108.752,96.118 C109.480004,96.118 110.100664,96.2579986 110.614,96.538 C110.978002,96.734001 111.285999,97.0093316 111.538,97.364 L110.586,98.106 C110.361999,97.7233314 110.007336,97.4433342 109.522,97.266 C109.297999,97.191333 109.032002,97.154 108.724,97.154 C107.706662,97.154 107.198,97.5319962 107.198,98.288 C107.198,98.8013359 107.627329,99.1746655 108.486,99.408 L109.578,99.702 C110.250003,99.8793342 110.749332,100.112665 111.076,100.402 C111.496002,100.766002 111.706,101.255997 111.706,101.872 Z M117.082,103.972 C116.876666,104.074667 116.42867,104.126 115.738,104.126 C114.543327,104.126 113.946,103.547339 113.946,102.39 L113.946,97.42 L112.756,97.42 L112.756,96.356 L113.946,96.356 L113.946,94.452 L115.262,94.452 L115.262,96.356 L117.012,96.356 L117.012,97.42 L115.262,97.42 L115.262,102.124 C115.262,102.441335 115.324999,102.669999 115.451,102.81 C115.577001,102.950001 115.793998,103.02 116.102,103.02 C116.540669,103.02 116.834666,102.982667 116.984,102.908 L117.082,103.972 Z M124.166,104 L122.906,104 C122.831333,103.785332 122.78,103.514668 122.752,103.188 C122.163997,103.888003 121.408005,104.238 120.484,104.238 C119.746663,104.238 119.163335,104.014002 118.734,103.566 C118.341998,103.155331 118.146,102.637336 118.146,102.012 C118.146,100.537326 118.999991,99.6833345 120.708,99.45 L122.64,99.184 L122.64,98.372 C122.64,97.5039957 122.150005,97.07 121.17,97.07 C120.712664,97.07 120.348668,97.1866655 120.078,97.42 C119.853999,97.616001 119.676667,97.8726651 119.546,98.19 L118.398,97.742 C118.547334,97.2939978 118.841331,96.9206682 119.28,96.622 C119.784003,96.2859983 120.413996,96.118 121.17,96.118 C123.008676,96.118 123.928,96.8739924 123.928,98.386 L123.928,102.684 C123.928,103.169336 124.007333,103.607998 124.166,104 Z M122.64,101.466 L122.64,100.136 L120.918,100.374 C119.956662,100.504667 119.476,101.031995 119.476,101.956 C119.476,102.357335 119.587999,102.672332 119.812,102.901 C120.036001,103.129668 120.348665,103.244 120.75,103.244 C121.272669,103.244 121.718331,103.076002 122.087,102.74 C122.455669,102.403998 122.64,101.979336 122.64,101.466 Z M129.906,103.972 C129.700666,104.074667 129.25267,104.126 128.562,104.126 C127.367327,104.126 126.77,103.547339 126.77,102.39 L126.77,97.42 L125.58,97.42 L125.58,96.356 L126.77,96.356 L126.77,94.452 L128.086,94.452 L128.086,96.356 L129.836,96.356 L129.836,97.42 L128.086,97.42 L128.086,102.124 C128.086,102.441335 128.148999,102.669999 128.275,102.81 C128.401001,102.950001 128.617998,103.02 128.926,103.02 C129.364669,103.02 129.658666,102.982667 129.808,102.908 L129.906,103.972 Z M137.41,104 L136.136,104 L136.094,102.992 C135.561997,103.822671 134.824671,104.238 133.882,104.238 C133.125996,104.238 132.540335,104.023335 132.125,103.594 C131.709665,103.164665 131.502,102.581337 131.502,101.844 L131.502,96.356 L132.818,96.356 L132.818,101.606 C132.818,102.623338 133.289329,103.132 134.232,103.132 C135.109338,103.132 135.692665,102.590672 135.982,101.508 C136.056667,101.209332 136.094,100.896668 136.094,100.57 L136.094,96.356 L137.41,96.356 L137.41,104 Z M145.124,101.872 C145.124,102.684004 144.830003,103.295331 144.242,103.706 C143.728664,104.060668 143.056671,104.238 142.226,104.238 C141.339329,104.238 140.620669,104.046669 140.07,103.664 C139.649998,103.374665 139.356001,103.001336 139.188,102.544 L140.294,101.998 C140.648668,102.791337 141.292662,103.188 142.226,103.188 C143.299339,103.188 143.836,102.782004 143.836,101.97 C143.836,101.615332 143.700668,101.340001 143.43,101.144 C143.252666,101.003999 142.954002,100.878001 142.534,100.766 L141.428,100.458 C140.065327,100.075331 139.384,99.3660052 139.384,98.33 C139.384,97.5833296 139.67333,97.014002 140.252,96.622 C140.756003,96.2859983 141.395329,96.118 142.17,96.118 C142.898004,96.118 143.518664,96.2579986 144.032,96.538 C144.396002,96.734001 144.703999,97.0093316 144.956,97.364 L144.004,98.106 C143.779999,97.7233314 143.425336,97.4433342 142.94,97.266 C142.715999,97.191333 142.450002,97.154 142.142,97.154 C141.124662,97.154 140.616,97.5319962 140.616,98.288 C140.616,98.8013359 141.045329,99.1746655 141.904,99.408 L142.996,99.702 C143.668003,99.8793342 144.167332,100.112665 144.494,100.402 C144.914002,100.766002 145.124,101.255997 145.124,101.872 Z M156.45,104 L155.19,104 C155.115333,103.785332 155.064,103.514668 155.036,103.188 C154.447997,103.888003 153.692005,104.238 152.768,104.238 C152.030663,104.238 151.447335,104.014002 151.018,103.566 C150.625998,103.155331 150.43,102.637336 150.43,102.012 C150.43,100.537326 151.283991,99.6833345 152.992,99.45 L154.924,99.184 L154.924,98.372 C154.924,97.5039957 154.434005,97.07 153.454,97.07 C152.996664,97.07 152.632668,97.1866655 152.362,97.42 C152.137999,97.616001 151.960667,97.8726651 151.83,98.19 L150.682,97.742 C150.831334,97.2939978 151.125331,96.9206682 151.564,96.622 C152.068003,96.2859983 152.697996,96.118 153.454,96.118 C155.292676,96.118 156.212,96.8739924 156.212,98.386 L156.212,102.684 C156.212,103.169336 156.291333,103.607998 156.45,104 Z M154.924,101.466 L154.924,100.136 L153.202,100.374 C152.240662,100.504667 151.76,101.031995 151.76,101.956 C151.76,102.357335 151.871999,102.672332 152.096,102.901 C152.320001,103.129668 152.632665,103.244 153.034,103.244 C153.556669,103.244 154.002331,103.076002 154.371,102.74 C154.739669,102.403998 154.924,101.979336 154.924,101.466 Z M164.682,104 L163.366,104 L163.366,98.82 C163.366,97.7559947 162.890005,97.224 161.938,97.224 C161.051329,97.224 160.472668,97.7653279 160.202,98.848 C160.118,99.1560015 160.076,99.4733317 160.076,99.8 L160.076,104 L158.76,104 L158.76,96.356 L160.048,96.356 L160.076,97.364 C160.626669,96.5333292 161.387328,96.118 162.358,96.118 C163.095337,96.118 163.666998,96.3349978 164.073,96.769 C164.479002,97.2030022 164.682,97.7793297 164.682,98.498 L164.682,104 Z M173.292,104 L172.046,104 L172.018,102.964 C171.523331,103.813338 170.767338,104.238 169.75,104.238 C169.05933,104.238 168.471336,104.009336 167.986,103.552 C167.547331,103.150665 167.234668,102.600003 167.048,101.9 C166.917333,101.414664 166.852,100.88267 166.852,100.304 C166.852,99.1186607 167.089998,98.1526704 167.566,97.406 C168.116669,96.547329 168.900662,96.118 169.918,96.118 C170.935338,96.118 171.621332,96.4819964 171.976,97.21 L171.976,93.836 L173.292,93.836 L173.292,104 Z M172.018,100.136 C172.018,98.8479936 171.67267,97.9566691 170.982,97.462 C170.739332,97.2939992 170.454668,97.21 170.128,97.21 C169.43733,97.21 168.928668,97.5553299 168.602,98.246 C168.349999,98.7686693 168.224,99.4126628 168.224,100.178 C168.224,101.064671 168.368665,101.764664 168.658,102.278 C168.984668,102.85667 169.455997,103.146 170.072,103.146 C171.033338,103.146 171.644665,102.506673 171.906,101.228 C171.980667,100.873332 172.018,100.509335 172.018,100.136 Z M184.898,101.872 C184.898,102.684004 184.604003,103.295331 184.016,103.706 C183.502664,104.060668 182.830671,104.238 182,104.238 C181.113329,104.238 180.394669,104.046669 179.844,103.664 C179.423998,103.374665 179.130001,103.001336 178.962,102.544 L180.068,101.998 C180.422668,102.791337 181.066662,103.188 182,103.188 C183.073339,103.188 183.61,102.782004 183.61,101.97 C183.61,101.615332 183.474668,101.340001 183.204,101.144 C183.026666,101.003999 182.728002,100.878001 182.308,100.766 L181.202,100.458 C179.839327,100.075331 179.158,99.3660052 179.158,98.33 C179.158,97.5833296 179.44733,97.014002 180.026,96.622 C180.530003,96.2859983 181.169329,96.118 181.944,96.118 C182.672004,96.118 183.292664,96.2579986 183.806,96.538 C184.170002,96.734001 184.477999,97.0093316 184.73,97.364 L183.778,98.106 C183.553999,97.7233314 183.199336,97.4433342 182.714,97.266 C182.489999,97.191333 182.224002,97.154 181.916,97.154 C180.898662,97.154 180.39,97.5319962 180.39,98.288 C180.39,98.8013359 180.819329,99.1746655 181.678,99.408 L182.77,99.702 C183.442003,99.8793342 183.941332,100.112665 184.268,100.402 C184.688002,100.766002 184.898,101.255997 184.898,101.872 Z M192.878,100.528 L187.81,100.528 C187.847334,101.722673 188.201997,102.525331 188.874,102.936 C189.116668,103.094667 189.415332,103.174 189.77,103.174 C190.628671,103.174 191.207332,102.810004 191.506,102.082 L192.64,102.642 C192.089331,103.706005 191.118674,104.238 189.728,104.238 C188.663995,104.238 187.84267,103.846004 187.264,103.062 C186.731997,102.34333 186.466,101.386673 186.466,100.192 C186.466,99.0346609 186.736664,98.0826704 187.278,97.336 C187.866003,96.5239959 188.687328,96.118 189.742,96.118 C190.768672,96.118 191.557331,96.4773297 192.108,97.196 C192.621336,97.8773367 192.878,98.7639945 192.878,99.856 L192.878,100.528 Z M191.534,99.548 C191.459333,98.4653279 191.142003,97.7326686 190.582,97.35 C190.357999,97.2006659 190.078002,97.126 189.742,97.126 C188.892662,97.126 188.314002,97.6439948 188.006,98.68 C187.922,98.9693348 187.866,99.2586652 187.838,99.548 L191.534,99.548 Z M199.024,96.356 L198.912,97.49 C198.659999,97.4339997 198.412668,97.406 198.17,97.406 C197.311329,97.406 196.742001,97.835329 196.462,98.694 C196.359333,98.9926682 196.308,99.3519979 196.308,99.772 L196.308,104 L194.992,104 L194.992,96.356 L196.266,96.356 L196.294,97.406 C196.732669,96.6499962 197.381329,96.272 198.24,96.272 C198.510668,96.272 198.771999,96.2999997 199.024,96.356 Z M205.786,96.356 L203.336,104 L201.698,104 L199.262,96.356 L200.648,96.356 L202.552,102.74 L204.456,96.356 L205.786,96.356 Z M208.544,95.278 L207.228,95.278 L207.228,93.836 L208.544,93.836 L208.544,95.278 Z M208.544,104 L207.228,104 L207.228,96.356 L208.544,96.356 L208.544,104 Z M216.776,102.698 C216.253331,103.724672 215.31534,104.238 213.962,104.238 C212.897995,104.238 212.081336,103.836671 211.512,103.034 C210.979997,102.305996 210.714,101.358673 210.714,100.192 C210.714,99.0066607 210.984664,98.045337 211.526,97.308 C212.114003,96.5146627 212.939995,96.118 214.004,96.118 C215.32934,96.118 216.248664,96.6173283 216.762,97.616 L215.684,98.274 C215.497332,97.8913314 215.278001,97.6183341 215.026,97.455 C214.773999,97.2916659 214.438002,97.21 214.018,97.21 C213.056662,97.21 212.445335,97.811994 212.184,99.016 C212.1,99.3800018 212.058,99.7719979 212.058,100.192 C212.058,101.526673 212.407996,102.427331 213.108,102.894 C213.360001,103.062001 213.663332,103.146 214.018,103.146 C214.690003,103.146 215.175332,102.912669 215.474,102.446 C215.548667,102.324666 215.614,102.203334 215.67,102.082 L216.776,102.698 Z M224.644,100.528 L219.576,100.528 C219.613334,101.722673 219.967997,102.525331 220.64,102.936 C220.882668,103.094667 221.181332,103.174 221.536,103.174 C222.394671,103.174 222.973332,102.810004 223.272,102.082 L224.406,102.642 C223.855331,103.706005 222.884674,104.238 221.494,104.238 C220.429995,104.238 219.60867,103.846004 219.03,103.062 C218.497997,102.34333 218.232,101.386673 218.232,100.192 C218.232,99.0346609 218.502664,98.0826704 219.044,97.336 C219.632003,96.5239959 220.453328,96.118 221.508,96.118 C222.534672,96.118 223.323331,96.4773297 223.874,97.196 C224.387336,97.8773367 224.644,98.7639945 224.644,99.856 L224.644,100.528 Z M223.3,99.548 C223.225333,98.4653279 222.908003,97.7326686 222.348,97.35 C222.123999,97.2006659 221.844002,97.126 221.508,97.126 C220.658662,97.126 220.080002,97.6439948 219.772,98.68 C219.688,98.9693348 219.632,99.2586652 219.604,99.548 L223.3,99.548 Z M236.572,104 L235.256,104 L235.256,98.82 C235.256,97.7559947 234.780005,97.224 233.828,97.224 C232.941329,97.224 232.362668,97.7653279 232.092,98.848 C232.008,99.1560015 231.966,99.4733317 231.966,99.8 L231.966,104 L230.65,104 L230.65,96.356 L231.938,96.356 L231.966,97.364 C232.516669,96.5333292 233.277328,96.118 234.248,96.118 C234.985337,96.118 235.556998,96.3349978 235.963,96.769 C236.369002,97.2030022 236.572,97.7793297 236.572,98.498 L236.572,104 Z M245.154,100.528 L240.086,100.528 C240.123334,101.722673 240.477997,102.525331 241.15,102.936 C241.392668,103.094667 241.691332,103.174 242.046,103.174 C242.904671,103.174 243.483332,102.810004 243.782,102.082 L244.916,102.642 C244.365331,103.706005 243.394674,104.238 242.004,104.238 C240.939995,104.238 240.11867,103.846004 239.54,103.062 C239.007997,102.34333 238.742,101.386673 238.742,100.192 C238.742,99.0346609 239.012664,98.0826704 239.554,97.336 C240.142003,96.5239959 240.963328,96.118 242.018,96.118 C243.044672,96.118 243.833331,96.4773297 244.384,97.196 C244.897336,97.8773367 245.154,98.7639945 245.154,99.856 L245.154,100.528 Z M243.81,99.548 C243.735333,98.4653279 243.418003,97.7326686 242.858,97.35 C242.633999,97.2006659 242.354002,97.126 242.018,97.126 C241.168662,97.126 240.590002,97.6439948 240.282,98.68 C240.198,98.9693348 240.142,99.2586652 240.114,99.548 L243.81,99.548 Z M253.302,100.528 L248.234,100.528 C248.271334,101.722673 248.625997,102.525331 249.298,102.936 C249.540668,103.094667 249.839332,103.174 250.194,103.174 C251.052671,103.174 251.631332,102.810004 251.93,102.082 L253.064,102.642 C252.513331,103.706005 251.542674,104.238 250.152,104.238 C249.087995,104.238 248.26667,103.846004 247.688,103.062 C247.155997,102.34333 246.89,101.386673 246.89,100.192 C246.89,99.0346609 247.160664,98.0826704 247.702,97.336 C248.290003,96.5239959 249.111328,96.118 250.166,96.118 C251.192672,96.118 251.981331,96.4773297 252.532,97.196 C253.045336,97.8773367 253.302,98.7639945 253.302,99.856 L253.302,100.528 Z M251.958,99.548 C251.883333,98.4653279 251.566003,97.7326686 251.006,97.35 C250.781999,97.2006659 250.502002,97.126 250.166,97.126 C249.316662,97.126 248.738002,97.6439948 248.43,98.68 C248.346,98.9693348 248.29,99.2586652 248.262,99.548 L251.958,99.548 Z M261.478,104 L260.232,104 L260.204,102.964 C259.709331,103.813338 258.953338,104.238 257.936,104.238 C257.24533,104.238 256.657336,104.009336 256.172,103.552 C255.733331,103.150665 255.420668,102.600003 255.234,101.9 C255.103333,101.414664 255.038,100.88267 255.038,100.304 C255.038,99.1186607 255.275998,98.1526704 255.752,97.406 C256.302669,96.547329 257.086662,96.118 258.104,96.118 C259.121338,96.118 259.807332,96.4819964 260.162,97.21 L260.162,93.836 L261.478,93.836 L261.478,104 Z M260.204,100.136 C260.204,98.8479936 259.85867,97.9566691 259.168,97.462 C258.925332,97.2939992 258.640668,97.21 258.314,97.21 C257.62333,97.21 257.114668,97.5553299 256.788,98.246 C256.535999,98.7686693 256.41,99.4126628 256.41,100.178 C256.41,101.064671 256.554665,101.764664 256.844,102.278 C257.170668,102.85667 257.641997,103.146 258.258,103.146 C259.219338,103.146 259.830665,102.506673 260.092,101.228 C260.166667,100.873332 260.204,100.509335 260.204,100.136 Z M269.192,101.872 C269.192,102.684004 268.898003,103.295331 268.31,103.706 C267.796664,104.060668 267.124671,104.238 266.294,104.238 C265.407329,104.238 264.688669,104.046669 264.138,103.664 C263.717998,103.374665 263.424001,103.001336 263.256,102.544 L264.362,101.998 C264.716668,102.791337 265.360662,103.188 266.294,103.188 C267.367339,103.188 267.904,102.782004 267.904,101.97 C267.904,101.615332 267.768668,101.340001 267.498,101.144 C267.320666,101.003999 267.022002,100.878001 266.602,100.766 L265.496,100.458 C264.133327,100.075331 263.452,99.3660052 263.452,98.33 C263.452,97.5833296 263.74133,97.014002 264.32,96.622 C264.824003,96.2859983 265.463329,96.118 266.238,96.118 C266.966004,96.118 267.586664,96.2579986 268.1,96.538 C268.464002,96.734001 268.771999,97.0093316 269.024,97.364 L268.072,98.106 C267.847999,97.7233314 267.493336,97.4433342 267.008,97.266 C266.783999,97.191333 266.518002,97.154 266.21,97.154 C265.192662,97.154 264.684,97.5319962 264.684,98.288 C264.684,98.8013359 265.113329,99.1746655 265.972,99.408 L267.064,99.702 C267.736003,99.8793342 268.235332,100.112665 268.562,100.402 C268.982002,100.766002 269.192,101.255997 269.192,101.872 Z M4.298,120.06 L0.378,120.06 L0.378,118.688 L4.298,118.688 L4.298,120.06 Z M17.85,123 L16.366,123 L15.47,120.424 L11.018,120.424 L10.108,123 L8.764,123 L12.46,112.836 L14.154,112.836 L17.85,123 Z M15.05,119.22 L13.258,114.082 L11.438,119.22 L15.05,119.22 Z M25.774,119.052 C25.774,120.237339 25.540669,121.198663 25.074,121.936 C24.5139972,122.804004 23.7253384,123.238 22.708,123.238 C21.6813282,123.238 20.9953351,122.855337 20.65,122.09 L20.65,125.576 L19.334,125.576 L19.334,115.356 L20.594,115.356 L20.622,116.392 C21.1166691,115.542662 21.867995,115.118 22.876,115.118 C23.5666701,115.118 24.1546642,115.346664 24.64,115.804 C25.0786689,116.205335 25.3913324,116.755997 25.578,117.456 C25.7086673,117.941336 25.774,118.47333 25.774,119.052 Z M24.402,119.178 C24.402,118.291329 24.2573348,117.586669 23.968,117.064 C23.6413317,116.494664 23.1700031,116.21 22.554,116.21 C21.5926619,116.21 20.9813346,116.84466 20.72,118.114 C20.645333,118.478002 20.608,118.846665 20.608,119.22 C20.608,120.508006 20.9579965,121.399331 21.658,121.894 C21.8913345,122.062001 22.1713317,122.146 22.498,122.146 C23.1886701,122.146 23.6973317,121.80067 24.024,121.11 C24.2760013,120.587331 24.402,119.943337 24.402,119.178 Z M34.384,119.052 C34.384,120.237339 34.150669,121.198663 33.684,121.936 C33.1239972,122.804004 32.3353384,123.238 31.318,123.238 C30.2913282,123.238 29.6053351,122.855337 29.26,122.09 L29.26,125.576 L27.944,125.576 L27.944,115.356 L29.204,115.356 L29.232,116.392 C29.7266691,115.542662 30.477995,115.118 31.486,115.118 C32.1766701,115.118 32.7646642,115.346664 33.25,115.804 C33.6886689,116.205335 34.0013324,116.755997 34.188,117.456 C34.3186673,117.941336 34.384,118.47333 34.384,119.052 Z M33.012,119.178 C33.012,118.291329 32.8673348,117.586669 32.578,117.064 C32.2513317,116.494664 31.7800031,116.21 31.164,116.21 C30.2026619,116.21 29.5913346,116.84466 29.33,118.114 C29.255333,118.478002 29.218,118.846665 29.218,119.22 C29.218,120.508006 29.5679965,121.399331 30.268,121.894 C30.5013345,122.062001 30.7813317,122.146 31.108,122.146 C31.7986701,122.146 32.3073317,121.80067 32.634,121.11 C32.8860013,120.587331 33.012,119.943337 33.012,119.178 Z M43.932,112.738 L43.862,113.69 C43.665999,113.624666 43.3766686,113.592 42.994,113.592 C42.3779969,113.592 42.07,113.93733 42.07,114.628 L42.07,115.356 L43.862,115.356 L43.862,116.42 L42.07,116.42 L42.07,123 L40.754,123 L40.754,116.42 L39.55,116.42 L39.55,115.356 L40.754,115.356 L40.754,114.6 C40.754,113.955997 40.9243316,113.461335 41.265,113.116 C41.6056684,112.770665 42.0886635,112.598 42.714,112.598 C43.2926696,112.598 43.6986655,112.644666 43.932,112.738 Z M51.31,119.528 L46.242,119.528 C46.2793335,120.722673 46.6339966,121.525331 47.306,121.936 C47.5486679,122.094667 47.8473316,122.174 48.202,122.174 C49.060671,122.174 49.6393318,121.810004 49.938,121.082 L51.072,121.642 C50.5213306,122.706005 49.5506736,123.238 48.16,123.238 C47.0959947,123.238 46.2746696,122.846004 45.696,122.062 C45.1639973,121.34333 44.898,120.386673 44.898,119.192 C44.898,118.034661 45.168664,117.08267 45.71,116.336 C46.2980029,115.523996 47.1193281,115.118 48.174,115.118 C49.2006718,115.118 49.9893306,115.47733 50.54,116.196 C51.0533359,116.877337 51.31,117.763995 51.31,118.856 L51.31,119.528 Z M49.966,118.548 C49.891333,117.465328 49.5740028,116.732669 49.014,116.35 C48.7899989,116.200666 48.5100017,116.126 48.174,116.126 C47.3246624,116.126 46.7460015,116.643995 46.438,117.68 C46.3539996,117.969335 46.2980001,118.258665 46.27,118.548 L49.966,118.548 Z M58.912,123 L57.652,123 C57.577333,122.785332 57.5260001,122.514668 57.498,122.188 C56.9099971,122.888003 56.1540046,123.238 55.23,123.238 C54.492663,123.238 53.9093355,123.014002 53.48,122.566 C53.087998,122.155331 52.892,121.637336 52.892,121.012 C52.892,119.537326 53.7459915,118.683335 55.454,118.45 L57.386,118.184 L57.386,117.372 C57.386,116.503996 56.8960049,116.07 55.916,116.07 C55.4586644,116.07 55.094668,116.186666 54.824,116.42 C54.5999989,116.616001 54.4226673,116.872665 54.292,117.19 L53.144,116.742 C53.2933341,116.293998 53.5873311,115.920668 54.026,115.622 C54.5300025,115.285998 55.1599962,115.118 55.916,115.118 C57.7546759,115.118 58.674,115.873992 58.674,117.386 L58.674,121.684 C58.674,122.169336 58.7533325,122.607998 58.912,123 Z M57.386,120.466 L57.386,119.136 L55.664,119.374 C54.7026619,119.504667 54.222,120.031995 54.222,120.956 C54.222,121.357335 54.3339989,121.672332 54.558,121.901 C54.7820011,122.129668 55.0946647,122.244 55.496,122.244 C56.0186693,122.244 56.4643315,122.076002 56.833,121.74 C57.2016685,121.403998 57.386,120.979336 57.386,120.466 Z M64.652,122.972 C64.4466656,123.074667 63.9986701,123.126 63.308,123.126 C62.1133274,123.126 61.516,122.547339 61.516,121.39 L61.516,116.42 L60.326,116.42 L60.326,115.356 L61.516,115.356 L61.516,113.452 L62.832,113.452 L62.832,115.356 L64.582,115.356 L64.582,116.42 L62.832,116.42 L62.832,121.124 C62.832,121.441335 62.8949994,121.669999 63.021,121.81 C63.1470006,121.950001 63.3639985,122.02 63.672,122.02 C64.1106689,122.02 64.4046659,121.982667 64.554,121.908 L64.652,122.972 Z M72.156,123 L70.882,123 L70.84,121.992 C70.3079973,122.822671 69.5706714,123.238 68.628,123.238 C67.8719962,123.238 67.2863354,123.023335 66.871,122.594 C66.4556646,122.164665 66.248,121.581337 66.248,120.844 L66.248,115.356 L67.564,115.356 L67.564,120.606 C67.564,121.623338 68.0353286,122.132 68.978,122.132 C69.8553377,122.132 70.4386652,121.590672 70.728,120.508 C70.802667,120.209332 70.84,119.896668 70.84,119.57 L70.84,115.356 L72.156,115.356 L72.156,123 Z M78.736,115.356 L78.624,116.49 C78.3719987,116.434 78.1246679,116.406 77.882,116.406 C77.023329,116.406 76.4540014,116.835329 76.174,117.694 C76.0713328,117.992668 76.02,118.351998 76.02,118.772 L76.02,123 L74.704,123 L74.704,115.356 L75.978,115.356 L76.006,116.406 C76.4446689,115.649996 77.093329,115.272 77.952,115.272 C78.222668,115.272 78.4839987,115.3 78.736,115.356 Z M86.114,119.528 L81.046,119.528 C81.0833335,120.722673 81.4379966,121.525331 82.11,121.936 C82.3526679,122.094667 82.6513316,122.174 83.006,122.174 C83.864671,122.174 84.4433318,121.810004 84.742,121.082 L85.876,121.642 C85.3253306,122.706005 84.3546736,123.238 82.964,123.238 C81.8999947,123.238 81.0786696,122.846004 80.5,122.062 C79.9679973,121.34333 79.702,120.386673 79.702,119.192 C79.702,118.034661 79.972664,117.08267 80.514,116.336 C81.1020029,115.523996 81.9233281,115.118 82.978,115.118 C84.0046718,115.118 84.7933306,115.47733 85.344,116.196 C85.8573359,116.877337 86.114,117.763995 86.114,118.856 L86.114,119.528 Z M84.77,118.548 C84.695333,117.465328 84.3780028,116.732669 83.818,116.35 C83.5939989,116.200666 83.3140017,116.126 82.978,116.126 C82.1286624,116.126 81.5500015,116.643995 81.242,117.68 C81.1579996,117.969335 81.1020001,118.258665 81.074,118.548 L84.77,118.548 Z M93.394,120.872 C93.394,121.684004 93.1000029,122.295331 92.512,122.706 C91.9986641,123.060668 91.3266708,123.238 90.496,123.238 C89.6093289,123.238 88.8906694,123.046669 88.34,122.664 C87.9199979,122.374665 87.6260008,122.001336 87.458,121.544 L88.564,120.998 C88.9186684,121.791337 89.562662,122.188 90.496,122.188 C91.5693387,122.188 92.106,121.782004 92.106,120.97 C92.106,120.615332 91.970668,120.340001 91.7,120.144 C91.5226658,120.003999 91.2240021,119.878001 90.804,119.766 L89.698,119.458 C88.3353265,119.075331 87.654,118.366005 87.654,117.33 C87.654,116.58333 87.9433304,116.014002 88.522,115.622 C89.0260025,115.285998 89.6653295,115.118 90.44,115.118 C91.1680036,115.118 91.7886641,115.257999 92.302,115.538 C92.6660018,115.734001 92.9739987,116.009332 93.226,116.364 L92.274,117.106 C92.0499989,116.723331 91.6953358,116.443334 91.21,116.266 C90.9859989,116.191333 90.7200015,116.154 90.412,116.154 C89.3946616,116.154 88.886,116.531996 88.886,117.288 C88.886,117.801336 89.315329,118.174666 90.174,118.408 L91.266,118.702 C91.9380034,118.879334 92.4373317,119.112665 92.764,119.402 C93.1840021,119.766002 93.394,120.255997 93.394,120.872 Z M104.72,123 L103.46,123 C103.385333,122.785332 103.334,122.514668 103.306,122.188 C102.717997,122.888003 101.962005,123.238 101.038,123.238 C100.300663,123.238 99.7173355,123.014002 99.288,122.566 C98.895998,122.155331 98.7,121.637336 98.7,121.012 C98.7,119.537326 99.5539915,118.683335 101.262,118.45 L103.194,118.184 L103.194,117.372 C103.194,116.503996 102.704005,116.07 101.724,116.07 C101.266664,116.07 100.902668,116.186666 100.632,116.42 C100.407999,116.616001 100.230667,116.872665 100.1,117.19 L98.952,116.742 C99.1013341,116.293998 99.3953311,115.920668 99.834,115.622 C100.338003,115.285998 100.967996,115.118 101.724,115.118 C103.562676,115.118 104.482,115.873992 104.482,117.386 L104.482,121.684 C104.482,122.169336 104.561333,122.607998 104.72,123 Z M103.194,120.466 L103.194,119.136 L101.472,119.374 C100.510662,119.504667 100.03,120.031995 100.03,120.956 C100.03,121.357335 100.141999,121.672332 100.366,121.901 C100.590001,122.129668 100.902665,122.244 101.304,122.244 C101.826669,122.244 102.272331,122.076002 102.641,121.74 C103.009669,121.403998 103.194,120.979336 103.194,120.466 Z M112.952,123 L111.636,123 L111.636,117.82 C111.636,116.755995 111.160005,116.224 110.208,116.224 C109.321329,116.224 108.742668,116.765328 108.472,117.848 C108.388,118.156002 108.346,118.473332 108.346,118.8 L108.346,123 L107.03,123 L107.03,115.356 L108.318,115.356 L108.346,116.364 C108.896669,115.533329 109.657328,115.118 110.628,115.118 C111.365337,115.118 111.936998,115.334998 112.343,115.769 C112.749002,116.203002 112.952,116.77933 112.952,117.498 L112.952,123 Z M121.562,123 L120.316,123 L120.288,121.964 C119.793331,122.813338 119.037338,123.238 118.02,123.238 C117.32933,123.238 116.741336,123.009336 116.256,122.552 C115.817331,122.150665 115.504668,121.600003 115.318,120.9 C115.187333,120.414664 115.122,119.88267 115.122,119.304 C115.122,118.118661 115.359998,117.15267 115.836,116.406 C116.386669,115.547329 117.170662,115.118 118.188,115.118 C119.205338,115.118 119.891332,115.481996 120.246,116.21 L120.246,112.836 L121.562,112.836 L121.562,123 Z M120.288,119.136 C120.288,117.847994 119.94267,116.956669 119.252,116.462 C119.009332,116.293999 118.724668,116.21 118.398,116.21 C117.70733,116.21 117.198668,116.55533 116.872,117.246 C116.619999,117.768669 116.494,118.412663 116.494,119.178 C116.494,120.064671 116.638665,120.764664 116.928,121.278 C117.254668,121.85667 117.725997,122.146 118.342,122.146 C119.303338,122.146 119.914665,121.506673 120.176,120.228 C120.250667,119.873332 120.288,119.509335 120.288,119.136 Z M135.562,119.99 C135.562,121.100672 135.198004,121.903331 134.47,122.398 C133.872664,122.799335 133.032672,123 131.95,123 L128.002,123 L128.002,112.836 L132.02,112.836 C132.953338,112.836 133.671997,113.013332 134.176,113.368 C134.792003,113.797335 135.1,114.455329 135.1,115.342 C135.1,116.266005 134.694004,116.984664 133.882,117.498 C135.002006,117.890002 135.562,118.72066 135.562,119.99 Z M133.644,115.496 C133.644,114.935997 133.480668,114.539334 133.154,114.306 C132.873999,114.100666 132.440003,113.998 131.852,113.998 L129.346,113.998 L129.346,117.036 L131.754,117.036 C132.622004,117.036 133.195999,116.784003 133.476,116.28 C133.588001,116.083999 133.644,115.822668 133.644,115.496 Z M134.092,120.004 C134.092,119.322663 133.882002,118.832668 133.462,118.534 C133.135332,118.309999 132.64067,118.198 131.978,118.198 L129.346,118.198 L129.346,121.838 L131.838,121.838 C133.340674,121.838 134.092,121.226673 134.092,120.004 Z M148.008,123 L146.692,123 L146.692,114.362 L143.528,123 L142.128,123 L139.09,114.376 L139.09,123 L137.774,123 L137.774,112.836 L139.846,112.836 L142.87,121.432 L146.006,112.836 L148.008,112.836 L148.008,123 Z M161.84,112.836 L159.348,123 L157.696,123 L155.708,114.712 L153.622,123 L151.956,123 L149.632,112.836 L151.116,112.836 L152.95,121.446 L154.966,112.836 L156.492,112.836 L158.438,121.46 L160.384,112.836 L161.84,112.836 Z M173.74,119.192 C173.74,120.396006 173.464669,121.35733 172.914,122.076 C172.316664,122.850671 171.462672,123.238 170.352,123.238 C169.231994,123.238 168.38267,122.850671 167.804,122.076 C167.253331,121.35733 166.978,120.396006 166.978,119.192 C166.978,117.978661 167.253331,117.01267 167.804,116.294 C168.392003,115.509996 169.241328,115.118 170.352,115.118 C171.453339,115.118 172.30733,115.509996 172.914,116.294 C173.464669,117.01267 173.74,117.978661 173.74,119.192 Z M172.396,119.192 C172.396,117.829327 172.02267,116.914669 171.276,116.448 C171.014665,116.289333 170.706668,116.21 170.352,116.21 C169.353328,116.21 168.718668,116.821327 168.448,118.044 C168.364,118.408002 168.322,118.790665 168.322,119.192 C168.322,120.54534 168.69533,121.450664 169.442,121.908 C169.694001,122.066667 169.997332,122.146 170.352,122.146 C171.369338,122.146 172.013332,121.539339 172.284,120.326 C172.358667,119.971332 172.396,119.593335 172.396,119.192 Z M179.396,112.738 L179.326,113.69 C179.129999,113.624666 178.840669,113.592 178.458,113.592 C177.841997,113.592 177.534,113.93733 177.534,114.628 L177.534,115.356 L179.326,115.356 L179.326,116.42 L177.534,116.42 L177.534,123 L176.218,123 L176.218,116.42 L175.014,116.42 L175.014,115.356 L176.218,115.356 L176.218,114.6 C176.218,113.955997 176.388332,113.461335 176.729,113.116 C177.069668,112.770665 177.552664,112.598 178.178,112.598 C178.75667,112.598 179.162666,112.644666 179.396,112.738 Z M184.226,112.738 L184.156,113.69 C183.959999,113.624666 183.670669,113.592 183.288,113.592 C182.671997,113.592 182.364,113.93733 182.364,114.628 L182.364,115.356 L184.156,115.356 L184.156,116.42 L182.364,116.42 L182.364,123 L181.048,123 L181.048,116.42 L179.844,116.42 L179.844,115.356 L181.048,115.356 L181.048,114.6 C181.048,113.955997 181.218332,113.461335 181.559,113.116 C181.899668,112.770665 182.382664,112.598 183.008,112.598 C183.58667,112.598 183.992665,112.644666 184.226,112.738 Z M191.604,119.528 L186.536,119.528 C186.573334,120.722673 186.927997,121.525331 187.6,121.936 C187.842668,122.094667 188.141332,122.174 188.496,122.174 C189.354671,122.174 189.933332,121.810004 190.232,121.082 L191.366,121.642 C190.815331,122.706005 189.844674,123.238 188.454,123.238 C187.389995,123.238 186.56867,122.846004 185.99,122.062 C185.457997,121.34333 185.192,120.386673 185.192,119.192 C185.192,118.034661 185.462664,117.08267 186.004,116.336 C186.592003,115.523996 187.413328,115.118 188.468,115.118 C189.494672,115.118 190.283331,115.47733 190.834,116.196 C191.347336,116.877337 191.604,117.763995 191.604,118.856 L191.604,119.528 Z M190.26,118.548 C190.185333,117.465328 189.868003,116.732669 189.308,116.35 C189.083999,116.200666 188.804002,116.126 188.468,116.126 C187.618662,116.126 187.040002,116.643995 186.732,117.68 C186.648,117.969335 186.592,118.258665 186.564,118.548 L190.26,118.548 Z M197.75,115.356 L197.638,116.49 C197.385999,116.434 197.138668,116.406 196.896,116.406 C196.037329,116.406 195.468001,116.835329 195.188,117.694 C195.085333,117.992668 195.034,118.351998 195.034,118.772 L195.034,123 L193.718,123 L193.718,115.356 L194.992,115.356 L195.02,116.406 C195.458669,115.649996 196.107329,115.272 196.966,115.272 C197.236668,115.272 197.497999,115.3 197.75,115.356 Z M204.26,120.872 C204.26,121.684004 203.966003,122.295331 203.378,122.706 C202.864664,123.060668 202.192671,123.238 201.362,123.238 C200.475329,123.238 199.756669,123.046669 199.206,122.664 C198.785998,122.374665 198.492001,122.001336 198.324,121.544 L199.43,120.998 C199.784668,121.791337 200.428662,122.188 201.362,122.188 C202.435339,122.188 202.972,121.782004 202.972,120.97 C202.972,120.615332 202.836668,120.340001 202.566,120.144 C202.388666,120.003999 202.090002,119.878001 201.67,119.766 L200.564,119.458 C199.201327,119.075331 198.52,118.366005 198.52,117.33 C198.52,116.58333 198.80933,116.014002 199.388,115.622 C199.892003,115.285998 200.531329,115.118 201.306,115.118 C202.034004,115.118 202.654664,115.257999 203.168,115.538 C203.532002,115.734001 203.839999,116.009332 204.092,116.364 L203.14,117.106 C202.915999,116.723331 202.561336,116.443334 202.076,116.266 C201.851999,116.191333 201.586002,116.154 201.278,116.154 C200.260662,116.154 199.752,116.531996 199.752,117.288 C199.752,117.801336 200.181329,118.174666 201.04,118.408 L202.132,118.702 C202.804003,118.879334 203.303332,119.112665 203.63,119.402 C204.050002,119.766002 204.26,120.255997 204.26,120.872 Z M4.298,139.06 L0.378,139.06 L0.378,137.688 L4.298,137.688 L4.298,139.06 Z M17.374,142 L15.764,142 L13.804,137.828 L11.172,137.828 L11.172,142 L9.828,142 L9.828,131.836 L13.678,131.836 C14.6766717,131.836 15.4606638,132.078664 16.03,132.564 C16.6366697,133.086669 16.94,133.837995 16.94,134.818 C16.94,135.42467 16.7790016,135.975331 16.457,136.47 C16.1349984,136.964669 15.703336,137.328665 15.162,137.562 L17.374,142 Z M15.498,134.804 C15.498,133.599994 14.8213401,132.998 13.468,132.998 L11.172,132.998 L11.172,136.666 L13.468,136.666 C14.8213401,136.666 15.498,136.04534 15.498,134.804 Z M25.214,138.528 L20.146,138.528 C20.1833335,139.722673 20.5379966,140.525331 21.21,140.936 C21.4526679,141.094667 21.7513316,141.174 22.106,141.174 C22.964671,141.174 23.5433318,140.810004 23.842,140.082 L24.976,140.642 C24.4253306,141.706005 23.4546736,142.238 22.064,142.238 C20.9999947,142.238 20.1786696,141.846004 19.6,141.062 C19.0679973,140.34333 18.802,139.386673 18.802,138.192 C18.802,137.034661 19.072664,136.08267 19.614,135.336 C20.2020029,134.523996 21.0233281,134.118 22.078,134.118 C23.1046718,134.118 23.8933306,134.47733 24.444,135.196 C24.9573359,135.877337 25.214,136.763995 25.214,137.856 L25.214,138.528 Z M23.87,137.548 C23.795333,136.465328 23.4780028,135.732669 22.918,135.35 C22.6939989,135.200666 22.4140017,135.126 22.078,135.126 C21.2286624,135.126 20.6500015,135.643995 20.342,136.68 C20.2579996,136.969335 20.2020001,137.258665 20.174,137.548 L23.87,137.548 Z M28.644,142 L27.328,142 L27.328,131.836 L28.644,131.836 L28.644,142 Z M37.226,138.528 L32.158,138.528 C32.1953335,139.722673 32.5499966,140.525331 33.222,140.936 C33.4646679,141.094667 33.7633316,141.174 34.118,141.174 C34.976671,141.174 35.5553318,140.810004 35.854,140.082 L36.988,140.642 C36.4373306,141.706005 35.4666736,142.238 34.076,142.238 C33.0119947,142.238 32.1906696,141.846004 31.612,141.062 C31.0799973,140.34333 30.814,139.386673 30.814,138.192 C30.814,137.034661 31.084664,136.08267 31.626,135.336 C32.2140029,134.523996 33.0353281,134.118 34.09,134.118 C35.1166718,134.118 35.9053306,134.47733 36.456,135.196 C36.9693359,135.877337 37.226,136.763995 37.226,137.856 L37.226,138.528 Z M35.882,137.548 C35.807333,136.465328 35.4900028,135.732669 34.93,135.35 C34.7059989,135.200666 34.4260017,135.126 34.09,135.126 C33.2406624,135.126 32.6620015,135.643995 32.354,136.68 C32.2699996,136.969335 32.2140001,137.258665 32.186,137.548 L35.882,137.548 Z M44.758,134.356 L42.308,142 L40.67,142 L38.234,134.356 L39.62,134.356 L41.524,140.74 L43.428,134.356 L44.758,134.356 Z M51.688,142 L50.428,142 C50.353333,141.785332 50.3020001,141.514668 50.274,141.188 C49.6859971,141.888003 48.9300046,142.238 48.006,142.238 C47.268663,142.238 46.6853355,142.014002 46.256,141.566 C45.863998,141.155331 45.668,140.637336 45.668,140.012 C45.668,138.537326 46.5219915,137.683335 48.23,137.45 L50.162,137.184 L50.162,136.372 C50.162,135.503996 49.6720049,135.07 48.692,135.07 C48.2346644,135.07 47.870668,135.186666 47.6,135.42 C47.3759989,135.616001 47.1986673,135.872665 47.068,136.19 L45.92,135.742 C46.0693341,135.293998 46.3633311,134.920668 46.802,134.622 C47.3060025,134.285998 47.9359962,134.118 48.692,134.118 C50.5306759,134.118 51.45,134.873992 51.45,136.386 L51.45,140.684 C51.45,141.169336 51.5293325,141.607998 51.688,142 Z M50.162,139.466 L50.162,138.136 L48.44,138.374 C47.4786619,138.504667 46.998,139.031995 46.998,139.956 C46.998,140.357335 47.1099989,140.672332 47.334,140.901 C47.5580011,141.129668 47.8706647,141.244 48.272,141.244 C48.7946693,141.244 49.2403315,141.076002 49.609,140.74 C49.9776685,140.403998 50.162,139.979336 50.162,139.466 Z M59.92,142 L58.604,142 L58.604,136.82 C58.604,135.755995 58.1280048,135.224 57.176,135.224 C56.2893289,135.224 55.710668,135.765328 55.44,136.848 C55.3559996,137.156002 55.314,137.473332 55.314,137.8 L55.314,142 L53.998,142 L53.998,134.356 L55.286,134.356 L55.314,135.364 C55.8646694,134.533329 56.6253285,134.118 57.596,134.118 C58.333337,134.118 58.904998,134.334998 59.311,134.769 C59.717002,135.203002 59.92,135.77933 59.92,136.498 L59.92,142 Z M65.898,141.972 C65.6926656,142.074667 65.2446701,142.126 64.554,142.126 C63.3593274,142.126 62.762,141.547339 62.762,140.39 L62.762,135.42 L61.572,135.42 L61.572,134.356 L62.762,134.356 L62.762,132.452 L64.078,132.452 L64.078,134.356 L65.828,134.356 L65.828,135.42 L64.078,135.42 L64.078,140.124 C64.078,140.441335 64.1409994,140.669999 64.267,140.81 C64.3930006,140.950001 64.6099985,141.02 64.918,141.02 C65.3566689,141.02 65.6506659,140.982667 65.8,140.908 L65.898,141.972 Z M76.552,139.872 C76.552,140.684004 76.2580029,141.295331 75.67,141.706 C75.1566641,142.060668 74.4846708,142.238 73.654,142.238 C72.7673289,142.238 72.0486694,142.046669 71.498,141.664 C71.0779979,141.374665 70.7840008,141.001336 70.616,140.544 L71.722,139.998 C72.0766684,140.791337 72.720662,141.188 73.654,141.188 C74.7273387,141.188 75.264,140.782004 75.264,139.97 C75.264,139.615332 75.128668,139.340001 74.858,139.144 C74.6806658,139.003999 74.3820021,138.878001 73.962,138.766 L72.856,138.458 C71.4933265,138.075331 70.812,137.366005 70.812,136.33 C70.812,135.58333 71.1013304,135.014002 71.68,134.622 C72.1840025,134.285998 72.8233295,134.118 73.598,134.118 C74.3260036,134.118 74.9466641,134.257999 75.46,134.538 C75.8240018,134.734001 76.1319987,135.009332 76.384,135.364 L75.432,136.106 C75.2079989,135.723331 74.8533358,135.443334 74.368,135.266 C74.1439989,135.191333 73.8780015,135.154 73.57,135.154 C72.5526616,135.154 72.044,135.531996 72.044,136.288 C72.044,136.801336 72.473329,137.174666 73.332,137.408 L74.424,137.702 C75.0960034,137.879334 75.5953317,138.112665 75.922,138.402 C76.3420021,138.766002 76.552,139.255997 76.552,139.872 Z M83.986,142 L82.726,142 C82.651333,141.785332 82.6000001,141.514668 82.572,141.188 C81.9839971,141.888003 81.2280046,142.238 80.304,142.238 C79.566663,142.238 78.9833355,142.014002 78.554,141.566 C78.161998,141.155331 77.966,140.637336 77.966,140.012 C77.966,138.537326 78.8199915,137.683335 80.528,137.45 L82.46,137.184 L82.46,136.372 C82.46,135.503996 81.9700049,135.07 80.99,135.07 C80.5326644,135.07 80.168668,135.186666 79.898,135.42 C79.6739989,135.616001 79.4966673,135.872665 79.366,136.19 L78.218,135.742 C78.3673341,135.293998 78.6613311,134.920668 79.1,134.622 C79.6040025,134.285998 80.2339962,134.118 80.99,134.118 C82.8286759,134.118 83.748,134.873992 83.748,136.386 L83.748,140.684 C83.748,141.169336 83.8273325,141.607998 83.986,142 Z M82.46,139.466 L82.46,138.136 L80.738,138.374 C79.7766619,138.504667 79.296,139.031995 79.296,139.956 C79.296,140.357335 79.4079989,140.672332 79.632,140.901 C79.8560011,141.129668 80.1686647,141.244 80.57,141.244 C81.0926693,141.244 81.5383315,141.076002 81.907,140.74 C82.2756685,140.403998 82.46,139.979336 82.46,139.466 Z M89.782,131.738 L89.712,132.69 C89.515999,132.624666 89.2266686,132.592 88.844,132.592 C88.2279969,132.592 87.92,132.93733 87.92,133.628 L87.92,134.356 L89.712,134.356 L89.712,135.42 L87.92,135.42 L87.92,142 L86.604,142 L86.604,135.42 L85.4,135.42 L85.4,134.356 L86.604,134.356 L86.604,133.6 C86.604,132.955997 86.7743316,132.461335 87.115,132.116 C87.4556684,131.770665 87.9386635,131.598 88.564,131.598 C89.1426696,131.598 89.5486655,131.644666 89.782,131.738 Z M97.16,138.528 L92.092,138.528 C92.1293335,139.722673 92.4839966,140.525331 93.156,140.936 C93.3986679,141.094667 93.6973316,141.174 94.052,141.174 C94.910671,141.174 95.4893318,140.810004 95.788,140.082 L96.922,140.642 C96.3713306,141.706005 95.4006736,142.238 94.01,142.238 C92.9459947,142.238 92.1246696,141.846004 91.546,141.062 C91.0139973,140.34333 90.748,139.386673 90.748,138.192 C90.748,137.034661 91.018664,136.08267 91.56,135.336 C92.1480029,134.523996 92.9693281,134.118 94.024,134.118 C95.0506718,134.118 95.8393306,134.47733 96.39,135.196 C96.9033359,135.877337 97.16,136.763995 97.16,137.856 L97.16,138.528 Z M95.816,137.548 C95.741333,136.465328 95.4240028,135.732669 94.864,135.35 C94.6399989,135.200666 94.3600017,135.126 94.024,135.126 C93.1746624,135.126 92.5960015,135.643995 92.288,136.68 C92.2039996,136.969335 92.1480001,137.258665 92.12,137.548 L95.816,137.548 Z M102.704,141.972 C102.498666,142.074667 102.05067,142.126 101.36,142.126 C100.165327,142.126 99.568,141.547339 99.568,140.39 L99.568,135.42 L98.378,135.42 L98.378,134.356 L99.568,134.356 L99.568,132.452 L100.884,132.452 L100.884,134.356 L102.634,134.356 L102.634,135.42 L100.884,135.42 L100.884,140.124 C100.884,140.441335 100.946999,140.669999 101.073,140.81 C101.199001,140.950001 101.415998,141.02 101.724,141.02 C102.162669,141.02 102.456666,140.982667 102.606,140.908 L102.704,141.972 Z M109.914,134.356 L106.946,143.022 C106.591332,144.058005 105.910005,144.576 104.902,144.576 C104.463331,144.576 104.029335,144.510667 103.6,144.38 L103.838,143.288 C104.155335,143.400001 104.435332,143.456 104.678,143.456 C105.200669,143.456 105.555332,143.180669 105.742,142.63 L106.078,141.65 L103.194,134.356 L104.622,134.356 L106.722,139.844 L108.556,134.356 L109.914,134.356 Z M119.28,134.356 L119.168,135.49 C118.915999,135.434 118.668668,135.406 118.426,135.406 C117.567329,135.406 116.998001,135.835329 116.718,136.694 C116.615333,136.992668 116.564,137.351998 116.564,137.772 L116.564,142 L115.248,142 L115.248,134.356 L116.522,134.356 L116.55,135.406 C116.988669,134.649996 117.637329,134.272 118.496,134.272 C118.766668,134.272 119.027999,134.3 119.28,134.356 Z M126.658,138.528 L121.59,138.528 C121.627334,139.722673 121.981997,140.525331 122.654,140.936 C122.896668,141.094667 123.195332,141.174 123.55,141.174 C124.408671,141.174 124.987332,140.810004 125.286,140.082 L126.42,140.642 C125.869331,141.706005 124.898674,142.238 123.508,142.238 C122.443995,142.238 121.62267,141.846004 121.044,141.062 C120.511997,140.34333 120.246,139.386673 120.246,138.192 C120.246,137.034661 120.516664,136.08267 121.058,135.336 C121.646003,134.523996 122.467328,134.118 123.522,134.118 C124.548672,134.118 125.337331,134.47733 125.888,135.196 C126.401336,135.877337 126.658,136.763995 126.658,137.856 L126.658,138.528 Z M125.314,137.548 C125.239333,136.465328 124.922003,135.732669 124.362,135.35 C124.137999,135.200666 123.858002,135.126 123.522,135.126 C122.672662,135.126 122.094002,135.643995 121.786,136.68 C121.702,136.969335 121.646,137.258665 121.618,137.548 L125.314,137.548 Z M134.456,140.698 C133.933331,141.724672 132.99534,142.238 131.642,142.238 C130.577995,142.238 129.761336,141.836671 129.192,141.034 C128.659997,140.305996 128.394,139.358673 128.394,138.192 C128.394,137.006661 128.664664,136.045337 129.206,135.308 C129.794003,134.514663 130.619995,134.118 131.684,134.118 C133.00934,134.118 133.928664,134.617328 134.442,135.616 L133.364,136.274 C133.177332,135.891331 132.958001,135.618334 132.706,135.455 C132.453999,135.291666 132.118002,135.21 131.698,135.21 C130.736662,135.21 130.125335,135.811994 129.864,137.016 C129.78,137.380002 129.738,137.771998 129.738,138.192 C129.738,139.526673 130.087996,140.427331 130.788,140.894 C131.040001,141.062001 131.343332,141.146 131.698,141.146 C132.370003,141.146 132.855332,140.912669 133.154,140.446 C133.228667,140.324666 133.294,140.203334 133.35,140.082 L134.456,140.698 Z M141.778,142 L140.518,142 C140.443333,141.785332 140.392,141.514668 140.364,141.188 C139.775997,141.888003 139.020005,142.238 138.096,142.238 C137.358663,142.238 136.775335,142.014002 136.346,141.566 C135.953998,141.155331 135.758,140.637336 135.758,140.012 C135.758,138.537326 136.611991,137.683335 138.32,137.45 L140.252,137.184 L140.252,136.372 C140.252,135.503996 139.762005,135.07 138.782,135.07 C138.324664,135.07 137.960668,135.186666 137.69,135.42 C137.465999,135.616001 137.288667,135.872665 137.158,136.19 L136.01,135.742 C136.159334,135.293998 136.453331,134.920668 136.892,134.622 C137.396003,134.285998 138.025996,134.118 138.782,134.118 C140.620676,134.118 141.54,134.873992 141.54,136.386 L141.54,140.684 C141.54,141.169336 141.619333,141.607998 141.778,142 Z M140.252,139.466 L140.252,138.136 L138.53,138.374 C137.568662,138.504667 137.088,139.031995 137.088,139.956 C137.088,140.357335 137.199999,140.672332 137.424,140.901 C137.648001,141.129668 137.960665,141.244 138.362,141.244 C138.884669,141.244 139.330331,141.076002 139.699,140.74 C140.067669,140.403998 140.252,139.979336 140.252,139.466 Z M145.404,142 L144.088,142 L144.088,131.836 L145.404,131.836 L145.404,142 Z M149.268,142 L147.952,142 L147.952,131.836 L149.268,131.836 L149.268,142 Z M156.982,139.872 C156.982,140.684004 156.688003,141.295331 156.1,141.706 C155.586664,142.060668 154.914671,142.238 154.084,142.238 C153.197329,142.238 152.478669,142.046669 151.928,141.664 C151.507998,141.374665 151.214001,141.001336 151.046,140.544 L152.152,139.998 C152.506668,140.791337 153.150662,141.188 154.084,141.188 C155.157339,141.188 155.694,140.782004 155.694,139.97 C155.694,139.615332 155.558668,139.340001 155.288,139.144 C155.110666,139.003999 154.812002,138.878001 154.392,138.766 L153.286,138.458 C151.923327,138.075331 151.242,137.366005 151.242,136.33 C151.242,135.58333 151.53133,135.014002 152.11,134.622 C152.614003,134.285998 153.253329,134.118 154.028,134.118 C154.756004,134.118 155.376664,134.257999 155.89,134.538 C156.254002,134.734001 156.561999,135.009332 156.814,135.364 L155.862,136.106 C155.637999,135.723331 155.283336,135.443334 154.798,135.266 C154.573999,135.191333 154.308002,135.154 154,135.154 C152.982662,135.154 152.474,135.531996 152.474,136.288 C152.474,136.801336 152.903329,137.174666 153.762,137.408 L154.854,137.702 C155.526003,137.879334 156.025332,138.112665 156.352,138.402 C156.772002,138.766002 156.982,139.255997 156.982,139.872 Z M4.298,158.06 L0.378,158.06 L0.378,156.688 L4.298,156.688 L4.298,158.06 Z M17.85,161 L16.366,161 L15.47,158.424 L11.018,158.424 L10.108,161 L8.764,161 L12.46,150.836 L14.154,150.836 L17.85,161 Z M15.05,157.22 L13.258,152.082 L11.438,157.22 L15.05,157.22 Z M25.256,161 L23.94,161 L23.94,155.82 C23.94,154.755995 23.4640048,154.224 22.512,154.224 C21.6253289,154.224 21.046668,154.765328 20.776,155.848 C20.6919996,156.156002 20.65,156.473332 20.65,156.8 L20.65,161 L19.334,161 L19.334,153.356 L20.622,153.356 L20.65,154.364 C21.2006694,153.533329 21.9613285,153.118 22.932,153.118 C23.669337,153.118 24.240998,153.334998 24.647,153.769 C25.053002,154.203002 25.256,154.77933 25.256,155.498 L25.256,161 Z M33.866,161 L32.62,161 L32.592,159.964 C32.0973309,160.813338 31.3413384,161.238 30.324,161.238 C29.6333299,161.238 29.0453358,161.009336 28.56,160.552 C28.1213311,160.150665 27.8086676,159.600004 27.622,158.9 C27.4913327,158.414664 27.426,157.88267 27.426,157.304 C27.426,156.118661 27.6639976,155.15267 28.14,154.406 C28.6906694,153.547329 29.4746616,153.118 30.492,153.118 C31.5093384,153.118 32.1953316,153.481996 32.55,154.21 L32.55,150.836 L33.866,150.836 L33.866,161 Z M32.592,157.136 C32.592,155.847994 32.2466701,154.956669 31.556,154.462 C31.3133321,154.293999 31.0286683,154.21 30.702,154.21 C30.0113299,154.21 29.5026683,154.55533 29.176,155.246 C28.9239987,155.768669 28.798,156.412663 28.798,157.178 C28.798,158.064671 28.9426652,158.764664 29.232,159.278 C29.5586683,159.85667 30.0299969,160.146 30.646,160.146 C31.6073381,160.146 32.2186654,159.506673 32.48,158.228 C32.554667,157.873332 32.592,157.509335 32.592,157.136 Z M50.106,161 L48.79,161 L48.79,155.82 C48.79,155.231997 48.6593346,154.802668 48.398,154.532 C48.1833323,154.326666 47.8893352,154.224 47.516,154.224 C47.0026641,154.224 46.5920015,154.489997 46.284,155.022 C46.0039986,155.507336 45.864,156.099997 45.864,156.8 L45.864,161 L44.548,161 L44.548,155.82 C44.548,155.21333 44.4173346,154.784001 44.156,154.532 C43.9413323,154.326666 43.6520018,154.224 43.288,154.224 C42.4946627,154.224 41.9766679,154.765328 41.734,155.848 C41.659333,156.156002 41.622,156.473332 41.622,156.8 L41.622,161 L40.306,161 L40.306,153.356 L41.594,153.356 L41.608,154.308 C42.0933358,153.514663 42.7933288,153.118 43.708,153.118 C44.7066717,153.118 45.3599985,153.551996 45.668,154.42 C46.1253356,153.551996 46.8719948,153.118 47.908,153.118 C48.6080035,153.118 49.1493314,153.332665 49.532,153.762 C49.9146686,154.191335 50.106,154.75133 50.106,155.442 L50.106,161 Z M59.038,157.192 C59.038,158.396006 58.7626694,159.35733 58.212,160.076 C57.6146637,160.850671 56.7606722,161.238 55.65,161.238 C54.5299944,161.238 53.6806696,160.850671 53.102,160.076 C52.5513306,159.35733 52.276,158.396006 52.276,157.192 C52.276,155.978661 52.5513306,155.01267 53.102,154.294 C53.6900029,153.509996 54.5393278,153.118 55.65,153.118 C56.7513388,153.118 57.6053303,153.509996 58.212,154.294 C58.7626694,155.01267 59.038,155.978661 59.038,157.192 Z M57.694,157.192 C57.694,155.829327 57.3206704,154.914669 56.574,154.448 C56.3126654,154.289333 56.0046684,154.21 55.65,154.21 C54.6513283,154.21 54.016668,154.821327 53.746,156.044 C53.6619996,156.408002 53.62,156.790665 53.62,157.192 C53.62,158.54534 53.9933296,159.450664 54.74,159.908 C54.9920013,160.066667 55.2953316,160.146 55.65,160.146 C56.6673384,160.146 57.311332,159.539339 57.582,158.326 C57.656667,157.971332 57.694,157.593335 57.694,157.192 Z M65.24,153.356 L65.128,154.49 C64.8759987,154.434 64.6286679,154.406 64.386,154.406 C63.527329,154.406 62.9580014,154.835329 62.678,155.694 C62.5753328,155.992668 62.524,156.351998 62.524,156.772 L62.524,161 L61.208,161 L61.208,153.356 L62.482,153.356 L62.51,154.406 C62.9486689,153.649996 63.597329,153.272 64.456,153.272 C64.726668,153.272 64.9879987,153.3 65.24,153.356 Z M72.618,157.528 L67.55,157.528 C67.5873335,158.722673 67.9419966,159.525331 68.614,159.936 C68.8566679,160.094667 69.1553316,160.174 69.51,160.174 C70.368671,160.174 70.9473318,159.810004 71.246,159.082 L72.38,159.642 C71.8293306,160.706005 70.8586736,161.238 69.468,161.238 C68.4039947,161.238 67.5826696,160.846004 67.004,160.062 C66.4719973,159.34333 66.206,158.386673 66.206,157.192 C66.206,156.034661 66.476664,155.08267 67.018,154.336 C67.6060029,153.523996 68.4273281,153.118 69.482,153.118 C70.5086718,153.118 71.2973306,153.47733 71.848,154.196 C72.3613359,154.877337 72.618,155.763995 72.618,156.856 L72.618,157.528 Z M71.274,156.548 C71.199333,155.465328 70.8820028,154.732669 70.322,154.35 C70.0979989,154.200666 69.8180017,154.126 69.482,154.126 C68.6326624,154.126 68.0540015,154.643995 67.746,155.68 C67.6619996,155.969335 67.6060001,156.258665 67.578,156.548 L71.274,156.548 Z" id="-Yourvehicle’sstatusandserviceneeds-AppfeaturesandBMWoffers-Relevantsafetyrecalls-Andmore" fill="#A0A0A0"></path>
            </g>
        </g>
    </g>
</svg>
