<?xml version="1.0" encoding="UTF-8"?>
<svg width="188px" height="18px" viewBox="0 0 188 18" version="1.1" xmlns="http://www.w3.org/2000/svg" xmlns:xlink="http://www.w3.org/1999/xlink">
    <!-- Generator: Sketch 53.2 (72643) - https://sketchapp.com -->
    <title>Mitteilungenerlauben</title>
    <desc>Created with Sketch.</desc>
    <g id="Page-1" stroke="none" stroke-width="1" fill="none" fill-rule="evenodd">
        <g id="Enable-Notifications-Copy" transform="translate(-94.000000, -554.000000)" fill="#FFFFFF" fill-rule="nonzero">
            <g id="Group-4" transform="translate(15.000000, 537.000000)">
                <path d="M92.9795549,31 L91.2875549,31 L91.2875549,19.894 L87.2195549,31 L85.4195549,31 L81.5135549,19.912 L81.5135549,31 L79.8215549,31 L79.8215549,17.932 L82.4855549,17.932 L86.3735549,28.984 L90.4055549,17.932 L92.9795549,17.932 L92.9795549,31 Z M97.9475549,19.786 L96.2555549,19.786 L96.2555549,17.932 L97.9475549,17.932 L97.9475549,19.786 Z M97.9475549,31 L96.2555549,31 L96.2555549,21.172 L97.9475549,21.172 L97.9475549,31 Z M105.633555,30.964 C105.369554,31.0960007 104.793559,31.162 103.905555,31.162 C102.369547,31.162 101.601555,30.4180074 101.601555,28.93 L101.601555,22.54 L100.071555,22.54 L100.071555,21.172 L101.601555,21.172 L101.601555,18.724 L103.293555,18.724 L103.293555,21.172 L105.543555,21.172 L105.543555,22.54 L103.293555,22.54 L103.293555,28.588 C103.293555,28.996002 103.374554,29.2899991 103.536555,29.47 C103.698556,29.6500009 103.977553,29.74 104.373555,29.74 C104.937558,29.74 105.315554,29.6920005 105.507555,29.596 L105.633555,30.964 Z M112.095555,30.964 C111.831554,31.0960007 111.255559,31.162 110.367555,31.162 C108.831547,31.162 108.063555,30.4180074 108.063555,28.93 L108.063555,22.54 L106.533555,22.54 L106.533555,21.172 L108.063555,21.172 L108.063555,18.724 L109.755555,18.724 L109.755555,21.172 L112.005555,21.172 L112.005555,22.54 L109.755555,22.54 L109.755555,28.588 C109.755555,28.996002 109.836554,29.2899991 109.998555,29.47 C110.160556,29.6500009 110.439553,29.74 110.835555,29.74 C111.399558,29.74 111.777554,29.6920005 111.969555,29.596 L112.095555,30.964 Z M121.905555,26.536 L115.389555,26.536 C115.437555,28.0720077 115.893551,29.1039974 116.757555,29.632 C117.069556,29.836001 117.453553,29.938 117.909555,29.938 C119.01356,29.938 119.757553,29.4700047 120.141555,28.534 L121.599555,29.254 C120.891551,30.6220068 119.643564,31.306 117.855555,31.306 C116.487548,31.306 115.431559,30.802005 114.687555,29.794 C114.003551,28.8699954 113.661555,27.6400077 113.661555,26.104 C113.661555,24.6159926 114.009551,23.3920048 114.705555,22.432 C115.461559,21.3879948 116.517548,20.866 117.873555,20.866 C119.193562,20.866 120.207551,21.3279954 120.915555,22.252 C121.575558,23.1280044 121.905555,24.267993 121.905555,25.672 L121.905555,26.536 Z M120.177555,25.276 C120.081554,23.883993 119.673559,22.9420025 118.953555,22.45 C118.665553,22.257999 118.305557,22.162 117.873555,22.162 C116.781549,22.162 116.037557,22.8279933 115.641555,24.16 C115.533554,24.5320019 115.461555,24.9039981 115.425555,25.276 L120.177555,25.276 Z M126.315555,19.786 L124.623555,19.786 L124.623555,17.932 L126.315555,17.932 L126.315555,19.786 Z M126.315555,31 L124.623555,31 L124.623555,21.172 L126.315555,21.172 L126.315555,31 Z M131.283555,31 L129.591555,31 L129.591555,17.932 L131.283555,17.932 L131.283555,31 Z M142.155555,31 L140.517555,31 L140.463555,29.704 C139.779551,30.7720053 138.831561,31.306 137.619555,31.306 C136.64755,31.306 135.894558,31.0300028 135.360555,30.478 C134.826552,29.9259972 134.559555,29.1760047 134.559555,28.228 L134.559555,21.172 L136.251555,21.172 L136.251555,27.922 C136.251555,29.2300065 136.857549,29.884 138.069555,29.884 C139.197561,29.884 139.947553,29.188007 140.319555,27.796 C140.415555,27.4119981 140.463555,27.0100021 140.463555,26.59 L140.463555,21.172 L142.155555,21.172 L142.155555,31 Z M153.045555,31 L151.353555,31 L151.353555,24.34 C151.353555,22.9719932 150.741561,22.288 149.517555,22.288 C148.377549,22.288 147.633557,22.983993 147.285555,24.376 C147.177554,24.772002 147.123555,25.1799979 147.123555,25.6 L147.123555,31 L145.431555,31 L145.431555,21.172 L147.087555,21.172 L147.123555,22.468 C147.831558,21.3999947 148.809549,20.866 150.057555,20.866 C151.00556,20.866 151.740552,21.1449972 152.262555,21.703 C152.784558,22.2610028 153.045555,23.0019954 153.045555,23.926 L153.045555,31 Z M164.115555,30.406 C164.115555,31.7500067 163.713559,32.7579966 162.909555,33.43 C162.189551,34.0180029 161.199561,34.312 159.939555,34.312 C158.90755,34.312 158.013559,34.1560016 157.257555,33.844 C156.813553,33.6639991 156.501556,33.4840009 156.321555,33.304 L157.185555,32.134 C157.329556,32.2300005 157.581553,32.373999 157.941555,32.566 C158.517558,32.7940011 159.171551,32.908 159.903555,32.908 C160.82756,32.908 161.493553,32.6680024 161.901555,32.188 C162.249557,31.779998 162.423555,31.1560042 162.423555,30.316 L162.423555,28.732 C161.835552,29.8240055 160.881562,30.37 159.561555,30.37 C158.277548,30.37 157.311558,29.8960047 156.663555,28.948 C156.111552,28.1319959 155.835555,27.0460068 155.835555,25.69 C155.835555,24.2259927 156.141552,23.0800041 156.753555,22.252 C157.425558,21.3279954 158.433548,20.866 159.777555,20.866 C160.329558,20.866 160.839553,20.9799989 161.307555,21.208 C161.835558,21.4600013 162.213554,21.8139977 162.441555,22.27 L162.477555,21.172 L164.115555,21.172 L164.115555,30.406 Z M162.477555,25.474 C162.477555,23.9739925 162.033559,22.9840024 161.145555,22.504 C160.833553,22.3479992 160.467557,22.27 160.047555,22.27 C158.415547,22.27 157.599555,23.3979887 157.599555,25.654 C157.599555,26.6980052 157.785553,27.4959972 158.157555,28.048 C158.565557,28.6600031 159.171551,28.966 159.975555,28.966 C161.223561,28.966 162.009553,28.2520071 162.333555,26.824 C162.429555,26.4039979 162.477555,25.9540024 162.477555,25.474 Z M175.149555,26.536 L168.633555,26.536 C168.681555,28.0720077 169.137551,29.1039974 170.001555,29.632 C170.313556,29.836001 170.697553,29.938 171.153555,29.938 C172.25756,29.938 173.001553,29.4700047 173.385555,28.534 L174.843555,29.254 C174.135551,30.6220068 172.887564,31.306 171.099555,31.306 C169.731548,31.306 168.675559,30.802005 167.931555,29.794 C167.247551,28.8699954 166.905555,27.6400077 166.905555,26.104 C166.905555,24.6159926 167.253551,23.3920048 167.949555,22.432 C168.705559,21.3879948 169.761548,20.866 171.117555,20.866 C172.437562,20.866 173.451551,21.3279954 174.159555,22.252 C174.819558,23.1280044 175.149555,24.267993 175.149555,25.672 L175.149555,26.536 Z M173.421555,25.276 C173.325554,23.883993 172.917559,22.9420025 172.197555,22.45 C171.909553,22.257999 171.549557,22.162 171.117555,22.162 C170.025549,22.162 169.281557,22.8279933 168.885555,24.16 C168.777554,24.5320019 168.705555,24.9039981 168.669555,25.276 L173.421555,25.276 Z M185.481555,31 L183.789555,31 L183.789555,24.34 C183.789555,22.9719932 183.177561,22.288 181.953555,22.288 C180.813549,22.288 180.069557,22.983993 179.721555,24.376 C179.613554,24.772002 179.559555,25.1799979 179.559555,25.6 L179.559555,31 L177.867555,31 L177.867555,21.172 L179.523555,21.172 L179.559555,22.468 C180.267558,21.3999947 181.245549,20.866 182.493555,20.866 C183.44156,20.866 184.176552,21.1449972 184.698555,21.703 C185.220558,22.2610028 185.481555,23.0019954 185.481555,23.926 L185.481555,31 Z M201.519555,26.536 L195.003555,26.536 C195.051555,28.0720077 195.507551,29.1039974 196.371555,29.632 C196.683556,29.836001 197.067553,29.938 197.523555,29.938 C198.62756,29.938 199.371553,29.4700047 199.755555,28.534 L201.213555,29.254 C200.505551,30.6220068 199.257564,31.306 197.469555,31.306 C196.101548,31.306 195.045559,30.802005 194.301555,29.794 C193.617551,28.8699954 193.275555,27.6400077 193.275555,26.104 C193.275555,24.6159926 193.623551,23.3920048 194.319555,22.432 C195.075559,21.3879948 196.131548,20.866 197.487555,20.866 C198.807562,20.866 199.821551,21.3279954 200.529555,22.252 C201.189558,23.1280044 201.519555,24.267993 201.519555,25.672 L201.519555,26.536 Z M199.791555,25.276 C199.695554,23.883993 199.287559,22.9420025 198.567555,22.45 C198.279553,22.257999 197.919557,22.162 197.487555,22.162 C196.395549,22.162 195.651557,22.8279933 195.255555,24.16 C195.147554,24.5320019 195.075555,24.9039981 195.039555,25.276 L199.791555,25.276 Z M209.421555,21.172 L209.277555,22.63 C208.953553,22.5579996 208.635556,22.522 208.323555,22.522 C207.219549,22.522 206.487557,23.0739945 206.127555,24.178 C205.995554,24.5620019 205.929555,25.0239973 205.929555,25.564 L205.929555,31 L204.237555,31 L204.237555,21.172 L205.875555,21.172 L205.911555,22.522 C206.475558,21.5499951 207.309549,21.064 208.413555,21.064 C208.761557,21.064 209.097553,21.0999996 209.421555,21.172 Z M212.841555,31 L211.149555,31 L211.149555,17.932 L212.841555,17.932 L212.841555,31 Z M223.173555,31 L221.553555,31 C221.457554,30.7239986 221.391555,30.3760021 221.355555,29.956 C220.599551,30.8560045 219.627561,31.306 218.439555,31.306 C217.49155,31.306 216.741558,31.0180029 216.189555,30.442 C215.685552,29.9139974 215.433555,29.248004 215.433555,28.444 C215.433555,26.5479905 216.531544,25.4500015 218.727555,25.15 L221.211555,24.808 L221.211555,23.764 C221.211555,22.6479944 220.581561,22.09 219.321555,22.09 C218.733552,22.09 218.265557,22.2399985 217.917555,22.54 C217.629553,22.7920013 217.401556,23.121998 217.233555,23.53 L215.757555,22.954 C215.949556,22.3779971 216.327552,21.8980019 216.891555,21.514 C217.539558,21.0819978 218.34955,20.866 219.321555,20.866 C221.685567,20.866 222.867555,21.8379903 222.867555,23.782 L222.867555,29.308 C222.867555,29.9320031 222.969554,30.4959975 223.173555,31 Z M221.211555,27.742 L221.211555,26.032 L218.997555,26.338 C217.761549,26.5060008 217.143555,27.1839941 217.143555,28.372 C217.143555,28.8880026 217.287553,29.2929985 217.575555,29.587 C217.863556,29.8810015 218.265552,30.028 218.781555,30.028 C219.453558,30.028 220.026553,29.8120022 220.500555,29.38 C220.974557,28.9479978 221.211555,28.4020033 221.211555,27.742 Z M233.739555,31 L232.101555,31 L232.047555,29.704 C231.363551,30.7720053 230.415561,31.306 229.203555,31.306 C228.23155,31.306 227.478558,31.0300028 226.944555,30.478 C226.410552,29.9259972 226.143555,29.1760047 226.143555,28.228 L226.143555,21.172 L227.835555,21.172 L227.835555,27.922 C227.835555,29.2300065 228.441549,29.884 229.653555,29.884 C230.781561,29.884 231.531553,29.188007 231.903555,27.796 C231.999555,27.4119981 232.047555,27.0100021 232.047555,26.59 L232.047555,21.172 L233.739555,21.172 L233.739555,31 Z M245.295555,25.924 C245.295555,27.4480076 244.995558,28.6839953 244.395555,29.632 C243.675551,30.7480056 242.661561,31.306 241.353555,31.306 C240.45355,31.306 239.721558,31.0360027 239.157555,30.496 C238.953554,30.3159991 238.791556,30.0940013 238.671555,29.83 L238.635555,31 L237.015555,31 L237.015555,17.932 L238.707555,17.932 L238.707555,22.504 C239.343558,21.4119945 240.297549,20.866 241.569555,20.866 C242.457559,20.866 243.213552,21.1599971 243.837555,21.748 C244.401558,22.2640026 244.803554,22.9719955 245.043555,23.872 C245.211556,24.4960031 245.295555,25.1799963 245.295555,25.924 Z M243.531555,26.086 C243.531555,24.9459943 243.345557,24.0400034 242.973555,23.368 C242.553553,22.6359963 241.947559,22.27 241.155555,22.27 C239.919549,22.27 239.133557,23.0859918 238.797555,24.718 C238.701554,25.1860023 238.653555,25.6599976 238.653555,26.14 C238.653555,27.7960083 239.10355,28.9419968 240.003555,29.578 C240.303556,29.7940011 240.663553,29.902 241.083555,29.902 C241.971559,29.902 242.625553,29.4580044 243.045555,28.57 C243.369557,27.8979966 243.531555,27.0700049 243.531555,26.086 Z M255.843555,26.536 L249.327555,26.536 C249.375555,28.0720077 249.831551,29.1039974 250.695555,29.632 C251.007556,29.836001 251.391553,29.938 251.847555,29.938 C252.95156,29.938 253.695553,29.4700047 254.079555,28.534 L255.537555,29.254 C254.829551,30.6220068 253.581564,31.306 251.793555,31.306 C250.425548,31.306 249.369559,30.802005 248.625555,29.794 C247.941551,28.8699954 247.599555,27.6400077 247.599555,26.104 C247.599555,24.6159926 247.947551,23.3920048 248.643555,22.432 C249.399559,21.3879948 250.455548,20.866 251.811555,20.866 C253.131562,20.866 254.145551,21.3279954 254.853555,22.252 C255.513558,23.1280044 255.843555,24.267993 255.843555,25.672 L255.843555,26.536 Z M254.115555,25.276 C254.019554,23.883993 253.611559,22.9420025 252.891555,22.45 C252.603553,22.257999 252.243557,22.162 251.811555,22.162 C250.719549,22.162 249.975557,22.8279933 249.579555,24.16 C249.471554,24.5320019 249.399555,24.9039981 249.363555,25.276 L254.115555,25.276 Z M266.175555,31 L264.483555,31 L264.483555,24.34 C264.483555,22.9719932 263.871561,22.288 262.647555,22.288 C261.507549,22.288 260.763557,22.983993 260.415555,24.376 C260.307554,24.772002 260.253555,25.1799979 260.253555,25.6 L260.253555,31 L258.561555,31 L258.561555,21.172 L260.217555,21.172 L260.253555,22.468 C260.961558,21.3999947 261.939549,20.866 263.187555,20.866 C264.13556,20.866 264.870552,21.1449972 265.392555,21.703 C265.914558,22.2610028 266.175555,23.0019954 266.175555,23.926 L266.175555,31 Z" id="Mitteilungenerlauben"></path>
            </g>
        </g>
    </g>
</svg>