<?xml version="1.0" encoding="UTF-8"?>
<svg width="171px" height="15px" viewBox="0 0 171 15" version="1.1" xmlns="http://www.w3.org/2000/svg" xmlns:xlink="http://www.w3.org/1999/xlink">
    <!-- Generator: Sketch 53.2 (72643) - https://sketchapp.com -->
    <title>EnableNotifications</title>
    <desc>Created with Sketch.</desc>
    <g id="Page-1" stroke="none" stroke-width="1" fill="none" fill-rule="evenodd">
        <g id="Enable-Notifications-Copy" transform="translate(-103.000000, -554.000000)" fill="#FFFFFF" fill-rule="nonzero">
            <g id="Group-4" transform="translate(15.000000, 537.000000)">
                <path d="M97.0475549,31 L88.4975549,31 L88.4975549,17.932 L96.7775549,17.932 L96.7775549,19.516 L90.2975549,19.516 L90.2975549,23.548 L96.3995549,23.548 L96.3995549,25.15 L90.2975549,25.15 L90.2975549,29.416 L97.0475549,29.416 L97.0475549,31 Z M107.235555,31 L105.543555,31 L105.543555,24.34 C105.543555,22.9719932 104.931561,22.288 103.707555,22.288 C102.567549,22.288 101.823557,22.983993 101.475555,24.376 C101.367554,24.772002 101.313555,25.1799979 101.313555,25.6 L101.313555,31 L99.6215549,31 L99.6215549,21.172 L101.277555,21.172 L101.313555,22.468 C102.021558,21.3999947 102.999549,20.866 104.247555,20.866 C105.19556,20.866 105.930552,21.1449972 106.452555,21.703 C106.974558,22.2610028 107.235555,23.0019954 107.235555,23.926 L107.235555,31 Z M117.567555,31 L115.947555,31 C115.851554,30.7239986 115.785555,30.3760021 115.749555,29.956 C114.993551,30.8560045 114.021561,31.306 112.833555,31.306 C111.88555,31.306 111.135558,31.0180029 110.583555,30.442 C110.079552,29.9139974 109.827555,29.248004 109.827555,28.444 C109.827555,26.5479905 110.925544,25.4500015 113.121555,25.15 L115.605555,24.808 L115.605555,23.764 C115.605555,22.6479944 114.975561,22.09 113.715555,22.09 C113.127552,22.09 112.659557,22.2399985 112.311555,22.54 C112.023553,22.7920013 111.795556,23.121998 111.627555,23.53 L110.151555,22.954 C110.343556,22.3779971 110.721552,21.8980019 111.285555,21.514 C111.933558,21.0819978 112.74355,20.866 113.715555,20.866 C116.079567,20.866 117.261555,21.8379903 117.261555,23.782 L117.261555,29.308 C117.261555,29.9320031 117.363554,30.4959975 117.567555,31 Z M115.605555,27.742 L115.605555,26.032 L113.391555,26.338 C112.155549,26.5060008 111.537555,27.1839941 111.537555,28.372 C111.537555,28.8880026 111.681553,29.2929985 111.969555,29.587 C112.257556,29.8810015 112.659552,30.028 113.175555,30.028 C113.847558,30.028 114.420553,29.8120022 114.894555,29.38 C115.368557,28.9479978 115.605555,28.4020033 115.605555,27.742 Z M128.817555,25.924 C128.817555,27.4480076 128.517558,28.6839953 127.917555,29.632 C127.197551,30.7480056 126.183561,31.306 124.875555,31.306 C123.97555,31.306 123.243558,31.0360027 122.679555,30.496 C122.475554,30.3159991 122.313556,30.0940013 122.193555,29.83 L122.157555,31 L120.537555,31 L120.537555,17.932 L122.229555,17.932 L122.229555,22.504 C122.865558,21.4119945 123.819549,20.866 125.091555,20.866 C125.979559,20.866 126.735552,21.1599971 127.359555,21.748 C127.923558,22.2640026 128.325554,22.9719955 128.565555,23.872 C128.733556,24.4960031 128.817555,25.1799963 128.817555,25.924 Z M127.053555,26.086 C127.053555,24.9459943 126.867557,24.0400034 126.495555,23.368 C126.075553,22.6359963 125.469559,22.27 124.677555,22.27 C123.441549,22.27 122.655557,23.0859918 122.319555,24.718 C122.223554,25.1860023 122.175555,25.6599976 122.175555,26.14 C122.175555,27.7960083 122.62555,28.9419968 123.525555,29.578 C123.825556,29.7940011 124.185553,29.902 124.605555,29.902 C125.493559,29.902 126.147553,29.4580044 126.567555,28.57 C126.891557,27.8979966 127.053555,27.0700049 127.053555,26.086 Z M133.299555,31 L131.607555,31 L131.607555,17.932 L133.299555,17.932 L133.299555,31 Z M144.333555,26.536 L137.817555,26.536 C137.865555,28.0720077 138.321551,29.1039974 139.185555,29.632 C139.497556,29.836001 139.881553,29.938 140.337555,29.938 C141.44156,29.938 142.185553,29.4700047 142.569555,28.534 L144.027555,29.254 C143.319551,30.6220068 142.071564,31.306 140.283555,31.306 C138.915548,31.306 137.859559,30.802005 137.115555,29.794 C136.431551,28.8699954 136.089555,27.6400077 136.089555,26.104 C136.089555,24.6159926 136.437551,23.3920048 137.133555,22.432 C137.889559,21.3879948 138.945548,20.866 140.301555,20.866 C141.621562,20.866 142.635551,21.3279954 143.343555,22.252 C144.003558,23.1280044 144.333555,24.267993 144.333555,25.672 L144.333555,26.536 Z M142.605555,25.276 C142.509554,23.883993 142.101559,22.9420025 141.381555,22.45 C141.093553,22.257999 140.733557,22.162 140.301555,22.162 C139.209549,22.162 138.465557,22.8279933 138.069555,24.16 C137.961554,24.5320019 137.889555,24.9039981 137.853555,25.276 L142.605555,25.276 Z M161.739555,31 L159.705555,31 L153.801555,20.362 L153.801555,31 L152.055555,31 L152.055555,17.932 L154.089555,17.932 L159.993555,28.552 L159.993555,17.932 L161.739555,17.932 L161.739555,31 Z M173.223555,26.104 C173.223555,27.6520077 172.869558,28.8879954 172.161555,29.812 C171.393551,30.808005 170.295562,31.306 168.867555,31.306 C167.427548,31.306 166.335559,30.808005 165.591555,29.812 C164.883551,28.8879954 164.529555,27.6520077 164.529555,26.104 C164.529555,24.5439922 164.883551,23.3020046 165.591555,22.378 C166.347559,21.369995 167.439548,20.866 168.867555,20.866 C170.283562,20.866 171.381551,21.369995 172.161555,22.378 C172.869558,23.3020046 173.223555,24.5439922 173.223555,26.104 Z M171.495555,26.104 C171.495555,24.3519912 171.01556,23.176003 170.055555,22.576 C169.719553,22.371999 169.323557,22.27 168.867555,22.27 C167.583548,22.27 166.767557,23.0559921 166.419555,24.628 C166.311554,25.0960023 166.257555,25.5879974 166.257555,26.104 C166.257555,27.8440087 166.73755,29.0079971 167.697555,29.596 C168.021557,29.800001 168.411553,29.902 168.867555,29.902 C170.175561,29.902 171.003553,29.1220078 171.351555,27.562 C171.447555,27.1059977 171.495555,26.6200026 171.495555,26.104 Z M180.423555,30.964 C180.159554,31.0960007 179.583559,31.162 178.695555,31.162 C177.159547,31.162 176.391555,30.4180074 176.391555,28.93 L176.391555,22.54 L174.861555,22.54 L174.861555,21.172 L176.391555,21.172 L176.391555,18.724 L178.083555,18.724 L178.083555,21.172 L180.333555,21.172 L180.333555,22.54 L178.083555,22.54 L178.083555,28.588 C178.083555,28.996002 178.164554,29.2899991 178.326555,29.47 C178.488556,29.6500009 178.767553,29.74 179.163555,29.74 C179.727558,29.74 180.105554,29.6920005 180.297555,29.596 L180.423555,30.964 Z M184.167555,19.786 L182.475555,19.786 L182.475555,17.932 L184.167555,17.932 L184.167555,19.786 Z M184.167555,31 L182.475555,31 L182.475555,21.172 L184.167555,21.172 L184.167555,31 Z M191.925555,17.806 L191.835555,19.03 C191.583554,18.9459996 191.211557,18.904 190.719555,18.904 C189.927551,18.904 189.531555,19.3479956 189.531555,20.236 L189.531555,21.172 L191.835555,21.172 L191.835555,22.54 L189.531555,22.54 L189.531555,31 L187.839555,31 L187.839555,22.54 L186.291555,22.54 L186.291555,21.172 L187.839555,21.172 L187.839555,20.2 C187.839555,19.3719959 188.058553,18.7360022 188.496555,18.292 C188.934557,17.8479978 189.555551,17.626 190.359555,17.626 C191.103559,17.626 191.625553,17.6859994 191.925555,17.806 Z M195.345555,19.786 L193.653555,19.786 L193.653555,17.932 L195.345555,17.932 L195.345555,19.786 Z M195.345555,31 L193.653555,31 L193.653555,21.172 L195.345555,21.172 L195.345555,31 Z M205.929555,29.326 C205.257552,30.6460066 204.051564,31.306 202.311555,31.306 C200.943548,31.306 199.893559,30.7900052 199.161555,29.758 C198.477551,28.8219953 198.135555,27.6040075 198.135555,26.104 C198.135555,24.5799924 198.483551,23.3440047 199.179555,22.396 C199.935559,21.3759949 200.997548,20.866 202.365555,20.866 C204.069563,20.866 205.251552,21.5079936 205.911555,22.792 L204.525555,23.638 C204.285554,23.1459975 204.003557,22.795001 203.679555,22.585 C203.355553,22.3749989 202.923558,22.27 202.383555,22.27 C201.147549,22.27 200.361557,23.0439923 200.025555,24.592 C199.917554,25.0600023 199.863555,25.5639973 199.863555,26.104 C199.863555,27.8200086 200.31355,28.977997 201.213555,29.578 C201.537557,29.7940011 201.927553,29.902 202.383555,29.902 C203.247559,29.902 203.871553,29.602003 204.255555,29.002 C204.351555,28.8459992 204.435555,28.6900008 204.507555,28.534 L205.929555,29.326 Z M215.343555,31 L213.723555,31 C213.627554,30.7239986 213.561555,30.3760021 213.525555,29.956 C212.769551,30.8560045 211.797561,31.306 210.609555,31.306 C209.66155,31.306 208.911558,31.0180029 208.359555,30.442 C207.855552,29.9139974 207.603555,29.248004 207.603555,28.444 C207.603555,26.5479905 208.701544,25.4500015 210.897555,25.15 L213.381555,24.808 L213.381555,23.764 C213.381555,22.6479944 212.751561,22.09 211.491555,22.09 C210.903552,22.09 210.435557,22.2399985 210.087555,22.54 C209.799553,22.7920013 209.571556,23.121998 209.403555,23.53 L207.927555,22.954 C208.119556,22.3779971 208.497552,21.8980019 209.061555,21.514 C209.709558,21.0819978 210.51955,20.866 211.491555,20.866 C213.855567,20.866 215.037555,21.8379903 215.037555,23.782 L215.037555,29.308 C215.037555,29.9320031 215.139554,30.4959975 215.343555,31 Z M213.381555,27.742 L213.381555,26.032 L211.167555,26.338 C209.931549,26.5060008 209.313555,27.1839941 209.313555,28.372 C209.313555,28.8880026 209.457553,29.2929985 209.745555,29.587 C210.033556,29.8810015 210.435552,30.028 210.951555,30.028 C211.623558,30.028 212.196553,29.8120022 212.670555,29.38 C213.144557,28.9479978 213.381555,28.4020033 213.381555,27.742 Z M222.723555,30.964 C222.459554,31.0960007 221.883559,31.162 220.995555,31.162 C219.459547,31.162 218.691555,30.4180074 218.691555,28.93 L218.691555,22.54 L217.161555,22.54 L217.161555,21.172 L218.691555,21.172 L218.691555,18.724 L220.383555,18.724 L220.383555,21.172 L222.633555,21.172 L222.633555,22.54 L220.383555,22.54 L220.383555,28.588 C220.383555,28.996002 220.464554,29.2899991 220.626555,29.47 C220.788556,29.6500009 221.067553,29.74 221.463555,29.74 C222.027558,29.74 222.405554,29.6920005 222.597555,29.596 L222.723555,30.964 Z M226.467555,19.786 L224.775555,19.786 L224.775555,17.932 L226.467555,17.932 L226.467555,19.786 Z M226.467555,31 L224.775555,31 L224.775555,21.172 L226.467555,21.172 L226.467555,31 Z M237.951555,26.104 C237.951555,27.6520077 237.597558,28.8879954 236.889555,29.812 C236.121551,30.808005 235.023562,31.306 233.595555,31.306 C232.155548,31.306 231.063559,30.808005 230.319555,29.812 C229.611551,28.8879954 229.257555,27.6520077 229.257555,26.104 C229.257555,24.5439922 229.611551,23.3020046 230.319555,22.378 C231.075559,21.369995 232.167548,20.866 233.595555,20.866 C235.011562,20.866 236.109551,21.369995 236.889555,22.378 C237.597558,23.3020046 237.951555,24.5439922 237.951555,26.104 Z M236.223555,26.104 C236.223555,24.3519912 235.74356,23.176003 234.783555,22.576 C234.447553,22.371999 234.051557,22.27 233.595555,22.27 C232.311548,22.27 231.495557,23.0559921 231.147555,24.628 C231.039554,25.0960023 230.985555,25.5879974 230.985555,26.104 C230.985555,27.8440087 231.46555,29.0079971 232.425555,29.596 C232.749557,29.800001 233.139553,29.902 233.595555,29.902 C234.903561,29.902 235.731553,29.1220078 236.079555,27.562 C236.175555,27.1059977 236.223555,26.6200026 236.223555,26.104 Z M248.355555,31 L246.663555,31 L246.663555,24.34 C246.663555,22.9719932 246.051561,22.288 244.827555,22.288 C243.687549,22.288 242.943557,22.983993 242.595555,24.376 C242.487554,24.772002 242.433555,25.1799979 242.433555,25.6 L242.433555,31 L240.741555,31 L240.741555,21.172 L242.397555,21.172 L242.433555,22.468 C243.141558,21.3999947 244.119549,20.866 245.367555,20.866 C246.31556,20.866 247.050552,21.1449972 247.572555,21.703 C248.094558,22.2610028 248.355555,23.0019954 248.355555,23.926 L248.355555,31 Z M258.273555,28.264 C258.273555,29.3080052 257.895559,30.0939974 257.139555,30.622 C256.479552,31.0780023 255.61556,31.306 254.547555,31.306 C253.407549,31.306 252.483558,31.0600025 251.775555,30.568 C251.235552,30.1959981 250.857556,29.7160029 250.641555,29.128 L252.063555,28.426 C252.519557,29.4460051 253.347549,29.956 254.547555,29.956 C255.927562,29.956 256.617555,29.4340052 256.617555,28.39 C256.617555,27.9339977 256.443557,27.5800013 256.095555,27.328 C255.867554,27.1479991 255.483558,26.9860007 254.943555,26.842 L253.521555,26.446 C251.769546,25.9539975 250.893555,25.0420067 250.893555,23.71 C250.893555,22.7499952 251.265551,22.0180025 252.009555,21.514 C252.657558,21.0819978 253.47955,20.866 254.475555,20.866 C255.41156,20.866 256.209552,21.0459982 256.869555,21.406 C257.337557,21.6580013 257.733553,22.0119977 258.057555,22.468 L256.833555,23.422 C256.545553,22.9299975 256.089558,22.5700011 255.465555,22.342 C255.177553,22.2459995 254.835557,22.198 254.439555,22.198 C253.131548,22.198 252.477555,22.6839951 252.477555,23.656 C252.477555,24.3160033 253.029549,24.7959985 254.133555,25.096 L255.537555,25.474 C256.401559,25.7020011 257.043553,26.0019981 257.463555,26.374 C258.003558,26.8420023 258.273555,27.471996 258.273555,28.264 Z" id="EnableNotifications"></path>
            </g>
        </g>
    </g>
</svg>