<?xml version="1.0" encoding="UTF-8"?>
<svg class="textBox" preserveAspectRatio="xMinYMin meet" viewBox="0 0 332 112" version="1.1" xmlns="http://www.w3.org/2000/svg" xmlns:xlink="http://www.w3.org/1999/xlink">
    <g id="Page-1" stroke="none" stroke-width="1" fill="none" fill-rule="evenodd">
        <g id="Main-artboard" transform="translate(-1333.000000, -2118.000000)">
            <g id="Group-4" transform="translate(1333.000000, 2114.000000)">
                <path d="M21.528,4.576 L17.256,22 L14.424,22 L11.016,7.792 L7.44,22 L4.584,22 L0.6,4.576 L3.144,4.576 L6.288,19.336 L9.744,4.576 L12.36,4.576 L15.696,19.36 L19.032,4.576 L21.528,4.576 Z M33.78,22 L31.524,22 L31.524,13.12 C31.524,11.2959909 30.7080082,10.384 29.076,10.384 C27.5399923,10.384 26.5480022,11.3119907 26.1,13.168 C25.9719994,13.6960026 25.908,14.2399972 25.908,14.8 L25.908,22 L23.652,22 L23.652,4.576 L25.908,4.576 L25.908,10.456 C26.8360046,9.14399344 28.1319917,8.488 29.796,8.488 C31.0600063,8.488 32.0399965,8.85999628 32.736,9.604 C33.4320035,10.3480037 33.78,11.3359938 33.78,12.568 L33.78,22 Z M45.906,22 L43.746,22 C43.6179994,21.6319982 43.5300002,21.1680028 43.482,20.608 C42.473995,21.808006 41.1780079,22.408 39.594,22.408 C38.3299937,22.408 37.3300037,22.0240038 36.594,21.256 C35.9219966,20.5519965 35.586,19.6640054 35.586,18.592 C35.586,16.0639874 37.0499854,14.600002 39.978,14.2 L43.29,13.744 L43.29,12.352 C43.29,10.8639926 42.4500084,10.12 40.77,10.12 C39.9859961,10.12 39.3620023,10.319998 38.898,10.72 C38.5139981,11.0560017 38.2100011,11.4959973 37.986,12.04 L36.018,11.272 C36.2740013,10.5039962 36.7779962,9.86400256 37.53,9.352 C38.3940043,8.77599712 39.4739935,8.488 40.77,8.488 C43.9220158,8.488 45.498,9.78398704 45.498,12.376 L45.498,19.744 C45.498,20.5760042 45.6339986,21.3279966 45.906,22 Z M43.29,17.656 L43.29,15.376 L40.338,15.784 C38.6899918,16.0080011 37.866,16.9119921 37.866,18.496 C37.866,19.1840034 38.0579981,19.723998 38.442,20.116 C38.8260019,20.508002 39.3619966,20.704 40.05,20.704 C40.9460045,20.704 41.7099968,20.4160029 42.342,19.84 C42.9740032,19.2639971 43.29,18.5360044 43.29,17.656 Z M54.756,21.952 C54.4039982,22.1280009 53.6360059,22.216 52.452,22.216 C50.4039898,22.216 49.38,21.2240099 49.38,19.24 L49.38,10.72 L47.34,10.72 L47.34,8.896 L49.38,8.896 L49.38,5.632 L51.636,5.632 L51.636,8.896 L54.636,8.896 L54.636,10.72 L51.636,10.72 L51.636,18.784 C51.636,19.3280027 51.7439989,19.7199988 51.96,19.96 C52.1760011,20.2000012 52.5479974,20.32 53.076,20.32 C53.8280038,20.32 54.3319987,20.2560006 54.588,20.128 L54.756,21.952 Z M60.228,7.312 C60.228,8.09600392 60.132001,8.74399744 59.94,9.256 C59.747999,9.76800256 59.4040025,10.3119971 58.908,10.888 C58.5879984,11.2400018 58.2840014,11.5439987 57.996,11.8 L57.06,10.816 C58.1000052,9.82399504 58.62,8.88000448 58.62,7.984 L58.62,7.768 L57.516,7.768 L57.516,4.576 L60.228,4.576 L60.228,7.312 Z M71.37,18.352 C71.37,19.744007 70.866005,20.7919965 69.858,21.496 C68.9779956,22.104003 67.8260071,22.408 66.402,22.408 C64.8819924,22.408 63.6500047,22.0800033 62.706,21.424 C61.9859964,20.9279975 61.4820014,20.2880039 61.194,19.504 L63.09,18.568 C63.698003,19.9280068 64.801992,20.608 66.402,20.608 C68.2420092,20.608 69.162,19.912007 69.162,18.52 C69.162,17.911997 68.9300023,17.4400017 68.466,17.104 C68.1619985,16.8639988 67.6500036,16.648001 66.93,16.456 L65.034,15.928 C62.6979883,15.2719967 61.53,14.0560089 61.53,12.28 C61.53,10.9999936 62.025995,10.0240034 63.018,9.352 C63.8820043,8.77599712 64.9779934,8.488 66.306,8.488 C67.5540062,8.488 68.6179956,8.7279976 69.498,9.208 C70.1220031,9.54400168 70.6499978,10.015997 71.082,10.624 L69.45,11.896 C69.0659981,11.2399967 68.4580042,10.7600015 67.626,10.456 C67.2419981,10.3279994 66.7860026,10.264 66.258,10.264 C64.5139913,10.264 63.642,10.9119935 63.642,12.208 C63.642,13.0880044 64.3779926,13.727998 65.85,14.128 L67.722,14.632 C68.8740058,14.9360015 69.7299972,15.3359975 70.29,15.832 C71.0100036,16.4560031 71.37,17.2959947 71.37,18.352 Z M94.29,22 L91.578,22 L83.706,7.816 L83.706,22 L81.378,22 L81.378,4.576 L84.09,4.576 L91.962,18.736 L91.962,4.576 L94.29,4.576 L94.29,22 Z M106.692,16.048 L98.004,16.048 C98.0680003,18.0960102 98.6759942,19.4719965 99.828,20.176 C100.244002,20.4480014 100.755997,20.584 101.364,20.584 C102.836007,20.584 103.827997,19.9600062 104.34,18.712 L106.284,19.672 C105.339995,21.4960091 103.676012,22.408 101.292,22.408 C99.4679909,22.408 98.060005,21.7360067 97.068,20.392 C96.1559954,19.1599938 95.7,17.5200102 95.7,15.472 C95.7,13.4879901 96.1639954,11.8560064 97.092,10.576 C98.100005,9.18399304 99.507991,8.488 101.316,8.488 C103.076009,8.488 104.427995,9.10399384 105.372,10.336 C106.252004,11.5040058 106.692,13.0239906 106.692,14.896 L106.692,16.048 Z M104.388,14.368 C104.259999,12.5119907 103.716005,11.2560033 102.756,10.6 C102.371998,10.3439987 101.892003,10.216 101.316,10.216 C99.8599927,10.216 98.8680026,11.1039911 98.34,12.88 C98.1959993,13.3760025 98.1000002,13.8719975 98.052,14.368 L104.388,14.368 Z M125.616,8.896 L122.04,22 L119.256,22 L116.736,11.488 L114.216,22 L111.408,22 L107.832,8.896 L110.184,8.896 L112.848,19.912 L115.56,8.896 L118.008,8.896 L120.672,19.912 L123.408,8.896 L125.616,8.896 Z" id="What’s-New-Copy-3" fill="#A0A0A0"></path>
                <polygon id="Hi---Lite-Bar-Copy-6" fill="#D8D8D8" fill-rule="nonzero" points="0 43 0 39 78 39 75.1111111 43"></polygon>
                <path d="M11.508,77 L10.192,77 L10.192,68.362 L7.028,77 L5.628,77 L2.59,68.376 L2.59,77 L1.274,77 L1.274,66.836 L3.346,66.836 L6.37,75.432 L9.506,66.836 L11.508,66.836 L11.508,77 Z M19.544,77 L18.284,77 C18.209333,76.7853323 18.1580001,76.5146683 18.13,76.188 C17.5419971,76.8880035 16.7860046,77.238 15.862,77.238 C15.124663,77.238 14.5413355,77.0140022 14.112,76.566 C13.719998,76.1553313 13.524,75.6373365 13.524,75.012 C13.524,73.537326 14.3779915,72.6833345 16.086,72.45 L18.018,72.184 L18.018,71.372 C18.018,70.5039957 17.5280049,70.07 16.548,70.07 C16.0906644,70.07 15.726668,70.1866655 15.456,70.42 C15.2319989,70.616001 15.0546673,70.8726651 14.924,71.19 L13.776,70.742 C13.9253341,70.2939978 14.2193311,69.9206682 14.658,69.622 C15.1620025,69.2859983 15.7919962,69.118 16.548,69.118 C18.3866759,69.118 19.306,69.8739924 19.306,71.386 L19.306,75.684 C19.306,76.1693358 19.3853325,76.607998 19.544,77 Z M18.018,74.466 L18.018,73.136 L16.296,73.374 C15.3346619,73.5046673 14.854,74.0319954 14.854,74.956 C14.854,75.3573353 14.9659989,75.6723322 15.19,75.901 C15.4140011,76.1296678 15.7266647,76.244 16.128,76.244 C16.6506693,76.244 17.0963315,76.0760017 17.465,75.74 C17.8336685,75.4039983 18.018,74.9793359 18.018,74.466 Z M27.776,77 L26.46,77 L26.46,71.82 C26.46,70.7559947 25.9840048,70.224 25.032,70.224 C24.1453289,70.224 23.566668,70.7653279 23.296,71.848 C23.2119996,72.1560015 23.17,72.4733317 23.17,72.8 L23.17,77 L21.854,77 L21.854,69.356 L23.142,69.356 L23.17,70.364 C23.7206694,69.5333292 24.4813285,69.118 25.452,69.118 C26.189337,69.118 26.760998,69.3349978 27.167,69.769 C27.573002,70.2030022 27.776,70.7793297 27.776,71.498 L27.776,77 Z M35.812,77 L34.552,77 C34.477333,76.7853323 34.4260001,76.5146683 34.398,76.188 C33.8099971,76.8880035 33.0540046,77.238 32.13,77.238 C31.392663,77.238 30.8093355,77.0140022 30.38,76.566 C29.987998,76.1553313 29.792,75.6373365 29.792,75.012 C29.792,73.537326 30.6459915,72.6833345 32.354,72.45 L34.286,72.184 L34.286,71.372 C34.286,70.5039957 33.7960049,70.07 32.816,70.07 C32.3586644,70.07 31.994668,70.1866655 31.724,70.42 C31.4999989,70.616001 31.3226673,70.8726651 31.192,71.19 L30.044,70.742 C30.1933341,70.2939978 30.4873311,69.9206682 30.926,69.622 C31.4300025,69.2859983 32.0599962,69.118 32.816,69.118 C34.6546759,69.118 35.574,69.8739924 35.574,71.386 L35.574,75.684 C35.574,76.1693358 35.6533325,76.607998 35.812,77 Z M34.286,74.466 L34.286,73.136 L32.564,73.374 C31.6026619,73.5046673 31.122,74.0319954 31.122,74.956 C31.122,75.3573353 31.2339989,75.6723322 31.458,75.901 C31.6820011,76.1296678 31.9946647,76.244 32.396,76.244 C32.9186693,76.244 33.3643315,76.0760017 33.733,75.74 C34.1016685,75.4039983 34.286,74.9793359 34.286,74.466 Z M44.184,76.538 C44.184,77.5833386 43.8713365,78.3673307 43.246,78.89 C42.6859972,79.3473356 41.9160049,79.576 40.936,79.576 C40.1333293,79.576 39.4380029,79.4546679 38.85,79.212 C38.5046649,79.0719993 38.2620007,78.9320007 38.122,78.792 L38.794,77.882 C38.9060006,77.956667 39.1019986,78.0686659 39.382,78.218 C39.8300022,78.3953342 40.3386638,78.484 40.908,78.484 C41.6266703,78.484 42.1446651,78.2973352 42.462,77.924 C42.732668,77.6066651 42.868,77.1213366 42.868,76.468 L42.868,75.236 C42.4106644,76.0853376 41.6686718,76.51 40.642,76.51 C39.6433283,76.51 38.8920025,76.141337 38.388,75.404 C37.9586645,74.7693302 37.744,73.9246719 37.744,72.87 C37.744,71.7313276 37.9819976,70.8400032 38.458,70.196 C38.9806693,69.4773297 39.7646614,69.118 40.81,69.118 C41.2393355,69.118 41.6359982,69.2066658 42,69.384 C42.4106687,69.580001 42.7046658,69.8553316 42.882,70.21 L42.91,69.356 L44.184,69.356 L44.184,76.538 Z M42.91,72.702 C42.91,71.5353275 42.5646701,70.7653352 41.874,70.392 C41.6313321,70.2706661 41.3466683,70.21 41.02,70.21 C39.7506603,70.21 39.116,71.0873246 39.116,72.842 C39.116,73.6540041 39.2606652,74.2746645 39.55,74.704 C39.8673349,75.1800024 40.3386635,75.418 40.964,75.418 C41.9346715,75.418 42.5459987,74.8626722 42.798,73.752 C42.872667,73.4253317 42.91,73.0753352 42.91,72.702 Z M52.766,73.528 L47.698,73.528 C47.7353335,74.7226726 48.0899966,75.5253313 48.762,75.936 C49.0046679,76.0946675 49.3033316,76.174 49.658,76.174 C50.516671,76.174 51.0953318,75.8100036 51.394,75.082 L52.528,75.642 C51.9773306,76.7060053 51.0066736,77.238 49.616,77.238 C48.5519947,77.238 47.7306696,76.8460039 47.152,76.062 C46.6199973,75.3433297 46.354,74.3866726 46.354,73.192 C46.354,72.0346609 46.624664,71.0826704 47.166,70.336 C47.7540029,69.5239959 48.5753281,69.118 49.63,69.118 C50.6566718,69.118 51.4453306,69.4773297 51.996,70.196 C52.5093359,70.8773367 52.766,71.7639945 52.766,72.856 L52.766,73.528 Z M51.422,72.548 C51.347333,71.4653279 51.0300028,70.7326686 50.47,70.35 C50.2459989,70.2006659 49.9660017,70.126 49.63,70.126 C48.7806624,70.126 48.2020015,70.6439948 47.894,71.68 C47.8099996,71.9693348 47.7540001,72.2586652 47.726,72.548 L51.422,72.548 Z M64.386,69.356 L61.418,78.022 C61.0633316,79.0580052 60.382005,79.576 59.374,79.576 C58.9353311,79.576 58.5013355,79.5106673 58.072,79.38 L58.31,78.288 C58.6273349,78.4000006 58.9073321,78.456 59.15,78.456 C59.6726693,78.456 60.0273324,78.1806694 60.214,77.63 L60.55,76.65 L57.666,69.356 L59.094,69.356 L61.194,74.844 L63.028,69.356 L64.386,69.356 Z M72.212,73.192 C72.212,74.396006 71.9366694,75.3573297 71.386,76.076 C70.7886637,76.8506705 69.9346722,77.238 68.824,77.238 C67.7039944,77.238 66.8546696,76.8506705 66.276,76.076 C65.7253306,75.3573297 65.45,74.396006 65.45,73.192 C65.45,71.9786606 65.7253306,71.0126703 66.276,70.294 C66.8640029,69.5099961 67.7133278,69.118 68.824,69.118 C69.9253388,69.118 70.7793303,69.5099961 71.386,70.294 C71.9366694,71.0126703 72.212,71.9786606 72.212,73.192 Z M70.868,73.192 C70.868,71.8293265 70.4946704,70.914669 69.748,70.448 C69.4866654,70.2893325 69.1786684,70.21 68.824,70.21 C67.8253283,70.21 67.190668,70.8213272 66.92,72.044 C66.8359996,72.4080018 66.794,72.7906647 66.794,73.192 C66.794,74.5453401 67.1673296,75.4506644 67.914,75.908 C68.1660013,76.0666675 68.4693316,76.146 68.824,76.146 C69.8413384,76.146 70.485332,75.5393394 70.756,74.326 C70.830667,73.9713316 70.868,73.5933353 70.868,73.192 Z M80.29,77 L79.016,77 L78.974,75.992 C78.4419973,76.8226708 77.7046714,77.238 76.762,77.238 C76.0059962,77.238 75.4203354,77.0233355 75.005,76.594 C74.5896646,76.1646645 74.382,75.581337 74.382,74.844 L74.382,69.356 L75.698,69.356 L75.698,74.606 C75.698,75.6233384 76.1693286,76.132 77.112,76.132 C77.9893377,76.132 78.5726652,75.5906721 78.862,74.508 C78.936667,74.2093318 78.974,73.8966683 78.974,73.57 L78.974,69.356 L80.29,69.356 L80.29,77 Z M86.87,69.356 L86.758,70.49 C86.5059987,70.4339997 86.2586679,70.406 86.016,70.406 C85.157329,70.406 84.5880014,70.835329 84.308,71.694 C84.2053328,71.9926682 84.154,72.3519979 84.154,72.772 L84.154,77 L82.838,77 L82.838,69.356 L84.112,69.356 L84.14,70.406 C84.5786689,69.6499962 85.227329,69.272 86.086,69.272 C86.356668,69.272 86.6179987,69.2999997 86.87,69.356 Z M99.666,73.99 C99.666,75.1006722 99.3020036,75.9033309 98.574,76.398 C97.9766637,76.7993353 97.1366721,77 96.054,77 L92.106,77 L92.106,66.836 L96.124,66.836 C97.057338,66.836 97.7759975,67.0133316 98.28,67.368 C98.8960031,67.7973355 99.204,68.4553289 99.204,69.342 C99.204,70.2660046 98.7980041,70.9846641 97.986,71.498 C99.1060056,71.890002 99.666,72.7206603 99.666,73.99 Z M97.748,69.496 C97.748,68.9359972 97.5846683,68.5393345 97.258,68.306 C96.9779986,68.1006656 96.5440029,67.998 95.956,67.998 L93.45,67.998 L93.45,71.036 L95.858,71.036 C96.7260043,71.036 97.2999986,70.7840025 97.58,70.28 C97.6920006,70.083999 97.748,69.8226683 97.748,69.496 Z M98.196,74.004 C98.196,73.3226633 97.9860021,72.8326682 97.566,72.534 C97.2393317,72.3099989 96.74467,72.198 96.082,72.198 L93.45,72.198 L93.45,75.838 L95.942,75.838 C97.4446742,75.838 98.196,75.2266728 98.196,74.004 Z M112.112,77 L110.796,77 L110.796,68.362 L107.632,77 L106.232,77 L103.194,68.376 L103.194,77 L101.878,77 L101.878,66.836 L103.95,66.836 L106.974,75.432 L110.11,66.836 L112.112,66.836 L112.112,77 Z M125.944,66.836 L123.452,77 L121.8,77 L119.812,68.712 L117.726,77 L116.06,77 L113.736,66.836 L115.22,66.836 L117.054,75.446 L119.07,66.836 L120.596,66.836 L122.542,75.46 L124.488,66.836 L125.944,66.836 Z M136.948,77 L135.688,77 C135.613333,76.7853323 135.562,76.5146683 135.534,76.188 C134.945997,76.8880035 134.190005,77.238 133.266,77.238 C132.528663,77.238 131.945335,77.0140022 131.516,76.566 C131.123998,76.1553313 130.928,75.6373365 130.928,75.012 C130.928,73.537326 131.781991,72.6833345 133.49,72.45 L135.422,72.184 L135.422,71.372 C135.422,70.5039957 134.932005,70.07 133.952,70.07 C133.494664,70.07 133.130668,70.1866655 132.86,70.42 C132.635999,70.616001 132.458667,70.8726651 132.328,71.19 L131.18,70.742 C131.329334,70.2939978 131.623331,69.9206682 132.062,69.622 C132.566003,69.2859983 133.195996,69.118 133.952,69.118 C135.790676,69.118 136.71,69.8739924 136.71,71.386 L136.71,75.684 C136.71,76.1693358 136.789333,76.607998 136.948,77 Z M135.422,74.466 L135.422,73.136 L133.7,73.374 C132.738662,73.5046673 132.258,74.0319954 132.258,74.956 C132.258,75.3573353 132.369999,75.6723322 132.594,75.901 C132.818001,76.1296678 133.130665,76.244 133.532,76.244 C134.054669,76.244 134.500331,76.0760017 134.869,75.74 C135.237669,75.4039983 135.422,74.9793359 135.422,74.466 Z M144.942,75.698 C144.419331,76.7246718 143.48134,77.238 142.128,77.238 C141.063995,77.238 140.247336,76.8366707 139.678,76.034 C139.145997,75.3059964 138.88,74.3586725 138.88,73.192 C138.88,72.0066607 139.150664,71.045337 139.692,70.308 C140.280003,69.5146627 141.105995,69.118 142.17,69.118 C143.49534,69.118 144.414664,69.6173283 144.928,70.616 L143.85,71.274 C143.663332,70.8913314 143.444001,70.6183342 143.192,70.455 C142.939999,70.2916659 142.604002,70.21 142.184,70.21 C141.222662,70.21 140.611335,70.811994 140.35,72.016 C140.266,72.3800018 140.224,72.7719979 140.224,73.192 C140.224,74.5266733 140.573997,75.427331 141.274,75.894 C141.526001,76.0620008 141.829332,76.146 142.184,76.146 C142.856003,76.146 143.341332,75.912669 143.64,75.446 C143.714667,75.3246661 143.78,75.2033339 143.836,75.082 L144.942,75.698 Z M152.46,75.698 C151.937331,76.7246718 150.99934,77.238 149.646,77.238 C148.581995,77.238 147.765336,76.8366707 147.196,76.034 C146.663997,75.3059964 146.398,74.3586725 146.398,73.192 C146.398,72.0066607 146.668664,71.045337 147.21,70.308 C147.798003,69.5146627 148.623995,69.118 149.688,69.118 C151.01334,69.118 151.932664,69.6173283 152.446,70.616 L151.368,71.274 C151.181332,70.8913314 150.962001,70.6183342 150.71,70.455 C150.457999,70.2916659 150.122002,70.21 149.702,70.21 C148.740662,70.21 148.129335,70.811994 147.868,72.016 C147.784,72.3800018 147.742,72.7719979 147.742,73.192 C147.742,74.5266733 148.091997,75.427331 148.792,75.894 C149.044001,76.0620008 149.347332,76.146 149.702,76.146 C150.374003,76.146 150.859332,75.912669 151.158,75.446 C151.232667,75.3246661 151.298,75.2033339 151.354,75.082 L152.46,75.698 Z M160.678,73.192 C160.678,74.396006 160.402669,75.3573297 159.852,76.076 C159.254664,76.8506705 158.400672,77.238 157.29,77.238 C156.169994,77.238 155.32067,76.8506705 154.742,76.076 C154.191331,75.3573297 153.916,74.396006 153.916,73.192 C153.916,71.9786606 154.191331,71.0126703 154.742,70.294 C155.330003,69.5099961 156.179328,69.118 157.29,69.118 C158.391339,69.118 159.24533,69.5099961 159.852,70.294 C160.402669,71.0126703 160.678,71.9786606 160.678,73.192 Z M159.334,73.192 C159.334,71.8293265 158.96067,70.914669 158.214,70.448 C157.952665,70.2893325 157.644668,70.21 157.29,70.21 C156.291328,70.21 155.656668,70.8213272 155.386,72.044 C155.302,72.4080018 155.26,72.7906647 155.26,73.192 C155.26,74.5453401 155.63333,75.4506644 156.38,75.908 C156.632001,76.0666675 156.935332,76.146 157.29,76.146 C158.307338,76.146 158.951332,75.5393394 159.222,74.326 C159.296667,73.9713316 159.334,73.5933353 159.334,73.192 Z M168.756,77 L167.482,77 L167.44,75.992 C166.907997,76.8226708 166.170671,77.238 165.228,77.238 C164.471996,77.238 163.886335,77.0233355 163.471,76.594 C163.055665,76.1646645 162.848,75.581337 162.848,74.844 L162.848,69.356 L164.164,69.356 L164.164,74.606 C164.164,75.6233384 164.635329,76.132 165.578,76.132 C166.455338,76.132 167.038665,75.5906721 167.328,74.508 C167.402667,74.2093318 167.44,73.8966683 167.44,73.57 L167.44,69.356 L168.756,69.356 L168.756,77 Z M177.226,77 L175.91,77 L175.91,71.82 C175.91,70.7559947 175.434005,70.224 174.482,70.224 C173.595329,70.224 173.016668,70.7653279 172.746,71.848 C172.662,72.1560015 172.62,72.4733317 172.62,72.8 L172.62,77 L171.304,77 L171.304,69.356 L172.592,69.356 L172.62,70.364 C173.170669,69.5333292 173.931328,69.118 174.902,69.118 C175.639337,69.118 176.210998,69.3349978 176.617,69.769 C177.023002,70.2030022 177.226,70.7793297 177.226,71.498 L177.226,77 Z M183.204,76.972 C182.998666,77.0746672 182.55067,77.126 181.86,77.126 C180.665327,77.126 180.068,76.5473391 180.068,75.39 L180.068,70.42 L178.878,70.42 L178.878,69.356 L180.068,69.356 L180.068,67.452 L181.384,67.452 L181.384,69.356 L183.134,69.356 L183.134,70.42 L181.384,70.42 L181.384,75.124 C181.384,75.4413349 181.446999,75.6699993 181.573,75.81 C181.699001,75.9500007 181.915998,76.02 182.224,76.02 C182.662669,76.02 182.956666,75.982667 183.106,75.908 L183.204,76.972 Z M198.002,69.356 L195.916,77 L194.292,77 L192.822,70.868 L191.352,77 L189.714,77 L187.628,69.356 L189,69.356 L190.554,75.782 L192.136,69.356 L193.564,69.356 L195.118,75.782 L196.714,69.356 L198.002,69.356 Z M200.802,68.278 L199.486,68.278 L199.486,66.836 L200.802,66.836 L200.802,68.278 Z M200.802,77 L199.486,77 L199.486,69.356 L200.802,69.356 L200.802,77 Z M206.78,76.972 C206.574666,77.0746672 206.12667,77.126 205.436,77.126 C204.241327,77.126 203.644,76.5473391 203.644,75.39 L203.644,70.42 L202.454,70.42 L202.454,69.356 L203.644,69.356 L203.644,67.452 L204.96,67.452 L204.96,69.356 L206.71,69.356 L206.71,70.42 L204.96,70.42 L204.96,75.124 C204.96,75.4413349 205.022999,75.6699993 205.149,75.81 C205.275001,75.9500007 205.491998,76.02 205.8,76.02 C206.238669,76.02 206.532666,75.982667 206.682,75.908 L206.78,76.972 Z M214.284,77 L212.968,77 L212.968,71.82 C212.968,70.7559947 212.492005,70.224 211.54,70.224 C210.643996,70.224 210.065335,70.7653279 209.804,71.848 C209.729333,72.1560015 209.692,72.4733317 209.692,72.8 L209.692,77 L208.376,77 L208.376,66.836 L209.692,66.836 L209.692,70.266 C210.233336,69.5006628 210.989328,69.118 211.96,69.118 C212.697337,69.118 213.268998,69.3349978 213.675,69.769 C214.081002,70.2030022 214.284,70.7793297 214.284,71.498 L214.284,77 Z M226.646,77 L225.33,77 L225.33,71.82 C225.33,70.7559947 224.854005,70.224 223.902,70.224 C223.015329,70.224 222.436668,70.7653279 222.166,71.848 C222.082,72.1560015 222.04,72.4733317 222.04,72.8 L222.04,77 L220.724,77 L220.724,69.356 L222.012,69.356 L222.04,70.364 C222.590669,69.5333292 223.351328,69.118 224.322,69.118 C225.059337,69.118 225.630998,69.3349978 226.037,69.769 C226.443002,70.2030022 226.646,70.7793297 226.646,71.498 L226.646,77 Z M235.228,73.528 L230.16,73.528 C230.197334,74.7226726 230.551997,75.5253313 231.224,75.936 C231.466668,76.0946675 231.765332,76.174 232.12,76.174 C232.978671,76.174 233.557332,75.8100036 233.856,75.082 L234.99,75.642 C234.439331,76.7060053 233.468674,77.238 232.078,77.238 C231.013995,77.238 230.19267,76.8460039 229.614,76.062 C229.081997,75.3433297 228.816,74.3866726 228.816,73.192 C228.816,72.0346609 229.086664,71.0826704 229.628,70.336 C230.216003,69.5239959 231.037328,69.118 232.092,69.118 C233.118672,69.118 233.907331,69.4773297 234.458,70.196 C234.971336,70.8773367 235.228,71.7639945 235.228,72.856 L235.228,73.528 Z M233.884,72.548 C233.809333,71.4653279 233.492003,70.7326686 232.932,70.35 C232.707999,70.2006659 232.428002,70.126 232.092,70.126 C231.242662,70.126 230.664002,70.6439948 230.356,71.68 C230.272,71.9693348 230.216,72.2586652 230.188,72.548 L233.884,72.548 Z M246.652,69.356 L244.566,77 L242.942,77 L241.472,70.868 L240.002,77 L238.364,77 L236.278,69.356 L237.65,69.356 L239.204,75.782 L240.786,69.356 L242.214,69.356 L243.768,75.782 L245.364,69.356 L246.652,69.356 Z M258.132,68.068 L253.428,68.068 L253.428,71.162 L257.586,71.162 L257.586,72.408 L253.428,72.408 L253.428,77 L252.028,77 L252.028,66.836 L258.132,66.836 L258.132,68.068 Z M261.142,68.278 L259.826,68.278 L259.826,66.836 L261.142,66.836 L261.142,68.278 Z M261.142,77 L259.826,77 L259.826,69.356 L261.142,69.356 L261.142,77 Z M269.612,77 L268.296,77 L268.296,71.82 C268.296,70.7559947 267.820005,70.224 266.868,70.224 C265.981329,70.224 265.402668,70.7653279 265.132,71.848 C265.048,72.1560015 265.006,72.4733317 265.006,72.8 L265.006,77 L263.69,77 L263.69,69.356 L264.978,69.356 L265.006,70.364 C265.556669,69.5333292 266.317328,69.118 267.288,69.118 C268.025337,69.118 268.596998,69.3349978 269.003,69.769 C269.409002,70.2030022 269.612,70.7793297 269.612,71.498 L269.612,77 Z M277.648,77 L276.388,77 C276.313333,76.7853323 276.262,76.5146683 276.234,76.188 C275.645997,76.8880035 274.890005,77.238 273.966,77.238 C273.228663,77.238 272.645335,77.0140022 272.216,76.566 C271.823998,76.1553313 271.628,75.6373365 271.628,75.012 C271.628,73.537326 272.481991,72.6833345 274.19,72.45 L276.122,72.184 L276.122,71.372 C276.122,70.5039957 275.632005,70.07 274.652,70.07 C274.194664,70.07 273.830668,70.1866655 273.56,70.42 C273.335999,70.616001 273.158667,70.8726651 273.028,71.19 L271.88,70.742 C272.029334,70.2939978 272.323331,69.9206682 272.762,69.622 C273.266003,69.2859983 273.895996,69.118 274.652,69.118 C276.490676,69.118 277.41,69.8739924 277.41,71.386 L277.41,75.684 C277.41,76.1693358 277.489333,76.607998 277.648,77 Z M276.122,74.466 L276.122,73.136 L274.4,73.374 C273.438662,73.5046673 272.958,74.0319954 272.958,74.956 C272.958,75.3573353 273.069999,75.6723322 273.294,75.901 C273.518001,76.1296678 273.830665,76.244 274.232,76.244 C274.754669,76.244 275.200331,76.0760017 275.569,75.74 C275.937669,75.4039983 276.122,74.9793359 276.122,74.466 Z M285.88,77 L284.564,77 L284.564,71.82 C284.564,70.7559947 284.088005,70.224 283.136,70.224 C282.249329,70.224 281.670668,70.7653279 281.4,71.848 C281.316,72.1560015 281.274,72.4733317 281.274,72.8 L281.274,77 L279.958,77 L279.958,69.356 L281.246,69.356 L281.274,70.364 C281.824669,69.5333292 282.585328,69.118 283.556,69.118 C284.293337,69.118 284.864998,69.3349978 285.271,69.769 C285.677002,70.2030022 285.88,70.7793297 285.88,71.498 L285.88,77 Z M294.112,75.698 C293.589331,76.7246718 292.65134,77.238 291.298,77.238 C290.233995,77.238 289.417336,76.8366707 288.848,76.034 C288.315997,75.3059964 288.05,74.3586725 288.05,73.192 C288.05,72.0066607 288.320664,71.045337 288.862,70.308 C289.450003,69.5146627 290.275995,69.118 291.34,69.118 C292.66534,69.118 293.584664,69.6173283 294.098,70.616 L293.02,71.274 C292.833332,70.8913314 292.614001,70.6183342 292.362,70.455 C292.109999,70.2916659 291.774002,70.21 291.354,70.21 C290.392662,70.21 289.781335,70.811994 289.52,72.016 C289.436,72.3800018 289.394,72.7719979 289.394,73.192 C289.394,74.5266733 289.743997,75.427331 290.444,75.894 C290.696001,76.0620008 290.999332,76.146 291.354,76.146 C292.026003,76.146 292.511332,75.912669 292.81,75.446 C292.884667,75.3246661 292.95,75.2033339 293.006,75.082 L294.112,75.698 Z M297.262,68.278 L295.946,68.278 L295.946,66.836 L297.262,66.836 L297.262,68.278 Z M297.262,77 L295.946,77 L295.946,69.356 L297.262,69.356 L297.262,77 Z M305.298,77 L304.038,77 C303.963333,76.7853323 303.912,76.5146683 303.884,76.188 C303.295997,76.8880035 302.540005,77.238 301.616,77.238 C300.878663,77.238 300.295335,77.0140022 299.866,76.566 C299.473998,76.1553313 299.278,75.6373365 299.278,75.012 C299.278,73.537326 300.131991,72.6833345 301.84,72.45 L303.772,72.184 L303.772,71.372 C303.772,70.5039957 303.282005,70.07 302.302,70.07 C301.844664,70.07 301.480668,70.1866655 301.21,70.42 C300.985999,70.616001 300.808667,70.8726651 300.678,71.19 L299.53,70.742 C299.679334,70.2939978 299.973331,69.9206682 300.412,69.622 C300.916003,69.2859983 301.545996,69.118 302.302,69.118 C304.140676,69.118 305.06,69.8739924 305.06,71.386 L305.06,75.684 C305.06,76.1693358 305.139333,76.607998 305.298,77 Z M303.772,74.466 L303.772,73.136 L302.05,73.374 C301.088662,73.5046673 300.608,74.0319954 300.608,74.956 C300.608,75.3573353 300.719999,75.6723322 300.944,75.901 C301.168001,76.1296678 301.480665,76.244 301.882,76.244 C302.404669,76.244 302.850331,76.0760017 303.219,75.74 C303.587669,75.4039983 303.772,74.9793359 303.772,74.466 Z M308.924,77 L307.608,77 L307.608,66.836 L308.924,66.836 L308.924,77 Z M7.98,93.228 C7.98,94.6466738 7.3033401,95.5753311 5.95,96.014 C5.46466424,96.1633341 4.88133674,96.238 4.2,96.238 C3.10799454,96.238 2.2120035,96.0093356 1.512,95.552 C0.97066396,95.2066649 0.6066676,94.7540028 0.42,94.194 L1.638,93.536 C2.00200182,94.5626718 2.883993,95.076 4.284,95.076 C5.78667418,95.076 6.538,94.4880059 6.538,93.312 C6.538,92.7893307 6.3513352,92.3833348 5.978,92.094 C5.70733198,91.8793323 5.27800294,91.7020007 4.69,91.562 L3.332,91.24 C1.54932442,90.8199979 0.658,89.9006738 0.658,88.482 C0.658,87.1473267 1.32999328,86.2560022 2.674,85.808 C3.11266886,85.6679993 3.62133044,85.598 4.2,85.598 C5.133338,85.598 5.92199678,85.7613317 6.566,86.088 C7.032669,86.3306679 7.4059986,86.6619979 7.686,87.082 L6.608,87.95 C6.33733198,87.483331 5.8753366,87.1333345 5.222,86.9 C4.93266522,86.7973328 4.5780021,86.746 4.158,86.746 C2.72999286,86.746 2.016,87.3013278 2.016,88.412 C2.016,89.2240041 2.63666046,89.7793318 3.878,90.078 L5.236,90.4 C7.06534248,90.8293355 7.98,91.7719927 7.98,93.228 Z M15.806,92.528 L10.738,92.528 C10.7753335,93.7226726 11.1299966,94.5253313 11.802,94.936 C12.0446679,95.0946675 12.3433316,95.174 12.698,95.174 C13.556671,95.174 14.1353318,94.8100036 14.434,94.082 L15.568,94.642 C15.0173306,95.7060053 14.0466736,96.238 12.656,96.238 C11.5919947,96.238 10.7706696,95.8460039 10.192,95.062 C9.65999734,94.3433297 9.394,93.3866726 9.394,92.192 C9.394,91.0346609 9.66466396,90.0826704 10.206,89.336 C10.7940029,88.5239959 11.6153281,88.118 12.67,88.118 C13.6966718,88.118 14.4853306,88.4773297 15.036,89.196 C15.5493359,89.8773367 15.806,90.7639945 15.806,91.856 L15.806,92.528 Z M14.462,91.548 C14.387333,90.4653279 14.0700028,89.7326686 13.51,89.35 C13.2859989,89.2006659 13.0060017,89.126 12.67,89.126 C11.8206624,89.126 11.2420015,89.6439948 10.934,90.68 C10.8499996,90.9693348 10.7940001,91.2586652 10.766,91.548 L14.462,91.548 Z M21.952,88.356 L21.84,89.49 C21.5879987,89.4339997 21.3406679,89.406 21.098,89.406 C20.239329,89.406 19.6700014,89.835329 19.39,90.694 C19.2873328,90.9926682 19.236,91.3519979 19.236,91.772 L19.236,96 L17.92,96 L17.92,88.356 L19.194,88.356 L19.222,89.406 C19.6606689,88.6499962 20.309329,88.272 21.168,88.272 C21.438668,88.272 21.6999987,88.2999997 21.952,88.356 Z M28.714,88.356 L26.264,96 L24.626,96 L22.19,88.356 L23.576,88.356 L25.48,94.74 L27.384,88.356 L28.714,88.356 Z M31.472,87.278 L30.156,87.278 L30.156,85.836 L31.472,85.836 L31.472,87.278 Z M31.472,96 L30.156,96 L30.156,88.356 L31.472,88.356 L31.472,96 Z M39.704,94.698 C39.1813307,95.7246718 38.2433401,96.238 36.89,96.238 C35.8259947,96.238 35.0093362,95.8366707 34.44,95.034 C33.9079973,94.3059964 33.642,93.3586725 33.642,92.192 C33.642,91.0066607 33.912664,90.045337 34.454,89.308 C35.0420029,88.5146627 35.8679947,88.118 36.932,88.118 C38.25734,88.118 39.1766641,88.6173283 39.69,89.616 L38.612,90.274 C38.4253324,89.8913314 38.2060013,89.6183341 37.954,89.455 C37.7019987,89.2916659 37.3660021,89.21 36.946,89.21 C35.9846619,89.21 35.3733346,89.811994 35.112,91.016 C35.0279996,91.3800018 34.986,91.7719979 34.986,92.192 C34.986,93.5266733 35.3359965,94.427331 36.036,94.894 C36.2880013,95.0620008 36.5913316,95.146 36.946,95.146 C37.6180034,95.146 38.1033318,94.912669 38.402,94.446 C38.476667,94.3246661 38.5419997,94.2033339 38.598,94.082 L39.704,94.698 Z M47.572,92.528 L42.504,92.528 C42.5413335,93.7226726 42.8959966,94.5253313 43.568,94.936 C43.8106679,95.0946675 44.1093316,95.174 44.464,95.174 C45.322671,95.174 45.9013318,94.8100036 46.2,94.082 L47.334,94.642 C46.7833306,95.7060053 45.8126736,96.238 44.422,96.238 C43.3579947,96.238 42.5366696,95.8460039 41.958,95.062 C41.4259973,94.3433297 41.16,93.3866726 41.16,92.192 C41.16,91.0346609 41.430664,90.0826704 41.972,89.336 C42.5600029,88.5239959 43.3813281,88.118 44.436,88.118 C45.4626718,88.118 46.2513306,88.4773297 46.802,89.196 C47.3153359,89.8773367 47.572,90.7639945 47.572,91.856 L47.572,92.528 Z M46.228,91.548 C46.153333,90.4653279 45.8360028,89.7326686 45.276,89.35 C45.0519989,89.2006659 44.7720017,89.126 44.436,89.126 C43.5866624,89.126 43.0080015,89.6439948 42.7,90.68 C42.6159996,90.9693348 42.5600001,91.2586652 42.532,91.548 L46.228,91.548 Z M54.852,93.872 C54.852,94.6840041 54.5580029,95.2953313 53.97,95.706 C53.4566641,96.0606684 52.7846708,96.238 51.954,96.238 C51.0673289,96.238 50.3486694,96.0466686 49.798,95.664 C49.3779979,95.3746652 49.0840008,95.0013356 48.916,94.544 L50.022,93.998 C50.3766684,94.7913373 51.020662,95.188 51.954,95.188 C53.0273387,95.188 53.564,94.7820041 53.564,93.97 C53.564,93.6153316 53.428668,93.340001 53.158,93.144 C52.9806658,93.0039993 52.6820021,92.8780006 52.262,92.766 L51.156,92.458 C49.7933265,92.0753314 49.112,91.3660052 49.112,90.33 C49.112,89.5833296 49.4013304,89.014002 49.98,88.622 C50.4840025,88.2859983 51.1233295,88.118 51.898,88.118 C52.6260036,88.118 53.2466641,88.2579986 53.76,88.538 C54.1240018,88.734001 54.4319987,89.0093316 54.684,89.364 L53.732,90.106 C53.5079989,89.7233314 53.1533358,89.4433342 52.668,89.266 C52.4439989,89.191333 52.1780015,89.154 51.87,89.154 C50.8526616,89.154 50.344,89.5319962 50.344,90.288 C50.344,90.8013359 50.773329,91.1746655 51.632,91.408 L52.724,91.702 C53.3960034,91.8793342 53.8953317,92.1126652 54.222,92.402 C54.6420021,92.7660018 54.852,93.2559969 54.852,93.872 Z M66.178,96 L64.918,96 C64.843333,95.7853323 64.7920001,95.5146683 64.764,95.188 C64.1759971,95.8880035 63.4200046,96.238 62.496,96.238 C61.758663,96.238 61.1753355,96.0140022 60.746,95.566 C60.353998,95.1553313 60.158,94.6373365 60.158,94.012 C60.158,92.537326 61.0119915,91.6833345 62.72,91.45 L64.652,91.184 L64.652,90.372 C64.652,89.5039957 64.1620049,89.07 63.182,89.07 C62.7246644,89.07 62.360668,89.1866655 62.09,89.42 C61.8659989,89.616001 61.6886673,89.8726651 61.558,90.19 L60.41,89.742 C60.5593341,89.2939978 60.8533311,88.9206682 61.292,88.622 C61.7960025,88.2859983 62.4259962,88.118 63.182,88.118 C65.0206759,88.118 65.94,88.8739924 65.94,90.386 L65.94,94.684 C65.94,95.1693358 66.0193325,95.607998 66.178,96 Z M64.652,93.466 L64.652,92.136 L62.93,92.374 C61.9686619,92.5046673 61.488,93.0319954 61.488,93.956 C61.488,94.3573353 61.5999989,94.6723322 61.824,94.901 C62.0480011,95.1296678 62.3606647,95.244 62.762,95.244 C63.2846693,95.244 63.7303315,95.0760017 64.099,94.74 C64.4676685,94.4039983 64.652,93.9793359 64.652,93.466 Z M74.172,94.698 C73.6493307,95.7246718 72.7113401,96.238 71.358,96.238 C70.2939947,96.238 69.4773362,95.8366707 68.908,95.034 C68.3759973,94.3059964 68.11,93.3586725 68.11,92.192 C68.11,91.0066607 68.380664,90.045337 68.922,89.308 C69.5100029,88.5146627 70.3359947,88.118 71.4,88.118 C72.72534,88.118 73.6446641,88.6173283 74.158,89.616 L73.08,90.274 C72.8933324,89.8913314 72.6740013,89.6183341 72.422,89.455 C72.1699987,89.2916659 71.8340021,89.21 71.414,89.21 C70.4526619,89.21 69.8413346,89.811994 69.58,91.016 C69.4959996,91.3800018 69.454,91.7719979 69.454,92.192 C69.454,93.5266733 69.8039965,94.427331 70.504,94.894 C70.7560013,95.0620008 71.0593316,95.146 71.414,95.146 C72.0860034,95.146 72.5713318,94.912669 72.87,94.446 C72.944667,94.3246661 73.0099997,94.2033339 73.066,94.082 L74.172,94.698 Z M81.69,94.698 C81.1673307,95.7246718 80.2293401,96.238 78.876,96.238 C77.8119947,96.238 76.9953362,95.8366707 76.426,95.034 C75.8939973,94.3059964 75.628,93.3586725 75.628,92.192 C75.628,91.0066607 75.898664,90.045337 76.44,89.308 C77.0280029,88.5146627 77.8539947,88.118 78.918,88.118 C80.24334,88.118 81.1626641,88.6173283 81.676,89.616 L80.598,90.274 C80.4113324,89.8913314 80.1920013,89.6183341 79.94,89.455 C79.6879987,89.2916659 79.3520021,89.21 78.932,89.21 C77.9706619,89.21 77.3593346,89.811994 77.098,91.016 C77.0139996,91.3800018 76.972,91.7719979 76.972,92.192 C76.972,93.5266733 77.3219965,94.427331 78.022,94.894 C78.2740013,95.0620008 78.5773316,95.146 78.932,95.146 C79.6040034,95.146 80.0893318,94.912669 80.388,94.446 C80.462667,94.3246661 80.5279997,94.2033339 80.584,94.082 L81.69,94.698 Z M89.558,92.528 L84.49,92.528 C84.5273335,93.7226726 84.8819966,94.5253313 85.554,94.936 C85.7966679,95.0946675 86.0953316,95.174 86.45,95.174 C87.308671,95.174 87.8873318,94.8100036 88.186,94.082 L89.32,94.642 C88.7693306,95.7060053 87.7986736,96.238 86.408,96.238 C85.3439947,96.238 84.5226696,95.8460039 83.944,95.062 C83.4119973,94.3433297 83.146,93.3866726 83.146,92.192 C83.146,91.0346609 83.416664,90.0826704 83.958,89.336 C84.5460029,88.5239959 85.3673281,88.118 86.422,88.118 C87.4486718,88.118 88.2373306,88.4773297 88.788,89.196 C89.3013359,89.8773367 89.558,90.7639945 89.558,91.856 L89.558,92.528 Z M88.214,91.548 C88.139333,90.4653279 87.8220028,89.7326686 87.262,89.35 C87.0379989,89.2006659 86.7580017,89.126 86.422,89.126 C85.5726624,89.126 84.9940015,89.6439948 84.686,90.68 C84.6019996,90.9693348 84.5460001,91.2586652 84.518,91.548 L88.214,91.548 Z M96.838,93.872 C96.838,94.6840041 96.5440029,95.2953313 95.956,95.706 C95.4426641,96.0606684 94.7706708,96.238 93.94,96.238 C93.0533289,96.238 92.3346694,96.0466686 91.784,95.664 C91.3639979,95.3746652 91.0700008,95.0013356 90.902,94.544 L92.008,93.998 C92.3626684,94.7913373 93.006662,95.188 93.94,95.188 C95.0133387,95.188 95.55,94.7820041 95.55,93.97 C95.55,93.6153316 95.414668,93.340001 95.144,93.144 C94.9666658,93.0039993 94.6680021,92.8780006 94.248,92.766 L93.142,92.458 C91.7793265,92.0753314 91.098,91.3660052 91.098,90.33 C91.098,89.5833296 91.3873304,89.014002 91.966,88.622 C92.4700025,88.2859983 93.1093295,88.118 93.884,88.118 C94.6120036,88.118 95.2326641,88.2579986 95.746,88.538 C96.1100018,88.734001 96.4179987,89.0093316 96.67,89.364 L95.718,90.106 C95.4939989,89.7233314 95.1393358,89.4433342 94.654,89.266 C94.4299989,89.191333 94.1640015,89.154 93.856,89.154 C92.8386616,89.154 92.33,89.5319962 92.33,90.288 C92.33,90.8013359 92.759329,91.1746655 93.618,91.408 L94.71,91.702 C95.3820034,91.8793342 95.8813317,92.1126652 96.208,92.402 C96.6280021,92.7660018 96.838,93.2559969 96.838,93.872 Z M103.95,93.872 C103.95,94.6840041 103.656003,95.2953313 103.068,95.706 C102.554664,96.0606684 101.882671,96.238 101.052,96.238 C100.165329,96.238 99.4466694,96.0466686 98.896,95.664 C98.4759979,95.3746652 98.1820008,95.0013356 98.014,94.544 L99.12,93.998 C99.4746684,94.7913373 100.118662,95.188 101.052,95.188 C102.125339,95.188 102.662,94.7820041 102.662,93.97 C102.662,93.6153316 102.526668,93.340001 102.256,93.144 C102.078666,93.0039993 101.780002,92.8780006 101.36,92.766 L100.254,92.458 C98.8913265,92.0753314 98.21,91.3660052 98.21,90.33 C98.21,89.5833296 98.4993304,89.014002 99.078,88.622 C99.5820025,88.2859983 100.221329,88.118 100.996,88.118 C101.724004,88.118 102.344664,88.2579986 102.858,88.538 C103.222002,88.734001 103.529999,89.0093316 103.782,89.364 L102.83,90.106 C102.605999,89.7233314 102.251336,89.4433342 101.766,89.266 C101.541999,89.191333 101.276002,89.154 100.968,89.154 C99.9506616,89.154 99.442,89.5319962 99.442,90.288 C99.442,90.8013359 99.871329,91.1746655 100.73,91.408 L101.822,91.702 C102.494003,91.8793342 102.993332,92.1126652 103.32,92.402 C103.740002,92.7660018 103.95,93.2559969 103.95,93.872 Z M107.352,96 L105.77,96 L105.77,94.138 L107.352,94.138 L107.352,96 Z M119.784,87.068 L115.08,87.068 L115.08,90.162 L119.238,90.162 L119.238,91.408 L115.08,91.408 L115.08,96 L113.68,96 L113.68,85.836 L119.784,85.836 L119.784,87.068 Z M122.794,87.278 L121.478,87.278 L121.478,85.836 L122.794,85.836 L122.794,87.278 Z M122.794,96 L121.478,96 L121.478,88.356 L122.794,88.356 L122.794,96 Z M131.264,96 L129.948,96 L129.948,90.82 C129.948,89.7559947 129.472005,89.224 128.52,89.224 C127.633329,89.224 127.054668,89.7653279 126.784,90.848 C126.7,91.1560015 126.658,91.4733317 126.658,91.8 L126.658,96 L125.342,96 L125.342,88.356 L126.63,88.356 L126.658,89.364 C127.208669,88.5333292 127.969328,88.118 128.94,88.118 C129.677337,88.118 130.248998,88.3349978 130.655,88.769 C131.061002,89.2030022 131.264,89.7793297 131.264,90.498 L131.264,96 Z M139.874,96 L138.628,96 L138.6,94.964 C138.105331,95.8133376 137.349338,96.238 136.332,96.238 C135.64133,96.238 135.053336,96.0093356 134.568,95.552 C134.129331,95.1506647 133.816668,94.6000035 133.63,93.9 C133.499333,93.4146642 133.434,92.8826696 133.434,92.304 C133.434,91.1186607 133.671998,90.1526704 134.148,89.406 C134.698669,88.547329 135.482662,88.118 136.5,88.118 C137.517338,88.118 138.203332,88.4819964 138.558,89.21 L138.558,85.836 L139.874,85.836 L139.874,96 Z M138.6,92.136 C138.6,90.8479936 138.25467,89.9566691 137.564,89.462 C137.321332,89.2939992 137.036668,89.21 136.71,89.21 C136.01933,89.21 135.510668,89.5553299 135.184,90.246 C134.931999,90.7686693 134.806,91.4126628 134.806,92.178 C134.806,93.0646711 134.950665,93.7646641 135.24,94.278 C135.566668,94.8566696 136.037997,95.146 136.654,95.146 C137.615338,95.146 138.226665,94.5066731 138.488,93.228 C138.562667,92.8733316 138.6,92.5093352 138.6,92.136 Z M155.624,88.356 L153.538,96 L151.914,96 L150.444,89.868 L148.974,96 L147.336,96 L145.25,88.356 L146.622,88.356 L148.176,94.782 L149.758,88.356 L151.186,88.356 L152.74,94.782 L154.336,88.356 L155.624,88.356 Z M163.016,96 L161.7,96 L161.7,90.82 C161.7,89.7559947 161.224005,89.224 160.272,89.224 C159.375996,89.224 158.797335,89.7653279 158.536,90.848 C158.461333,91.1560015 158.424,91.4733317 158.424,91.8 L158.424,96 L157.108,96 L157.108,85.836 L158.424,85.836 L158.424,89.266 C158.965336,88.5006628 159.721328,88.118 160.692,88.118 C161.429337,88.118 162.000998,88.3349978 162.407,88.769 C162.813002,89.2030022 163.016,89.7793297 163.016,90.498 L163.016,96 Z M171.598,92.528 L166.53,92.528 C166.567334,93.7226726 166.921997,94.5253313 167.594,94.936 C167.836668,95.0946675 168.135332,95.174 168.49,95.174 C169.348671,95.174 169.927332,94.8100036 170.226,94.082 L171.36,94.642 C170.809331,95.7060053 169.838674,96.238 168.448,96.238 C167.383995,96.238 166.56267,95.8460039 165.984,95.062 C165.451997,94.3433297 165.186,93.3866726 165.186,92.192 C165.186,91.0346609 165.456664,90.0826704 165.998,89.336 C166.586003,88.5239959 167.407328,88.118 168.462,88.118 C169.488672,88.118 170.277331,88.4773297 170.828,89.196 C171.341336,89.8773367 171.598,90.7639945 171.598,91.856 L171.598,92.528 Z M170.254,91.548 C170.179333,90.4653279 169.862003,89.7326686 169.302,89.35 C169.077999,89.2006659 168.798002,89.126 168.462,89.126 C167.612662,89.126 167.034002,89.6439948 166.726,90.68 C166.642,90.9693348 166.586,91.2586652 166.558,91.548 L170.254,91.548 Z M177.744,88.356 L177.632,89.49 C177.379999,89.4339997 177.132668,89.406 176.89,89.406 C176.031329,89.406 175.462001,89.835329 175.182,90.694 C175.079333,90.9926682 175.028,91.3519979 175.028,91.772 L175.028,96 L173.712,96 L173.712,88.356 L174.986,88.356 L175.014,89.406 C175.452669,88.6499962 176.101329,88.272 176.96,88.272 C177.230668,88.272 177.491999,88.2999997 177.744,88.356 Z M185.122,92.528 L180.054,92.528 C180.091334,93.7226726 180.445997,94.5253313 181.118,94.936 C181.360668,95.0946675 181.659332,95.174 182.014,95.174 C182.872671,95.174 183.451332,94.8100036 183.75,94.082 L184.884,94.642 C184.333331,95.7060053 183.362674,96.238 181.972,96.238 C180.907995,96.238 180.08667,95.8460039 179.508,95.062 C178.975997,94.3433297 178.71,93.3866726 178.71,92.192 C178.71,91.0346609 178.980664,90.0826704 179.522,89.336 C180.110003,88.5239959 180.931328,88.118 181.986,88.118 C183.012672,88.118 183.801331,88.4773297 184.352,89.196 C184.865336,89.8773367 185.122,90.7639945 185.122,91.856 L185.122,92.528 Z M183.778,91.548 C183.703333,90.4653279 183.386003,89.7326686 182.826,89.35 C182.601999,89.2006659 182.322002,89.126 181.986,89.126 C181.136662,89.126 180.558002,89.6439948 180.25,90.68 C180.166,90.9693348 180.11,91.2586652 180.082,91.548 L183.778,91.548 Z M194.558,95.972 C194.352666,96.0746672 193.90467,96.126 193.214,96.126 C192.019327,96.126 191.422,95.5473391 191.422,94.39 L191.422,89.42 L190.232,89.42 L190.232,88.356 L191.422,88.356 L191.422,86.452 L192.738,86.452 L192.738,88.356 L194.488,88.356 L194.488,89.42 L192.738,89.42 L192.738,94.124 C192.738,94.4413349 192.800999,94.6699993 192.927,94.81 C193.053001,94.9500007 193.269998,95.02 193.578,95.02 C194.016669,95.02 194.310666,94.982667 194.46,94.908 L194.558,95.972 Z M202.538,92.192 C202.538,93.396006 202.262669,94.3573297 201.712,95.076 C201.114664,95.8506705 200.260672,96.238 199.15,96.238 C198.029994,96.238 197.18067,95.8506705 196.602,95.076 C196.051331,94.3573297 195.776,93.396006 195.776,92.192 C195.776,90.9786606 196.051331,90.0126703 196.602,89.294 C197.190003,88.5099961 198.039328,88.118 199.15,88.118 C200.251339,88.118 201.10533,88.5099961 201.712,89.294 C202.262669,90.0126703 202.538,90.9786606 202.538,92.192 Z M201.194,92.192 C201.194,90.8293265 200.82067,89.914669 200.074,89.448 C199.812665,89.2893325 199.504668,89.21 199.15,89.21 C198.151328,89.21 197.516668,89.8213272 197.246,91.044 C197.162,91.4080018 197.12,91.7906647 197.12,92.192 C197.12,93.5453401 197.49333,94.4506644 198.24,94.908 C198.492001,95.0666675 198.795332,95.146 199.15,95.146 C200.167338,95.146 200.811332,94.5393394 201.082,93.326 C201.156667,92.9713316 201.194,92.5933353 201.194,92.192 Z M214.662,95.538 C214.662,96.5833386 214.349336,97.3673307 213.724,97.89 C213.163997,98.3473356 212.394005,98.576 211.414,98.576 C210.611329,98.576 209.916003,98.4546679 209.328,98.212 C208.982665,98.0719993 208.740001,97.9320007 208.6,97.792 L209.272,96.882 C209.384001,96.956667 209.579999,97.0686659 209.86,97.218 C210.308002,97.3953342 210.816664,97.484 211.386,97.484 C212.10467,97.484 212.622665,97.2973352 212.94,96.924 C213.210668,96.6066651 213.346,96.1213366 213.346,95.468 L213.346,94.236 C212.888664,95.0853376 212.146672,95.51 211.12,95.51 C210.121328,95.51 209.370003,95.141337 208.866,94.404 C208.436665,93.7693302 208.222,92.9246719 208.222,91.87 C208.222,90.7313276 208.459998,89.8400032 208.936,89.196 C209.458669,88.4773297 210.242661,88.118 211.288,88.118 C211.717335,88.118 212.113998,88.2066658 212.478,88.384 C212.888669,88.580001 213.182666,88.8553316 213.36,89.21 L213.388,88.356 L214.662,88.356 L214.662,95.538 Z M213.388,91.702 C213.388,90.5353275 213.04267,89.7653352 212.352,89.392 C212.109332,89.2706661 211.824668,89.21 211.498,89.21 C210.22866,89.21 209.594,90.0873246 209.594,91.842 C209.594,92.6540041 209.738665,93.2746645 210.028,93.704 C210.345335,94.1800024 210.816664,94.418 211.442,94.418 C212.412672,94.418 213.023999,93.8626722 213.276,92.752 C213.350667,92.4253317 213.388,92.0753352 213.388,91.702 Z M223.594,92.192 C223.594,93.396006 223.318669,94.3573297 222.768,95.076 C222.170664,95.8506705 221.316672,96.238 220.206,96.238 C219.085994,96.238 218.23667,95.8506705 217.658,95.076 C217.107331,94.3573297 216.832,93.396006 216.832,92.192 C216.832,90.9786606 217.107331,90.0126703 217.658,89.294 C218.246003,88.5099961 219.095328,88.118 220.206,88.118 C221.307339,88.118 222.16133,88.5099961 222.768,89.294 C223.318669,90.0126703 223.594,90.9786606 223.594,92.192 Z M222.25,92.192 C222.25,90.8293265 221.87667,89.914669 221.13,89.448 C220.868665,89.2893325 220.560668,89.21 220.206,89.21 C219.207328,89.21 218.572668,89.8213272 218.302,91.044 C218.218,91.4080018 218.176,91.7906647 218.176,92.192 C218.176,93.5453401 218.54933,94.4506644 219.296,94.908 C219.548001,95.0666675 219.851332,95.146 220.206,95.146 C221.223338,95.146 221.867332,94.5393394 222.138,93.326 C222.212667,92.9713316 222.25,92.5933353 222.25,92.192 Z M235.144,96 L233.884,96 C233.809333,95.7853323 233.758,95.5146683 233.73,95.188 C233.141997,95.8880035 232.386005,96.238 231.462,96.238 C230.724663,96.238 230.141335,96.0140022 229.712,95.566 C229.319998,95.1553313 229.124,94.6373365 229.124,94.012 C229.124,92.537326 229.977991,91.6833345 231.686,91.45 L233.618,91.184 L233.618,90.372 C233.618,89.5039957 233.128005,89.07 232.148,89.07 C231.690664,89.07 231.326668,89.1866655 231.056,89.42 C230.831999,89.616001 230.654667,89.8726651 230.524,90.19 L229.376,89.742 C229.525334,89.2939978 229.819331,88.9206682 230.258,88.622 C230.762003,88.2859983 231.391996,88.118 232.148,88.118 C233.986676,88.118 234.906,88.8739924 234.906,90.386 L234.906,94.684 C234.906,95.1693358 234.985333,95.607998 235.144,96 Z M233.618,93.466 L233.618,92.136 L231.896,92.374 C230.934662,92.5046673 230.454,93.0319954 230.454,93.956 C230.454,94.3573353 230.565999,94.6723322 230.79,94.901 C231.014001,95.1296678 231.326665,95.244 231.728,95.244 C232.250669,95.244 232.696331,95.0760017 233.065,94.74 C233.433669,94.4039983 233.618,93.9793359 233.618,93.466 Z M243.376,96 L242.06,96 L242.06,90.82 C242.06,89.7559947 241.584005,89.224 240.632,89.224 C239.745329,89.224 239.166668,89.7653279 238.896,90.848 C238.812,91.1560015 238.77,91.4733317 238.77,91.8 L238.77,96 L237.454,96 L237.454,88.356 L238.742,88.356 L238.77,89.364 C239.320669,88.5333292 240.081328,88.118 241.052,88.118 C241.789337,88.118 242.360998,88.3349978 242.767,88.769 C243.173002,89.2030022 243.376,89.7793297 243.376,90.498 L243.376,96 Z M251.986,96 L250.74,96 L250.712,94.964 C250.217331,95.8133376 249.461338,96.238 248.444,96.238 C247.75333,96.238 247.165336,96.0093356 246.68,95.552 C246.241331,95.1506647 245.928668,94.6000035 245.742,93.9 C245.611333,93.4146642 245.546,92.8826696 245.546,92.304 C245.546,91.1186607 245.783998,90.1526704 246.26,89.406 C246.810669,88.547329 247.594662,88.118 248.612,88.118 C249.629338,88.118 250.315332,88.4819964 250.67,89.21 L250.67,85.836 L251.986,85.836 L251.986,96 Z M250.712,92.136 C250.712,90.8479936 250.36667,89.9566691 249.676,89.462 C249.433332,89.2939992 249.148668,89.21 248.822,89.21 C248.13133,89.21 247.622668,89.5553299 247.296,90.246 C247.043999,90.7686693 246.918,91.4126628 246.918,92.178 C246.918,93.0646711 247.062665,93.7646641 247.352,94.278 C247.678668,94.8566696 248.149997,95.146 248.766,95.146 C249.727338,95.146 250.338665,94.5066731 250.6,93.228 C250.674667,92.8733316 250.712,92.5093352 250.712,92.136 Z M264.796,96 L263.242,96 L260.778,91.954 L259.742,92.962 L259.742,96 L258.426,96 L258.426,85.836 L259.742,85.836 L259.742,91.422 L262.864,88.356 L264.446,88.356 L261.716,91.03 L264.796,96 Z M272.09,96 L270.774,96 L270.774,90.82 C270.774,89.7559947 270.298005,89.224 269.346,89.224 C268.459329,89.224 267.880668,89.7653279 267.61,90.848 C267.526,91.1560015 267.484,91.4733317 267.484,91.8 L267.484,96 L266.168,96 L266.168,88.356 L267.456,88.356 L267.484,89.364 C268.034669,88.5333292 268.795328,88.118 269.766,88.118 C270.503337,88.118 271.074998,88.3349978 271.481,88.769 C271.887002,89.2030022 272.09,89.7793297 272.09,90.498 L272.09,96 Z M281.022,92.192 C281.022,93.396006 280.746669,94.3573297 280.196,95.076 C279.598664,95.8506705 278.744672,96.238 277.634,96.238 C276.513994,96.238 275.66467,95.8506705 275.086,95.076 C274.535331,94.3573297 274.26,93.396006 274.26,92.192 C274.26,90.9786606 274.535331,90.0126703 275.086,89.294 C275.674003,88.5099961 276.523328,88.118 277.634,88.118 C278.735339,88.118 279.58933,88.5099961 280.196,89.294 C280.746669,90.0126703 281.022,90.9786606 281.022,92.192 Z M279.678,92.192 C279.678,90.8293265 279.30467,89.914669 278.558,89.448 C278.296665,89.2893325 277.988668,89.21 277.634,89.21 C276.635328,89.21 276.000668,89.8213272 275.73,91.044 C275.646,91.4080018 275.604,91.7906647 275.604,92.192 C275.604,93.5453401 275.97733,94.4506644 276.724,94.908 C276.976001,95.0666675 277.279332,95.146 277.634,95.146 C278.651338,95.146 279.295332,94.5393394 279.566,93.326 C279.640667,92.9713316 279.678,92.5933353 279.678,92.192 Z M292.502,88.356 L290.416,96 L288.792,96 L287.322,89.868 L285.852,96 L284.214,96 L282.128,88.356 L283.5,88.356 L285.054,94.782 L286.636,88.356 L288.064,88.356 L289.618,94.782 L291.214,88.356 L292.502,88.356 Z M307.188,88.356 L305.102,96 L303.478,96 L302.008,89.868 L300.538,96 L298.9,96 L296.814,88.356 L298.186,88.356 L299.74,94.782 L301.322,88.356 L302.75,88.356 L304.304,94.782 L305.9,88.356 L307.188,88.356 Z M314.58,96 L313.264,96 L313.264,90.82 C313.264,89.7559947 312.788005,89.224 311.836,89.224 C310.939996,89.224 310.361335,89.7653279 310.1,90.848 C310.025333,91.1560015 309.988,91.4733317 309.988,91.8 L309.988,96 L308.672,96 L308.672,85.836 L309.988,85.836 L309.988,89.266 C310.529336,88.5006628 311.285328,88.118 312.256,88.118 C312.993337,88.118 313.564998,88.3349978 313.971,88.769 C314.377002,89.2030022 314.58,89.7793297 314.58,90.498 L314.58,96 Z M323.162,92.528 L318.094,92.528 C318.131334,93.7226726 318.485997,94.5253313 319.158,94.936 C319.400668,95.0946675 319.699332,95.174 320.054,95.174 C320.912671,95.174 321.491332,94.8100036 321.79,94.082 L322.924,94.642 C322.373331,95.7060053 321.402674,96.238 320.012,96.238 C318.947995,96.238 318.12667,95.8460039 317.548,95.062 C317.015997,94.3433297 316.75,93.3866726 316.75,92.192 C316.75,91.0346609 317.020664,90.0826704 317.562,89.336 C318.150003,88.5239959 318.971328,88.118 320.026,88.118 C321.052672,88.118 321.841331,88.4773297 322.392,89.196 C322.905336,89.8773367 323.162,90.7639945 323.162,91.856 L323.162,92.528 Z M321.818,91.548 C321.743333,90.4653279 321.426003,89.7326686 320.866,89.35 C320.641999,89.2006659 320.362002,89.126 320.026,89.126 C319.176662,89.126 318.598002,89.6439948 318.29,90.68 C318.206,90.9693348 318.15,91.2586652 318.122,91.548 L321.818,91.548 Z M331.198,96 L329.882,96 L329.882,90.82 C329.882,89.7559947 329.406005,89.224 328.454,89.224 C327.567329,89.224 326.988668,89.7653279 326.718,90.848 C326.634,91.1560015 326.592,91.4733317 326.592,91.8 L326.592,96 L325.276,96 L325.276,88.356 L326.564,88.356 L326.592,89.364 C327.142669,88.5333292 327.903328,88.118 328.874,88.118 C329.611337,88.118 330.182998,88.3349978 330.589,88.769 C330.995002,89.2030022 331.198,89.7793297 331.198,90.498 L331.198,96 Z M4.704,114.972 C4.49866564,115.074667 4.05067012,115.126 3.36,115.126 C2.16532736,115.126 1.568,114.547339 1.568,113.39 L1.568,108.42 L0.378,108.42 L0.378,107.356 L1.568,107.356 L1.568,105.452 L2.884,105.452 L2.884,107.356 L4.634,107.356 L4.634,108.42 L2.884,108.42 L2.884,113.124 C2.884,113.441335 2.94699937,113.669999 3.073,113.81 C3.19900063,113.950001 3.41599846,114.02 3.724,114.02 C4.16266886,114.02 4.45666592,113.982667 4.606,113.908 L4.704,114.972 Z M12.684,111.192 C12.684,112.396006 12.4086694,113.35733 11.858,114.076 C11.2606637,114.850671 10.4066722,115.238 9.296,115.238 C8.1759944,115.238 7.32666956,114.850671 6.748,114.076 C6.19733058,113.35733 5.922,112.396006 5.922,111.192 C5.922,109.978661 6.19733058,109.01267 6.748,108.294 C7.33600294,107.509996 8.18532778,107.118 9.296,107.118 C10.3973388,107.118 11.2513303,107.509996 11.858,108.294 C12.4086694,109.01267 12.684,109.978661 12.684,111.192 Z M11.34,111.192 C11.34,109.829327 10.9666704,108.914669 10.22,108.448 C9.95866536,108.289333 9.65066844,108.21 9.296,108.21 C8.29732834,108.21 7.66266802,108.821327 7.392,110.044 C7.30799958,110.408002 7.266,110.790665 7.266,111.192 C7.266,112.54534 7.6393296,113.450664 8.386,113.908 C8.63800126,114.066667 8.94133156,114.146 9.296,114.146 C10.3133384,114.146 10.957332,113.539339 11.228,112.326 C11.302667,111.971332 11.34,111.593335 11.34,111.192 Z M20.062,115 L18.746,115 L18.746,104.836 L20.062,104.836 L20.062,115 Z M28.644,111.528 L23.576,111.528 C23.6133335,112.722673 23.9679966,113.525331 24.64,113.936 C24.8826679,114.094667 25.1813316,114.174 25.536,114.174 C26.394671,114.174 26.9733318,113.810004 27.272,113.082 L28.406,113.642 C27.8553306,114.706005 26.8846736,115.238 25.494,115.238 C24.4299947,115.238 23.6086696,114.846004 23.03,114.062 C22.4979973,113.34333 22.232,112.386673 22.232,111.192 C22.232,110.034661 22.502664,109.08267 23.044,108.336 C23.6320029,107.523996 24.4533281,107.118 25.508,107.118 C26.5346718,107.118 27.3233306,107.47733 27.874,108.196 C28.3873359,108.877337 28.644,109.763995 28.644,110.856 L28.644,111.528 Z M27.3,110.548 C27.225333,109.465328 26.9080028,108.732669 26.348,108.35 C26.1239989,108.200666 25.8440017,108.126 25.508,108.126 C24.6586624,108.126 24.0800015,108.643995 23.772,109.68 C23.6879996,109.969335 23.6320001,110.258665 23.604,110.548 L27.3,110.548 Z M36.246,115 L34.986,115 C34.911333,114.785332 34.8600001,114.514668 34.832,114.188 C34.2439971,114.888003 33.4880046,115.238 32.564,115.238 C31.826663,115.238 31.2433355,115.014002 30.814,114.566 C30.421998,114.155331 30.226,113.637336 30.226,113.012 C30.226,111.537326 31.0799915,110.683335 32.788,110.45 L34.72,110.184 L34.72,109.372 C34.72,108.503996 34.2300049,108.07 33.25,108.07 C32.7926644,108.07 32.428668,108.186666 32.158,108.42 C31.9339989,108.616001 31.7566673,108.872665 31.626,109.19 L30.478,108.742 C30.6273341,108.293998 30.9213311,107.920668 31.36,107.622 C31.8640025,107.285998 32.4939962,107.118 33.25,107.118 C35.0886759,107.118 36.008,107.873992 36.008,109.386 L36.008,113.684 C36.008,114.169336 36.0873325,114.607998 36.246,115 Z M34.72,112.466 L34.72,111.136 L32.998,111.374 C32.0366619,111.504667 31.556,112.031995 31.556,112.956 C31.556,113.357335 31.6679989,113.672332 31.892,113.901 C32.1160011,114.129668 32.4286647,114.244 32.83,114.244 C33.3526693,114.244 33.7983315,114.076002 34.167,113.74 C34.5356685,113.403998 34.72,112.979336 34.72,112.466 Z M43.974,107.356 L41.524,115 L39.886,115 L37.45,107.356 L38.836,107.356 L40.74,113.74 L42.644,107.356 L43.974,107.356 Z M51.45,111.528 L46.382,111.528 C46.4193335,112.722673 46.7739966,113.525331 47.446,113.936 C47.6886679,114.094667 47.9873316,114.174 48.342,114.174 C49.200671,114.174 49.7793318,113.810004 50.078,113.082 L51.212,113.642 C50.6613306,114.706005 49.6906736,115.238 48.3,115.238 C47.2359947,115.238 46.4146696,114.846004 45.836,114.062 C45.3039973,113.34333 45.038,112.386673 45.038,111.192 C45.038,110.034661 45.308664,109.08267 45.85,108.336 C46.4380029,107.523996 47.2593281,107.118 48.314,107.118 C49.3406718,107.118 50.1293306,107.47733 50.68,108.196 C51.1933359,108.877337 51.45,109.763995 51.45,110.856 L51.45,111.528 Z M50.106,110.548 C50.031333,109.465328 49.7140028,108.732669 49.154,108.35 C48.9299989,108.200666 48.6500017,108.126 48.314,108.126 C47.4646624,108.126 46.8860015,108.643995 46.578,109.68 C46.4939996,109.969335 46.4380001,110.258665 46.41,110.548 L50.106,110.548 Z M55.02,115 L53.438,115 L53.438,113.138 L55.02,113.138 L55.02,115 Z M68.054,112.228 C68.054,113.646674 67.3773401,114.575331 66.024,115.014 C65.5386642,115.163334 64.9553367,115.238 64.274,115.238 C63.1819945,115.238 62.2860035,115.009336 61.586,114.552 C61.044664,114.206665 60.6806676,113.754003 60.494,113.194 L61.712,112.536 C62.0760018,113.562672 62.957993,114.076 64.358,114.076 C65.8606742,114.076 66.612,113.488006 66.612,112.312 C66.612,111.789331 66.4253352,111.383335 66.052,111.094 C65.781332,110.879332 65.3520029,110.702001 64.764,110.562 L63.406,110.24 C61.6233244,109.819998 60.732,108.900674 60.732,107.482 C60.732,106.147327 61.4039933,105.256002 62.748,104.808 C63.1866689,104.667999 63.6953304,104.598 64.274,104.598 C65.207338,104.598 65.9959968,104.761332 66.64,105.088 C67.106669,105.330668 67.4799986,105.661998 67.76,106.082 L66.682,106.95 C66.411332,106.483331 65.9493366,106.133335 65.296,105.9 C65.0066652,105.797333 64.6520021,105.746 64.232,105.746 C62.8039929,105.746 62.09,106.301328 62.09,107.412 C62.09,108.224004 62.7106605,108.779332 63.952,109.078 L65.31,109.4 C67.1393425,109.829335 68.054,110.771993 68.054,112.228 Z M75.88,111.528 L70.812,111.528 C70.8493335,112.722673 71.2039966,113.525331 71.876,113.936 C72.1186679,114.094667 72.4173316,114.174 72.772,114.174 C73.630671,114.174 74.2093318,113.810004 74.508,113.082 L75.642,113.642 C75.0913306,114.706005 74.1206736,115.238 72.73,115.238 C71.6659947,115.238 70.8446696,114.846004 70.266,114.062 C69.7339973,113.34333 69.468,112.386673 69.468,111.192 C69.468,110.034661 69.738664,109.08267 70.28,108.336 C70.8680029,107.523996 71.6893281,107.118 72.744,107.118 C73.7706718,107.118 74.5593306,107.47733 75.11,108.196 C75.6233359,108.877337 75.88,109.763995 75.88,110.856 L75.88,111.528 Z M74.536,110.548 C74.461333,109.465328 74.1440028,108.732669 73.584,108.35 C73.3599989,108.200666 73.0800017,108.126 72.744,108.126 C71.8946624,108.126 71.3160015,108.643995 71.008,109.68 C70.9239996,109.969335 70.8680001,110.258665 70.84,110.548 L74.536,110.548 Z M83.916,115 L82.6,115 L82.6,109.82 C82.6,108.755995 82.1240048,108.224 81.172,108.224 C80.2853289,108.224 79.706668,108.765328 79.436,109.848 C79.3519996,110.156002 79.31,110.473332 79.31,110.8 L79.31,115 L77.994,115 L77.994,107.356 L79.282,107.356 L79.31,108.364 C79.8606694,107.533329 80.6213285,107.118 81.592,107.118 C82.329337,107.118 82.900998,107.334998 83.307,107.769 C83.713002,108.203002 83.916,108.77933 83.916,109.498 L83.916,115 Z M92.526,115 L91.28,115 L91.252,113.964 C90.7573309,114.813338 90.0013384,115.238 88.984,115.238 C88.2933299,115.238 87.7053358,115.009336 87.22,114.552 C86.7813311,114.150665 86.4686676,113.600003 86.282,112.9 C86.1513327,112.414664 86.086,111.88267 86.086,111.304 C86.086,110.118661 86.3239976,109.15267 86.8,108.406 C87.3506694,107.547329 88.1346616,107.118 89.152,107.118 C90.1693384,107.118 90.8553316,107.481996 91.21,108.21 L91.21,104.836 L92.526,104.836 L92.526,115 Z M91.252,111.136 C91.252,109.847994 90.9066701,108.956669 90.216,108.462 C89.9733321,108.293999 89.6886683,108.21 89.362,108.21 C88.6713299,108.21 88.1626683,108.55533 87.836,109.246 C87.5839987,109.768669 87.458,110.412663 87.458,111.178 C87.458,112.064671 87.6026652,112.764664 87.892,113.278 C88.2186683,113.85667 88.6899969,114.146 89.306,114.146 C90.2673381,114.146 90.8786654,113.506673 91.14,112.228 C91.214667,111.873332 91.252,111.509335 91.252,111.136 Z M105.028,115 L103.782,115 L103.754,113.964 C103.259331,114.813338 102.503338,115.238 101.486,115.238 C100.79533,115.238 100.207336,115.009336 99.722,114.552 C99.2833311,114.150665 98.9706676,113.600003 98.784,112.9 C98.6533327,112.414664 98.588,111.88267 98.588,111.304 C98.588,110.118661 98.8259976,109.15267 99.302,108.406 C99.8526694,107.547329 100.636662,107.118 101.654,107.118 C102.671338,107.118 103.357332,107.481996 103.712,108.21 L103.712,104.836 L105.028,104.836 L105.028,115 Z M103.754,111.136 C103.754,109.847994 103.40867,108.956669 102.718,108.462 C102.475332,108.293999 102.190668,108.21 101.864,108.21 C101.17333,108.21 100.664668,108.55533 100.338,109.246 C100.085999,109.768669 99.96,110.412663 99.96,111.178 C99.96,112.064671 100.104665,112.764664 100.394,113.278 C100.720668,113.85667 101.191997,114.146 101.808,114.146 C102.769338,114.146 103.380665,113.506673 103.642,112.228 C103.716667,111.873332 103.754,111.509335 103.754,111.136 Z M113.61,111.528 L108.542,111.528 C108.579334,112.722673 108.933997,113.525331 109.606,113.936 C109.848668,114.094667 110.147332,114.174 110.502,114.174 C111.360671,114.174 111.939332,113.810004 112.238,113.082 L113.372,113.642 C112.821331,114.706005 111.850674,115.238 110.46,115.238 C109.395995,115.238 108.57467,114.846004 107.996,114.062 C107.463997,113.34333 107.198,112.386673 107.198,111.192 C107.198,110.034661 107.468664,109.08267 108.01,108.336 C108.598003,107.523996 109.419328,107.118 110.474,107.118 C111.500672,107.118 112.289331,107.47733 112.84,108.196 C113.353336,108.877337 113.61,109.763995 113.61,110.856 L113.61,111.528 Z M112.266,110.548 C112.191333,109.465328 111.874003,108.732669 111.314,108.35 C111.089999,108.200666 110.810002,108.126 110.474,108.126 C109.624662,108.126 109.046002,108.643995 108.738,109.68 C108.654,109.969335 108.598,110.258665 108.57,110.548 L112.266,110.548 Z M120.89,112.872 C120.89,113.684004 120.596003,114.295331 120.008,114.706 C119.494664,115.060668 118.822671,115.238 117.992,115.238 C117.105329,115.238 116.386669,115.046669 115.836,114.664 C115.415998,114.374665 115.122001,114.001336 114.954,113.544 L116.06,112.998 C116.414668,113.791337 117.058662,114.188 117.992,114.188 C119.065339,114.188 119.602,113.782004 119.602,112.97 C119.602,112.615332 119.466668,112.340001 119.196,112.144 C119.018666,112.003999 118.720002,111.878001 118.3,111.766 L117.194,111.458 C115.831327,111.075331 115.15,110.366005 115.15,109.33 C115.15,108.58333 115.43933,108.014002 116.018,107.622 C116.522003,107.285998 117.161329,107.118 117.936,107.118 C118.664004,107.118 119.284664,107.257999 119.798,107.538 C120.162002,107.734001 120.469999,108.009332 120.722,108.364 L119.77,109.106 C119.545999,108.723331 119.191336,108.443334 118.706,108.266 C118.481999,108.191333 118.216002,108.154 117.908,108.154 C116.890662,108.154 116.382,108.531996 116.382,109.288 C116.382,109.801336 116.811329,110.174666 117.67,110.408 L118.762,110.702 C119.434003,110.879334 119.933332,111.112665 120.26,111.402 C120.680002,111.766002 120.89,112.255997 120.89,112.872 Z M126.266,114.972 C126.060666,115.074667 125.61267,115.126 124.922,115.126 C123.727327,115.126 123.13,114.547339 123.13,113.39 L123.13,108.42 L121.94,108.42 L121.94,107.356 L123.13,107.356 L123.13,105.452 L124.446,105.452 L124.446,107.356 L126.196,107.356 L126.196,108.42 L124.446,108.42 L124.446,113.124 C124.446,113.441335 124.508999,113.669999 124.635,113.81 C124.761001,113.950001 124.977998,114.02 125.286,114.02 C125.724669,114.02 126.018666,113.982667 126.168,113.908 L126.266,114.972 Z M129.178,106.278 L127.862,106.278 L127.862,104.836 L129.178,104.836 L129.178,106.278 Z M129.178,115 L127.862,115 L127.862,107.356 L129.178,107.356 L129.178,115 Z M137.648,115 L136.332,115 L136.332,109.82 C136.332,108.755995 135.856005,108.224 134.904,108.224 C134.017329,108.224 133.438668,108.765328 133.168,109.848 C133.084,110.156002 133.042,110.473332 133.042,110.8 L133.042,115 L131.726,115 L131.726,107.356 L133.014,107.356 L133.042,108.364 C133.592669,107.533329 134.353328,107.118 135.324,107.118 C136.061337,107.118 136.632998,107.334998 137.039,107.769 C137.445002,108.203002 137.648,108.77933 137.648,109.498 L137.648,115 Z M145.684,115 L144.424,115 C144.349333,114.785332 144.298,114.514668 144.27,114.188 C143.681997,114.888003 142.926005,115.238 142.002,115.238 C141.264663,115.238 140.681335,115.014002 140.252,114.566 C139.859998,114.155331 139.664,113.637336 139.664,113.012 C139.664,111.537326 140.517991,110.683335 142.226,110.45 L144.158,110.184 L144.158,109.372 C144.158,108.503996 143.668005,108.07 142.688,108.07 C142.230664,108.07 141.866668,108.186666 141.596,108.42 C141.371999,108.616001 141.194667,108.872665 141.064,109.19 L139.916,108.742 C140.065334,108.293998 140.359331,107.920668 140.798,107.622 C141.302003,107.285998 141.931996,107.118 142.688,107.118 C144.526676,107.118 145.446,107.873992 145.446,109.386 L145.446,113.684 C145.446,114.169336 145.525333,114.607998 145.684,115 Z M144.158,112.466 L144.158,111.136 L142.436,111.374 C141.474662,111.504667 140.994,112.031995 140.994,112.956 C140.994,113.357335 141.105999,113.672332 141.33,113.901 C141.554001,114.129668 141.866665,114.244 142.268,114.244 C142.790669,114.244 143.236331,114.076002 143.605,113.74 C143.973669,113.403998 144.158,112.979336 144.158,112.466 Z M151.424,114.972 C151.218666,115.074667 150.77067,115.126 150.08,115.126 C148.885327,115.126 148.288,114.547339 148.288,113.39 L148.288,108.42 L147.098,108.42 L147.098,107.356 L148.288,107.356 L148.288,105.452 L149.604,105.452 L149.604,107.356 L151.354,107.356 L151.354,108.42 L149.604,108.42 L149.604,113.124 C149.604,113.441335 149.666999,113.669999 149.793,113.81 C149.919001,113.950001 150.135998,114.02 150.444,114.02 C150.882669,114.02 151.176666,113.982667 151.326,113.908 L151.424,114.972 Z M154.336,106.278 L153.02,106.278 L153.02,104.836 L154.336,104.836 L154.336,106.278 Z M154.336,115 L153.02,115 L153.02,107.356 L154.336,107.356 L154.336,115 Z M163.268,111.192 C163.268,112.396006 162.992669,113.35733 162.442,114.076 C161.844664,114.850671 160.990672,115.238 159.88,115.238 C158.759994,115.238 157.91067,114.850671 157.332,114.076 C156.781331,113.35733 156.506,112.396006 156.506,111.192 C156.506,109.978661 156.781331,109.01267 157.332,108.294 C157.920003,107.509996 158.769328,107.118 159.88,107.118 C160.981339,107.118 161.83533,107.509996 162.442,108.294 C162.992669,109.01267 163.268,109.978661 163.268,111.192 Z M161.924,111.192 C161.924,109.829327 161.55067,108.914669 160.804,108.448 C160.542665,108.289333 160.234668,108.21 159.88,108.21 C158.881328,108.21 158.246668,108.821327 157.976,110.044 C157.892,110.408002 157.85,110.790665 157.85,111.192 C157.85,112.54534 158.22333,113.450664 158.97,113.908 C159.222001,114.066667 159.525332,114.146 159.88,114.146 C160.897338,114.146 161.541332,113.539339 161.812,112.326 C161.886667,111.971332 161.924,111.593335 161.924,111.192 Z M171.36,115 L170.044,115 L170.044,109.82 C170.044,108.755995 169.568005,108.224 168.616,108.224 C167.729329,108.224 167.150668,108.765328 166.88,109.848 C166.796,110.156002 166.754,110.473332 166.754,110.8 L166.754,115 L165.438,115 L165.438,107.356 L166.726,107.356 L166.754,108.364 C167.304669,107.533329 168.065328,107.118 169.036,107.118 C169.773337,107.118 170.344998,107.334998 170.751,107.769 C171.157002,108.203002 171.36,108.77933 171.36,109.498 L171.36,115 Z M181.23,114.972 C181.024666,115.074667 180.57667,115.126 179.886,115.126 C178.691327,115.126 178.094,114.547339 178.094,113.39 L178.094,108.42 L176.904,108.42 L176.904,107.356 L178.094,107.356 L178.094,105.452 L179.41,105.452 L179.41,107.356 L181.16,107.356 L181.16,108.42 L179.41,108.42 L179.41,113.124 C179.41,113.441335 179.472999,113.669999 179.599,113.81 C179.725001,113.950001 179.941998,114.02 180.25,114.02 C180.688669,114.02 180.982666,113.982667 181.132,113.908 L181.23,114.972 Z M189.21,111.192 C189.21,112.396006 188.934669,113.35733 188.384,114.076 C187.786664,114.850671 186.932672,115.238 185.822,115.238 C184.701994,115.238 183.85267,114.850671 183.274,114.076 C182.723331,113.35733 182.448,112.396006 182.448,111.192 C182.448,109.978661 182.723331,109.01267 183.274,108.294 C183.862003,107.509996 184.711328,107.118 185.822,107.118 C186.923339,107.118 187.77733,107.509996 188.384,108.294 C188.934669,109.01267 189.21,109.978661 189.21,111.192 Z M187.866,111.192 C187.866,109.829327 187.49267,108.914669 186.746,108.448 C186.484665,108.289333 186.176668,108.21 185.822,108.21 C184.823328,108.21 184.188668,108.821327 183.918,110.044 C183.834,110.408002 183.792,110.790665 183.792,111.192 C183.792,112.54534 184.16533,113.450664 184.912,113.908 C185.164001,114.066667 185.467332,114.146 185.822,114.146 C186.839338,114.146 187.483332,113.539339 187.754,112.326 C187.828667,111.971332 187.866,111.593335 187.866,111.192 Z M200.69,107.356 L198.24,115 L196.602,115 L194.166,107.356 L195.552,107.356 L197.456,113.74 L199.36,107.356 L200.69,107.356 Z M208.166,111.528 L203.098,111.528 C203.135334,112.722673 203.489997,113.525331 204.162,113.936 C204.404668,114.094667 204.703332,114.174 205.058,114.174 C205.916671,114.174 206.495332,113.810004 206.794,113.082 L207.928,113.642 C207.377331,114.706005 206.406674,115.238 205.016,115.238 C203.951995,115.238 203.13067,114.846004 202.552,114.062 C202.019997,113.34333 201.754,112.386673 201.754,111.192 C201.754,110.034661 202.024664,109.08267 202.566,108.336 C203.154003,107.523996 203.975328,107.118 205.03,107.118 C206.056672,107.118 206.845331,107.47733 207.396,108.196 C207.909336,108.877337 208.166,109.763995 208.166,110.856 L208.166,111.528 Z M206.822,110.548 C206.747333,109.465328 206.430003,108.732669 205.87,108.35 C205.645999,108.200666 205.366002,108.126 205.03,108.126 C204.180662,108.126 203.602002,108.643995 203.294,109.68 C203.21,109.969335 203.154,110.258665 203.126,110.548 L206.822,110.548 Z M216.188,115 L214.872,115 L214.872,109.82 C214.872,108.755995 214.396005,108.224 213.444,108.224 C212.547996,108.224 211.969335,108.765328 211.708,109.848 C211.633333,110.156002 211.596,110.473332 211.596,110.8 L211.596,115 L210.28,115 L210.28,104.836 L211.596,104.836 L211.596,108.266 C212.137336,107.500663 212.893328,107.118 213.864,107.118 C214.601337,107.118 215.172998,107.334998 215.579,107.769 C215.985002,108.203002 216.188,108.77933 216.188,109.498 L216.188,115 Z M220.052,106.278 L218.736,106.278 L218.736,104.836 L220.052,104.836 L220.052,106.278 Z M220.052,115 L218.736,115 L218.736,107.356 L220.052,107.356 L220.052,115 Z M228.284,113.698 C227.761331,114.724672 226.82334,115.238 225.47,115.238 C224.405995,115.238 223.589336,114.836671 223.02,114.034 C222.487997,113.305996 222.222,112.358672 222.222,111.192 C222.222,110.006661 222.492664,109.045337 223.034,108.308 C223.622003,107.514663 224.447995,107.118 225.512,107.118 C226.83734,107.118 227.756664,107.617328 228.27,108.616 L227.192,109.274 C227.005332,108.891331 226.786001,108.618334 226.534,108.455 C226.281999,108.291666 225.946002,108.21 225.526,108.21 C224.564662,108.21 223.953335,108.811994 223.692,110.016 C223.608,110.380002 223.566,110.771998 223.566,111.192 C223.566,112.526673 223.915997,113.427331 224.616,113.894 C224.868001,114.062001 225.171332,114.146 225.526,114.146 C226.198003,114.146 226.683332,113.912669 226.982,113.446 C227.056667,113.324666 227.122,113.203334 227.178,113.082 L228.284,113.698 Z M231.434,115 L230.118,115 L230.118,104.836 L231.434,104.836 L231.434,115 Z M240.016,111.528 L234.948,111.528 C234.985334,112.722673 235.339997,113.525331 236.012,113.936 C236.254668,114.094667 236.553332,114.174 236.908,114.174 C237.766671,114.174 238.345332,113.810004 238.644,113.082 L239.778,113.642 C239.227331,114.706005 238.256674,115.238 236.866,115.238 C235.801995,115.238 234.98067,114.846004 234.402,114.062 C233.869997,113.34333 233.604,112.386673 233.604,111.192 C233.604,110.034661 233.874664,109.08267 234.416,108.336 C235.004003,107.523996 235.825328,107.118 236.88,107.118 C237.906672,107.118 238.695331,107.47733 239.246,108.196 C239.759336,108.877337 240.016,109.763995 240.016,110.856 L240.016,111.528 Z M238.672,110.548 C238.597333,109.465328 238.280003,108.732669 237.72,108.35 C237.495999,108.200666 237.216002,108.126 236.88,108.126 C236.030662,108.126 235.452002,108.643995 235.144,109.68 C235.06,109.969335 235.004,110.258665 234.976,110.548 L238.672,110.548 Z M251.51,115 L250.25,115 C250.175333,114.785332 250.124,114.514668 250.096,114.188 C249.507997,114.888003 248.752005,115.238 247.828,115.238 C247.090663,115.238 246.507335,115.014002 246.078,114.566 C245.685998,114.155331 245.49,113.637336 245.49,113.012 C245.49,111.537326 246.343991,110.683335 248.052,110.45 L249.984,110.184 L249.984,109.372 C249.984,108.503996 249.494005,108.07 248.514,108.07 C248.056664,108.07 247.692668,108.186666 247.422,108.42 C247.197999,108.616001 247.020667,108.872665 246.89,109.19 L245.742,108.742 C245.891334,108.293998 246.185331,107.920668 246.624,107.622 C247.128003,107.285998 247.757996,107.118 248.514,107.118 C250.352676,107.118 251.272,107.873992 251.272,109.386 L251.272,113.684 C251.272,114.169336 251.351333,114.607998 251.51,115 Z M249.984,112.466 L249.984,111.136 L248.262,111.374 C247.300662,111.504667 246.82,112.031995 246.82,112.956 C246.82,113.357335 246.931999,113.672332 247.156,113.901 C247.380001,114.129668 247.692665,114.244 248.094,114.244 C248.616669,114.244 249.062331,114.076002 249.431,113.74 C249.799669,113.403998 249.984,112.979336 249.984,112.466 Z M259.742,115 L258.426,115 L258.426,109.82 C258.426,108.755995 257.950005,108.224 256.998,108.224 C256.111329,108.224 255.532668,108.765328 255.262,109.848 C255.178,110.156002 255.136,110.473332 255.136,110.8 L255.136,115 L253.82,115 L253.82,107.356 L255.108,107.356 L255.136,108.364 C255.686669,107.533329 256.447328,107.118 257.418,107.118 C258.155337,107.118 258.726998,107.334998 259.133,107.769 C259.539002,108.203002 259.742,108.77933 259.742,109.498 L259.742,115 Z M268.352,115 L267.106,115 L267.078,113.964 C266.583331,114.813338 265.827338,115.238 264.81,115.238 C264.11933,115.238 263.531336,115.009336 263.046,114.552 C262.607331,114.150665 262.294668,113.600003 262.108,112.9 C261.977333,112.414664 261.912,111.88267 261.912,111.304 C261.912,110.118661 262.149998,109.15267 262.626,108.406 C263.176669,107.547329 263.960662,107.118 264.978,107.118 C265.995338,107.118 266.681332,107.481996 267.036,108.21 L267.036,104.836 L268.352,104.836 L268.352,115 Z M267.078,111.136 C267.078,109.847994 266.73267,108.956669 266.042,108.462 C265.799332,108.293999 265.514668,108.21 265.188,108.21 C264.49733,108.21 263.988668,108.55533 263.662,109.246 C263.409999,109.768669 263.284,110.412663 263.284,111.178 C263.284,112.064671 263.428665,112.764664 263.718,113.278 C264.044668,113.85667 264.515997,114.146 265.132,114.146 C266.093338,114.146 266.704665,113.506673 266.966,112.228 C267.040667,111.873332 267.078,111.509335 267.078,111.136 Z M284.592,115 L283.276,115 L283.276,109.82 C283.276,109.231997 283.145335,108.802668 282.884,108.532 C282.669332,108.326666 282.375335,108.224 282.002,108.224 C281.488664,108.224 281.078002,108.489997 280.77,109.022 C280.489999,109.507336 280.35,110.099997 280.35,110.8 L280.35,115 L279.034,115 L279.034,109.82 C279.034,109.21333 278.903335,108.784001 278.642,108.532 C278.427332,108.326666 278.138002,108.224 277.774,108.224 C276.980663,108.224 276.462668,108.765328 276.22,109.848 C276.145333,110.156002 276.108,110.473332 276.108,110.8 L276.108,115 L274.792,115 L274.792,107.356 L276.08,107.356 L276.094,108.308 C276.579336,107.514663 277.279329,107.118 278.194,107.118 C279.192672,107.118 279.845998,107.551996 280.154,108.42 C280.611336,107.551996 281.357995,107.118 282.394,107.118 C283.094004,107.118 283.635331,107.332665 284.018,107.762 C284.400669,108.191335 284.592,108.75133 284.592,109.442 L284.592,115 Z M293.524,111.192 C293.524,112.396006 293.248669,113.35733 292.698,114.076 C292.100664,114.850671 291.246672,115.238 290.136,115.238 C289.015994,115.238 288.16667,114.850671 287.588,114.076 C287.037331,113.35733 286.762,112.396006 286.762,111.192 C286.762,109.978661 287.037331,109.01267 287.588,108.294 C288.176003,107.509996 289.025328,107.118 290.136,107.118 C291.237339,107.118 292.09133,107.509996 292.698,108.294 C293.248669,109.01267 293.524,109.978661 293.524,111.192 Z M292.18,111.192 C292.18,109.829327 291.80667,108.914669 291.06,108.448 C290.798665,108.289333 290.490668,108.21 290.136,108.21 C289.137328,108.21 288.502668,108.821327 288.232,110.044 C288.148,110.408002 288.106,110.790665 288.106,111.192 C288.106,112.54534 288.47933,113.450664 289.226,113.908 C289.478001,114.066667 289.781332,114.146 290.136,114.146 C291.153338,114.146 291.797332,113.539339 292.068,112.326 C292.142667,111.971332 292.18,111.593335 292.18,111.192 Z M299.726,107.356 L299.614,108.49 C299.361999,108.434 299.114668,108.406 298.872,108.406 C298.013329,108.406 297.444001,108.835329 297.164,109.694 C297.061333,109.992668 297.01,110.351998 297.01,110.772 L297.01,115 L295.694,115 L295.694,107.356 L296.968,107.356 L296.996,108.406 C297.434669,107.649996 298.083329,107.272 298.942,107.272 C299.212668,107.272 299.473999,107.3 299.726,107.356 Z M307.104,111.528 L302.036,111.528 C302.073334,112.722673 302.427997,113.525331 303.1,113.936 C303.342668,114.094667 303.641332,114.174 303.996,114.174 C304.854671,114.174 305.433332,113.810004 305.732,113.082 L306.866,113.642 C306.315331,114.706005 305.344674,115.238 303.954,115.238 C302.889995,115.238 302.06867,114.846004 301.49,114.062 C300.957997,113.34333 300.692,112.386673 300.692,111.192 C300.692,110.034661 300.962664,109.08267 301.504,108.336 C302.092003,107.523996 302.913328,107.118 303.968,107.118 C304.994672,107.118 305.783331,107.47733 306.334,108.196 C306.847336,108.877337 307.104,109.763995 307.104,110.856 L307.104,111.528 Z M305.76,110.548 C305.685333,109.465328 305.368003,108.732669 304.808,108.35 C304.583999,108.200666 304.304002,108.126 303.968,108.126 C303.118662,108.126 302.540002,108.643995 302.232,109.68 C302.148,109.969335 302.092,110.258665 302.064,110.548 L305.76,110.548 Z M311.416,106.936 L311.234,111.584 L310.1,111.584 L309.918,106.936 L309.918,104.836 L311.416,104.836 L311.416,106.936 Z M311.458,115 L309.876,115 L309.876,113.138 L311.458,113.138 L311.458,115 Z" id="Manage-your-BMW-acco-Copy-4" fill="#A0A0A0"></path>
            </g>
        </g>
    </g>
</svg>
