<?xml version="1.0" encoding="UTF-8"?>
<svg width="67px" height="67px" viewBox="0 0 67 67" version="1.1" xmlns="http://www.w3.org/2000/svg" xmlns:xlink="http://www.w3.org/1999/xlink">
    <!-- Generator: Sketch 53 (72520) - https://sketchapp.com -->
    <title>Group 2</title>
    <desc>Created with Sketch.</desc>
    <g id="Page-1" stroke="none" stroke-width="1" fill="none" fill-rule="evenodd">
        <g id="App-Message" transform="translate(-154.000000, -104.000000)">
            <g id="Group-2" transform="translate(154.000000, 104.000000)">
                <rect id="Rectangle-4" fill="#1A1C1D" x="0" y="0" width="67" height="67"></rect>
                <path d="M58.362315,55.214265 C58.2867126,55.3419209 58.1467083,55.4213512 57.9955036,55.4213512 L8.00554443,55.4213512 C7.85153963,55.4213512 7.71153526,55.3419209 7.63873299,55.2171018 C7.56593072,55.089446 7.56593072,54.9334221 7.63873299,54.808603 L32.6351126,11.785735 C32.7079149,11.6580791 32.8479192,11.5786488 32.9991239,11.5786488 C33.1503287,11.5786488 33.290333,11.6580791 33.3631353,11.785735 L58.362315,54.8142766 C58.4351173,54.9390957 58.4351173,55.0866092 58.362315,55.214265 L58.362315,55.214265 Z M60.5939846,53.5150234 L35.6004051,10.4949922 C35.0627883,9.57019626 34.0743575,9 32.9991239,9 C31.9266905,9 30.9354596,9.57019626 30.3978428,10.4949922 L5.40146321,53.5150234 C4.86664653,54.4426562 4.86664653,55.5802119 5.39866312,56.5050078 C5.93627989,57.4298037 6.92751081,58 8.00554443,58 L57.9955036,58 C59.067937,58 60.061968,57.4298037 60.5995848,56.5050078 C61.1344015,55.5802119 61.1344015,54.4426562 60.5939846,53.5150234 L60.5939846,53.5150234 Z M30.8458568,40.8090083 L35.1523911,40.8090083 L35.1523911,25.3342789 L30.8458568,25.3342789 L30.8458568,40.8090083 Z M32.9991239,44.5053552 C31.4058743,44.5053552 30.115034,45.7932612 30.115034,47.3818677 C30.115034,48.9704742 31.4058743,50.2640537 32.9991239,50.2640537 C34.5951737,50.2640537 35.886014,48.9704742 35.886014,47.3818677 C35.886014,45.7932612 34.5951737,44.5053552 32.9991239,44.5053552 L32.9991239,44.5053552 Z" id="Fill-1" fill="#FFFFFF"></path>
            </g>
        </g>
    </g>
</svg>