<?xml version="1.0" encoding="UTF-8"?>
<svg width="332px" height="67px" viewBox="0 0 332 67" version="1.1" xmlns="http://www.w3.org/2000/svg" xmlns:xlink="http://www.w3.org/1999/xlink">
    <!-- Generator: Sketch 53 (72520) - https://sketchapp.com -->
    <title>Group</title>
    <desc>Created with Sketch.</desc>
    <g id="Page-1" stroke="none" stroke-width="1" fill="none" fill-rule="evenodd">
        <g id="App-Message" transform="translate(-22.000000, -171.000000)">
            <g id="Group" transform="translate(22.000000, 171.000000)">
                <rect id="Rectangle" fill="#1A1C1D" x="0" y="0" width="332" height="67"></rect>
                <path d="M35.551,9.028 L31.635,25 L29.039,25 L25.915,11.976 L22.637,25 L20.019,25 L16.367,9.028 L18.699,9.028 L21.581,22.558 L24.749,9.028 L27.147,9.028 L30.205,22.58 L33.263,9.028 L35.551,9.028 Z M46.925,19.544 L38.961,19.544 C39.019667,21.4213427 39.5769947,22.6826634 40.633,23.328 C41.0143352,23.5773346 41.4836639,23.702 42.041,23.702 C43.3903401,23.702 44.2996643,23.1300057 44.769,21.986 L46.551,22.866 C45.6856623,24.5380084 44.1603443,25.374 41.975,25.374 C40.3029916,25.374 39.0123379,24.7580062 38.103,23.526 C37.2669958,22.396661 36.849,20.8933427 36.849,19.016 C36.849,17.1973242 37.2743291,15.7013392 38.125,14.528 C39.0490046,13.2519936 40.3396584,12.614 41.997,12.614 C43.6103414,12.614 44.8496623,13.178661 45.715,14.308 C46.5216707,15.378672 46.925,16.7719914 46.925,18.488 L46.925,19.544 Z M44.813,18.004 C44.6956661,16.3026582 44.1970044,15.1513363 43.317,14.55 C42.9649982,14.3153322 42.5250026,14.198 41.997,14.198 C40.6623267,14.198 39.7530024,15.0119919 39.269,16.64 C39.1369993,17.0946689 39.0490002,17.5493311 39.005,18.004 L44.813,18.004 Z M52.755,11.536 C52.755,12.2546703 52.6670009,12.8486643 52.491,13.318 C52.3149991,13.7873357 51.9996689,14.2859974 51.545,14.814 C51.2516652,15.1366683 50.9730013,15.4153322 50.709,15.65 L49.851,14.748 C50.8043381,13.8386621 51.281,12.9733374 51.281,12.152 L51.281,11.954 L50.269,11.954 L50.269,9.028 L52.755,9.028 L52.755,11.536 Z M62.699,12.988 L62.523,14.77 C62.126998,14.6819996 61.7383352,14.638 61.357,14.638 C60.0076599,14.638 59.1130022,15.3126599 58.673,16.662 C58.5116659,17.1313357 58.431,17.6959967 58.431,18.356 L58.431,25 L56.363,25 L56.363,12.988 L58.365,12.988 L58.409,14.638 C59.0983368,13.4499941 60.1176599,12.856 61.467,12.856 C61.8923355,12.856 62.302998,12.8999996 62.699,12.988 Z M74.293,19.544 L66.329,19.544 C66.387667,21.4213427 66.9449947,22.6826634 68.001,23.328 C68.3823352,23.5773346 68.8516639,23.702 69.409,23.702 C70.7583401,23.702 71.6676643,23.1300057 72.137,21.986 L73.919,22.866 C73.0536623,24.5380084 71.5283443,25.374 69.343,25.374 C67.6709916,25.374 66.3803379,24.7580062 65.471,23.526 C64.6349958,22.396661 64.217,20.8933427 64.217,19.016 C64.217,17.1973242 64.6423291,15.7013392 65.493,14.528 C66.4170046,13.2519936 67.7076584,12.614 69.365,12.614 C70.9783414,12.614 72.2176623,13.178661 73.083,14.308 C73.8896707,15.378672 74.293,16.7719914 74.293,18.488 L74.293,19.544 Z M72.181,18.004 C72.0636661,16.3026582 71.5650044,15.1513363 70.685,14.55 C70.3329982,14.3153322 69.8930026,14.198 69.365,14.198 C68.0303267,14.198 67.1210024,15.0119919 66.637,16.64 C66.5049993,17.0946689 66.4170002,17.5493311 66.373,18.004 L72.181,18.004 Z M91.849,21.656 C91.849,22.9320064 91.3870046,23.8926634 90.463,24.538 C89.6563293,25.0953361 88.6003399,25.374 87.295,25.374 C85.9016597,25.374 84.7723377,25.0733363 83.907,24.472 C83.2469967,24.0173311 82.7850013,23.4306703 82.521,22.712 L84.259,21.854 C84.8163361,23.1006729 85.828326,23.724 87.295,23.724 C88.9816751,23.724 89.825,23.0860064 89.825,21.81 C89.825,21.2526639 89.6123355,20.8200015 89.187,20.512 C88.9083319,20.2919989 88.4390033,20.0940009 87.779,19.918 L86.041,19.434 C83.899656,18.8326637 82.829,17.7180081 82.829,16.09 C82.829,14.9166608 83.2836621,14.0220031 84.193,13.406 C84.985004,12.8779974 85.9896606,12.614 87.207,12.614 C88.3510057,12.614 89.3263293,12.8339978 90.133,13.274 C90.7050029,13.5820015 91.188998,14.0146639 91.585,14.572 L90.089,15.738 C89.7369982,15.1366637 89.1796705,14.6966681 88.417,14.418 C88.0649982,14.3006661 87.6470024,14.242 87.163,14.242 C85.5643253,14.242 84.765,14.8359941 84.765,16.024 C84.765,16.8306707 85.4396599,17.4173315 86.789,17.784 L88.505,18.246 C89.5610053,18.5246681 90.3456641,18.8913311 90.859,19.346 C91.5190033,19.9180029 91.849,20.6879952 91.849,21.656 Z M104.939,19.016 C104.939,20.9080095 104.506338,22.418661 103.641,23.548 C102.702329,24.7653394 101.360342,25.374 99.615,25.374 C97.8549912,25.374 96.5203379,24.7653394 95.611,23.548 C94.7456623,22.418661 94.313,20.9080095 94.313,19.016 C94.313,17.1093238 94.7456623,15.591339 95.611,14.462 C96.5350046,13.2299938 97.8696579,12.614 99.615,12.614 C101.345675,12.614 102.687662,13.2299938 103.641,14.462 C104.506338,15.591339 104.939,17.1093238 104.939,19.016 Z M102.827,19.016 C102.827,16.874656 102.240339,15.437337 101.067,14.704 C100.656331,14.4546654 100.172336,14.33 99.615,14.33 C98.0456588,14.33 97.0483355,15.2906571 96.623,17.212 C96.4909993,17.7840029 96.425,18.3853302 96.425,19.016 C96.425,21.1426773 97.0116608,22.5653297 98.185,23.284 C98.581002,23.5333346 99.0576639,23.658 99.615,23.658 C101.213675,23.658 102.225665,22.7046762 102.651,20.798 C102.768334,20.2406639 102.827,19.6466698 102.827,19.016 Z M114.685,12.988 L114.509,14.77 C114.112998,14.6819996 113.724335,14.638 113.343,14.638 C111.99366,14.638 111.099002,15.3126599 110.659,16.662 C110.497666,17.1313357 110.417,17.6959967 110.417,18.356 L110.417,25 L108.349,25 L108.349,12.988 L110.351,12.988 L110.395,14.638 C111.084337,13.4499941 112.10366,12.856 113.453,12.856 C113.878335,12.856 114.288998,12.8999996 114.685,12.988 Z M123.133,12.988 L122.957,14.77 C122.560998,14.6819996 122.172335,14.638 121.791,14.638 C120.44166,14.638 119.547002,15.3126599 119.107,16.662 C118.945666,17.1313357 118.865,17.6959967 118.865,18.356 L118.865,25 L116.797,25 L116.797,12.988 L118.799,12.988 L118.843,14.638 C119.532337,13.4499941 120.55166,12.856 121.901,12.856 C122.326335,12.856 122.736998,12.8999996 123.133,12.988 Z M134.067,12.988 L129.403,26.606 C128.845664,28.2340081 127.775008,29.048 126.191,29.048 C125.501663,29.048 124.81967,28.9453344 124.145,28.74 L124.519,27.024 C125.017669,27.2000009 125.457665,27.288 125.839,27.288 C126.660337,27.288 127.217665,26.8553377 127.511,25.99 L128.039,24.45 L123.507,12.988 L125.751,12.988 L129.051,21.612 L131.933,12.988 L134.067,12.988 Z M136.993,24.802 C136.993,25.6380042 136.839002,26.3566637 136.531,26.958 C136.164331,27.6766703 135.636337,28.3439969 134.947,28.96 L134.045,28.058 C135.027672,27.0753284 135.519,26.1220046 135.519,25.198 L135.519,25 L134.507,25 L134.507,22.074 L136.993,22.074 L136.993,24.802 Z M161.567,12.988 L158.289,25 L155.737,25 L153.427,15.364 L151.117,25 L148.543,25 L145.265,12.988 L147.421,12.988 L149.863,23.086 L152.349,12.988 L154.593,12.988 L157.035,23.086 L159.543,12.988 L161.567,12.988 Z M173.381,19.544 L165.417,19.544 C165.475667,21.4213427 166.032995,22.6826634 167.089,23.328 C167.470335,23.5773346 167.939664,23.702 168.497,23.702 C169.84634,23.702 170.755664,23.1300057 171.225,21.986 L173.007,22.866 C172.141662,24.5380084 170.616344,25.374 168.431,25.374 C166.758992,25.374 165.468338,24.7580062 164.559,23.526 C163.722996,22.396661 163.305,20.8933427 163.305,19.016 C163.305,17.1973242 163.730329,15.7013392 164.581,14.528 C165.505005,13.2519936 166.795658,12.614 168.453,12.614 C170.066341,12.614 171.305662,13.178661 172.171,14.308 C172.977671,15.378672 173.381,16.7719914 173.381,18.488 L173.381,19.544 Z M171.269,18.004 C171.151666,16.3026582 170.653004,15.1513363 169.773,14.55 C169.420998,14.3153322 168.981003,14.198 168.453,14.198 C167.118327,14.198 166.209002,15.0119919 165.725,16.64 C165.592999,17.0946689 165.505,17.5493311 165.461,18.004 L171.269,18.004 Z M192.301,19.544 L184.337,19.544 C184.395667,21.4213427 184.952995,22.6826634 186.009,23.328 C186.390335,23.5773346 186.859664,23.702 187.417,23.702 C188.76634,23.702 189.675664,23.1300057 190.145,21.986 L191.927,22.866 C191.061662,24.5380084 189.536344,25.374 187.351,25.374 C185.678992,25.374 184.388338,24.7580062 183.479,23.526 C182.642996,22.396661 182.225,20.8933427 182.225,19.016 C182.225,17.1973242 182.650329,15.7013392 183.501,14.528 C184.425005,13.2519936 185.715658,12.614 187.373,12.614 C188.986341,12.614 190.225662,13.178661 191.091,14.308 C191.897671,15.378672 192.301,16.7719914 192.301,18.488 L192.301,19.544 Z M190.189,18.004 C190.071666,16.3026582 189.573004,15.1513363 188.693,14.55 C188.340998,14.3153322 187.901003,14.198 187.373,14.198 C186.038327,14.198 185.129002,15.0119919 184.645,16.64 C184.512999,17.0946689 184.425,17.5493311 184.381,18.004 L190.189,18.004 Z M204.093,25 L201.783,25 L199.011,20.468 L196.195,25 L194.017,25 L197.933,18.862 L194.259,12.988 L196.547,12.988 L199.077,17.146 L201.673,12.988 L203.807,12.988 L200.155,18.752 L204.093,25 Z M216.611,18.796 C216.611,20.658676 216.244337,22.1693275 215.511,23.328 C214.630996,24.6920068 213.391675,25.374 211.793,25.374 C210.179659,25.374 209.101669,24.7726727 208.559,23.57 L208.559,29.048 L206.491,29.048 L206.491,12.988 L208.471,12.988 L208.515,14.616 C209.292337,13.2813267 210.472992,12.614 212.057,12.614 C213.142339,12.614 214.06633,12.9733297 214.829,13.692 C215.518337,14.3226698 216.009665,15.1879945 216.303,16.288 C216.508334,17.0506705 216.611,17.8866621 216.611,18.796 Z M214.455,18.994 C214.455,17.6006597 214.227669,16.4933374 213.773,15.672 C213.259664,14.7773289 212.519005,14.33 211.551,14.33 C210.040326,14.33 209.079669,15.3273234 208.669,17.322 C208.551666,17.8940029 208.493,18.4733304 208.493,19.06 C208.493,21.0840101 209.042994,22.4846628 210.143,23.262 C210.509668,23.5260013 210.949664,23.658 211.463,23.658 C212.548339,23.658 213.347664,23.1153388 213.861,22.03 C214.257002,21.2086626 214.455,20.1966727 214.455,18.994 Z M229.503,19.544 L221.539,19.544 C221.597667,21.4213427 222.154995,22.6826634 223.211,23.328 C223.592335,23.5773346 224.061664,23.702 224.619,23.702 C225.96834,23.702 226.877664,23.1300057 227.347,21.986 L229.129,22.866 C228.263662,24.5380084 226.738344,25.374 224.553,25.374 C222.880992,25.374 221.590338,24.7580062 220.681,23.526 C219.844996,22.396661 219.427,20.8933427 219.427,19.016 C219.427,17.1973242 219.852329,15.7013392 220.703,14.528 C221.627005,13.2519936 222.917658,12.614 224.575,12.614 C226.188341,12.614 227.427662,13.178661 228.293,14.308 C229.099671,15.378672 229.503,16.7719914 229.503,18.488 L229.503,19.544 Z M227.391,18.004 C227.273666,16.3026582 226.775004,15.1513363 225.895,14.55 C225.542998,14.3153322 225.103003,14.198 224.575,14.198 C223.240327,14.198 222.331002,15.0119919 221.847,16.64 C221.714999,17.0946689 221.627,17.5493311 221.583,18.004 L227.391,18.004 Z M239.161,12.988 L238.985,14.77 C238.588998,14.6819996 238.200335,14.638 237.819,14.638 C236.46966,14.638 235.575002,15.3126599 235.135,16.662 C234.973666,17.1313357 234.893,17.6959967 234.893,18.356 L234.893,25 L232.825,25 L232.825,12.988 L234.827,12.988 L234.871,14.638 C235.560337,13.4499941 236.57966,12.856 237.929,12.856 C238.354335,12.856 238.764998,12.8999996 239.161,12.988 Z M243.341,11.294 L241.273,11.294 L241.273,9.028 L243.341,9.028 L243.341,11.294 Z M243.341,25 L241.273,25 L241.273,12.988 L243.341,12.988 L243.341,25 Z M256.827,19.544 L248.863,19.544 C248.921667,21.4213427 249.478995,22.6826634 250.535,23.328 C250.916335,23.5773346 251.385664,23.702 251.943,23.702 C253.29234,23.702 254.201664,23.1300057 254.671,21.986 L256.453,22.866 C255.587662,24.5380084 254.062344,25.374 251.877,25.374 C250.204992,25.374 248.914338,24.7580062 248.005,23.526 C247.168996,22.396661 246.751,20.8933427 246.751,19.016 C246.751,17.1973242 247.176329,15.7013392 248.027,14.528 C248.951005,13.2519936 250.241658,12.614 251.899,12.614 C253.512341,12.614 254.751662,13.178661 255.617,14.308 C256.423671,15.378672 256.827,16.7719914 256.827,18.488 L256.827,19.544 Z M254.715,18.004 C254.597666,16.3026582 254.099004,15.1513363 253.219,14.55 C252.866998,14.3153322 252.427003,14.198 251.899,14.198 C250.564327,14.198 249.655002,15.0119919 249.171,16.64 C249.038999,17.0946689 248.951,17.5493311 248.907,18.004 L254.715,18.004 Z M269.455,25 L267.387,25 L267.387,16.86 C267.387,15.1879916 266.639007,14.352 265.143,14.352 C263.74966,14.352 262.840335,15.2026582 262.415,16.904 C262.282999,17.3880024 262.217,17.8866641 262.217,18.4 L262.217,25 L260.149,25 L260.149,12.988 L262.173,12.988 L262.217,14.572 C263.082338,13.2666601 264.277659,12.614 265.803,12.614 C266.961672,12.614 267.859997,12.9549966 268.498,13.637 C269.136003,14.3190034 269.455,15.224661 269.455,16.354 L269.455,25 Z M282.391,22.954 C281.569663,24.5673414 280.095677,25.374 277.969,25.374 C276.296992,25.374 275.013671,24.7433396 274.119,23.482 C273.282996,22.3379943 272.865,20.8493425 272.865,19.016 C272.865,17.153324 273.290329,15.6426725 274.141,14.484 C275.065005,13.2373271 276.362992,12.614 278.035,12.614 C280.117677,12.614 281.562329,13.3986588 282.369,14.968 L280.675,16.002 C280.381665,15.4006637 280.037002,14.971668 279.641,14.715 C279.244998,14.4583321 278.717003,14.33 278.057,14.33 C276.546326,14.33 275.585669,15.2759905 275.175,17.168 C275.042999,17.7400029 274.977,18.3559967 274.977,19.016 C274.977,21.1133438 275.526994,22.528663 276.627,23.262 C277.023002,23.5260013 277.499664,23.658 278.057,23.658 C279.113005,23.658 279.875664,23.291337 280.345,22.558 C280.462334,22.3673324 280.565,22.1766676 280.653,21.986 L282.391,22.954 Z M287.341,11.294 L285.273,11.294 L285.273,9.028 L287.341,9.028 L287.341,11.294 Z M287.341,25 L285.273,25 L285.273,12.988 L287.341,12.988 L287.341,25 Z M300.651,25 L298.583,25 L298.583,16.86 C298.583,15.1879916 297.835007,14.352 296.339,14.352 C294.94566,14.352 294.036335,15.2026582 293.611,16.904 C293.478999,17.3880024 293.413,17.8866641 293.413,18.4 L293.413,25 L291.345,25 L291.345,12.988 L293.369,12.988 L293.413,14.572 C294.278338,13.2666601 295.473659,12.614 296.999,12.614 C298.157672,12.614 299.055997,12.9549966 299.694,13.637 C300.332003,14.3190034 300.651,15.224661 300.651,16.354 L300.651,25 Z M314.181,24.274 C314.181,25.9166749 313.689672,27.1486626 312.707,27.97 C311.826996,28.6886703 310.617008,29.048 309.077,29.048 C307.81566,29.048 306.723005,28.8573352 305.799,28.476 C305.256331,28.2559989 304.875001,28.0360011 304.655,27.816 L305.711,26.386 C305.887001,26.5033339 306.194998,26.6793322 306.635,26.914 C307.339004,27.1926681 308.138329,27.332 309.033,27.332 C310.162339,27.332 310.976331,27.0386696 311.475,26.452 C311.900335,25.9533308 312.113,25.1906718 312.113,24.164 L312.113,22.228 C311.39433,23.5626733 310.228341,24.23 308.615,24.23 C307.045659,24.23 305.865004,23.6506725 305.073,22.492 C304.39833,21.4946617 304.061,20.1673416 304.061,18.51 C304.061,16.7206577 304.434996,15.3200051 305.183,14.308 C306.004337,13.178661 307.236325,12.614 308.879,12.614 C309.55367,12.614 310.176997,12.7533319 310.749,13.032 C311.394337,13.3400015 311.856332,13.7726639 312.135,14.33 L312.179,12.988 L314.181,12.988 L314.181,24.274 Z M312.179,18.246 C312.179,16.4126575 311.636339,15.2026696 310.551,14.616 C310.169665,14.4253324 309.722336,14.33 309.209,14.33 C307.214323,14.33 306.217,15.7086529 306.217,18.466 C306.217,19.7420064 306.444331,20.71733 306.899,21.392 C307.397669,22.1400037 308.138328,22.514 309.121,22.514 C310.646341,22.514 311.606998,21.6413421 312.003,19.896 C312.120334,19.3826641 312.179,18.8326696 312.179,18.246 Z M64.822,51.956 C64.4993317,52.1173341 63.7953388,52.198 62.71,52.198 C60.8326573,52.198 59.894,51.2886758 59.894,49.47 L59.894,41.66 L58.024,41.66 L58.024,39.988 L59.894,39.988 L59.894,36.996 L61.962,36.996 L61.962,39.988 L64.712,39.988 L64.712,41.66 L61.962,41.66 L61.962,49.052 C61.962,49.5506692 62.060999,49.9099989 62.259,50.13 C62.457001,50.3500011 62.7979976,50.46 63.282,50.46 C63.9713368,50.46 64.4333322,50.4013339 64.668,50.284 L64.822,51.956 Z M76.812,46.544 L68.848,46.544 C68.906667,48.4213427 69.4639947,49.6826634 70.52,50.328 C70.9013352,50.5773346 71.3706639,50.702 71.928,50.702 C73.2773401,50.702 74.1866643,50.1300057 74.656,48.986 L76.438,49.866 C75.5726623,51.5380084 74.0473443,52.374 71.862,52.374 C70.1899916,52.374 68.8993379,51.7580062 67.99,50.526 C67.1539958,49.396661 66.736,47.8933427 66.736,46.016 C66.736,44.1973242 67.1613291,42.7013392 68.012,41.528 C68.9360046,40.2519936 70.2266584,39.614 71.884,39.614 C73.4973414,39.614 74.7366623,40.178661 75.602,41.308 C76.4086707,42.378672 76.812,43.7719914 76.812,45.488 L76.812,46.544 Z M74.7,45.004 C74.5826661,43.3026582 74.0840044,42.1513363 73.204,41.55 C72.8519982,41.3153322 72.4120026,41.198 71.884,41.198 C70.5493267,41.198 69.6400024,42.0119919 69.156,43.64 C69.0239993,44.0946689 68.9360002,44.5493311 68.892,45.004 L74.7,45.004 Z M89.066,49.954 C88.2446626,51.5673414 86.7706773,52.374 84.644,52.374 C82.9719916,52.374 81.6886711,51.7433396 80.794,50.482 C79.9579958,49.3379943 79.54,47.8493425 79.54,46.016 C79.54,44.153324 79.9653291,42.6426725 80.816,41.484 C81.7400046,40.2373271 83.0379916,39.614 84.71,39.614 C86.7926771,39.614 88.2373293,40.3986588 89.044,41.968 L87.35,43.002 C87.0566652,42.4006637 86.712002,41.971668 86.316,41.715 C85.919998,41.4583321 85.3920033,41.33 84.732,41.33 C83.2213258,41.33 82.2606687,42.2759905 81.85,44.168 C81.7179993,44.7400029 81.652,45.3559967 81.652,46.016 C81.652,48.1133438 82.2019945,49.528663 83.302,50.262 C83.698002,50.5260013 84.1746639,50.658 84.732,50.658 C85.7880053,50.658 86.5506643,50.291337 87.02,49.558 C87.1373339,49.3673324 87.2399996,49.1766676 87.328,48.986 L89.066,49.954 Z M101.232,52 L99.164,52 L99.164,43.86 C99.164,42.1879916 98.4160075,41.352 96.92,41.352 C95.511993,41.352 94.6026687,42.2026582 94.192,43.904 C94.0746661,44.3880024 94.016,44.8866641 94.016,45.4 L94.016,52 L91.948,52 L91.948,36.028 L94.016,36.028 L94.016,41.418 C94.8666709,40.2153273 96.054659,39.614 97.58,39.614 C98.7386725,39.614 99.6369968,39.9549966 100.275,40.637 C100.913003,41.3190034 101.232,42.224661 101.232,43.354 L101.232,52 Z M114.542,52 L112.474,52 L112.474,43.86 C112.474,42.1879916 111.726007,41.352 110.23,41.352 C108.83666,41.352 107.927335,42.2026582 107.502,43.904 C107.369999,44.3880024 107.304,44.8866641 107.304,45.4 L107.304,52 L105.236,52 L105.236,39.988 L107.26,39.988 L107.304,41.572 C108.169338,40.2666601 109.364659,39.614 110.89,39.614 C112.048672,39.614 112.946997,39.9549966 113.585,40.637 C114.223003,41.3190034 114.542,42.224661 114.542,43.354 L114.542,52 Z M120.614,38.294 L118.546,38.294 L118.546,36.028 L120.614,36.028 L120.614,38.294 Z M120.614,52 L118.546,52 L118.546,39.988 L120.614,39.988 L120.614,52 Z M133.55,49.954 C132.728663,51.5673414 131.254677,52.374 129.128,52.374 C127.455992,52.374 126.172671,51.7433396 125.278,50.482 C124.441996,49.3379943 124.024,47.8493425 124.024,46.016 C124.024,44.153324 124.449329,42.6426725 125.3,41.484 C126.224005,40.2373271 127.521992,39.614 129.194,39.614 C131.276677,39.614 132.721329,40.3986588 133.528,41.968 L131.834,43.002 C131.540665,42.4006637 131.196002,41.971668 130.8,41.715 C130.403998,41.4583321 129.876003,41.33 129.216,41.33 C127.705326,41.33 126.744669,42.2759905 126.334,44.168 C126.201999,44.7400029 126.136,45.3559967 126.136,46.016 C126.136,48.1133438 126.685994,49.528663 127.786,50.262 C128.182002,50.5260013 128.658664,50.658 129.216,50.658 C130.272005,50.658 131.034664,50.291337 131.504,49.558 C131.621334,49.3673324 131.724,49.1766676 131.812,48.986 L133.55,49.954 Z M145.056,52 L143.076,52 C142.958666,51.662665 142.878,51.2373359 142.834,50.724 C141.909995,51.8240055 140.722007,52.374 139.27,52.374 C138.111328,52.374 137.19467,52.0220035 136.52,51.318 C135.903997,50.6726634 135.596,49.8586716 135.596,48.876 C135.596,46.5586551 136.937987,45.2166685 139.622,44.85 L142.658,44.432 L142.658,43.156 C142.658,41.7919932 141.888008,41.11 140.348,41.11 C139.62933,41.11 139.057335,41.2933315 138.632,41.66 C138.279998,41.9680015 138.001334,42.3713308 137.796,42.87 L135.992,42.166 C136.226668,41.4619965 136.688663,40.8753357 137.378,40.406 C138.170004,39.8779974 139.159994,39.614 140.348,39.614 C143.237348,39.614 144.682,40.8019881 144.682,43.178 L144.682,49.932 C144.682,50.6946705 144.806665,51.3839969 145.056,52 Z M142.658,48.018 L142.658,45.928 L139.952,46.302 C138.441326,46.5073344 137.686,47.3359927 137.686,48.788 C137.686,49.4186698 137.861998,49.9136649 138.214,50.273 C138.566002,50.6323351 139.05733,50.812 139.688,50.812 C140.509337,50.812 141.209664,50.5480026 141.789,50.02 C142.368336,49.4919974 142.658,48.8246707 142.658,48.018 Z M150.754,52 L148.686,52 L148.686,36.028 L150.754,36.028 L150.754,52 Z M170.4,52 L168.442,52 L168.398,50.372 C167.620663,51.7066733 166.432675,52.374 164.834,52.374 C163.748661,52.374 162.82467,52.0146703 162.062,51.296 C161.372663,50.6653302 160.881335,49.8000055 160.588,48.7 C160.382666,47.9373295 160.28,47.1013379 160.28,46.192 C160.28,44.329324 160.653996,42.8113392 161.402,41.638 C162.267338,40.2886599 163.499325,39.614 165.098,39.614 C166.696675,39.614 167.774664,40.1859943 168.332,41.33 L168.332,36.028 L170.4,36.028 L170.4,52 Z M168.398,45.928 C168.398,43.9039899 167.855339,42.5033372 166.77,41.726 C166.388665,41.4619987 165.941336,41.33 165.428,41.33 C164.342661,41.33 163.543336,41.8726612 163.03,42.958 C162.633998,43.7793374 162.436,44.7913273 162.436,45.994 C162.436,47.3873403 162.663331,48.4873293 163.118,49.294 C163.631336,50.2033379 164.371995,50.658 165.34,50.658 C166.850674,50.658 167.811331,49.6533434 168.222,47.644 C168.339334,47.0866639 168.398,46.5146696 168.398,45.928 Z M176.472,38.294 L174.404,38.294 L174.404,36.028 L176.472,36.028 L176.472,38.294 Z M176.472,52 L174.404,52 L174.404,39.988 L176.472,39.988 L176.472,52 Z M185.954,35.874 L185.844,37.37 C185.535998,37.2673328 185.081336,37.216 184.48,37.216 C183.511995,37.216 183.028,37.7586612 183.028,38.844 L183.028,39.988 L185.844,39.988 L185.844,41.66 L183.028,41.66 L183.028,52 L180.96,52 L180.96,41.66 L179.068,41.66 L179.068,39.988 L180.96,39.988 L180.96,38.8 C180.96,37.7879949 181.227664,37.0106694 181.763,36.468 C182.298336,35.9253306 183.057328,35.654 184.04,35.654 C184.949338,35.654 185.587331,35.7273326 185.954,35.874 Z M193.148,35.874 L193.038,37.37 C192.729998,37.2673328 192.275336,37.216 191.674,37.216 C190.705995,37.216 190.222,37.7586612 190.222,38.844 L190.222,39.988 L193.038,39.988 L193.038,41.66 L190.222,41.66 L190.222,52 L188.154,52 L188.154,41.66 L186.262,41.66 L186.262,39.988 L188.154,39.988 L188.154,38.8 C188.154,37.7879949 188.421664,37.0106694 188.957,36.468 C189.492336,35.9253306 190.251328,35.654 191.234,35.654 C192.143338,35.654 192.781331,35.7273326 193.148,35.874 Z M197.328,38.294 L195.26,38.294 L195.26,36.028 L197.328,36.028 L197.328,38.294 Z M197.328,52 L195.26,52 L195.26,39.988 L197.328,39.988 L197.328,52 Z M210.264,49.954 C209.442663,51.5673414 207.968677,52.374 205.842,52.374 C204.169992,52.374 202.886671,51.7433396 201.992,50.482 C201.155996,49.3379943 200.738,47.8493425 200.738,46.016 C200.738,44.153324 201.163329,42.6426725 202.014,41.484 C202.938005,40.2373271 204.235992,39.614 205.908,39.614 C207.990677,39.614 209.435329,40.3986588 210.242,41.968 L208.548,43.002 C208.254665,42.4006637 207.910002,41.971668 207.514,41.715 C207.117998,41.4583321 206.590003,41.33 205.93,41.33 C204.419326,41.33 203.458669,42.2759905 203.048,44.168 C202.915999,44.7400029 202.85,45.3559967 202.85,46.016 C202.85,48.1133438 203.399994,49.528663 204.5,50.262 C204.896002,50.5260013 205.372664,50.658 205.93,50.658 C206.986005,50.658 207.748664,50.291337 208.218,49.558 C208.335334,49.3673324 208.438,49.1766676 208.526,48.986 L210.264,49.954 Z M222.43,52 L220.428,52 L220.362,50.416 C219.525996,51.7213399 218.367341,52.374 216.886,52.374 C215.697994,52.374 214.77767,52.03667 214.125,51.362 C213.47233,50.68733 213.146,49.7706725 213.146,48.612 L213.146,39.988 L215.214,39.988 L215.214,48.238 C215.214,49.8366747 215.954659,50.636 217.436,50.636 C218.814674,50.636 219.731331,49.7853418 220.186,48.084 C220.303334,47.6146643 220.362,47.1233359 220.362,46.61 L220.362,39.988 L222.43,39.988 L222.43,52 Z M228.502,52 L226.434,52 L226.434,36.028 L228.502,36.028 L228.502,52 Z M237.896,51.956 C237.573332,52.1173341 236.869339,52.198 235.784,52.198 C233.906657,52.198 232.968,51.2886758 232.968,49.47 L232.968,41.66 L231.098,41.66 L231.098,39.988 L232.968,39.988 L232.968,36.996 L235.036,36.996 L235.036,39.988 L237.786,39.988 L237.786,41.66 L235.036,41.66 L235.036,49.052 C235.036,49.5506692 235.134999,49.9099989 235.333,50.13 C235.531001,50.3500011 235.871998,50.46 236.356,50.46 C237.045337,50.46 237.507332,50.4013339 237.742,50.284 L237.896,51.956 Z M242.472,38.294 L240.404,38.294 L240.404,36.028 L242.472,36.028 L242.472,38.294 Z M242.472,52 L240.404,52 L240.404,39.988 L242.472,39.988 L242.472,52 Z M255.958,46.544 L247.994,46.544 C248.052667,48.4213427 248.609995,49.6826634 249.666,50.328 C250.047335,50.5773346 250.516664,50.702 251.074,50.702 C252.42334,50.702 253.332664,50.1300057 253.802,48.986 L255.584,49.866 C254.718662,51.5380084 253.193344,52.374 251.008,52.374 C249.335992,52.374 248.045338,51.7580062 247.136,50.526 C246.299996,49.396661 245.882,47.8933427 245.882,46.016 C245.882,44.1973242 246.307329,42.7013392 247.158,41.528 C248.082005,40.2519936 249.372658,39.614 251.03,39.614 C252.643341,39.614 253.882662,40.178661 254.748,41.308 C255.554671,42.378672 255.958,43.7719914 255.958,45.488 L255.958,46.544 Z M253.846,45.004 C253.728666,43.3026582 253.230004,42.1513363 252.35,41.55 C251.997998,41.3153322 251.558003,41.198 251.03,41.198 C249.695327,41.198 248.786002,42.0119919 248.302,43.64 C248.169999,44.0946689 248.082,44.5493311 248.038,45.004 L253.846,45.004 Z M267.398,48.656 C267.398,49.9320064 266.936005,50.8926634 266.012,51.538 C265.205329,52.0953361 264.14934,52.374 262.844,52.374 C261.45066,52.374 260.321338,52.0733363 259.456,51.472 C258.795997,51.0173311 258.334001,50.4306703 258.07,49.712 L259.808,48.854 C260.365336,50.1006729 261.377326,50.724 262.844,50.724 C264.530675,50.724 265.374,50.0860064 265.374,48.81 C265.374,48.2526639 265.161335,47.8200015 264.736,47.512 C264.457332,47.2919989 263.988003,47.0940009 263.328,46.918 L261.59,46.434 C259.448656,45.8326637 258.378,44.7180081 258.378,43.09 C258.378,41.9166608 258.832662,41.0220031 259.742,40.406 C260.534004,39.8779974 261.538661,39.614 262.756,39.614 C263.900006,39.614 264.875329,39.8339978 265.682,40.274 C266.254003,40.5820015 266.737998,41.0146639 267.134,41.572 L265.638,42.738 C265.285998,42.1366637 264.72867,41.6966681 263.966,41.418 C263.613998,41.3006661 263.196002,41.242 262.712,41.242 C261.113325,41.242 260.314,41.8359941 260.314,43.024 C260.314,43.8306707 260.98866,44.4173315 262.338,44.784 L264.054,45.246 C265.110005,45.5246681 265.894664,45.8913311 266.408,46.346 C267.068003,46.9180029 267.398,47.6879952 267.398,48.656 Z M272.744,52 L270.258,52 L270.258,49.074 L272.744,49.074 L272.744,52 Z" id="We’resorry,weexperiencingtechnicaldifficulties." fill="#FFFFFF" fill-rule="nonzero"></path>
            </g>
        </g>
    </g>
</svg>