<?xml version="1.0" encoding="UTF-8"?>
<svg width="82px" height="14px" viewBox="0 0 82 14" version="1.1" xmlns="http://www.w3.org/2000/svg" xmlns:xlink="http://www.w3.org/1999/xlink">
    <!-- Generator: Sketch 53.2 (72643) - https://sketchapp.com -->
    <title>MaybeLater</title>
    <desc>Created with Sketch.</desc>
    <g id="Page-1" stroke="none" stroke-width="1" fill="none" fill-rule="evenodd">
        <g id="Enable-Notifications-Copy-3" transform="translate(-148.000000, -609.000000)" fill="#FFFFFF" fill-rule="nonzero">
            <path d="M158.292,620 L156.976,620 L156.976,611.362 L153.812,620 L152.412,620 L149.374,611.376 L149.374,620 L148.058,620 L148.058,609.836 L150.13,609.836 L153.154,618.432 L156.29,609.836 L158.292,609.836 L158.292,620 Z M166.328,620 L165.068,620 C164.993333,619.785332 164.942,619.514668 164.914,619.188 C164.325997,619.888003 163.570005,620.238 162.646,620.238 C161.908663,620.238 161.325335,620.014002 160.896,619.566 C160.503998,619.155331 160.308,618.637336 160.308,618.012 C160.308,616.537326 161.161991,615.683335 162.87,615.45 L164.802,615.184 L164.802,614.372 C164.802,613.503996 164.312005,613.07 163.332,613.07 C162.874664,613.07 162.510668,613.186666 162.24,613.42 C162.015999,613.616001 161.838667,613.872665 161.708,614.19 L160.56,613.742 C160.709334,613.293998 161.003331,612.920668 161.442,612.622 C161.946003,612.285998 162.575996,612.118 163.332,612.118 C165.170676,612.118 166.09,612.873992 166.09,614.386 L166.09,618.684 C166.09,619.169336 166.169333,619.607998 166.328,620 Z M164.802,617.466 L164.802,616.136 L163.08,616.374 C162.118662,616.504667 161.638,617.031995 161.638,617.956 C161.638,618.357335 161.749999,618.672332 161.974,618.901 C162.198001,619.129668 162.510665,619.244 162.912,619.244 C163.434669,619.244 163.880331,619.076002 164.249,618.74 C164.617669,618.403998 164.802,617.979336 164.802,617.466 Z M174.252,612.356 L171.284,621.022 C170.929332,622.058005 170.248005,622.576 169.24,622.576 C168.801331,622.576 168.367335,622.510667 167.938,622.38 L168.176,621.288 C168.493335,621.400001 168.773332,621.456 169.016,621.456 C169.538669,621.456 169.893332,621.180669 170.08,620.63 L170.416,619.65 L167.532,612.356 L168.96,612.356 L171.06,617.844 L172.894,612.356 L174.252,612.356 Z M182.134,616.052 C182.134,617.237339 181.900669,618.198663 181.434,618.936 C180.873997,619.804004 180.085338,620.238 179.068,620.238 C178.367997,620.238 177.798669,620.028002 177.36,619.608 C177.201333,619.467999 177.075334,619.295334 176.982,619.09 L176.954,620 L175.694,620 L175.694,609.836 L177.01,609.836 L177.01,613.392 C177.504669,612.542662 178.246662,612.118 179.236,612.118 C179.92667,612.118 180.514664,612.346664 181,612.804 C181.438669,613.205335 181.751332,613.755997 181.938,614.456 C182.068667,614.941336 182.134,615.47333 182.134,616.052 Z M180.762,616.178 C180.762,615.291329 180.617335,614.586669 180.328,614.064 C180.001332,613.494664 179.530003,613.21 178.914,613.21 C177.952662,613.21 177.341335,613.84466 177.08,615.114 C177.005333,615.478002 176.968,615.846665 176.968,616.22 C176.968,617.508006 177.317996,618.399331 178.018,618.894 C178.251334,619.062001 178.531332,619.146 178.858,619.146 C179.54867,619.146 180.057332,618.80067 180.384,618.11 C180.636001,617.587331 180.762,616.943337 180.762,616.178 Z M190.338,616.528 L185.27,616.528 C185.307334,617.722673 185.661997,618.525331 186.334,618.936 C186.576668,619.094667 186.875332,619.174 187.23,619.174 C188.088671,619.174 188.667332,618.810004 188.966,618.082 L190.1,618.642 C189.549331,619.706005 188.578674,620.238 187.188,620.238 C186.123995,620.238 185.30267,619.846004 184.724,619.062 C184.191997,618.34333 183.926,617.386673 183.926,616.192 C183.926,615.034661 184.196664,614.08267 184.738,613.336 C185.326003,612.523996 186.147328,612.118 187.202,612.118 C188.228672,612.118 189.017331,612.47733 189.568,613.196 C190.081336,613.877337 190.338,614.763995 190.338,615.856 L190.338,616.528 Z M188.994,615.548 C188.919333,614.465328 188.602003,613.732669 188.042,613.35 C187.817999,613.200666 187.538002,613.126 187.202,613.126 C186.352662,613.126 185.774002,613.643995 185.466,614.68 C185.382,614.969335 185.326,615.258665 185.298,615.548 L188.994,615.548 Z M202.602,620 L196.344,620 L196.344,609.836 L197.744,609.836 L197.744,618.768 L202.602,618.768 L202.602,620 Z M209.63,620 L208.37,620 C208.295333,619.785332 208.244,619.514668 208.216,619.188 C207.627997,619.888003 206.872005,620.238 205.948,620.238 C205.210663,620.238 204.627335,620.014002 204.198,619.566 C203.805998,619.155331 203.61,618.637336 203.61,618.012 C203.61,616.537326 204.463991,615.683335 206.172,615.45 L208.104,615.184 L208.104,614.372 C208.104,613.503996 207.614005,613.07 206.634,613.07 C206.176664,613.07 205.812668,613.186666 205.542,613.42 C205.317999,613.616001 205.140667,613.872665 205.01,614.19 L203.862,613.742 C204.011334,613.293998 204.305331,612.920668 204.744,612.622 C205.248003,612.285998 205.877996,612.118 206.634,612.118 C208.472676,612.118 209.392,612.873992 209.392,614.386 L209.392,618.684 C209.392,619.169336 209.471333,619.607998 209.63,620 Z M208.104,617.466 L208.104,616.136 L206.382,616.374 C205.420662,616.504667 204.94,617.031995 204.94,617.956 C204.94,618.357335 205.051999,618.672332 205.276,618.901 C205.500001,619.129668 205.812665,619.244 206.214,619.244 C206.736669,619.244 207.182331,619.076002 207.551,618.74 C207.919669,618.403998 208.104,617.979336 208.104,617.466 Z M215.37,619.972 C215.164666,620.074667 214.71667,620.126 214.026,620.126 C212.831327,620.126 212.234,619.547339 212.234,618.39 L212.234,613.42 L211.044,613.42 L211.044,612.356 L212.234,612.356 L212.234,610.452 L213.55,610.452 L213.55,612.356 L215.3,612.356 L215.3,613.42 L213.55,613.42 L213.55,618.124 C213.55,618.441335 213.612999,618.669999 213.739,618.81 C213.865001,618.950001 214.081998,619.02 214.39,619.02 C214.828669,619.02 215.122666,618.982667 215.272,618.908 L215.37,619.972 Z M223,616.528 L217.932,616.528 C217.969334,617.722673 218.323997,618.525331 218.996,618.936 C219.238668,619.094667 219.537332,619.174 219.892,619.174 C220.750671,619.174 221.329332,618.810004 221.628,618.082 L222.762,618.642 C222.211331,619.706005 221.240674,620.238 219.85,620.238 C218.785995,620.238 217.96467,619.846004 217.386,619.062 C216.853997,618.34333 216.588,617.386673 216.588,616.192 C216.588,615.034661 216.858664,614.08267 217.4,613.336 C217.988003,612.523996 218.809328,612.118 219.864,612.118 C220.890672,612.118 221.679331,612.47733 222.23,613.196 C222.743336,613.877337 223,614.763995 223,615.856 L223,616.528 Z M221.656,615.548 C221.581333,614.465328 221.264003,613.732669 220.704,613.35 C220.479999,613.200666 220.200002,613.126 219.864,613.126 C219.014662,613.126 218.436002,613.643995 218.128,614.68 C218.044,614.969335 217.988,615.258665 217.96,615.548 L221.656,615.548 Z M229.146,612.356 L229.034,613.49 C228.781999,613.434 228.534668,613.406 228.292,613.406 C227.433329,613.406 226.864001,613.835329 226.584,614.694 C226.481333,614.992668 226.43,615.351998 226.43,615.772 L226.43,620 L225.114,620 L225.114,612.356 L226.388,612.356 L226.416,613.406 C226.854669,612.649996 227.503329,612.272 228.362,612.272 C228.632668,612.272 228.893999,612.3 229.146,612.356 Z" id="MaybeLater"></path>
        </g>
    </g>
</svg>