<?xml version="1.0" encoding="UTF-8"?>
<svg width="108px" height="14px" viewBox="0 0 108 14" version="1.1" xmlns="http://www.w3.org/2000/svg" xmlns:xlink="http://www.w3.org/1999/xlink">
    <!-- Generator: Sketch 53.2 (72643) - https://sketchapp.com -->
    <title>Vielleichtspäter</title>
    <desc>Created with Sketch.</desc>
    <g id="Page-1" stroke="none" stroke-width="1" fill="none" fill-rule="evenodd">
        <g id="Enable-Notifications" transform="translate(-134.000000, -609.000000)" fill="#FFFFFF" fill-rule="nonzero">
            <path d="M142.906,609.836 L139.462,620 L137.796,620 L134.38,609.836 L135.836,609.836 L138.678,618.6 L141.492,609.836 L142.906,609.836 Z M145.706,611.278 L144.39,611.278 L144.39,609.836 L145.706,609.836 L145.706,611.278 Z M145.706,620 L144.39,620 L144.39,612.356 L145.706,612.356 L145.706,620 Z M154.288,616.528 L149.22,616.528 C149.257334,617.722673 149.611997,618.525331 150.284,618.936 C150.526668,619.094667 150.825332,619.174 151.18,619.174 C152.038671,619.174 152.617332,618.810004 152.916,618.082 L154.05,618.642 C153.499331,619.706005 152.528674,620.238 151.138,620.238 C150.073995,620.238 149.25267,619.846004 148.674,619.062 C148.141997,618.34333 147.876,617.386673 147.876,616.192 C147.876,615.034661 148.146664,614.08267 148.688,613.336 C149.276003,612.523996 150.097328,612.118 151.152,612.118 C152.178672,612.118 152.967331,612.47733 153.518,613.196 C154.031336,613.877337 154.288,614.763995 154.288,615.856 L154.288,616.528 Z M152.944,615.548 C152.869333,614.465328 152.552003,613.732669 151.992,613.35 C151.767999,613.200666 151.488002,613.126 151.152,613.126 C150.302662,613.126 149.724002,613.643995 149.416,614.68 C149.332,614.969335 149.276,615.258665 149.248,615.548 L152.944,615.548 Z M157.718,620 L156.402,620 L156.402,609.836 L157.718,609.836 L157.718,620 Z M161.582,620 L160.266,620 L160.266,609.836 L161.582,609.836 L161.582,620 Z M170.164,616.528 L165.096,616.528 C165.133334,617.722673 165.487997,618.525331 166.16,618.936 C166.402668,619.094667 166.701332,619.174 167.056,619.174 C167.914671,619.174 168.493332,618.810004 168.792,618.082 L169.926,618.642 C169.375331,619.706005 168.404674,620.238 167.014,620.238 C165.949995,620.238 165.12867,619.846004 164.55,619.062 C164.017997,618.34333 163.752,617.386673 163.752,616.192 C163.752,615.034661 164.022664,614.08267 164.564,613.336 C165.152003,612.523996 165.973328,612.118 167.028,612.118 C168.054672,612.118 168.843331,612.47733 169.394,613.196 C169.907336,613.877337 170.164,614.763995 170.164,615.856 L170.164,616.528 Z M168.82,615.548 C168.745333,614.465328 168.428003,613.732669 167.868,613.35 C167.643999,613.200666 167.364002,613.126 167.028,613.126 C166.178662,613.126 165.600002,613.643995 165.292,614.68 C165.208,614.969335 165.152,615.258665 165.124,615.548 L168.82,615.548 Z M173.594,611.278 L172.278,611.278 L172.278,609.836 L173.594,609.836 L173.594,611.278 Z M173.594,620 L172.278,620 L172.278,612.356 L173.594,612.356 L173.594,620 Z M181.826,618.698 C181.303331,619.724672 180.36534,620.238 179.012,620.238 C177.947995,620.238 177.131336,619.836671 176.562,619.034 C176.029997,618.305996 175.764,617.358673 175.764,616.192 C175.764,615.006661 176.034664,614.045337 176.576,613.308 C177.164003,612.514663 177.989995,612.118 179.054,612.118 C180.37934,612.118 181.298664,612.617328 181.812,613.616 L180.734,614.274 C180.547332,613.891331 180.328001,613.618334 180.076,613.455 C179.823999,613.291666 179.488002,613.21 179.068,613.21 C178.106662,613.21 177.495335,613.811994 177.234,615.016 C177.15,615.380002 177.108,615.771998 177.108,616.192 C177.108,617.526673 177.457997,618.427331 178.158,618.894 C178.410001,619.062001 178.713332,619.146 179.068,619.146 C179.740003,619.146 180.225332,618.912669 180.524,618.446 C180.598667,618.324666 180.664,618.203334 180.72,618.082 L181.826,618.698 Z M189.568,620 L188.252,620 L188.252,614.82 C188.252,613.755995 187.776005,613.224 186.824,613.224 C185.927996,613.224 185.349335,613.765328 185.088,614.848 C185.013333,615.156002 184.976,615.473332 184.976,615.8 L184.976,620 L183.66,620 L183.66,609.836 L184.976,609.836 L184.976,613.266 C185.517336,612.500663 186.273328,612.118 187.244,612.118 C187.981337,612.118 188.552998,612.334998 188.959,612.769 C189.365002,613.203002 189.568,613.77933 189.568,614.498 L189.568,620 Z M195.546,619.972 C195.340666,620.074667 194.89267,620.126 194.202,620.126 C193.007327,620.126 192.41,619.547339 192.41,618.39 L192.41,613.42 L191.22,613.42 L191.22,612.356 L192.41,612.356 L192.41,610.452 L193.726,610.452 L193.726,612.356 L195.476,612.356 L195.476,613.42 L193.726,613.42 L193.726,618.124 C193.726,618.441335 193.788999,618.669999 193.915,618.81 C194.041001,618.950001 194.257998,619.02 194.566,619.02 C195.004669,619.02 195.298666,618.982667 195.448,618.908 L195.546,619.972 Z M206.2,617.872 C206.2,618.684004 205.906003,619.295331 205.318,619.706 C204.804664,620.060668 204.132671,620.238 203.302,620.238 C202.415329,620.238 201.696669,620.046669 201.146,619.664 C200.725998,619.374665 200.432001,619.001336 200.264,618.544 L201.37,617.998 C201.724668,618.791337 202.368662,619.188 203.302,619.188 C204.375339,619.188 204.912,618.782004 204.912,617.97 C204.912,617.615332 204.776668,617.340001 204.506,617.144 C204.328666,617.003999 204.030002,616.878001 203.61,616.766 L202.504,616.458 C201.141327,616.075331 200.46,615.366005 200.46,614.33 C200.46,613.58333 200.74933,613.014002 201.328,612.622 C201.832003,612.285998 202.471329,612.118 203.246,612.118 C203.974004,612.118 204.594664,612.257999 205.108,612.538 C205.472002,612.734001 205.779999,613.009332 206.032,613.364 L205.08,614.106 C204.855999,613.723331 204.501336,613.443334 204.016,613.266 C203.791999,613.191333 203.526002,613.154 203.218,613.154 C202.200662,613.154 201.692,613.531996 201.692,614.288 C201.692,614.801336 202.121329,615.174665 202.98,615.408 L204.072,615.702 C204.744003,615.879334 205.243332,616.112665 205.57,616.402 C205.990002,616.766002 206.2,617.255997 206.2,617.872 Z M214.586,616.052 C214.586,617.237339 214.352669,618.198663 213.886,618.936 C213.325997,619.804004 212.537338,620.238 211.52,620.238 C210.493328,620.238 209.807335,619.855337 209.462,619.09 L209.462,622.576 L208.146,622.576 L208.146,612.356 L209.406,612.356 L209.434,613.392 C209.928669,612.542662 210.679995,612.118 211.688,612.118 C212.37867,612.118 212.966664,612.346664 213.452,612.804 C213.890669,613.205335 214.203332,613.755997 214.39,614.456 C214.520667,614.941336 214.586,615.47333 214.586,616.052 Z M213.214,616.178 C213.214,615.291329 213.069335,614.586669 212.78,614.064 C212.453332,613.494664 211.982003,613.21 211.366,613.21 C210.404662,613.21 209.793335,613.84466 209.532,615.114 C209.457333,615.478002 209.42,615.846665 209.42,616.22 C209.42,617.508006 209.769996,618.399331 210.47,618.894 C210.703334,619.062001 210.983332,619.146 211.31,619.146 C212.00067,619.146 212.509332,618.80067 212.836,618.11 C213.088001,617.587331 213.214,616.943337 213.214,616.178 Z M222.244,620 L220.984,620 C220.909333,619.785332 220.858,619.514668 220.83,619.188 C220.241997,619.888003 219.486005,620.238 218.562,620.238 C217.824663,620.238 217.241335,620.014002 216.812,619.566 C216.419998,619.155331 216.224,618.637336 216.224,618.012 C216.224,616.537326 217.077991,615.683335 218.786,615.45 L220.718,615.184 L220.718,614.372 C220.718,613.503996 220.228005,613.07 219.248,613.07 C218.790664,613.07 218.426668,613.186666 218.156,613.42 C217.931999,613.616001 217.754667,613.872665 217.624,614.19 L216.476,613.742 C216.625334,613.293998 216.919331,612.920668 217.358,612.622 C217.862003,612.285998 218.491996,612.118 219.248,612.118 C221.086676,612.118 222.006,612.873992 222.006,614.386 L222.006,618.684 C222.006,619.169336 222.085333,619.607998 222.244,620 Z M220.718,617.466 L220.718,616.136 L218.996,616.374 C218.034662,616.504667 217.554,617.031995 217.554,617.956 C217.554,618.357335 217.665999,618.672332 217.89,618.901 C218.114001,619.129668 218.426665,619.244 218.828,619.244 C219.350669,619.244 219.796331,619.076002 220.165,618.74 C220.533669,618.403998 220.718,617.979336 220.718,617.466 Z M221.712,611.278 L220.368,611.278 L220.368,609.626 L221.712,609.626 L221.712,611.278 Z M218.268,611.278 L216.924,611.278 L216.924,609.626 L218.268,609.626 L218.268,611.278 Z M227.984,619.972 C227.778666,620.074667 227.33067,620.126 226.64,620.126 C225.445327,620.126 224.848,619.547339 224.848,618.39 L224.848,613.42 L223.658,613.42 L223.658,612.356 L224.848,612.356 L224.848,610.452 L226.164,610.452 L226.164,612.356 L227.914,612.356 L227.914,613.42 L226.164,613.42 L226.164,618.124 C226.164,618.441335 226.226999,618.669999 226.353,618.81 C226.479001,618.950001 226.695998,619.02 227.004,619.02 C227.442669,619.02 227.736666,618.982667 227.886,618.908 L227.984,619.972 Z M235.614,616.528 L230.546,616.528 C230.583334,617.722673 230.937997,618.525331 231.61,618.936 C231.852668,619.094667 232.151332,619.174 232.506,619.174 C233.364671,619.174 233.943332,618.810004 234.242,618.082 L235.376,618.642 C234.825331,619.706005 233.854674,620.238 232.464,620.238 C231.399995,620.238 230.57867,619.846004 230,619.062 C229.467997,618.34333 229.202,617.386673 229.202,616.192 C229.202,615.034661 229.472664,614.08267 230.014,613.336 C230.602003,612.523996 231.423328,612.118 232.478,612.118 C233.504672,612.118 234.293331,612.47733 234.844,613.196 C235.357336,613.877337 235.614,614.763995 235.614,615.856 L235.614,616.528 Z M234.27,615.548 C234.195333,614.465328 233.878003,613.732669 233.318,613.35 C233.093999,613.200666 232.814002,613.126 232.478,613.126 C231.628662,613.126 231.050002,613.643995 230.742,614.68 C230.658,614.969335 230.602,615.258665 230.574,615.548 L234.27,615.548 Z M241.76,612.356 L241.648,613.49 C241.395999,613.434 241.148668,613.406 240.906,613.406 C240.047329,613.406 239.478001,613.835329 239.198,614.694 C239.095333,614.992668 239.044,615.351998 239.044,615.772 L239.044,620 L237.728,620 L237.728,612.356 L239.002,612.356 L239.03,613.406 C239.468669,612.649996 240.117329,612.272 240.976,612.272 C241.246668,612.272 241.507999,612.3 241.76,612.356 Z" id="Vielleichtspäter"></path>
        </g>
    </g>
</svg>